<?xml version="1.0" encoding="UTF-8" standalone="no"?>
<!DOCTYPE svg PUBLIC "-//W3C//DTD SVG 1.1//EN"
 "http://www.w3.org/Graphics/SVG/1.1/DTD/svg11.dtd">
<!-- Generated by graphviz version 2.38.0 (20140413.2041)
 -->
<!-- Title: G Pages: 1 -->
<svg width="766pt" height="114pt"
 viewBox="0.00 0.00 766.00 114.00" xmlns="http://www.w3.org/2000/svg" xmlns:xlink="http://www.w3.org/1999/xlink">
<g id="graph0" class="graph" transform="scale(1 1) rotate(0) translate(4 110)">
<title>G</title>
<polygon fill="white" stroke="none" points="-4,4 -4,-110 762,-110 762,4 -4,4"/>
<g id="clust1" class="cluster"><title>cluster_family_0</title>
</g>
<g id="clust4" class="cluster"><title>cluster_family_1</title>
</g>
<!-- union_0 -->
<g id="node1" class="node"><title>union_0</title>
<ellipse fill="#1abc9c" stroke="white" cx="501.5" cy="-53" rx="3.5" ry="3.5"/>
</g>
<!-- siblings_0 -->
<g id="node4" class="node"><title>siblings_0</title>
<polygon fill="#1abc9c" stroke="#cccccc" stroke-width="0" points="541,-53.5 534,-53.5 534,-52.5 541,-52.5 541,-53.5"/>
</g>
<!-- union_0&#45;&gt;siblings_0 -->
<g id="edge3" class="edge"><title>union_0&#45;&gt;siblings_0</title>
<path fill="none" stroke="#1abc9c" d="M505.083,-53C511.913,-53 526.732,-53 533.715,-53"/>
</g>
<!-- Angganjali -->
<g id="node2" class="node"><title>Angganjali</title>
<polygon fill="white" stroke="#cccccc" points="469,-98 289,-98 289,-62 469,-62 469,-98"/>
<text text-anchor="middle" x="379" y="-75.8" font-family="Helvetica, Arial, sans-serif" font-size="14.00">Angganjali</text>
</g>
<!-- Angganjali&#45;&gt;union_0 -->
<g id="edge1" class="edge"><title>Angganjali&#45;&gt;union_0</title>
<path fill="none" stroke="#1abc9c" d="M469.038,-66.5C487.794,-66.5 502,-66.5 502,-66.5 502,-66.5 502,-60.686 502,-56.6889"/>
</g>
<!-- Saka -->
<g id="node3" class="node"><title>Saka</title>
<polygon fill="white" stroke="#cccccc" points="469,-44 289,-44 289,-8 469,-8 469,-44"/>
<text text-anchor="middle" x="379" y="-21.8" font-family="Helvetica, Arial, sans-serif" font-size="14.00">Saka</text>
</g>
<!-- Saka&#45;&gt;union_0 -->
<g id="edge2" class="edge"><title>Saka&#45;&gt;union_0</title>
<path fill="none" stroke="#1abc9c" d="M469.038,-39.5C487.794,-39.5 502,-39.5 502,-39.5 502,-39.5 502,-45.314 502,-49.3111"/>
</g>
<!-- Ajisaka -->
<g id="node5" class="node"><title>Ajisaka</title>
<polygon fill="white" stroke="#cccccc" points="750,-71 570,-71 570,-35 750,-35 750,-71"/>
<text text-anchor="middle" x="660" y="-48.8" font-family="Helvetica, Arial, sans-serif" font-size="14.00">Ajisaka</text>
</g>
<!-- siblings_0&#45;&gt;Ajisaka -->
<g id="edge4" class="edge"><title>siblings_0&#45;&gt;Ajisaka</title>
<path fill="none" stroke="#1abc9c" d="M541.034,-53C541.034,-53 559.811,-53 559.811,-53"/>
<polygon fill="#1abc9c" stroke="#1abc9c" points="567.81,-43 567.811,-63 563.811,-63.0001 563.81,-43.0001 567.81,-43"/>
<polyline fill="none" stroke="#1abc9c" points="569.811,-53 559.811,-53.0001 "/>
</g>
<!-- union_1 -->
<g id="node6" class="node"><title>union_1</title>
<ellipse fill="#2ecc71" stroke="white" cx="220.5" cy="-80" rx="3.5" ry="3.5"/>
</g>
<!-- siblings_1 -->
<g id="node8" class="node"><title>siblings_1</title>
<polygon fill="#2ecc71" stroke="#cccccc" stroke-width="0" points="260,-80.5 253,-80.5 253,-79.5 260,-79.5 260,-80.5"/>
</g>
<!-- union_1&#45;&gt;siblings_1 -->
<g id="edge6" class="edge"><title>union_1&#45;&gt;siblings_1</title>
<path fill="none" stroke="#2ecc71" d="M224.083,-80C230.913,-80 245.732,-80 252.715,-80"/>
</g>
<!-- Ramadi -->
<g id="node7" class="node"><title>Ramadi</title>
<polygon fill="white" stroke="#cccccc" points="188,-98 8,-98 8,-62 188,-62 188,-98"/>
<text text-anchor="middle" x="98" y="-75.8" font-family="Helvetica, Arial, sans-serif" font-size="14.00">Ramadi</text>
</g>
<!-- Ramadi&#45;&gt;union_1 -->
<g id="edge5" class="edge"><title>Ramadi&#45;&gt;union_1</title>
<path fill="none" stroke="#2ecc71" d="M188.315,-80C200.938,-80 211.417,-80 216.733,-80"/>
</g>
<!-- siblings_1&#45;&gt;Angganjali -->
<g id="edge7" class="edge"><title>siblings_1&#45;&gt;Angganjali</title>
<path fill="none" stroke="#2ecc71" d="M260.034,-80C260.034,-80 278.811,-80 278.811,-80"/>
<polygon fill="#2ecc71" stroke="#2ecc71" points="286.81,-70 286.811,-90 282.811,-90.0001 282.81,-70.0001 286.81,-70"/>
<polyline fill="none" stroke="#2ecc71" points="288.811,-80 278.811,-80.0001 "/>
</g>
</g>
</svg>
