<?xml version="1.0" encoding="UTF-8" standalone="no"?>
<!DOCTYPE svg PUBLIC "-//W3C//DTD SVG 1.1//EN"
 "http://www.w3.org/Graphics/SVG/1.1/DTD/svg11.dtd">
<!-- Generated by graphviz version 2.38.0 (20140413.2041)
 -->
<!-- Title: G Pages: 1 -->
<svg width="521pt" height="208pt"
 viewBox="0.00 0.00 521.00 208.00" xmlns="http://www.w3.org/2000/svg" xmlns:xlink="http://www.w3.org/1999/xlink">
<g id="graph0" class="graph" transform="scale(1 1) rotate(0) translate(4 204)">
<title>G</title>
<polygon fill="white" stroke="none" points="-4,4 -4,-204 517,-204 517,4 -4,4"/>
<g id="clust1" class="cluster"><title>cluster_family_0</title>
</g>
<g id="clust3" class="cluster"><title>cluster_family_1</title>
</g>
<g id="clust5" class="cluster"><title>cluster_family_2</title>
</g>
<g id="clust7" class="cluster"><title>cluster_family_3</title>
</g>
<!-- union_0 -->
<g id="node1" class="node"><title>union_0</title>
<ellipse fill="#1abc9c" stroke="white" cx="501.5" cy="-93" rx="3.5" ry="3.5"/>
</g>
<!-- Antakawulan -->
<g id="node2" class="node"><title>Antakawulan</title>
<polygon fill="white" stroke="#cccccc" points="469,-138 289,-138 289,-102 469,-102 469,-138"/>
<text text-anchor="middle" x="379" y="-115.8" font-family="Helvetica, Arial, sans-serif" font-size="14.00">Antakawulan</text>
</g>
<!-- Antakawulan&#45;&gt;union_0 -->
<g id="edge1" class="edge"><title>Antakawulan&#45;&gt;union_0</title>
<path fill="none" stroke="#1abc9c" d="M469.116,-114C488.348,-114 503,-114 503,-114 503,-114 503,-102.188 503,-96.2812"/>
</g>
<!-- union_1 -->
<g id="node4" class="node"><title>union_1</title>
<ellipse fill="#2ecc71" stroke="white" cx="501.5" cy="-167" rx="3.5" ry="3.5"/>
</g>
<!-- Antakawulan&#45;&gt;union_1 -->
<g id="edge3" class="edge"><title>Antakawulan&#45;&gt;union_1</title>
<path fill="none" stroke="#2ecc71" d="M469.264,-126C487.391,-126 501,-126 501,-126 501,-126 501,-153.589 501,-163.504"/>
</g>
<!-- Barata -->
<g id="node3" class="node"><title>Barata</title>
<polygon fill="white" stroke="#cccccc" points="469,-84 289,-84 289,-48 469,-48 469,-84"/>
<text text-anchor="middle" x="379" y="-61.8" font-family="Helvetica, Arial, sans-serif" font-size="14.00">Barata</text>
</g>
<!-- Barata&#45;&gt;union_0 -->
<g id="edge2" class="edge"><title>Barata&#45;&gt;union_0</title>
<path fill="none" stroke="#1abc9c" d="M469.038,-66C487.794,-66 502,-66 502,-66 502,-66 502,-81.8269 502,-89.2458"/>
</g>
<!-- Arjuna -->
<g id="node5" class="node"><title>Arjuna</title>
<polygon fill="white" stroke="#cccccc" points="469,-192 289,-192 289,-156 469,-156 469,-192"/>
<text text-anchor="middle" x="379" y="-169.8" font-family="Helvetica, Arial, sans-serif" font-size="14.00">Arjuna</text>
</g>
<!-- Arjuna&#45;&gt;union_1 -->
<g id="edge4" class="edge"><title>Arjuna&#45;&gt;union_1</title>
<path fill="none" stroke="#2ecc71" d="M469.315,-167C481.938,-167 492.417,-167 497.733,-167"/>
</g>
<!-- siblings_2 -->
<g id="node6" class="node"><title>siblings_2</title>
<polygon fill="#3498db" stroke="#cccccc" stroke-width="0" points="260,-120.5 253,-120.5 253,-119.5 260,-119.5 260,-120.5"/>
</g>
<!-- siblings_2&#45;&gt;Antakawulan -->
<g id="edge5" class="edge"><title>siblings_2&#45;&gt;Antakawulan</title>
<path fill="none" stroke="#3498db" d="M260.034,-120C260.034,-120 278.811,-120 278.811,-120"/>
<polygon fill="#3498db" stroke="#3498db" points="286.81,-110 286.811,-130 282.811,-130 282.81,-110 286.81,-110"/>
<polyline fill="none" stroke="#3498db" points="288.811,-120 278.811,-120 "/>
</g>
<!-- union_3 -->
<g id="node7" class="node"><title>union_3</title>
<ellipse fill="#9b59b6" stroke="white" cx="220.5" cy="-66" rx="3.5" ry="3.5"/>
</g>
<!-- siblings_3 -->
<g id="node10" class="node"><title>siblings_3</title>
<polygon fill="#9b59b6" stroke="#cccccc" stroke-width="0" points="260,-66.5 253,-66.5 253,-65.5 260,-65.5 260,-66.5"/>
</g>
<!-- union_3&#45;&gt;siblings_3 -->
<g id="edge8" class="edge"><title>union_3&#45;&gt;siblings_3</title>
<path fill="none" stroke="#9b59b6" d="M224.083,-66C230.913,-66 245.732,-66 252.715,-66"/>
</g>
<!-- Kekayi -->
<g id="node8" class="node"><title>Kekayi</title>
<polygon fill="white" stroke="#cccccc" points="188,-98 8,-98 8,-62 188,-62 188,-98"/>
<text text-anchor="middle" x="98" y="-75.8" font-family="Helvetica, Arial, sans-serif" font-size="14.00">Kekayi</text>
</g>
<!-- Kekayi&#45;&gt;union_3 -->
<g id="edge6" class="edge"><title>Kekayi&#45;&gt;union_3</title>
<path fill="none" stroke="#9b59b6" d="M188.315,-66C200.938,-66 211.417,-66 216.733,-66"/>
</g>
<!-- Dasarata -->
<g id="node9" class="node"><title>Dasarata</title>
<polygon fill="white" stroke="#cccccc" points="188,-44 8,-44 8,-8 188,-8 188,-44"/>
<text text-anchor="middle" x="98" y="-21.8" font-family="Helvetica, Arial, sans-serif" font-size="14.00">Dasarata</text>
</g>
<!-- Dasarata&#45;&gt;union_3 -->
<g id="edge7" class="edge"><title>Dasarata&#45;&gt;union_3</title>
<path fill="none" stroke="#9b59b6" d="M188.038,-26C206.794,-26 221,-26 221,-26 221,-26 221,-52.4062 221,-62.3086"/>
</g>
<!-- siblings_3&#45;&gt;Barata -->
<g id="edge9" class="edge"><title>siblings_3&#45;&gt;Barata</title>
<path fill="none" stroke="#9b59b6" d="M260.034,-66C260.034,-66 278.811,-66 278.811,-66"/>
<polygon fill="#9b59b6" stroke="#9b59b6" points="286.81,-56 286.811,-76 282.811,-76.0001 282.81,-56.0001 286.81,-56"/>
<polyline fill="none" stroke="#9b59b6" points="288.811,-66 278.811,-66.0001 "/>
</g>
</g>
</svg>
