<?xml version="1.0" encoding="UTF-8" standalone="no"?>
<!DOCTYPE svg PUBLIC "-//W3C//DTD SVG 1.1//EN"
 "http://www.w3.org/Graphics/SVG/1.1/DTD/svg11.dtd">
<!-- Generated by graphviz version 2.38.0 (20140413.2041)
 -->
<!-- Title: G Pages: 1 -->
<svg width="766pt" height="168pt"
 viewBox="0.00 0.00 766.00 168.00" xmlns="http://www.w3.org/2000/svg" xmlns:xlink="http://www.w3.org/1999/xlink">
<g id="graph0" class="graph" transform="scale(1 1) rotate(0) translate(4 164)">
<title>G</title>
<polygon fill="white" stroke="none" points="-4,4 -4,-164 762,-164 762,4 -4,4"/>
<g id="clust1" class="cluster"><title>cluster_family_0</title>
</g>
<g id="clust4" class="cluster"><title>cluster_family_1</title>
</g>
<g id="clust7" class="cluster"><title>cluster_family_2</title>
</g>
<!-- union_0 -->
<g id="node1" class="node"><title>union_0</title>
<ellipse fill="#1abc9c" stroke="white" cx="501.5" cy="-107" rx="3.5" ry="3.5"/>
</g>
<!-- siblings_0 -->
<g id="node4" class="node"><title>siblings_0</title>
<polygon fill="#1abc9c" stroke="#cccccc" stroke-width="0" points="541,-107.5 534,-107.5 534,-106.5 541,-106.5 541,-107.5"/>
</g>
<!-- union_0&#45;&gt;siblings_0 -->
<g id="edge3" class="edge"><title>union_0&#45;&gt;siblings_0</title>
<path fill="none" stroke="#1abc9c" d="M505.083,-107C511.913,-107 526.732,-107 533.715,-107"/>
</g>
<!-- Antaboga -->
<g id="node2" class="node"><title>Antaboga</title>
<polygon fill="white" stroke="#cccccc" points="469,-98 289,-98 289,-62 469,-62 469,-98"/>
<text text-anchor="middle" x="379" y="-75.8" font-family="Helvetica, Arial, sans-serif" font-size="14.00">Antaboga</text>
</g>
<!-- Antaboga&#45;&gt;union_0 -->
<g id="edge1" class="edge"><title>Antaboga&#45;&gt;union_0</title>
<path fill="none" stroke="#1abc9c" d="M469.116,-89C488.348,-89 503,-89 503,-89 503,-89 503,-98.2988 503,-103.529"/>
</g>
<!-- union_1 -->
<g id="node7" class="node"><title>union_1</title>
<ellipse fill="#2ecc71" stroke="white" cx="501.5" cy="-33" rx="3.5" ry="3.5"/>
</g>
<!-- Antaboga&#45;&gt;union_1 -->
<g id="edge6" class="edge"><title>Antaboga&#45;&gt;union_1</title>
<path fill="none" stroke="#2ecc71" d="M469.264,-71C487.391,-71 501,-71 501,-71 501,-71 501,-45.9141 501,-36.5068"/>
</g>
<!-- Supreti -->
<g id="node3" class="node"><title>Supreti</title>
<polygon fill="white" stroke="#cccccc" points="469,-152 289,-152 289,-116 469,-116 469,-152"/>
<text text-anchor="middle" x="379" y="-129.8" font-family="Helvetica, Arial, sans-serif" font-size="14.00">Supreti</text>
</g>
<!-- Supreti&#45;&gt;union_0 -->
<g id="edge2" class="edge"><title>Supreti&#45;&gt;union_0</title>
<path fill="none" stroke="#1abc9c" d="M469.038,-140C487.794,-140 502,-140 502,-140 502,-140 502,-119.045 502,-110.532"/>
</g>
<!-- Nagagini -->
<g id="node5" class="node"><title>Nagagini</title>
<polygon fill="white" stroke="#cccccc" points="750,-98 570,-98 570,-62 750,-62 750,-98"/>
<text text-anchor="middle" x="660" y="-75.8" font-family="Helvetica, Arial, sans-serif" font-size="14.00">Nagagini</text>
</g>
<!-- siblings_0&#45;&gt;Nagagini -->
<g id="edge4" class="edge"><title>siblings_0&#45;&gt;Nagagini</title>
<path fill="none" stroke="#1abc9c" d="M538,-106.333C538,-102.175 538,-80 538,-80 538,-80 559.736,-80 559.736,-80"/>
<polygon fill="#1abc9c" stroke="#1abc9c" points="567.735,-70 567.736,-90 563.736,-90.0001 563.735,-70.0001 567.735,-70"/>
<polyline fill="none" stroke="#1abc9c" points="569.736,-80 559.736,-80.0001 "/>
</g>
<!-- Nagatatmala -->
<g id="node6" class="node"><title>Nagatatmala</title>
<polygon fill="white" stroke="#cccccc" points="750,-152 570,-152 570,-116 750,-116 750,-152"/>
<text text-anchor="middle" x="660" y="-129.8" font-family="Helvetica, Arial, sans-serif" font-size="14.00">Nagatatmala</text>
</g>
<!-- siblings_0&#45;&gt;Nagatatmala -->
<g id="edge5" class="edge"><title>siblings_0&#45;&gt;Nagatatmala</title>
<path fill="none" stroke="#1abc9c" d="M538,-107.519C538,-110.753 538,-128 538,-128 538,-128 559.736,-128 559.736,-128"/>
<polygon fill="#1abc9c" stroke="#1abc9c" points="567.735,-118 567.736,-138 563.736,-138 563.735,-118 567.735,-118"/>
<polyline fill="none" stroke="#1abc9c" points="569.736,-128 559.736,-128 "/>
</g>
<!-- siblings_1 -->
<g id="node8" class="node"><title>siblings_1</title>
<polygon fill="#2ecc71" stroke="#cccccc" stroke-width="0" points="541,-33.5 534,-33.5 534,-32.5 541,-32.5 541,-33.5"/>
</g>
<!-- union_1&#45;&gt;siblings_1 -->
<g id="edge7" class="edge"><title>union_1&#45;&gt;siblings_1</title>
<path fill="none" stroke="#2ecc71" d="M505.083,-33C511.913,-33 526.732,-33 533.715,-33"/>
</g>
<!-- Sri -->
<g id="node9" class="node"><title>Sri</title>
<polygon fill="white" stroke="#cccccc" points="750,-44 570,-44 570,-8 750,-8 750,-44"/>
<text text-anchor="middle" x="660" y="-21.8" font-family="Helvetica, Arial, sans-serif" font-size="14.00">Sri</text>
</g>
<!-- siblings_1&#45;&gt;Sri -->
<g id="edge8" class="edge"><title>siblings_1&#45;&gt;Sri</title>
<path fill="none" stroke="#2ecc71" d="M541.034,-33C541.034,-33 559.811,-33 559.811,-33"/>
<polygon fill="#2ecc71" stroke="#2ecc71" points="567.81,-23 567.811,-43 563.811,-43.0001 563.81,-23.0001 567.81,-23"/>
<polyline fill="none" stroke="#2ecc71" points="569.811,-33 559.811,-33.0001 "/>
</g>
<!-- union_2 -->
<g id="node10" class="node"><title>union_2</title>
<ellipse fill="#3498db" stroke="white" cx="220.5" cy="-80" rx="3.5" ry="3.5"/>
</g>
<!-- siblings_2 -->
<g id="node12" class="node"><title>siblings_2</title>
<polygon fill="#3498db" stroke="#cccccc" stroke-width="0" points="260,-80.5 253,-80.5 253,-79.5 260,-79.5 260,-80.5"/>
</g>
<!-- union_2&#45;&gt;siblings_2 -->
<g id="edge10" class="edge"><title>union_2&#45;&gt;siblings_2</title>
<path fill="none" stroke="#3498db" d="M224.083,-80C230.913,-80 245.732,-80 252.715,-80"/>
</g>
<!-- Anantawara -->
<g id="node11" class="node"><title>Anantawara</title>
<polygon fill="white" stroke="#cccccc" points="188,-98 8,-98 8,-62 188,-62 188,-98"/>
<text text-anchor="middle" x="98" y="-75.8" font-family="Helvetica, Arial, sans-serif" font-size="14.00">Anantawara</text>
</g>
<!-- Anantawara&#45;&gt;union_2 -->
<g id="edge9" class="edge"><title>Anantawara&#45;&gt;union_2</title>
<path fill="none" stroke="#3498db" d="M188.315,-80C200.938,-80 211.417,-80 216.733,-80"/>
</g>
<!-- siblings_2&#45;&gt;Antaboga -->
<g id="edge11" class="edge"><title>siblings_2&#45;&gt;Antaboga</title>
<path fill="none" stroke="#3498db" d="M260.034,-80C260.034,-80 278.811,-80 278.811,-80"/>
<polygon fill="#3498db" stroke="#3498db" points="286.81,-70 286.811,-90 282.811,-90.0001 282.81,-70.0001 286.81,-70"/>
<polyline fill="none" stroke="#3498db" points="288.811,-80 278.811,-80.0001 "/>
</g>
</g>
</svg>
