<?xml version="1.0" encoding="UTF-8" standalone="no"?>
<!DOCTYPE svg PUBLIC "-//W3C//DTD SVG 1.1//EN"
 "http://www.w3.org/Graphics/SVG/1.1/DTD/svg11.dtd">
<!-- Generated by graphviz version 2.38.0 (20140413.2041)
 -->
<!-- Title: G Pages: 1 -->
<svg width="766pt" height="276pt"
 viewBox="0.00 0.00 766.00 276.00" xmlns="http://www.w3.org/2000/svg" xmlns:xlink="http://www.w3.org/1999/xlink">
<g id="graph0" class="graph" transform="scale(1 1) rotate(0) translate(4 272)">
<title>G</title>
<polygon fill="white" stroke="none" points="-4,4 -4,-272 762,-272 762,4 -4,4"/>
<g id="clust1" class="cluster"><title>cluster_family_0</title>
</g>
<g id="clust4" class="cluster"><title>cluster_family_1</title>
</g>
<g id="clust6" class="cluster"><title>cluster_family_2</title>
</g>
<g id="clust9" class="cluster"><title>cluster_family_3</title>
</g>
<g id="clust12" class="cluster"><title>cluster_family_4</title>
</g>
<g id="clust15" class="cluster"><title>cluster_family_5</title>
</g>
<g id="clust18" class="cluster"><title>cluster_family_6</title>
</g>
<!-- union_0 -->
<g id="node1" class="node"><title>union_0</title>
<ellipse fill="#1abc9c" stroke="white" cx="501.5" cy="-161" rx="3.5" ry="3.5"/>
</g>
<!-- siblings_0 -->
<g id="node4" class="node"><title>siblings_0</title>
<polygon fill="#1abc9c" stroke="#cccccc" stroke-width="0" points="541,-161.5 534,-161.5 534,-160.5 541,-160.5 541,-161.5"/>
</g>
<!-- union_0&#45;&gt;siblings_0 -->
<g id="edge3" class="edge"><title>union_0&#45;&gt;siblings_0</title>
<path fill="none" stroke="#1abc9c" d="M505.083,-161C511.913,-161 526.732,-161 533.715,-161"/>
</g>
<!-- Basudewa -->
<g id="node2" class="node"><title>Basudewa</title>
<polygon fill="white" stroke="#cccccc" points="469,-152 289,-152 289,-116 469,-116 469,-152"/>
<text text-anchor="middle" x="379" y="-129.8" font-family="Helvetica, Arial, sans-serif" font-size="14.00">Basudewa</text>
</g>
<!-- Basudewa&#45;&gt;union_0 -->
<g id="edge1" class="edge"><title>Basudewa&#45;&gt;union_0</title>
<path fill="none" stroke="#1abc9c" d="M469.116,-140C488.348,-140 503,-140 503,-140 503,-140 503,-151.812 503,-157.719"/>
</g>
<!-- union_1 -->
<g id="node7" class="node"><title>union_1</title>
<ellipse fill="#2ecc71" stroke="white" cx="501.5" cy="-235" rx="3.5" ry="3.5"/>
</g>
<!-- Basudewa&#45;&gt;union_1 -->
<g id="edge6" class="edge"><title>Basudewa&#45;&gt;union_1</title>
<path fill="none" stroke="#2ecc71" d="M469.08,-128C480.893,-128 489,-128 489,-128 489,-128 489,-233.833 489,-233.833 489,-233.833 494.383,-233.833 498.084,-233.833"/>
</g>
<!-- union_2 -->
<g id="node9" class="node"><title>union_2</title>
<ellipse fill="#3498db" stroke="white" cx="501.5" cy="-80" rx="3.5" ry="3.5"/>
</g>
<!-- Basudewa&#45;&gt;union_2 -->
<g id="edge8" class="edge"><title>Basudewa&#45;&gt;union_2</title>
<path fill="none" stroke="#3498db" d="M469.264,-134C487.391,-134 501,-134 501,-134 501,-134 501,-95.5566 501,-83.5431"/>
</g>
<!-- union_3 -->
<g id="node13" class="node"><title>union_3</title>
<ellipse fill="#9b59b6" stroke="white" cx="501.5" cy="-26" rx="3.5" ry="3.5"/>
</g>
<!-- Basudewa&#45;&gt;union_3 -->
<g id="edge12" class="edge"><title>Basudewa&#45;&gt;union_3</title>
<path fill="none" stroke="#9b59b6" d="M469.046,-122C475.185,-122 479,-122 479,-122 479,-122 479,-27.1667 479,-27.1667 479,-27.1667 491.656,-27.1667 497.984,-27.1667"/>
</g>
<!-- Mahindra -->
<g id="node3" class="node"><title>Mahindra</title>
<polygon fill="white" stroke="#cccccc" points="469,-206 289,-206 289,-170 469,-170 469,-206"/>
<text text-anchor="middle" x="379" y="-183.8" font-family="Helvetica, Arial, sans-serif" font-size="14.00">Mahindra</text>
</g>
<!-- Mahindra&#45;&gt;union_0 -->
<g id="edge2" class="edge"><title>Mahindra&#45;&gt;union_0</title>
<path fill="none" stroke="#1abc9c" d="M469.038,-194C487.794,-194 502,-194 502,-194 502,-194 502,-173.045 502,-164.532"/>
</g>
<!-- Kresna -->
<g id="node5" class="node"><title>Kresna</title>
<polygon fill="white" stroke="#cccccc" points="750,-152 570,-152 570,-116 750,-116 750,-152"/>
<text text-anchor="middle" x="660" y="-129.8" font-family="Helvetica, Arial, sans-serif" font-size="14.00">Kresna</text>
</g>
<!-- siblings_0&#45;&gt;Kresna -->
<g id="edge4" class="edge"><title>siblings_0&#45;&gt;Kresna</title>
<path fill="none" stroke="#1abc9c" d="M538,-160.355C538,-157.484 538,-146 538,-146 538,-146 559.736,-146 559.736,-146"/>
<polygon fill="#1abc9c" stroke="#1abc9c" points="567.735,-136 567.736,-156 563.736,-156 563.735,-136 567.735,-136"/>
<polyline fill="none" stroke="#1abc9c" points="569.736,-146 559.736,-146 "/>
</g>
<!-- Baladewa -->
<g id="node6" class="node"><title>Baladewa</title>
<polygon fill="white" stroke="#cccccc" points="750,-206 570,-206 570,-170 750,-170 750,-206"/>
<text text-anchor="middle" x="660" y="-183.8" font-family="Helvetica, Arial, sans-serif" font-size="14.00">Baladewa</text>
</g>
<!-- siblings_0&#45;&gt;Baladewa -->
<g id="edge5" class="edge"><title>siblings_0&#45;&gt;Baladewa</title>
<path fill="none" stroke="#1abc9c" d="M538,-161.519C538,-164.753 538,-182 538,-182 538,-182 559.736,-182 559.736,-182"/>
<polygon fill="#1abc9c" stroke="#1abc9c" points="567.735,-172 567.736,-192 563.736,-192 563.735,-172 567.735,-172"/>
<polyline fill="none" stroke="#1abc9c" points="569.736,-182 559.736,-182 "/>
</g>
<!-- Maerah -->
<g id="node8" class="node"><title>Maerah</title>
<polygon fill="white" stroke="#cccccc" points="469,-260 289,-260 289,-224 469,-224 469,-260"/>
<text text-anchor="middle" x="379" y="-237.8" font-family="Helvetica, Arial, sans-serif" font-size="14.00">Maerah</text>
</g>
<!-- Maerah&#45;&gt;union_1 -->
<g id="edge7" class="edge"><title>Maerah&#45;&gt;union_1</title>
<path fill="none" stroke="#2ecc71" d="M469.315,-236.167C482.225,-236.167 492.892,-236.167 498.088,-236.167"/>
</g>
<!-- siblings_2 -->
<g id="node11" class="node"><title>siblings_2</title>
<polygon fill="#3498db" stroke="#cccccc" stroke-width="0" points="541,-80.5 534,-80.5 534,-79.5 541,-79.5 541,-80.5"/>
</g>
<!-- union_2&#45;&gt;siblings_2 -->
<g id="edge10" class="edge"><title>union_2&#45;&gt;siblings_2</title>
<path fill="none" stroke="#3498db" d="M505.083,-80C511.913,-80 526.732,-80 533.715,-80"/>
</g>
<!-- Badrahini -->
<g id="node10" class="node"><title>Badrahini</title>
<polygon fill="white" stroke="#cccccc" points="469,-98 289,-98 289,-62 469,-62 469,-98"/>
<text text-anchor="middle" x="379" y="-75.8" font-family="Helvetica, Arial, sans-serif" font-size="14.00">Badrahini</text>
</g>
<!-- Badrahini&#45;&gt;union_2 -->
<g id="edge9" class="edge"><title>Badrahini&#45;&gt;union_2</title>
<path fill="none" stroke="#3498db" d="M469.315,-80C481.938,-80 492.417,-80 497.733,-80"/>
</g>
<!-- Rara_Ireng -->
<g id="node12" class="node"><title>Rara_Ireng</title>
<polygon fill="white" stroke="#cccccc" points="750,-98 570,-98 570,-62 750,-62 750,-98"/>
<text text-anchor="middle" x="660" y="-75.8" font-family="Helvetica, Arial, sans-serif" font-size="14.00">Rara_Ireng</text>
</g>
<!-- siblings_2&#45;&gt;Rara_Ireng -->
<g id="edge11" class="edge"><title>siblings_2&#45;&gt;Rara_Ireng</title>
<path fill="none" stroke="#3498db" d="M541.034,-80C541.034,-80 559.811,-80 559.811,-80"/>
<polygon fill="#3498db" stroke="#3498db" points="567.81,-70 567.811,-90 563.811,-90.0001 563.81,-70.0001 567.81,-70"/>
<polyline fill="none" stroke="#3498db" points="569.811,-80 559.811,-80.0001 "/>
</g>
<!-- siblings_3 -->
<g id="node15" class="node"><title>siblings_3</title>
<polygon fill="#9b59b6" stroke="#cccccc" stroke-width="0" points="541,-26.5 534,-26.5 534,-25.5 541,-25.5 541,-26.5"/>
</g>
<!-- union_3&#45;&gt;siblings_3 -->
<g id="edge14" class="edge"><title>union_3&#45;&gt;siblings_3</title>
<path fill="none" stroke="#9b59b6" d="M505.083,-26C511.913,-26 526.732,-26 533.715,-26"/>
</g>
<!-- Ken_Sagupi -->
<g id="node14" class="node"><title>Ken_Sagupi</title>
<polygon fill="white" stroke="#cccccc" points="469,-44 289,-44 289,-8 469,-8 469,-44"/>
<text text-anchor="middle" x="379" y="-21.8" font-family="Helvetica, Arial, sans-serif" font-size="14.00">Ken_Sagupi</text>
</g>
<!-- Ken_Sagupi&#45;&gt;union_3 -->
<g id="edge13" class="edge"><title>Ken_Sagupi&#45;&gt;union_3</title>
<path fill="none" stroke="#9b59b6" d="M469.315,-24.8333C482.225,-24.8333 492.892,-24.8333 498.088,-24.8333"/>
</g>
<!-- Udawa -->
<g id="node16" class="node"><title>Udawa</title>
<polygon fill="white" stroke="#cccccc" points="750,-44 570,-44 570,-8 750,-8 750,-44"/>
<text text-anchor="middle" x="660" y="-21.8" font-family="Helvetica, Arial, sans-serif" font-size="14.00">Udawa</text>
</g>
<!-- siblings_3&#45;&gt;Udawa -->
<g id="edge15" class="edge"><title>siblings_3&#45;&gt;Udawa</title>
<path fill="none" stroke="#9b59b6" d="M541.034,-26C541.034,-26 559.811,-26 559.811,-26"/>
<polygon fill="#9b59b6" stroke="#9b59b6" points="567.81,-16 567.811,-36 563.811,-36.0001 563.81,-16.0001 567.81,-16"/>
<polyline fill="none" stroke="#9b59b6" points="569.811,-26 559.811,-26.0001 "/>
</g>
<!-- union_4 -->
<g id="node17" class="node"><title>union_4</title>
<ellipse fill="#34495e" stroke="white" cx="220.5" cy="-134" rx="3.5" ry="3.5"/>
</g>
<!-- siblings_4 -->
<g id="node19" class="node"><title>siblings_4</title>
<polygon fill="#34495e" stroke="#cccccc" stroke-width="0" points="260,-134.5 253,-134.5 253,-133.5 260,-133.5 260,-134.5"/>
</g>
<!-- union_4&#45;&gt;siblings_4 -->
<g id="edge17" class="edge"><title>union_4&#45;&gt;siblings_4</title>
<path fill="none" stroke="#34495e" d="M224.083,-134C230.913,-134 245.732,-134 252.715,-134"/>
</g>
<!-- Kuntiboja -->
<g id="node18" class="node"><title>Kuntiboja</title>
<polygon fill="white" stroke="#cccccc" points="188,-152 8,-152 8,-116 188,-116 188,-152"/>
<text text-anchor="middle" x="98" y="-129.8" font-family="Helvetica, Arial, sans-serif" font-size="14.00">Kuntiboja</text>
</g>
<!-- Kuntiboja&#45;&gt;union_4 -->
<g id="edge16" class="edge"><title>Kuntiboja&#45;&gt;union_4</title>
<path fill="none" stroke="#34495e" d="M188.315,-134C200.938,-134 211.417,-134 216.733,-134"/>
</g>
<!-- siblings_4&#45;&gt;Basudewa -->
<g id="edge18" class="edge"><title>siblings_4&#45;&gt;Basudewa</title>
<path fill="none" stroke="#34495e" d="M260.034,-134C260.034,-134 278.811,-134 278.811,-134"/>
<polygon fill="#34495e" stroke="#34495e" points="286.81,-124 286.811,-144 282.811,-144 282.81,-124 286.81,-124"/>
<polyline fill="none" stroke="#34495e" points="288.811,-134 278.811,-134 "/>
</g>
<!-- union_5 -->
<g id="node20" class="node"><title>union_5</title>
<ellipse fill="#f1c40f" stroke="white" cx="220.5" cy="-242" rx="3.5" ry="3.5"/>
</g>
<!-- siblings_5 -->
<g id="node22" class="node"><title>siblings_5</title>
<polygon fill="#f1c40f" stroke="#cccccc" stroke-width="0" points="260,-242.5 253,-242.5 253,-241.5 260,-241.5 260,-242.5"/>
</g>
<!-- union_5&#45;&gt;siblings_5 -->
<g id="edge20" class="edge"><title>union_5&#45;&gt;siblings_5</title>
<path fill="none" stroke="#f1c40f" d="M224.083,-242C230.913,-242 245.732,-242 252.715,-242"/>
</g>
<!-- Kurandapati -->
<g id="node21" class="node"><title>Kurandapati</title>
<polygon fill="white" stroke="#cccccc" points="188,-260 8,-260 8,-224 188,-224 188,-260"/>
<text text-anchor="middle" x="98" y="-237.8" font-family="Helvetica, Arial, sans-serif" font-size="14.00">Kurandapati</text>
</g>
<!-- Kurandapati&#45;&gt;union_5 -->
<g id="edge19" class="edge"><title>Kurandapati&#45;&gt;union_5</title>
<path fill="none" stroke="#f1c40f" d="M188.315,-242C200.938,-242 211.417,-242 216.733,-242"/>
</g>
<!-- siblings_5&#45;&gt;Maerah -->
<g id="edge21" class="edge"><title>siblings_5&#45;&gt;Maerah</title>
<path fill="none" stroke="#f1c40f" d="M260.034,-242C260.034,-242 278.811,-242 278.811,-242"/>
<polygon fill="#f1c40f" stroke="#f1c40f" points="286.81,-232 286.811,-252 282.811,-252 282.81,-232 286.81,-232"/>
<polyline fill="none" stroke="#f1c40f" points="288.811,-242 278.811,-242 "/>
</g>
<!-- siblings_6 -->
<g id="node23" class="node"><title>siblings_6</title>
<polygon fill="#e67e22" stroke="#cccccc" stroke-width="0" points="260,-80.5 253,-80.5 253,-79.5 260,-79.5 260,-80.5"/>
</g>
<!-- siblings_6&#45;&gt;Badrahini -->
<g id="edge22" class="edge"><title>siblings_6&#45;&gt;Badrahini</title>
<path fill="none" stroke="#e67e22" d="M260.034,-80C260.034,-80 278.811,-80 278.811,-80"/>
<polygon fill="#e67e22" stroke="#e67e22" points="286.81,-70 286.811,-90 282.811,-90.0001 282.81,-70.0001 286.81,-70"/>
<polyline fill="none" stroke="#e67e22" points="288.811,-80 278.811,-80.0001 "/>
</g>
</g>
</svg>
