<?xml version="1.0" encoding="UTF-8" standalone="no"?>
<!DOCTYPE svg PUBLIC "-//W3C//DTD SVG 1.1//EN"
 "http://www.w3.org/Graphics/SVG/1.1/DTD/svg11.dtd">
<!-- Generated by graphviz version 2.38.0 (20140413.2041)
 -->
<!-- Title: G Pages: 1 -->
<svg width="766pt" height="168pt"
 viewBox="0.00 0.00 766.00 168.00" xmlns="http://www.w3.org/2000/svg" xmlns:xlink="http://www.w3.org/1999/xlink">
<g id="graph0" class="graph" transform="scale(1 1) rotate(0) translate(4 164)">
<title>G</title>
<polygon fill="white" stroke="none" points="-4,4 -4,-164 762,-164 762,4 -4,4"/>
<g id="clust1" class="cluster"><title>cluster_family_0</title>
</g>
<g id="clust4" class="cluster"><title>cluster_family_1</title>
</g>
<g id="clust7" class="cluster"><title>cluster_family_2</title>
</g>
<!-- union_0 -->
<g id="node1" class="node"><title>union_0</title>
<ellipse fill="#1abc9c" stroke="white" cx="501.5" cy="-53" rx="3.5" ry="3.5"/>
</g>
<!-- siblings_0 -->
<g id="node4" class="node"><title>siblings_0</title>
<polygon fill="#1abc9c" stroke="#cccccc" stroke-width="0" points="541,-53.5 534,-53.5 534,-52.5 541,-52.5 541,-53.5"/>
</g>
<!-- union_0&#45;&gt;siblings_0 -->
<g id="edge3" class="edge"><title>union_0&#45;&gt;siblings_0</title>
<path fill="none" stroke="#1abc9c" d="M505.083,-53C511.913,-53 526.732,-53 533.715,-53"/>
</g>
<!-- Bismaka -->
<g id="node2" class="node"><title>Bismaka</title>
<polygon fill="white" stroke="#cccccc" points="469,-98 289,-98 289,-62 469,-62 469,-98"/>
<text text-anchor="middle" x="379" y="-75.8" font-family="Helvetica, Arial, sans-serif" font-size="14.00">Bismaka</text>
</g>
<!-- Bismaka&#45;&gt;union_0 -->
<g id="edge1" class="edge"><title>Bismaka&#45;&gt;union_0</title>
<path fill="none" stroke="#1abc9c" d="M469.116,-71C488.348,-71 503,-71 503,-71 503,-71 503,-61.7012 503,-56.4706"/>
</g>
<!-- union_1 -->
<g id="node7" class="node"><title>union_1</title>
<ellipse fill="#2ecc71" stroke="white" cx="501.5" cy="-134" rx="3.5" ry="3.5"/>
</g>
<!-- Bismaka&#45;&gt;union_1 -->
<g id="edge6" class="edge"><title>Bismaka&#45;&gt;union_1</title>
<path fill="none" stroke="#2ecc71" d="M469.264,-80C487.391,-80 501,-80 501,-80 501,-80 501,-118.443 501,-130.457"/>
</g>
<!-- Rumbini -->
<g id="node3" class="node"><title>Rumbini</title>
<polygon fill="white" stroke="#cccccc" points="469,-44 289,-44 289,-8 469,-8 469,-44"/>
<text text-anchor="middle" x="379" y="-21.8" font-family="Helvetica, Arial, sans-serif" font-size="14.00">Rumbini</text>
</g>
<!-- Rumbini&#45;&gt;union_0 -->
<g id="edge2" class="edge"><title>Rumbini&#45;&gt;union_0</title>
<path fill="none" stroke="#1abc9c" d="M469.038,-32C487.794,-32 502,-32 502,-32 502,-32 502,-43.3254 502,-49.3421"/>
</g>
<!-- Rukmara -->
<g id="node5" class="node"><title>Rukmara</title>
<polygon fill="white" stroke="#cccccc" points="750,-44 570,-44 570,-8 750,-8 750,-44"/>
<text text-anchor="middle" x="660" y="-21.8" font-family="Helvetica, Arial, sans-serif" font-size="14.00">Rukmara</text>
</g>
<!-- siblings_0&#45;&gt;Rukmara -->
<g id="edge4" class="edge"><title>siblings_0&#45;&gt;Rukmara</title>
<path fill="none" stroke="#1abc9c" d="M538,-52.1843C538,-47.1025 538,-20 538,-20 538,-20 559.736,-20 559.736,-20"/>
<polygon fill="#1abc9c" stroke="#1abc9c" points="567.735,-10 567.736,-30 563.736,-30.0001 563.735,-10.0001 567.735,-10"/>
<polyline fill="none" stroke="#1abc9c" points="569.736,-20 559.736,-20.0001 "/>
</g>
<!-- Rukmana -->
<g id="node6" class="node"><title>Rukmana</title>
<polygon fill="white" stroke="#cccccc" points="750,-98 570,-98 570,-62 750,-62 750,-98"/>
<text text-anchor="middle" x="660" y="-75.8" font-family="Helvetica, Arial, sans-serif" font-size="14.00">Rukmana</text>
</g>
<!-- siblings_0&#45;&gt;Rukmana -->
<g id="edge5" class="edge"><title>siblings_0&#45;&gt;Rukmana</title>
<path fill="none" stroke="#1abc9c" d="M538,-53.8899C538,-59.4336 538,-89 538,-89 538,-89 559.736,-89 559.736,-89"/>
<polygon fill="#1abc9c" stroke="#1abc9c" points="567.735,-79 567.736,-99 563.736,-99.0001 563.735,-79.0001 567.735,-79"/>
<polyline fill="none" stroke="#1abc9c" points="569.736,-89 559.736,-89.0001 "/>
</g>
<!-- siblings_1 -->
<g id="node9" class="node"><title>siblings_1</title>
<polygon fill="#2ecc71" stroke="#cccccc" stroke-width="0" points="541,-134.5 534,-134.5 534,-133.5 541,-133.5 541,-134.5"/>
</g>
<!-- union_1&#45;&gt;siblings_1 -->
<g id="edge8" class="edge"><title>union_1&#45;&gt;siblings_1</title>
<path fill="none" stroke="#2ecc71" d="M505.083,-134C511.913,-134 526.732,-134 533.715,-134"/>
</g>
<!-- Ken Sagopi -->
<g id="node8" class="node"><title>Ken Sagopi</title>
<polygon fill="white" stroke="#cccccc" points="469,-152 289,-152 289,-116 469,-116 469,-152"/>
<text text-anchor="middle" x="379" y="-129.8" font-family="Helvetica, Arial, sans-serif" font-size="14.00">Ken Sagopi</text>
</g>
<!-- Ken Sagopi&#45;&gt;union_1 -->
<g id="edge7" class="edge"><title>Ken Sagopi&#45;&gt;union_1</title>
<path fill="none" stroke="#2ecc71" d="M469.315,-134C481.938,-134 492.417,-134 497.733,-134"/>
</g>
<!-- Rarasati -->
<g id="node10" class="node"><title>Rarasati</title>
<polygon fill="white" stroke="#cccccc" points="750,-152 570,-152 570,-116 750,-116 750,-152"/>
<text text-anchor="middle" x="660" y="-129.8" font-family="Helvetica, Arial, sans-serif" font-size="14.00">Rarasati</text>
</g>
<!-- siblings_1&#45;&gt;Rarasati -->
<g id="edge9" class="edge"><title>siblings_1&#45;&gt;Rarasati</title>
<path fill="none" stroke="#2ecc71" d="M541.034,-134C541.034,-134 559.811,-134 559.811,-134"/>
<polygon fill="#2ecc71" stroke="#2ecc71" points="567.81,-124 567.811,-144 563.811,-144 563.81,-124 567.81,-124"/>
<polyline fill="none" stroke="#2ecc71" points="569.811,-134 559.811,-134 "/>
</g>
<!-- union_2 -->
<g id="node11" class="node"><title>union_2</title>
<ellipse fill="#3498db" stroke="white" cx="220.5" cy="-80" rx="3.5" ry="3.5"/>
</g>
<!-- siblings_2 -->
<g id="node14" class="node"><title>siblings_2</title>
<polygon fill="#3498db" stroke="#cccccc" stroke-width="0" points="260,-80.5 253,-80.5 253,-79.5 260,-79.5 260,-80.5"/>
</g>
<!-- union_2&#45;&gt;siblings_2 -->
<g id="edge12" class="edge"><title>union_2&#45;&gt;siblings_2</title>
<path fill="none" stroke="#3498db" d="M224.083,-80C230.913,-80 245.732,-80 252.715,-80"/>
</g>
<!-- Kuntiboja -->
<g id="node12" class="node"><title>Kuntiboja</title>
<polygon fill="white" stroke="#cccccc" points="188,-152 8,-152 8,-116 188,-116 188,-152"/>
<text text-anchor="middle" x="98" y="-129.8" font-family="Helvetica, Arial, sans-serif" font-size="14.00">Kuntiboja</text>
</g>
<!-- Kuntiboja&#45;&gt;union_2 -->
<g id="edge10" class="edge"><title>Kuntiboja&#45;&gt;union_2</title>
<path fill="none" stroke="#3498db" d="M188.038,-134C206.794,-134 221,-134 221,-134 221,-134 221,-95.5566 221,-83.5431"/>
</g>
<!-- Dayita -->
<g id="node13" class="node"><title>Dayita</title>
<polygon fill="white" stroke="#cccccc" points="188,-98 8,-98 8,-62 188,-62 188,-98"/>
<text text-anchor="middle" x="98" y="-75.8" font-family="Helvetica, Arial, sans-serif" font-size="14.00">Dayita</text>
</g>
<!-- Dayita&#45;&gt;union_2 -->
<g id="edge11" class="edge"><title>Dayita&#45;&gt;union_2</title>
<path fill="none" stroke="#3498db" d="M188.315,-80C200.938,-80 211.417,-80 216.733,-80"/>
</g>
<!-- siblings_2&#45;&gt;Bismaka -->
<g id="edge13" class="edge"><title>siblings_2&#45;&gt;Bismaka</title>
<path fill="none" stroke="#3498db" d="M260.034,-80C260.034,-80 278.811,-80 278.811,-80"/>
<polygon fill="#3498db" stroke="#3498db" points="286.81,-70 286.811,-90 282.811,-90.0001 282.81,-70.0001 286.81,-70"/>
<polyline fill="none" stroke="#3498db" points="288.811,-80 278.811,-80.0001 "/>
</g>
</g>
</svg>
