<?xml version="1.0" encoding="UTF-8" standalone="no"?>
<!DOCTYPE svg PUBLIC "-//W3C//DTD SVG 1.1//EN"
 "http://www.w3.org/Graphics/SVG/1.1/DTD/svg11.dtd">
<!-- Generated by graphviz version 2.38.0 (20140413.2041)
 -->
<!-- Title: G Pages: 1 -->
<svg width="766pt" height="154pt"
 viewBox="0.00 0.00 766.00 154.00" xmlns="http://www.w3.org/2000/svg" xmlns:xlink="http://www.w3.org/1999/xlink">
<g id="graph0" class="graph" transform="scale(1 1) rotate(0) translate(4 150)">
<title>G</title>
<polygon fill="white" stroke="none" points="-4,4 -4,-150 762,-150 762,4 -4,4"/>
<g id="clust1" class="cluster"><title>cluster_family_0</title>
</g>
<g id="clust5" class="cluster"><title>cluster_family_1</title>
</g>
<g id="clust8" class="cluster"><title>cluster_family_2</title>
</g>
<!-- union_0 -->
<g id="node1" class="node"><title>union_0</title>
<ellipse fill="#1abc9c" stroke="white" cx="501.5" cy="-53" rx="3.5" ry="3.5"/>
</g>
<!-- siblings_0 -->
<g id="node4" class="node"><title>siblings_0</title>
<polygon fill="#1abc9c" stroke="#cccccc" stroke-width="0" points="541,-53.5 534,-53.5 534,-52.5 541,-52.5 541,-53.5"/>
</g>
<!-- union_0&#45;&gt;siblings_0 -->
<g id="edge3" class="edge"><title>union_0&#45;&gt;siblings_0</title>
<path fill="none" stroke="#1abc9c" d="M505.083,-53C511.913,-53 526.732,-53 533.715,-53"/>
</g>
<!-- Destarastra -->
<g id="node2" class="node"><title>Destarastra</title>
<polygon fill="white" stroke="#cccccc" points="469,-98 289,-98 289,-62 469,-62 469,-98"/>
<text text-anchor="middle" x="379" y="-75.8" font-family="Helvetica, Arial, sans-serif" font-size="14.00">Destarastra</text>
</g>
<!-- Destarastra&#45;&gt;union_0 -->
<g id="edge1" class="edge"><title>Destarastra&#45;&gt;union_0</title>
<path fill="none" stroke="#1abc9c" d="M469.038,-66.5C487.794,-66.5 502,-66.5 502,-66.5 502,-66.5 502,-60.686 502,-56.6889"/>
</g>
<!-- Gendari -->
<g id="node3" class="node"><title>Gendari</title>
<polygon fill="white" stroke="#cccccc" points="469,-44 289,-44 289,-8 469,-8 469,-44"/>
<text text-anchor="middle" x="379" y="-21.8" font-family="Helvetica, Arial, sans-serif" font-size="14.00">Gendari</text>
</g>
<!-- Gendari&#45;&gt;union_0 -->
<g id="edge2" class="edge"><title>Gendari&#45;&gt;union_0</title>
<path fill="none" stroke="#1abc9c" d="M469.038,-39.5C487.794,-39.5 502,-39.5 502,-39.5 502,-39.5 502,-45.314 502,-49.3111"/>
</g>
<!-- 100 Korawa -->
<g id="node5" class="node"><title>100 Korawa</title>
<polygon fill="white" stroke="#cccccc" points="750,-71 570,-71 570,-35 750,-35 750,-71"/>
<text text-anchor="middle" x="660" y="-48.8" font-family="Helvetica, Arial, sans-serif" font-size="14.00">100 Korawa</text>
</g>
<!-- siblings_0&#45;&gt;100 Korawa -->
<g id="edge4" class="edge"><title>siblings_0&#45;&gt;100 Korawa</title>
<path fill="none" stroke="#1abc9c" d="M541.034,-53C541.034,-53 559.811,-53 559.811,-53"/>
<polygon fill="#1abc9c" stroke="#1abc9c" points="567.81,-43 567.811,-63 563.811,-63.0001 563.81,-43.0001 567.81,-43"/>
<polyline fill="none" stroke="#1abc9c" points="569.811,-53 559.811,-53.0001 "/>
</g>
<!-- union_1 -->
<g id="node6" class="node"><title>union_1</title>
<ellipse fill="#2ecc71" stroke="white" cx="220.5" cy="-80" rx="3.5" ry="3.5"/>
</g>
<!-- siblings_1 -->
<g id="node9" class="node"><title>siblings_1</title>
<polygon fill="#2ecc71" stroke="#cccccc" stroke-width="0" points="260,-80.5 253,-80.5 253,-79.5 260,-79.5 260,-80.5"/>
</g>
<!-- union_1&#45;&gt;siblings_1 -->
<g id="edge7" class="edge"><title>union_1&#45;&gt;siblings_1</title>
<path fill="none" stroke="#2ecc71" d="M224.083,-80C230.913,-80 245.732,-80 252.715,-80"/>
</g>
<!-- Abiyasa -->
<g id="node7" class="node"><title>Abiyasa</title>
<polygon fill="white" stroke="#cccccc" points="188,-138 8,-138 8,-102 188,-102 188,-138"/>
<text text-anchor="middle" x="98" y="-115.8" font-family="Helvetica, Arial, sans-serif" font-size="14.00">Abiyasa</text>
</g>
<!-- Abiyasa&#45;&gt;union_1 -->
<g id="edge5" class="edge"><title>Abiyasa&#45;&gt;union_1</title>
<path fill="none" stroke="#2ecc71" d="M188.038,-120C206.794,-120 221,-120 221,-120 221,-120 221,-93.5938 221,-83.6914"/>
</g>
<!-- Ambika -->
<g id="node8" class="node"><title>Ambika</title>
<polygon fill="white" stroke="#cccccc" points="188,-84 8,-84 8,-48 188,-48 188,-84"/>
<text text-anchor="middle" x="98" y="-61.8" font-family="Helvetica, Arial, sans-serif" font-size="14.00">Ambika</text>
</g>
<!-- Ambika&#45;&gt;union_1 -->
<g id="edge6" class="edge"><title>Ambika&#45;&gt;union_1</title>
<path fill="none" stroke="#2ecc71" d="M188.315,-80C200.938,-80 211.417,-80 216.733,-80"/>
</g>
<!-- siblings_1&#45;&gt;Destarastra -->
<g id="edge8" class="edge"><title>siblings_1&#45;&gt;Destarastra</title>
<path fill="none" stroke="#2ecc71" d="M260.034,-80C260.034,-80 278.811,-80 278.811,-80"/>
<polygon fill="#2ecc71" stroke="#2ecc71" points="286.81,-70 286.811,-90 282.811,-90.0001 282.81,-70.0001 286.81,-70"/>
<polyline fill="none" stroke="#2ecc71" points="288.811,-80 278.811,-80.0001 "/>
</g>
<!-- siblings_2 -->
<g id="node10" class="node"><title>siblings_2</title>
<polygon fill="#3498db" stroke="#cccccc" stroke-width="0" points="260,-26.5 253,-26.5 253,-25.5 260,-25.5 260,-26.5"/>
</g>
<!-- siblings_2&#45;&gt;Gendari -->
<g id="edge9" class="edge"><title>siblings_2&#45;&gt;Gendari</title>
<path fill="none" stroke="#3498db" d="M260.034,-26C260.034,-26 278.811,-26 278.811,-26"/>
<polygon fill="#3498db" stroke="#3498db" points="286.81,-16 286.811,-36 282.811,-36.0001 282.81,-16.0001 286.81,-16"/>
<polyline fill="none" stroke="#3498db" points="288.811,-26 278.811,-26.0001 "/>
</g>
</g>
</svg>
