<?xml version="1.0" encoding="UTF-8" standalone="no"?>
<!DOCTYPE svg PUBLIC "-//W3C//DTD SVG 1.1//EN"
 "http://www.w3.org/Graphics/SVG/1.1/DTD/svg11.dtd">
<!-- Generated by graphviz version 2.38.0 (20140413.2041)
 -->
<!-- Title: G Pages: 1 -->
<svg width="485pt" height="114pt"
 viewBox="0.00 0.00 485.00 114.00" xmlns="http://www.w3.org/2000/svg" xmlns:xlink="http://www.w3.org/1999/xlink">
<g id="graph0" class="graph" transform="scale(1 1) rotate(0) translate(4 110)">
<title>G</title>
<polygon fill="white" stroke="none" points="-4,4 -4,-110 481,-110 481,4 -4,4"/>
<g id="clust1" class="cluster"><title>cluster_family_0</title>
</g>
<!-- union_0 -->
<g id="node1" class="node"><title>union_0</title>
<ellipse fill="#1abc9c" stroke="white" cx="220.5" cy="-53" rx="3.5" ry="3.5"/>
</g>
<!-- siblings_0 -->
<g id="node4" class="node"><title>siblings_0</title>
<polygon fill="#1abc9c" stroke="#cccccc" stroke-width="0" points="260,-53.5 253,-53.5 253,-52.5 260,-52.5 260,-53.5"/>
</g>
<!-- union_0&#45;&gt;siblings_0 -->
<g id="edge3" class="edge"><title>union_0&#45;&gt;siblings_0</title>
<path fill="none" stroke="#1abc9c" d="M224.083,-53C230.913,-53 245.732,-53 252.715,-53"/>
</g>
<!-- Kala -->
<g id="node2" class="node"><title>Kala</title>
<polygon fill="white" stroke="#cccccc" points="188,-98 8,-98 8,-62 188,-62 188,-98"/>
<text text-anchor="middle" x="98" y="-75.8" font-family="Helvetica, Arial, sans-serif" font-size="14.00">Kala</text>
</g>
<!-- Kala&#45;&gt;union_0 -->
<g id="edge1" class="edge"><title>Kala&#45;&gt;union_0</title>
<path fill="none" stroke="#1abc9c" d="M188.038,-66.5C206.794,-66.5 221,-66.5 221,-66.5 221,-66.5 221,-60.686 221,-56.6889"/>
</g>
<!-- Pramoni -->
<g id="node3" class="node"><title>Pramoni</title>
<polygon fill="white" stroke="#cccccc" points="188,-44 8,-44 8,-8 188,-8 188,-44"/>
<text text-anchor="middle" x="98" y="-21.8" font-family="Helvetica, Arial, sans-serif" font-size="14.00">Pramoni</text>
</g>
<!-- Pramoni&#45;&gt;union_0 -->
<g id="edge2" class="edge"><title>Pramoni&#45;&gt;union_0</title>
<path fill="none" stroke="#1abc9c" d="M188.038,-39.5C206.794,-39.5 221,-39.5 221,-39.5 221,-39.5 221,-45.314 221,-49.3111"/>
</g>
<!-- Dewasrani -->
<g id="node5" class="node"><title>Dewasrani</title>
<polygon fill="white" stroke="#cccccc" points="469,-71 289,-71 289,-35 469,-35 469,-71"/>
<text text-anchor="middle" x="379" y="-48.8" font-family="Helvetica, Arial, sans-serif" font-size="14.00">Dewasrani</text>
</g>
<!-- siblings_0&#45;&gt;Dewasrani -->
<g id="edge4" class="edge"><title>siblings_0&#45;&gt;Dewasrani</title>
<path fill="none" stroke="#1abc9c" d="M260.034,-53C260.034,-53 278.811,-53 278.811,-53"/>
<polygon fill="#1abc9c" stroke="#1abc9c" points="286.81,-43 286.811,-63 282.811,-63.0001 282.81,-43.0001 286.81,-43"/>
<polyline fill="none" stroke="#1abc9c" points="288.811,-53 278.811,-53.0001 "/>
</g>
</g>
</svg>
