<?xml version="1.0" encoding="UTF-8" standalone="no"?>
<!DOCTYPE svg PUBLIC "-//W3C//DTD SVG 1.1//EN"
 "http://www.w3.org/Graphics/SVG/1.1/DTD/svg11.dtd">
<!-- Generated by graphviz version 2.38.0 (20140413.2041)
 -->
<!-- Title: G Pages: 1 -->
<svg width="766pt" height="154pt"
 viewBox="0.00 0.00 766.00 154.00" xmlns="http://www.w3.org/2000/svg" xmlns:xlink="http://www.w3.org/1999/xlink">
<g id="graph0" class="graph" transform="scale(1 1) rotate(0) translate(4 150)">
<title>G</title>
<polygon fill="white" stroke="none" points="-4,4 -4,-150 762,-150 762,4 -4,4"/>
<g id="clust1" class="cluster"><title>cluster_family_0</title>
</g>
<g id="clust4" class="cluster"><title>cluster_family_1</title>
</g>
<g id="clust6" class="cluster"><title>cluster_family_2</title>
</g>
<!-- union_0 -->
<g id="node1" class="node"><title>union_0</title>
<ellipse fill="#1abc9c" stroke="white" cx="501.5" cy="-66" rx="3.5" ry="3.5"/>
</g>
<!-- siblings_0 -->
<g id="node4" class="node"><title>siblings_0</title>
<polygon fill="#1abc9c" stroke="#cccccc" stroke-width="0" points="541,-66.5 534,-66.5 534,-65.5 541,-65.5 541,-66.5"/>
</g>
<!-- union_0&#45;&gt;siblings_0 -->
<g id="edge3" class="edge"><title>union_0&#45;&gt;siblings_0</title>
<path fill="none" stroke="#1abc9c" d="M505.083,-66C511.913,-66 526.732,-66 533.715,-66"/>
</g>
<!-- Durga -->
<g id="node2" class="node"><title>Durga</title>
<polygon fill="white" stroke="#cccccc" points="469,-138 289,-138 289,-102 469,-102 469,-138"/>
<text text-anchor="middle" x="379" y="-115.8" font-family="Helvetica, Arial, sans-serif" font-size="14.00">Durga</text>
</g>
<!-- Durga&#45;&gt;union_0 -->
<g id="edge1" class="edge"><title>Durga&#45;&gt;union_0</title>
<path fill="none" stroke="#1abc9c" d="M469.038,-126C487.794,-126 502,-126 502,-126 502,-126 502,-82.4905 502,-69.5736"/>
</g>
<!-- Guru -->
<g id="node3" class="node"><title>Guru</title>
<polygon fill="white" stroke="#cccccc" points="469,-84 289,-84 289,-48 469,-48 469,-84"/>
<text text-anchor="middle" x="379" y="-61.8" font-family="Helvetica, Arial, sans-serif" font-size="14.00">Guru</text>
</g>
<!-- Guru&#45;&gt;union_0 -->
<g id="edge2" class="edge"><title>Guru&#45;&gt;union_0</title>
<path fill="none" stroke="#1abc9c" d="M469.315,-66C481.938,-66 492.417,-66 497.733,-66"/>
</g>
<!-- Dewasrani -->
<g id="node5" class="node"><title>Dewasrani</title>
<polygon fill="white" stroke="#cccccc" points="750,-84 570,-84 570,-48 750,-48 750,-84"/>
<text text-anchor="middle" x="660" y="-61.8" font-family="Helvetica, Arial, sans-serif" font-size="14.00">Dewasrani</text>
</g>
<!-- siblings_0&#45;&gt;Dewasrani -->
<g id="edge4" class="edge"><title>siblings_0&#45;&gt;Dewasrani</title>
<path fill="none" stroke="#1abc9c" d="M541.034,-66C541.034,-66 559.811,-66 559.811,-66"/>
<polygon fill="#1abc9c" stroke="#1abc9c" points="567.81,-56 567.811,-76 563.811,-76.0001 563.81,-56.0001 567.81,-56"/>
<polyline fill="none" stroke="#1abc9c" points="569.811,-66 559.811,-66.0001 "/>
</g>
<!-- Kala -->
<g id="node6" class="node"><title>Kala</title>
<polygon fill="white" stroke="#cccccc" points="750,-138 570,-138 570,-102 750,-102 750,-138"/>
<text text-anchor="middle" x="660" y="-115.8" font-family="Helvetica, Arial, sans-serif" font-size="14.00">Kala</text>
</g>
<!-- siblings_0&#45;&gt;Kala -->
<g id="edge5" class="edge"><title>siblings_0&#45;&gt;Kala</title>
<path fill="none" stroke="#1abc9c" d="M538,-66.5391C538,-71.8125 538,-114 538,-114 538,-114 559.736,-114 559.736,-114"/>
<polygon fill="#1abc9c" stroke="#1abc9c" points="567.735,-104 567.736,-124 563.736,-124 563.735,-104 567.735,-104"/>
<polyline fill="none" stroke="#1abc9c" points="569.736,-114 559.736,-114 "/>
</g>
<!-- siblings_1 -->
<g id="node7" class="node"><title>siblings_1</title>
<polygon fill="#2ecc71" stroke="#cccccc" stroke-width="0" points="260,-120.5 253,-120.5 253,-119.5 260,-119.5 260,-120.5"/>
</g>
<!-- siblings_1&#45;&gt;Durga -->
<g id="edge6" class="edge"><title>siblings_1&#45;&gt;Durga</title>
<path fill="none" stroke="#2ecc71" d="M260.034,-120C260.034,-120 278.811,-120 278.811,-120"/>
<polygon fill="#2ecc71" stroke="#2ecc71" points="286.81,-110 286.811,-130 282.811,-130 282.81,-110 286.81,-110"/>
<polyline fill="none" stroke="#2ecc71" points="288.811,-120 278.811,-120 "/>
</g>
<!-- union_2 -->
<g id="node8" class="node"><title>union_2</title>
<ellipse fill="#3498db" stroke="white" cx="220.5" cy="-66" rx="3.5" ry="3.5"/>
</g>
<!-- siblings_2 -->
<g id="node11" class="node"><title>siblings_2</title>
<polygon fill="#3498db" stroke="#cccccc" stroke-width="0" points="260,-66.5 253,-66.5 253,-65.5 260,-65.5 260,-66.5"/>
</g>
<!-- union_2&#45;&gt;siblings_2 -->
<g id="edge9" class="edge"><title>union_2&#45;&gt;siblings_2</title>
<path fill="none" stroke="#3498db" d="M224.083,-66C230.913,-66 245.732,-66 252.715,-66"/>
</g>
<!-- Rakti -->
<g id="node9" class="node"><title>Rakti</title>
<polygon fill="white" stroke="#cccccc" points="188,-98 8,-98 8,-62 188,-62 188,-98"/>
<text text-anchor="middle" x="98" y="-75.8" font-family="Helvetica, Arial, sans-serif" font-size="14.00">Rakti</text>
</g>
<!-- Rakti&#45;&gt;union_2 -->
<g id="edge7" class="edge"><title>Rakti&#45;&gt;union_2</title>
<path fill="none" stroke="#3498db" d="M188.315,-66C200.938,-66 211.417,-66 216.733,-66"/>
</g>
<!-- Sang_Hyang_Tunggal -->
<g id="node10" class="node"><title>Sang_Hyang_Tunggal</title>
<polygon fill="white" stroke="#cccccc" points="188,-44 8,-44 8,-8 188,-8 188,-44"/>
<text text-anchor="middle" x="98" y="-21.8" font-family="Helvetica, Arial, sans-serif" font-size="14.00">Sang_Hyang_Tunggal</text>
</g>
<!-- Sang_Hyang_Tunggal&#45;&gt;union_2 -->
<g id="edge8" class="edge"><title>Sang_Hyang_Tunggal&#45;&gt;union_2</title>
<path fill="none" stroke="#3498db" d="M188.038,-26C206.794,-26 221,-26 221,-26 221,-26 221,-52.4062 221,-62.3086"/>
</g>
<!-- siblings_2&#45;&gt;Guru -->
<g id="edge10" class="edge"><title>siblings_2&#45;&gt;Guru</title>
<path fill="none" stroke="#3498db" d="M260.034,-66C260.034,-66 278.811,-66 278.811,-66"/>
<polygon fill="#3498db" stroke="#3498db" points="286.81,-56 286.811,-76 282.811,-76.0001 282.81,-56.0001 286.81,-56"/>
<polyline fill="none" stroke="#3498db" points="288.811,-66 278.811,-66.0001 "/>
</g>
</g>
</svg>
