<?xml version="1.0" encoding="UTF-8" standalone="no"?>
<!DOCTYPE svg PUBLIC "-//W3C//DTD SVG 1.1//EN"
 "http://www.w3.org/Graphics/SVG/1.1/DTD/svg11.dtd">
<!-- Generated by graphviz version 2.38.0 (20140413.2041)
 -->
<!-- Title: G Pages: 1 -->
<svg width="766pt" height="222pt"
 viewBox="0.00 0.00 766.00 222.00" xmlns="http://www.w3.org/2000/svg" xmlns:xlink="http://www.w3.org/1999/xlink">
<g id="graph0" class="graph" transform="scale(1 1) rotate(0) translate(4 218)">
<title>G</title>
<polygon fill="white" stroke="none" points="-4,4 -4,-218 762,-218 762,4 -4,4"/>
<g id="clust1" class="cluster"><title>cluster_family_0</title>
</g>
<g id="clust4" class="cluster"><title>cluster_family_1</title>
</g>
<g id="clust7" class="cluster"><title>cluster_family_2</title>
</g>
<!-- union_0 -->
<g id="node1" class="node"><title>union_0</title>
<ellipse fill="#1abc9c" stroke="white" cx="501.5" cy="-80" rx="3.5" ry="3.5"/>
</g>
<!-- siblings_0 -->
<g id="node4" class="node"><title>siblings_0</title>
<polygon fill="#1abc9c" stroke="#cccccc" stroke-width="0" points="541,-80.5 534,-80.5 534,-79.5 541,-79.5 541,-80.5"/>
</g>
<!-- union_0&#45;&gt;siblings_0 -->
<g id="edge3" class="edge"><title>union_0&#45;&gt;siblings_0</title>
<path fill="none" stroke="#1abc9c" d="M505.083,-80C511.913,-80 526.732,-80 533.715,-80"/>
</g>
<!-- Duryudana -->
<g id="node2" class="node"><title>Duryudana</title>
<polygon fill="white" stroke="#cccccc" points="469,-152 289,-152 289,-116 469,-116 469,-152"/>
<text text-anchor="middle" x="379" y="-129.8" font-family="Helvetica, Arial, sans-serif" font-size="14.00">Duryudana</text>
</g>
<!-- Duryudana&#45;&gt;union_0 -->
<g id="edge1" class="edge"><title>Duryudana&#45;&gt;union_0</title>
<path fill="none" stroke="#1abc9c" d="M469.038,-140C487.794,-140 502,-140 502,-140 502,-140 502,-96.4905 502,-83.5736"/>
</g>
<!-- Banowati -->
<g id="node3" class="node"><title>Banowati</title>
<polygon fill="white" stroke="#cccccc" points="469,-98 289,-98 289,-62 469,-62 469,-98"/>
<text text-anchor="middle" x="379" y="-75.8" font-family="Helvetica, Arial, sans-serif" font-size="14.00">Banowati</text>
</g>
<!-- Banowati&#45;&gt;union_0 -->
<g id="edge2" class="edge"><title>Banowati&#45;&gt;union_0</title>
<path fill="none" stroke="#1abc9c" d="M469.315,-80C481.938,-80 492.417,-80 497.733,-80"/>
</g>
<!-- Lesmana_Mandrakumara -->
<g id="node5" class="node"><title>Lesmana_Mandrakumara</title>
<polygon fill="white" stroke="#cccccc" points="750,-98 570,-98 570,-62 750,-62 750,-98"/>
<text text-anchor="middle" x="660" y="-75.8" font-family="Helvetica, Arial, sans-serif" font-size="14.00">Lesmana_Mandrakumara</text>
</g>
<!-- siblings_0&#45;&gt;Lesmana_Mandrakumara -->
<g id="edge4" class="edge"><title>siblings_0&#45;&gt;Lesmana_Mandrakumara</title>
<path fill="none" stroke="#1abc9c" d="M541.034,-80C541.034,-80 559.811,-80 559.811,-80"/>
<polygon fill="#1abc9c" stroke="#1abc9c" points="567.81,-70 567.811,-90 563.811,-90.0001 563.81,-70.0001 567.81,-70"/>
<polyline fill="none" stroke="#1abc9c" points="569.811,-80 559.811,-80.0001 "/>
</g>
<!-- Lesmanawati -->
<g id="node6" class="node"><title>Lesmanawati</title>
<polygon fill="white" stroke="#cccccc" points="750,-152 570,-152 570,-116 750,-116 750,-152"/>
<text text-anchor="middle" x="660" y="-129.8" font-family="Helvetica, Arial, sans-serif" font-size="14.00">Lesmanawati</text>
</g>
<!-- siblings_0&#45;&gt;Lesmanawati -->
<g id="edge5" class="edge"><title>siblings_0&#45;&gt;Lesmanawati</title>
<path fill="none" stroke="#1abc9c" d="M538,-80.5391C538,-85.8125 538,-128 538,-128 538,-128 559.736,-128 559.736,-128"/>
<polygon fill="#1abc9c" stroke="#1abc9c" points="567.735,-118 567.736,-138 563.736,-138 563.735,-118 567.735,-118"/>
<polyline fill="none" stroke="#1abc9c" points="569.736,-128 559.736,-128 "/>
</g>
<!-- union_1 -->
<g id="node7" class="node"><title>union_1</title>
<ellipse fill="#2ecc71" stroke="white" cx="220.5" cy="-134" rx="3.5" ry="3.5"/>
</g>
<!-- siblings_1 -->
<g id="node10" class="node"><title>siblings_1</title>
<polygon fill="#2ecc71" stroke="#cccccc" stroke-width="0" points="260,-134.5 253,-134.5 253,-133.5 260,-133.5 260,-134.5"/>
</g>
<!-- union_1&#45;&gt;siblings_1 -->
<g id="edge8" class="edge"><title>union_1&#45;&gt;siblings_1</title>
<path fill="none" stroke="#2ecc71" d="M224.083,-134C230.913,-134 245.732,-134 252.715,-134"/>
</g>
<!-- Destarastra -->
<g id="node8" class="node"><title>Destarastra</title>
<polygon fill="white" stroke="#cccccc" points="188,-206 8,-206 8,-170 188,-170 188,-206"/>
<text text-anchor="middle" x="98" y="-183.8" font-family="Helvetica, Arial, sans-serif" font-size="14.00">Destarastra</text>
</g>
<!-- Destarastra&#45;&gt;union_1 -->
<g id="edge6" class="edge"><title>Destarastra&#45;&gt;union_1</title>
<path fill="none" stroke="#2ecc71" d="M188.038,-188C206.794,-188 221,-188 221,-188 221,-188 221,-149.557 221,-137.543"/>
</g>
<!-- Gendari -->
<g id="node9" class="node"><title>Gendari</title>
<polygon fill="white" stroke="#cccccc" points="188,-152 8,-152 8,-116 188,-116 188,-152"/>
<text text-anchor="middle" x="98" y="-129.8" font-family="Helvetica, Arial, sans-serif" font-size="14.00">Gendari</text>
</g>
<!-- Gendari&#45;&gt;union_1 -->
<g id="edge7" class="edge"><title>Gendari&#45;&gt;union_1</title>
<path fill="none" stroke="#2ecc71" d="M188.315,-134C200.938,-134 211.417,-134 216.733,-134"/>
</g>
<!-- siblings_1&#45;&gt;Duryudana -->
<g id="edge9" class="edge"><title>siblings_1&#45;&gt;Duryudana</title>
<path fill="none" stroke="#2ecc71" d="M260.034,-134C260.034,-134 278.811,-134 278.811,-134"/>
<polygon fill="#2ecc71" stroke="#2ecc71" points="286.81,-124 286.811,-144 282.811,-144 282.81,-124 286.81,-124"/>
<polyline fill="none" stroke="#2ecc71" points="288.811,-134 278.811,-134 "/>
</g>
<!-- union_2 -->
<g id="node11" class="node"><title>union_2</title>
<ellipse fill="#3498db" stroke="white" cx="220.5" cy="-80" rx="3.5" ry="3.5"/>
</g>
<!-- siblings_2 -->
<g id="node14" class="node"><title>siblings_2</title>
<polygon fill="#3498db" stroke="#cccccc" stroke-width="0" points="260,-80.5 253,-80.5 253,-79.5 260,-79.5 260,-80.5"/>
</g>
<!-- union_2&#45;&gt;siblings_2 -->
<g id="edge12" class="edge"><title>union_2&#45;&gt;siblings_2</title>
<path fill="none" stroke="#3498db" d="M224.083,-80C230.913,-80 245.732,-80 252.715,-80"/>
</g>
<!-- Pujawati -->
<g id="node12" class="node"><title>Pujawati</title>
<polygon fill="white" stroke="#cccccc" points="188,-98 8,-98 8,-62 188,-62 188,-98"/>
<text text-anchor="middle" x="98" y="-75.8" font-family="Helvetica, Arial, sans-serif" font-size="14.00">Pujawati</text>
</g>
<!-- Pujawati&#45;&gt;union_2 -->
<g id="edge10" class="edge"><title>Pujawati&#45;&gt;union_2</title>
<path fill="none" stroke="#3498db" d="M188.315,-80C200.938,-80 211.417,-80 216.733,-80"/>
</g>
<!-- Salya -->
<g id="node13" class="node"><title>Salya</title>
<polygon fill="white" stroke="#cccccc" points="188,-44 8,-44 8,-8 188,-8 188,-44"/>
<text text-anchor="middle" x="98" y="-21.8" font-family="Helvetica, Arial, sans-serif" font-size="14.00">Salya</text>
</g>
<!-- Salya&#45;&gt;union_2 -->
<g id="edge11" class="edge"><title>Salya&#45;&gt;union_2</title>
<path fill="none" stroke="#3498db" d="M188.038,-26C206.794,-26 221,-26 221,-26 221,-26 221,-64.4434 221,-76.4569"/>
</g>
<!-- siblings_2&#45;&gt;Banowati -->
<g id="edge13" class="edge"><title>siblings_2&#45;&gt;Banowati</title>
<path fill="none" stroke="#3498db" d="M260.034,-80C260.034,-80 278.811,-80 278.811,-80"/>
<polygon fill="#3498db" stroke="#3498db" points="286.81,-70 286.811,-90 282.811,-90.0001 282.81,-70.0001 286.81,-70"/>
<polyline fill="none" stroke="#3498db" points="288.811,-80 278.811,-80.0001 "/>
</g>
</g>
</svg>
