<?xml version="1.0" encoding="UTF-8" standalone="no"?>
<!DOCTYPE svg PUBLIC "-//W3C//DTD SVG 1.1//EN"
 "http://www.w3.org/Graphics/SVG/1.1/DTD/svg11.dtd">
<!-- Generated by graphviz version 2.38.0 (20140413.2041)
 -->
<!-- Title: G Pages: 1 -->
<svg width="766pt" height="222pt"
 viewBox="0.00 0.00 766.00 222.00" xmlns="http://www.w3.org/2000/svg" xmlns:xlink="http://www.w3.org/1999/xlink">
<g id="graph0" class="graph" transform="scale(1 1) rotate(0) translate(4 218)">
<title>G</title>
<polygon fill="white" stroke="none" points="-4,4 -4,-218 762,-218 762,4 -4,4"/>
<g id="clust1" class="cluster"><title>cluster_family_0</title>
</g>
<g id="clust4" class="cluster"><title>cluster_family_1</title>
</g>
<g id="clust7" class="cluster"><title>cluster_family_2</title>
</g>
<g id="clust10" class="cluster"><title>cluster_family_3</title>
</g>
<!-- union_0 -->
<g id="node1" class="node"><title>union_0</title>
<ellipse fill="#1abc9c" stroke="white" cx="501.5" cy="-161" rx="3.5" ry="3.5"/>
</g>
<!-- siblings_0 -->
<g id="node4" class="node"><title>siblings_0</title>
<polygon fill="#1abc9c" stroke="#cccccc" stroke-width="0" points="541,-161.5 534,-161.5 534,-160.5 541,-160.5 541,-161.5"/>
</g>
<!-- union_0&#45;&gt;siblings_0 -->
<g id="edge3" class="edge"><title>union_0&#45;&gt;siblings_0</title>
<path fill="none" stroke="#1abc9c" d="M505.083,-161C511.913,-161 526.732,-161 533.715,-161"/>
</g>
<!-- Gatotkaca -->
<g id="node2" class="node"><title>Gatotkaca</title>
<polygon fill="white" stroke="#cccccc" points="469,-152 289,-152 289,-116 469,-116 469,-152"/>
<text text-anchor="middle" x="379" y="-129.8" font-family="Helvetica, Arial, sans-serif" font-size="14.00">Gatotkaca</text>
</g>
<!-- Gatotkaca&#45;&gt;union_0 -->
<g id="edge1" class="edge"><title>Gatotkaca&#45;&gt;union_0</title>
<path fill="none" stroke="#1abc9c" d="M469.116,-147.5C488.348,-147.5 503,-147.5 503,-147.5 503,-147.5 503,-153.594 503,-157.593"/>
</g>
<!-- union_1 -->
<g id="node6" class="node"><title>union_1</title>
<ellipse fill="#2ecc71" stroke="white" cx="501.5" cy="-80" rx="3.5" ry="3.5"/>
</g>
<!-- Gatotkaca&#45;&gt;union_1 -->
<g id="edge5" class="edge"><title>Gatotkaca&#45;&gt;union_1</title>
<path fill="none" stroke="#2ecc71" d="M469.264,-134C487.391,-134 501,-134 501,-134 501,-134 501,-95.5566 501,-83.5431"/>
</g>
<!-- union_2 -->
<g id="node10" class="node"><title>union_2</title>
<ellipse fill="#3498db" stroke="white" cx="501.5" cy="-26" rx="3.5" ry="3.5"/>
</g>
<!-- Gatotkaca&#45;&gt;union_2 -->
<g id="edge9" class="edge"><title>Gatotkaca&#45;&gt;union_2</title>
<path fill="none" stroke="#3498db" d="M469.4,-125C478.232,-125 484,-125 484,-125 484,-125 484,-27.1667 484,-27.1667 484,-27.1667 493.041,-27.1667 498.126,-27.1667"/>
</g>
<!-- Pergiwa -->
<g id="node3" class="node"><title>Pergiwa</title>
<polygon fill="white" stroke="#cccccc" points="469,-206 289,-206 289,-170 469,-170 469,-206"/>
<text text-anchor="middle" x="379" y="-183.8" font-family="Helvetica, Arial, sans-serif" font-size="14.00">Pergiwa</text>
</g>
<!-- Pergiwa&#45;&gt;union_0 -->
<g id="edge2" class="edge"><title>Pergiwa&#45;&gt;union_0</title>
<path fill="none" stroke="#1abc9c" d="M469.038,-174.5C487.794,-174.5 502,-174.5 502,-174.5 502,-174.5 502,-168.686 502,-164.689"/>
</g>
<!-- Sasikirana -->
<g id="node5" class="node"><title>Sasikirana</title>
<polygon fill="white" stroke="#cccccc" points="750,-179 570,-179 570,-143 750,-143 750,-179"/>
<text text-anchor="middle" x="660" y="-156.8" font-family="Helvetica, Arial, sans-serif" font-size="14.00">Sasikirana</text>
</g>
<!-- siblings_0&#45;&gt;Sasikirana -->
<g id="edge4" class="edge"><title>siblings_0&#45;&gt;Sasikirana</title>
<path fill="none" stroke="#1abc9c" d="M541.034,-161C541.034,-161 559.811,-161 559.811,-161"/>
<polygon fill="#1abc9c" stroke="#1abc9c" points="567.81,-151 567.811,-171 563.811,-171 563.81,-151 567.81,-151"/>
<polyline fill="none" stroke="#1abc9c" points="569.811,-161 559.811,-161 "/>
</g>
<!-- siblings_1 -->
<g id="node8" class="node"><title>siblings_1</title>
<polygon fill="#2ecc71" stroke="#cccccc" stroke-width="0" points="541,-80.5 534,-80.5 534,-79.5 541,-79.5 541,-80.5"/>
</g>
<!-- union_1&#45;&gt;siblings_1 -->
<g id="edge7" class="edge"><title>union_1&#45;&gt;siblings_1</title>
<path fill="none" stroke="#2ecc71" d="M505.083,-80C511.913,-80 526.732,-80 533.715,-80"/>
</g>
<!-- Sumpani -->
<g id="node7" class="node"><title>Sumpani</title>
<polygon fill="white" stroke="#cccccc" points="469,-98 289,-98 289,-62 469,-62 469,-98"/>
<text text-anchor="middle" x="379" y="-75.8" font-family="Helvetica, Arial, sans-serif" font-size="14.00">Sumpani</text>
</g>
<!-- Sumpani&#45;&gt;union_1 -->
<g id="edge6" class="edge"><title>Sumpani&#45;&gt;union_1</title>
<path fill="none" stroke="#2ecc71" d="M469.315,-80C481.938,-80 492.417,-80 497.733,-80"/>
</g>
<!-- Arya_Jayasumpena -->
<g id="node9" class="node"><title>Arya_Jayasumpena</title>
<polygon fill="white" stroke="#cccccc" points="750,-98 570,-98 570,-62 750,-62 750,-98"/>
<text text-anchor="middle" x="660" y="-75.8" font-family="Helvetica, Arial, sans-serif" font-size="14.00">Arya_Jayasumpena</text>
</g>
<!-- siblings_1&#45;&gt;Arya_Jayasumpena -->
<g id="edge8" class="edge"><title>siblings_1&#45;&gt;Arya_Jayasumpena</title>
<path fill="none" stroke="#2ecc71" d="M541.034,-80C541.034,-80 559.811,-80 559.811,-80"/>
<polygon fill="#2ecc71" stroke="#2ecc71" points="567.81,-70 567.811,-90 563.811,-90.0001 563.81,-70.0001 567.81,-70"/>
<polyline fill="none" stroke="#2ecc71" points="569.811,-80 559.811,-80.0001 "/>
</g>
<!-- siblings_2 -->
<g id="node12" class="node"><title>siblings_2</title>
<polygon fill="#3498db" stroke="#cccccc" stroke-width="0" points="541,-26.5 534,-26.5 534,-25.5 541,-25.5 541,-26.5"/>
</g>
<!-- union_2&#45;&gt;siblings_2 -->
<g id="edge11" class="edge"><title>union_2&#45;&gt;siblings_2</title>
<path fill="none" stroke="#3498db" d="M505.083,-26C511.913,-26 526.732,-26 533.715,-26"/>
</g>
<!-- Suryawati -->
<g id="node11" class="node"><title>Suryawati</title>
<polygon fill="white" stroke="#cccccc" points="469,-44 289,-44 289,-8 469,-8 469,-44"/>
<text text-anchor="middle" x="379" y="-21.8" font-family="Helvetica, Arial, sans-serif" font-size="14.00">Suryawati</text>
</g>
<!-- Suryawati&#45;&gt;union_2 -->
<g id="edge10" class="edge"><title>Suryawati&#45;&gt;union_2</title>
<path fill="none" stroke="#3498db" d="M469.315,-24.8333C482.225,-24.8333 492.892,-24.8333 498.088,-24.8333"/>
</g>
<!-- Suryakaca -->
<g id="node13" class="node"><title>Suryakaca</title>
<polygon fill="white" stroke="#cccccc" points="750,-44 570,-44 570,-8 750,-8 750,-44"/>
<text text-anchor="middle" x="660" y="-21.8" font-family="Helvetica, Arial, sans-serif" font-size="14.00">Suryakaca</text>
</g>
<!-- siblings_2&#45;&gt;Suryakaca -->
<g id="edge12" class="edge"><title>siblings_2&#45;&gt;Suryakaca</title>
<path fill="none" stroke="#3498db" d="M541.034,-26C541.034,-26 559.811,-26 559.811,-26"/>
<polygon fill="#3498db" stroke="#3498db" points="567.81,-16 567.811,-36 563.811,-36.0001 563.81,-16.0001 567.81,-16"/>
<polyline fill="none" stroke="#3498db" points="569.811,-26 559.811,-26.0001 "/>
</g>
<!-- union_3 -->
<g id="node14" class="node"><title>union_3</title>
<ellipse fill="#9b59b6" stroke="white" cx="220.5" cy="-134" rx="3.5" ry="3.5"/>
</g>
<!-- siblings_3 -->
<g id="node17" class="node"><title>siblings_3</title>
<polygon fill="#9b59b6" stroke="#cccccc" stroke-width="0" points="260,-134.5 253,-134.5 253,-133.5 260,-133.5 260,-134.5"/>
</g>
<!-- union_3&#45;&gt;siblings_3 -->
<g id="edge15" class="edge"><title>union_3&#45;&gt;siblings_3</title>
<path fill="none" stroke="#9b59b6" d="M224.083,-134C230.913,-134 245.732,-134 252.715,-134"/>
</g>
<!-- Werkudara -->
<g id="node15" class="node"><title>Werkudara</title>
<polygon fill="white" stroke="#cccccc" points="188,-206 8,-206 8,-170 188,-170 188,-206"/>
<text text-anchor="middle" x="98" y="-183.8" font-family="Helvetica, Arial, sans-serif" font-size="14.00">Werkudara</text>
</g>
<!-- Werkudara&#45;&gt;union_3 -->
<g id="edge13" class="edge"><title>Werkudara&#45;&gt;union_3</title>
<path fill="none" stroke="#9b59b6" d="M188.038,-188C206.794,-188 221,-188 221,-188 221,-188 221,-149.557 221,-137.543"/>
</g>
<!-- Arimbi -->
<g id="node16" class="node"><title>Arimbi</title>
<polygon fill="white" stroke="#cccccc" points="188,-152 8,-152 8,-116 188,-116 188,-152"/>
<text text-anchor="middle" x="98" y="-129.8" font-family="Helvetica, Arial, sans-serif" font-size="14.00">Arimbi</text>
</g>
<!-- Arimbi&#45;&gt;union_3 -->
<g id="edge14" class="edge"><title>Arimbi&#45;&gt;union_3</title>
<path fill="none" stroke="#9b59b6" d="M188.315,-134C200.938,-134 211.417,-134 216.733,-134"/>
</g>
<!-- siblings_3&#45;&gt;Gatotkaca -->
<g id="edge16" class="edge"><title>siblings_3&#45;&gt;Gatotkaca</title>
<path fill="none" stroke="#9b59b6" d="M260.034,-134C260.034,-134 278.811,-134 278.811,-134"/>
<polygon fill="#9b59b6" stroke="#9b59b6" points="286.81,-124 286.811,-144 282.811,-144 282.81,-124 286.81,-124"/>
<polyline fill="none" stroke="#9b59b6" points="288.811,-134 278.811,-134 "/>
</g>
</g>
</svg>
