<?xml version="1.0" encoding="UTF-8" standalone="no"?>
<!DOCTYPE svg PUBLIC "-//W3C//DTD SVG 1.1//EN"
 "http://www.w3.org/Graphics/SVG/1.1/DTD/svg11.dtd">
<!-- Generated by graphviz version 2.38.0 (20140413.2041)
 -->
<!-- Title: G Pages: 1 -->
<svg width="766pt" height="546pt"
 viewBox="0.00 0.00 766.00 546.00" xmlns="http://www.w3.org/2000/svg" xmlns:xlink="http://www.w3.org/1999/xlink">
<g id="graph0" class="graph" transform="scale(1 1) rotate(0) translate(4 542)">
<title>G</title>
<polygon fill="white" stroke="none" points="-4,4 -4,-542 762,-542 762,4 -4,4"/>
<g id="clust1" class="cluster"><title>cluster_family_0</title>
</g>
<g id="clust4" class="cluster"><title>cluster_family_1</title>
</g>
<g id="clust7" class="cluster"><title>cluster_family_2</title>
</g>
<g id="clust10" class="cluster"><title>cluster_family_3</title>
</g>
<!-- union_0 -->
<g id="node1" class="node"><title>union_0</title>
<ellipse fill="#1abc9c" stroke="white" cx="501.5" cy="-215" rx="3.5" ry="3.5"/>
</g>
<!-- siblings_0 -->
<g id="node4" class="node"><title>siblings_0</title>
<polygon fill="#1abc9c" stroke="#cccccc" stroke-width="0" points="541,-215.5 534,-215.5 534,-214.5 541,-214.5 541,-215.5"/>
</g>
<!-- union_0&#45;&gt;siblings_0 -->
<g id="edge3" class="edge"><title>union_0&#45;&gt;siblings_0</title>
<path fill="none" stroke="#1abc9c" d="M505.083,-215C511.913,-215 526.732,-215 533.715,-215"/>
</g>
<!-- Guru -->
<g id="node2" class="node"><title>Guru</title>
<polygon fill="white" stroke="#cccccc" points="469,-260 289,-260 289,-224 469,-224 469,-260"/>
<text text-anchor="middle" x="379" y="-237.8" font-family="Helvetica, Arial, sans-serif" font-size="14.00">Guru</text>
</g>
<!-- Guru&#45;&gt;union_0 -->
<g id="edge1" class="edge"><title>Guru&#45;&gt;union_0</title>
<path fill="none" stroke="#1abc9c" d="M469.116,-245.6C488.348,-245.6 503,-245.6 503,-245.6 503,-245.6 503,-226.169 503,-218.275"/>
</g>
<!-- union_1 -->
<g id="node11" class="node"><title>union_1</title>
<ellipse fill="#2ecc71" stroke="white" cx="501.5" cy="-431" rx="3.5" ry="3.5"/>
</g>
<!-- Guru&#45;&gt;union_1 -->
<g id="edge10" class="edge"><title>Guru&#45;&gt;union_1</title>
<path fill="none" stroke="#2ecc71" d="M469.264,-252.8C487.391,-252.8 501,-252.8 501,-252.8 501,-252.8 501,-401.688 501,-427.278"/>
</g>
<!-- union_2 -->
<g id="node17" class="node"><title>union_2</title>
<ellipse fill="#3498db" stroke="white" cx="501.5" cy="-33" rx="3.5" ry="3.5"/>
</g>
<!-- Guru&#45;&gt;union_2 -->
<g id="edge16" class="edge"><title>Guru&#45;&gt;union_2</title>
<path fill="none" stroke="#3498db" d="M469.4,-231.2C478.232,-231.2 484,-231.2 484,-231.2 484,-231.2 484,-33 484,-33 484,-33 492.652,-33 497.789,-33"/>
</g>
<!-- Uma -->
<g id="node3" class="node"><title>Uma</title>
<polygon fill="white" stroke="#cccccc" points="469,-206 289,-206 289,-170 469,-170 469,-206"/>
<text text-anchor="middle" x="379" y="-183.8" font-family="Helvetica, Arial, sans-serif" font-size="14.00">Uma</text>
</g>
<!-- Uma&#45;&gt;union_0 -->
<g id="edge2" class="edge"><title>Uma&#45;&gt;union_0</title>
<path fill="none" stroke="#1abc9c" d="M469.038,-194C487.794,-194 502,-194 502,-194 502,-194 502,-205.325 502,-211.342"/>
</g>
<!-- Sambu -->
<g id="node5" class="node"><title>Sambu</title>
<polygon fill="white" stroke="#cccccc" points="750,-314 570,-314 570,-278 750,-278 750,-314"/>
<text text-anchor="middle" x="660" y="-291.8" font-family="Helvetica, Arial, sans-serif" font-size="14.00">Sambu</text>
</g>
<!-- siblings_0&#45;&gt;Sambu -->
<g id="edge4" class="edge"><title>siblings_0&#45;&gt;Sambu</title>
<path fill="none" stroke="#1abc9c" d="M537,-215.758C537,-223.174 537,-282.5 537,-282.5 537,-282.5 559.962,-282.5 559.962,-282.5"/>
<polygon fill="#1abc9c" stroke="#1abc9c" points="567.962,-272.5 567.962,-292.5 563.962,-292.5 563.962,-272.5 567.962,-272.5"/>
<polyline fill="none" stroke="#1abc9c" points="569.962,-282.5 559.962,-282.5 "/>
</g>
<!-- Brama -->
<g id="node6" class="node"><title>Brama</title>
<polygon fill="white" stroke="#cccccc" points="750,-368 570,-368 570,-332 750,-332 750,-368"/>
<text text-anchor="middle" x="660" y="-345.8" font-family="Helvetica, Arial, sans-serif" font-size="14.00">Brama</text>
</g>
<!-- siblings_0&#45;&gt;Brama -->
<g id="edge5" class="edge"><title>siblings_0&#45;&gt;Brama</title>
<path fill="none" stroke="#1abc9c" d="M536,-215.862C536,-227.36 536,-350 536,-350 536,-350 559.884,-350 559.884,-350"/>
<polygon fill="#1abc9c" stroke="#1abc9c" points="567.883,-340 567.884,-360 563.884,-360 563.883,-340 567.883,-340"/>
<polyline fill="none" stroke="#1abc9c" points="569.884,-350 559.884,-350 "/>
</g>
<!-- Indra -->
<g id="node7" class="node"><title>Indra</title>
<polygon fill="white" stroke="#cccccc" points="750,-98 570,-98 570,-62 750,-62 750,-98"/>
<text text-anchor="middle" x="660" y="-75.8" font-family="Helvetica, Arial, sans-serif" font-size="14.00">Indra</text>
</g>
<!-- siblings_0&#45;&gt;Indra -->
<g id="edge6" class="edge"><title>siblings_0&#45;&gt;Indra</title>
<path fill="none" stroke="#1abc9c" d="M536,-214.138C536,-202.64 536,-80 536,-80 536,-80 559.884,-80 559.884,-80"/>
<polygon fill="#1abc9c" stroke="#1abc9c" points="567.883,-70 567.884,-90 563.884,-90.0001 563.883,-70.0001 567.883,-70"/>
<polyline fill="none" stroke="#1abc9c" points="569.884,-80 559.884,-80.0001 "/>
</g>
<!-- Bayu -->
<g id="node8" class="node"><title>Bayu</title>
<polygon fill="white" stroke="#cccccc" points="750,-152 570,-152 570,-116 750,-116 750,-152"/>
<text text-anchor="middle" x="660" y="-129.8" font-family="Helvetica, Arial, sans-serif" font-size="14.00">Bayu</text>
</g>
<!-- siblings_0&#45;&gt;Bayu -->
<g id="edge7" class="edge"><title>siblings_0&#45;&gt;Bayu</title>
<path fill="none" stroke="#1abc9c" d="M538,-214.483C538,-207.584 538,-134 538,-134 538,-134 559.736,-134 559.736,-134"/>
<polygon fill="#1abc9c" stroke="#1abc9c" points="567.735,-124 567.736,-144 563.736,-144 563.735,-124 567.735,-124"/>
<polyline fill="none" stroke="#1abc9c" points="569.736,-134 559.736,-134 "/>
</g>
<!-- Wisnu -->
<g id="node9" class="node"><title>Wisnu</title>
<polygon fill="white" stroke="#cccccc" points="750,-206 570,-206 570,-170 750,-170 750,-206"/>
<text text-anchor="middle" x="660" y="-183.8" font-family="Helvetica, Arial, sans-serif" font-size="14.00">Wisnu</text>
</g>
<!-- siblings_0&#45;&gt;Wisnu -->
<g id="edge8" class="edge"><title>siblings_0&#45;&gt;Wisnu</title>
<path fill="none" stroke="#1abc9c" d="M540,-214.184C540,-209.103 540,-182 540,-182 540,-182 559.972,-182 559.972,-182"/>
<polygon fill="#1abc9c" stroke="#1abc9c" points="567.971,-172 567.972,-192 563.972,-192 563.971,-172 567.971,-172"/>
<polyline fill="none" stroke="#1abc9c" points="569.972,-182 559.972,-182 "/>
</g>
<!-- Dewasrani -->
<g id="node10" class="node"><title>Dewasrani</title>
<polygon fill="white" stroke="#cccccc" points="750,-260 570,-260 570,-224 750,-224 750,-260"/>
<text text-anchor="middle" x="660" y="-237.8" font-family="Helvetica, Arial, sans-serif" font-size="14.00">Dewasrani</text>
</g>
<!-- siblings_0&#45;&gt;Dewasrani -->
<g id="edge9" class="edge"><title>siblings_0&#45;&gt;Dewasrani</title>
<path fill="none" stroke="#1abc9c" d="M540,-215.578C540,-219.182 540,-238.4 540,-238.4 540,-238.4 559.972,-238.4 559.972,-238.4"/>
<polygon fill="#1abc9c" stroke="#1abc9c" points="567.971,-228.4 567.972,-248.4 563.972,-248.4 563.971,-228.4 567.971,-228.4"/>
<polyline fill="none" stroke="#1abc9c" points="569.972,-238.4 559.972,-238.4 "/>
</g>
<!-- siblings_1 -->
<g id="node13" class="node"><title>siblings_1</title>
<polygon fill="#2ecc71" stroke="#cccccc" stroke-width="0" points="541,-431.5 534,-431.5 534,-430.5 541,-430.5 541,-431.5"/>
</g>
<!-- union_1&#45;&gt;siblings_1 -->
<g id="edge12" class="edge"><title>union_1&#45;&gt;siblings_1</title>
<path fill="none" stroke="#2ecc71" d="M505.083,-431C511.913,-431 526.732,-431 533.715,-431"/>
</g>
<!-- Laksmi -->
<g id="node12" class="node"><title>Laksmi</title>
<polygon fill="white" stroke="#cccccc" points="469,-449 289,-449 289,-413 469,-413 469,-449"/>
<text text-anchor="middle" x="379" y="-426.8" font-family="Helvetica, Arial, sans-serif" font-size="14.00">Laksmi</text>
</g>
<!-- Laksmi&#45;&gt;union_1 -->
<g id="edge11" class="edge"><title>Laksmi&#45;&gt;union_1</title>
<path fill="none" stroke="#2ecc71" d="M469.315,-431C481.938,-431 492.417,-431 497.733,-431"/>
</g>
<!-- Sakra -->
<g id="node14" class="node"><title>Sakra</title>
<polygon fill="white" stroke="#cccccc" points="750,-476 570,-476 570,-440 750,-440 750,-476"/>
<text text-anchor="middle" x="660" y="-453.8" font-family="Helvetica, Arial, sans-serif" font-size="14.00">Sakra</text>
</g>
<!-- siblings_1&#45;&gt;Sakra -->
<g id="edge13" class="edge"><title>siblings_1&#45;&gt;Sakra</title>
<path fill="none" stroke="#2ecc71" d="M539,-431.58C539,-434.164 539,-444.5 539,-444.5 539,-444.5 559.846,-444.5 559.846,-444.5"/>
<polygon fill="#2ecc71" stroke="#2ecc71" points="567.846,-434.5 567.847,-454.5 563.847,-454.5 563.846,-434.5 567.846,-434.5"/>
<polyline fill="none" stroke="#2ecc71" points="569.846,-444.5 559.846,-444.5 "/>
</g>
<!-- Mahadewa -->
<g id="node15" class="node"><title>Mahadewa</title>
<polygon fill="white" stroke="#cccccc" points="750,-530 570,-530 570,-494 750,-494 750,-530"/>
<text text-anchor="middle" x="660" y="-507.8" font-family="Helvetica, Arial, sans-serif" font-size="14.00">Mahadewa</text>
</g>
<!-- siblings_1&#45;&gt;Mahadewa -->
<g id="edge14" class="edge"><title>siblings_1&#45;&gt;Mahadewa</title>
<path fill="none" stroke="#2ecc71" d="M537,-431.517C537,-438.416 537,-512 537,-512 537,-512 559.962,-512 559.962,-512"/>
<polygon fill="#2ecc71" stroke="#2ecc71" points="567.962,-502 567.962,-522 563.962,-522 563.962,-502 567.962,-502"/>
<polyline fill="none" stroke="#2ecc71" points="569.962,-512 559.962,-512 "/>
</g>
<!-- Asmara -->
<g id="node16" class="node"><title>Asmara</title>
<polygon fill="white" stroke="#cccccc" points="750,-422 570,-422 570,-386 750,-386 750,-422"/>
<text text-anchor="middle" x="660" y="-399.8" font-family="Helvetica, Arial, sans-serif" font-size="14.00">Asmara</text>
</g>
<!-- siblings_1&#45;&gt;Asmara -->
<g id="edge15" class="edge"><title>siblings_1&#45;&gt;Asmara</title>
<path fill="none" stroke="#2ecc71" d="M539,-430.42C539,-427.836 539,-417.5 539,-417.5 539,-417.5 559.846,-417.5 559.846,-417.5"/>
<polygon fill="#2ecc71" stroke="#2ecc71" points="567.846,-407.5 567.847,-427.5 563.847,-427.5 563.846,-407.5 567.846,-407.5"/>
<polyline fill="none" stroke="#2ecc71" points="569.846,-417.5 559.846,-417.5 "/>
</g>
<!-- siblings_2 -->
<g id="node18" class="node"><title>siblings_2</title>
<polygon fill="#3498db" stroke="#cccccc" stroke-width="0" points="541,-33.5 534,-33.5 534,-32.5 541,-32.5 541,-33.5"/>
</g>
<!-- union_2&#45;&gt;siblings_2 -->
<g id="edge17" class="edge"><title>union_2&#45;&gt;siblings_2</title>
<path fill="none" stroke="#3498db" d="M505.083,-33C511.913,-33 526.732,-33 533.715,-33"/>
</g>
<!-- Kala -->
<g id="node19" class="node"><title>Kala</title>
<polygon fill="white" stroke="#cccccc" points="750,-44 570,-44 570,-8 750,-8 750,-44"/>
<text text-anchor="middle" x="660" y="-21.8" font-family="Helvetica, Arial, sans-serif" font-size="14.00">Kala</text>
</g>
<!-- siblings_2&#45;&gt;Kala -->
<g id="edge18" class="edge"><title>siblings_2&#45;&gt;Kala</title>
<path fill="none" stroke="#3498db" d="M541.034,-33C541.034,-33 559.811,-33 559.811,-33"/>
<polygon fill="#3498db" stroke="#3498db" points="567.81,-23 567.811,-43 563.811,-43.0001 563.81,-23.0001 567.81,-23"/>
<polyline fill="none" stroke="#3498db" points="569.811,-33 559.811,-33.0001 "/>
</g>
<!-- union_3 -->
<g id="node20" class="node"><title>union_3</title>
<ellipse fill="#9b59b6" stroke="white" cx="220.5" cy="-242" rx="3.5" ry="3.5"/>
</g>
<!-- siblings_3 -->
<g id="node23" class="node"><title>siblings_3</title>
<polygon fill="#9b59b6" stroke="#cccccc" stroke-width="0" points="260,-242.5 253,-242.5 253,-241.5 260,-241.5 260,-242.5"/>
</g>
<!-- union_3&#45;&gt;siblings_3 -->
<g id="edge21" class="edge"><title>union_3&#45;&gt;siblings_3</title>
<path fill="none" stroke="#9b59b6" d="M224.083,-242C230.913,-242 245.732,-242 252.715,-242"/>
</g>
<!-- Sang_Hyang_Tunggal -->
<g id="node21" class="node"><title>Sang_Hyang_Tunggal</title>
<polygon fill="white" stroke="#cccccc" points="188,-287 8,-287 8,-251 188,-251 188,-287"/>
<text text-anchor="middle" x="98" y="-264.8" font-family="Helvetica, Arial, sans-serif" font-size="14.00">Sang_Hyang_Tunggal</text>
</g>
<!-- Sang_Hyang_Tunggal&#45;&gt;union_3 -->
<g id="edge19" class="edge"><title>Sang_Hyang_Tunggal&#45;&gt;union_3</title>
<path fill="none" stroke="#9b59b6" d="M188.038,-255.5C206.794,-255.5 221,-255.5 221,-255.5 221,-255.5 221,-249.686 221,-245.689"/>
</g>
<!-- Rakti -->
<g id="node22" class="node"><title>Rakti</title>
<polygon fill="white" stroke="#cccccc" points="188,-233 8,-233 8,-197 188,-197 188,-233"/>
<text text-anchor="middle" x="98" y="-210.8" font-family="Helvetica, Arial, sans-serif" font-size="14.00">Rakti</text>
</g>
<!-- Rakti&#45;&gt;union_3 -->
<g id="edge20" class="edge"><title>Rakti&#45;&gt;union_3</title>
<path fill="none" stroke="#9b59b6" d="M188.038,-228.5C206.794,-228.5 221,-228.5 221,-228.5 221,-228.5 221,-234.314 221,-238.311"/>
</g>
<!-- siblings_3&#45;&gt;Guru -->
<g id="edge22" class="edge"><title>siblings_3&#45;&gt;Guru</title>
<path fill="none" stroke="#9b59b6" d="M260.034,-242C260.034,-242 278.811,-242 278.811,-242"/>
<polygon fill="#9b59b6" stroke="#9b59b6" points="286.81,-232 286.811,-252 282.811,-252 282.81,-232 286.81,-232"/>
<polyline fill="none" stroke="#9b59b6" points="288.811,-242 278.811,-242 "/>
</g>
</g>
</svg>
