<?xml version="1.0" encoding="UTF-8" standalone="no"?>
<!DOCTYPE svg PUBLIC "-//W3C//DTD SVG 1.1//EN"
 "http://www.w3.org/Graphics/SVG/1.1/DTD/svg11.dtd">
<!-- Generated by graphviz version 2.38.0 (20140413.2041)
 -->
<!-- Title: G Pages: 1 -->
<svg width="766pt" height="438pt"
 viewBox="0.00 0.00 766.00 438.00" xmlns="http://www.w3.org/2000/svg" xmlns:xlink="http://www.w3.org/1999/xlink">
<g id="graph0" class="graph" transform="scale(1 1) rotate(0) translate(4 434)">
<title>G</title>
<polygon fill="white" stroke="none" points="-4,4 -4,-434 762,-434 762,4 -4,4"/>
<g id="clust1" class="cluster"><title>cluster_family_0</title>
</g>
<g id="clust4" class="cluster"><title>cluster_family_1</title>
</g>
<!-- union_0 -->
<g id="node1" class="node"><title>union_0</title>
<ellipse fill="#1abc9c" stroke="white" cx="501.5" cy="-215" rx="3.5" ry="3.5"/>
</g>
<!-- siblings_0 -->
<g id="node4" class="node"><title>siblings_0</title>
<polygon fill="#1abc9c" stroke="#cccccc" stroke-width="0" points="541,-215.5 534,-215.5 534,-214.5 541,-214.5 541,-215.5"/>
</g>
<!-- union_0&#45;&gt;siblings_0 -->
<g id="edge3" class="edge"><title>union_0&#45;&gt;siblings_0</title>
<path fill="none" stroke="#1abc9c" d="M505.083,-215C511.913,-215 526.732,-215 533.715,-215"/>
</g>
<!-- Indra -->
<g id="node2" class="node"><title>Indra</title>
<polygon fill="white" stroke="#cccccc" points="469,-260 289,-260 289,-224 469,-224 469,-260"/>
<text text-anchor="middle" x="379" y="-237.8" font-family="Helvetica, Arial, sans-serif" font-size="14.00">Indra</text>
</g>
<!-- Indra&#45;&gt;union_0 -->
<g id="edge1" class="edge"><title>Indra&#45;&gt;union_0</title>
<path fill="none" stroke="#1abc9c" d="M469.038,-248C487.794,-248 502,-248 502,-248 502,-248 502,-227.045 502,-218.532"/>
</g>
<!-- Wiyati -->
<g id="node3" class="node"><title>Wiyati</title>
<polygon fill="white" stroke="#cccccc" points="469,-206 289,-206 289,-170 469,-170 469,-206"/>
<text text-anchor="middle" x="379" y="-183.8" font-family="Helvetica, Arial, sans-serif" font-size="14.00">Wiyati</text>
</g>
<!-- Wiyati&#45;&gt;union_0 -->
<g id="edge2" class="edge"><title>Wiyati&#45;&gt;union_0</title>
<path fill="none" stroke="#1abc9c" d="M469.038,-194C487.794,-194 502,-194 502,-194 502,-194 502,-205.325 502,-211.342"/>
</g>
<!-- Tara -->
<g id="node5" class="node"><title>Tara</title>
<polygon fill="white" stroke="#cccccc" points="750,-44 570,-44 570,-8 750,-8 750,-44"/>
<text text-anchor="middle" x="660" y="-21.8" font-family="Helvetica, Arial, sans-serif" font-size="14.00">Tara</text>
</g>
<!-- siblings_0&#45;&gt;Tara -->
<g id="edge4" class="edge"><title>siblings_0&#45;&gt;Tara</title>
<path fill="none" stroke="#1abc9c" d="M536,-214.458C536,-203.372 536,-26 536,-26 536,-26 559.884,-26 559.884,-26"/>
<polygon fill="#1abc9c" stroke="#1abc9c" points="567.883,-16 567.884,-36 563.884,-36.0001 563.883,-16.0001 567.883,-16"/>
<polyline fill="none" stroke="#1abc9c" points="569.884,-26 559.884,-26.0001 "/>
</g>
<!-- Tari -->
<g id="node6" class="node"><title>Tari</title>
<polygon fill="white" stroke="#cccccc" points="750,-98 570,-98 570,-62 750,-62 750,-98"/>
<text text-anchor="middle" x="660" y="-75.8" font-family="Helvetica, Arial, sans-serif" font-size="14.00">Tari</text>
</g>
<!-- siblings_0&#45;&gt;Tari -->
<g id="edge5" class="edge"><title>siblings_0&#45;&gt;Tari</title>
<path fill="none" stroke="#1abc9c" d="M537,-214.138C537,-202.64 537,-80 537,-80 537,-80 559.962,-80 559.962,-80"/>
<polygon fill="#1abc9c" stroke="#1abc9c" points="567.962,-70 567.962,-90 563.962,-90.0001 563.962,-70.0001 567.962,-70"/>
<polyline fill="none" stroke="#1abc9c" points="569.962,-80 559.962,-80.0001 "/>
</g>
<!-- Citrarata -->
<g id="node7" class="node"><title>Citrarata</title>
<polygon fill="white" stroke="#cccccc" points="750,-152 570,-152 570,-116 750,-116 750,-152"/>
<text text-anchor="middle" x="660" y="-129.8" font-family="Helvetica, Arial, sans-serif" font-size="14.00">Citrarata</text>
</g>
<!-- siblings_0&#45;&gt;Citrarata -->
<g id="edge6" class="edge"><title>siblings_0&#45;&gt;Citrarata</title>
<path fill="none" stroke="#1abc9c" d="M539,-214.483C539,-207.584 539,-134 539,-134 539,-134 559.846,-134 559.846,-134"/>
<polygon fill="#1abc9c" stroke="#1abc9c" points="567.846,-124 567.847,-144 563.847,-144 563.846,-124 567.846,-124"/>
<polyline fill="none" stroke="#1abc9c" points="569.846,-134 559.846,-134 "/>
</g>
<!-- Citragana -->
<g id="node8" class="node"><title>Citragana</title>
<polygon fill="white" stroke="#cccccc" points="750,-206 570,-206 570,-170 750,-170 750,-206"/>
<text text-anchor="middle" x="660" y="-183.8" font-family="Helvetica, Arial, sans-serif" font-size="14.00">Citragana</text>
</g>
<!-- siblings_0&#45;&gt;Citragana -->
<g id="edge7" class="edge"><title>siblings_0&#45;&gt;Citragana</title>
<path fill="none" stroke="#1abc9c" d="M540,-214.184C540,-209.103 540,-182 540,-182 540,-182 559.972,-182 559.972,-182"/>
<polygon fill="#1abc9c" stroke="#1abc9c" points="567.971,-172 567.972,-192 563.972,-192 563.971,-172 567.971,-172"/>
<polyline fill="none" stroke="#1abc9c" points="569.972,-182 559.972,-182 "/>
</g>
<!-- Jayantaka -->
<g id="node9" class="node"><title>Jayantaka</title>
<polygon fill="white" stroke="#cccccc" points="750,-260 570,-260 570,-224 750,-224 750,-260"/>
<text text-anchor="middle" x="660" y="-237.8" font-family="Helvetica, Arial, sans-serif" font-size="14.00">Jayantaka</text>
</g>
<!-- siblings_0&#45;&gt;Jayantaka -->
<g id="edge8" class="edge"><title>siblings_0&#45;&gt;Jayantaka</title>
<path fill="none" stroke="#1abc9c" d="M540,-215.519C540,-218.753 540,-236 540,-236 540,-236 559.972,-236 559.972,-236"/>
<polygon fill="#1abc9c" stroke="#1abc9c" points="567.971,-226 567.972,-246 563.972,-246 563.971,-226 567.971,-226"/>
<polyline fill="none" stroke="#1abc9c" points="569.972,-236 559.972,-236 "/>
</g>
<!-- Harjunawangsa -->
<g id="node10" class="node"><title>Harjunawangsa</title>
<polygon fill="white" stroke="#cccccc" points="750,-314 570,-314 570,-278 750,-278 750,-314"/>
<text text-anchor="middle" x="660" y="-291.8" font-family="Helvetica, Arial, sans-serif" font-size="14.00">Harjunawangsa</text>
</g>
<!-- siblings_0&#45;&gt;Harjunawangsa -->
<g id="edge9" class="edge"><title>siblings_0&#45;&gt;Harjunawangsa</title>
<path fill="none" stroke="#1abc9c" d="M538,-215.758C538,-223.174 538,-282.5 538,-282.5 538,-282.5 559.736,-282.5 559.736,-282.5"/>
<polygon fill="#1abc9c" stroke="#1abc9c" points="567.735,-272.5 567.736,-292.5 563.736,-292.5 563.735,-272.5 567.735,-272.5"/>
<polyline fill="none" stroke="#1abc9c" points="569.736,-282.5 559.736,-282.5 "/>
</g>
<!-- Jayantara -->
<g id="node11" class="node"><title>Jayantara</title>
<polygon fill="white" stroke="#cccccc" points="750,-368 570,-368 570,-332 750,-332 750,-368"/>
<text text-anchor="middle" x="660" y="-345.8" font-family="Helvetica, Arial, sans-serif" font-size="14.00">Jayantara</text>
</g>
<!-- siblings_0&#45;&gt;Jayantara -->
<g id="edge10" class="edge"><title>siblings_0&#45;&gt;Jayantara</title>
<path fill="none" stroke="#1abc9c" d="M536,-215.862C536,-227.36 536,-350 536,-350 536,-350 559.884,-350 559.884,-350"/>
<polygon fill="#1abc9c" stroke="#1abc9c" points="567.883,-340 567.884,-360 563.884,-360 563.883,-340 567.883,-340"/>
<polyline fill="none" stroke="#1abc9c" points="569.884,-350 559.884,-350 "/>
</g>
<!-- Supraba -->
<g id="node12" class="node"><title>Supraba</title>
<polygon fill="white" stroke="#cccccc" points="750,-422 570,-422 570,-386 750,-386 750,-422"/>
<text text-anchor="middle" x="660" y="-399.8" font-family="Helvetica, Arial, sans-serif" font-size="14.00">Supraba</text>
</g>
<!-- siblings_0&#45;&gt;Supraba -->
<g id="edge11" class="edge"><title>siblings_0&#45;&gt;Supraba</title>
<path fill="none" stroke="#1abc9c" d="M541.067,-215C546.443,-215 556,-215 556,-215 556,-215 556,-404 556,-404 556,-404 559.596,-404 559.596,-404"/>
<polygon fill="#1abc9c" stroke="#1abc9c" points="567.596,-394 567.596,-414 563.596,-414 563.596,-394 567.596,-394"/>
<polyline fill="none" stroke="#1abc9c" points="569.596,-404 559.596,-404 "/>
</g>
<!-- union_1 -->
<g id="node13" class="node"><title>union_1</title>
<ellipse fill="#2ecc71" stroke="white" cx="220.5" cy="-242" rx="3.5" ry="3.5"/>
</g>
<!-- siblings_1 -->
<g id="node16" class="node"><title>siblings_1</title>
<polygon fill="#2ecc71" stroke="#cccccc" stroke-width="0" points="260,-242.5 253,-242.5 253,-241.5 260,-241.5 260,-242.5"/>
</g>
<!-- union_1&#45;&gt;siblings_1 -->
<g id="edge14" class="edge"><title>union_1&#45;&gt;siblings_1</title>
<path fill="none" stroke="#2ecc71" d="M224.083,-242C230.913,-242 245.732,-242 252.715,-242"/>
</g>
<!-- Guru -->
<g id="node14" class="node"><title>Guru</title>
<polygon fill="white" stroke="#cccccc" points="188,-287 8,-287 8,-251 188,-251 188,-287"/>
<text text-anchor="middle" x="98" y="-264.8" font-family="Helvetica, Arial, sans-serif" font-size="14.00">Guru</text>
</g>
<!-- Guru&#45;&gt;union_1 -->
<g id="edge12" class="edge"><title>Guru&#45;&gt;union_1</title>
<path fill="none" stroke="#2ecc71" d="M188.038,-255.5C206.794,-255.5 221,-255.5 221,-255.5 221,-255.5 221,-249.686 221,-245.689"/>
</g>
<!-- Uma -->
<g id="node15" class="node"><title>Uma</title>
<polygon fill="white" stroke="#cccccc" points="188,-233 8,-233 8,-197 188,-197 188,-233"/>
<text text-anchor="middle" x="98" y="-210.8" font-family="Helvetica, Arial, sans-serif" font-size="14.00">Uma</text>
</g>
<!-- Uma&#45;&gt;union_1 -->
<g id="edge13" class="edge"><title>Uma&#45;&gt;union_1</title>
<path fill="none" stroke="#2ecc71" d="M188.038,-228.5C206.794,-228.5 221,-228.5 221,-228.5 221,-228.5 221,-234.314 221,-238.311"/>
</g>
<!-- siblings_1&#45;&gt;Indra -->
<g id="edge15" class="edge"><title>siblings_1&#45;&gt;Indra</title>
<path fill="none" stroke="#2ecc71" d="M260.034,-242C260.034,-242 278.811,-242 278.811,-242"/>
<polygon fill="#2ecc71" stroke="#2ecc71" points="286.81,-232 286.811,-252 282.811,-252 282.81,-232 286.81,-232"/>
<polyline fill="none" stroke="#2ecc71" points="288.811,-242 278.811,-242 "/>
</g>
</g>
</svg>
