<?xml version="1.0" encoding="UTF-8" standalone="no"?>
<!DOCTYPE svg PUBLIC "-//W3C//DTD SVG 1.1//EN"
 "http://www.w3.org/Graphics/SVG/1.1/DTD/svg11.dtd">
<!-- Generated by graphviz version 2.38.0 (20140413.2041)
 -->
<!-- Title: G Pages: 1 -->
<svg width="766pt" height="546pt"
 viewBox="0.00 0.00 766.00 546.00" xmlns="http://www.w3.org/2000/svg" xmlns:xlink="http://www.w3.org/1999/xlink">
<g id="graph0" class="graph" transform="scale(1 1) rotate(0) translate(4 542)">
<title>G</title>
<polygon fill="white" stroke="none" points="-4,4 -4,-542 762,-542 762,4 -4,4"/>
<g id="clust1" class="cluster"><title>cluster_family_0</title>
</g>
<g id="clust4" class="cluster"><title>cluster_family_1</title>
</g>
<g id="clust6" class="cluster"><title>cluster_family_2</title>
</g>
<!-- union_0 -->
<g id="node1" class="node"><title>union_0</title>
<ellipse fill="#1abc9c" stroke="white" cx="501.5" cy="-269" rx="3.5" ry="3.5"/>
</g>
<!-- siblings_0 -->
<g id="node4" class="node"><title>siblings_0</title>
<polygon fill="#1abc9c" stroke="#cccccc" stroke-width="0" points="541,-269.5 534,-269.5 534,-268.5 541,-268.5 541,-269.5"/>
</g>
<!-- union_0&#45;&gt;siblings_0 -->
<g id="edge3" class="edge"><title>union_0&#45;&gt;siblings_0</title>
<path fill="none" stroke="#1abc9c" d="M505.083,-269C511.913,-269 526.732,-269 533.715,-269"/>
</g>
<!-- Kanastren -->
<g id="node2" class="node"><title>Kanastren</title>
<polygon fill="white" stroke="#cccccc" points="469,-314 289,-314 289,-278 469,-278 469,-314"/>
<text text-anchor="middle" x="379" y="-291.8" font-family="Helvetica, Arial, sans-serif" font-size="14.00">Kanastren</text>
</g>
<!-- Kanastren&#45;&gt;union_0 -->
<g id="edge1" class="edge"><title>Kanastren&#45;&gt;union_0</title>
<path fill="none" stroke="#1abc9c" d="M469.038,-290C487.794,-290 502,-290 502,-290 502,-290 502,-278.675 502,-272.658"/>
</g>
<!-- Semar -->
<g id="node3" class="node"><title>Semar</title>
<polygon fill="white" stroke="#cccccc" points="469,-260 289,-260 289,-224 469,-224 469,-260"/>
<text text-anchor="middle" x="379" y="-237.8" font-family="Helvetica, Arial, sans-serif" font-size="14.00">Semar</text>
</g>
<!-- Semar&#45;&gt;union_0 -->
<g id="edge2" class="edge"><title>Semar&#45;&gt;union_0</title>
<path fill="none" stroke="#1abc9c" d="M469.038,-236C487.794,-236 502,-236 502,-236 502,-236 502,-256.955 502,-265.468"/>
</g>
<!-- Kamajaya -->
<g id="node5" class="node"><title>Kamajaya</title>
<polygon fill="white" stroke="#cccccc" points="750,-44 570,-44 570,-8 750,-8 750,-44"/>
<text text-anchor="middle" x="660" y="-21.8" font-family="Helvetica, Arial, sans-serif" font-size="14.00">Kamajaya</text>
</g>
<!-- siblings_0&#45;&gt;Kamajaya -->
<g id="edge4" class="edge"><title>siblings_0&#45;&gt;Kamajaya</title>
<path fill="none" stroke="#1abc9c" d="M536,-268.303C536,-254.05 536,-26 536,-26 536,-26 559.884,-26 559.884,-26"/>
<polygon fill="#1abc9c" stroke="#1abc9c" points="567.883,-16 567.884,-36 563.884,-36.0001 563.883,-16.0001 567.883,-16"/>
<polyline fill="none" stroke="#1abc9c" points="569.884,-26 559.884,-26.0001 "/>
</g>
<!-- Wungkuam -->
<g id="node6" class="node"><title>Wungkuam</title>
<polygon fill="white" stroke="#cccccc" points="750,-98 570,-98 570,-62 750,-62 750,-98"/>
<text text-anchor="middle" x="660" y="-75.8" font-family="Helvetica, Arial, sans-serif" font-size="14.00">Wungkuam</text>
</g>
<!-- siblings_0&#45;&gt;Wungkuam -->
<g id="edge5" class="edge"><title>siblings_0&#45;&gt;Wungkuam</title>
<path fill="none" stroke="#1abc9c" d="M537,-268.458C537,-257.372 537,-80 537,-80 537,-80 559.962,-80 559.962,-80"/>
<polygon fill="#1abc9c" stroke="#1abc9c" points="567.962,-70 567.962,-90 563.962,-90.0001 563.962,-70.0001 567.962,-70"/>
<polyline fill="none" stroke="#1abc9c" points="569.962,-80 559.962,-80.0001 "/>
</g>
<!-- Tambora -->
<g id="node7" class="node"><title>Tambora</title>
<polygon fill="white" stroke="#cccccc" points="750,-152 570,-152 570,-116 750,-116 750,-152"/>
<text text-anchor="middle" x="660" y="-129.8" font-family="Helvetica, Arial, sans-serif" font-size="14.00">Tambora</text>
</g>
<!-- siblings_0&#45;&gt;Tambora -->
<g id="edge6" class="edge"><title>siblings_0&#45;&gt;Tambora</title>
<path fill="none" stroke="#1abc9c" d="M538,-268.138C538,-256.64 538,-134 538,-134 538,-134 559.736,-134 559.736,-134"/>
<polygon fill="#1abc9c" stroke="#1abc9c" points="567.735,-124 567.736,-144 563.736,-144 563.735,-124 567.735,-124"/>
<polyline fill="none" stroke="#1abc9c" points="569.736,-134 559.736,-134 "/>
</g>
<!-- Wrahaspati -->
<g id="node8" class="node"><title>Wrahaspati</title>
<polygon fill="white" stroke="#cccccc" points="750,-206 570,-206 570,-170 750,-170 750,-206"/>
<text text-anchor="middle" x="660" y="-183.8" font-family="Helvetica, Arial, sans-serif" font-size="14.00">Wrahaspati</text>
</g>
<!-- siblings_0&#45;&gt;Wrahaspati -->
<g id="edge7" class="edge"><title>siblings_0&#45;&gt;Wrahaspati</title>
<path fill="none" stroke="#1abc9c" d="M539,-268.169C539,-260.039 539,-195 539,-195 539,-195 559.846,-195 559.846,-195"/>
<polygon fill="#1abc9c" stroke="#1abc9c" points="567.846,-185 567.847,-205 563.847,-205 563.846,-185 567.846,-185"/>
<polyline fill="none" stroke="#1abc9c" points="569.846,-195 559.846,-195 "/>
</g>
<!-- Siwah -->
<g id="node9" class="node"><title>Siwah</title>
<polygon fill="white" stroke="#cccccc" points="750,-260 570,-260 570,-224 750,-224 750,-260"/>
<text text-anchor="middle" x="660" y="-237.8" font-family="Helvetica, Arial, sans-serif" font-size="14.00">Siwah</text>
</g>
<!-- siblings_0&#45;&gt;Siwah -->
<g id="edge8" class="edge"><title>siblings_0&#45;&gt;Siwah</title>
<path fill="none" stroke="#1abc9c" d="M540,-268.481C540,-265.247 540,-248 540,-248 540,-248 559.972,-248 559.972,-248"/>
<polygon fill="#1abc9c" stroke="#1abc9c" points="567.971,-238 567.972,-258 563.972,-258 563.971,-238 567.971,-238"/>
<polyline fill="none" stroke="#1abc9c" points="569.972,-248 559.972,-248 "/>
</g>
<!-- Kuwera -->
<g id="node10" class="node"><title>Kuwera</title>
<polygon fill="white" stroke="#cccccc" points="750,-314 570,-314 570,-278 750,-278 750,-314"/>
<text text-anchor="middle" x="660" y="-291.8" font-family="Helvetica, Arial, sans-serif" font-size="14.00">Kuwera</text>
</g>
<!-- siblings_0&#45;&gt;Kuwera -->
<g id="edge9" class="edge"><title>siblings_0&#45;&gt;Kuwera</title>
<path fill="none" stroke="#1abc9c" d="M540,-269.816C540,-274.897 540,-302 540,-302 540,-302 559.972,-302 559.972,-302"/>
<polygon fill="#1abc9c" stroke="#1abc9c" points="567.971,-292 567.972,-312 563.972,-312 563.971,-292 567.971,-292"/>
<polyline fill="none" stroke="#1abc9c" points="569.972,-302 559.972,-302 "/>
</g>
<!-- Candra -->
<g id="node11" class="node"><title>Candra</title>
<polygon fill="white" stroke="#cccccc" points="750,-368 570,-368 570,-332 750,-332 750,-368"/>
<text text-anchor="middle" x="660" y="-345.8" font-family="Helvetica, Arial, sans-serif" font-size="14.00">Candra</text>
</g>
<!-- siblings_0&#45;&gt;Candra -->
<g id="edge10" class="edge"><title>siblings_0&#45;&gt;Candra</title>
<path fill="none" stroke="#1abc9c" d="M539,-269.517C539,-276.416 539,-350 539,-350 539,-350 559.846,-350 559.846,-350"/>
<polygon fill="#1abc9c" stroke="#1abc9c" points="567.846,-340 567.847,-360 563.847,-360 563.846,-340 567.846,-340"/>
<polyline fill="none" stroke="#1abc9c" points="569.846,-350 559.846,-350 "/>
</g>
<!-- Yamadipati -->
<g id="node12" class="node"><title>Yamadipati</title>
<polygon fill="white" stroke="#cccccc" points="750,-422 570,-422 570,-386 750,-386 750,-422"/>
<text text-anchor="middle" x="660" y="-399.8" font-family="Helvetica, Arial, sans-serif" font-size="14.00">Yamadipati</text>
</g>
<!-- siblings_0&#45;&gt;Yamadipati -->
<g id="edge11" class="edge"><title>siblings_0&#45;&gt;Yamadipati</title>
<path fill="none" stroke="#1abc9c" d="M537,-269.862C537,-281.36 537,-404 537,-404 537,-404 559.962,-404 559.962,-404"/>
<polygon fill="#1abc9c" stroke="#1abc9c" points="567.962,-394 567.962,-414 563.962,-414 563.962,-394 567.962,-394"/>
<polyline fill="none" stroke="#1abc9c" points="569.962,-404 559.962,-404 "/>
</g>
<!-- Surya -->
<g id="node13" class="node"><title>Surya</title>
<polygon fill="white" stroke="#cccccc" points="750,-476 570,-476 570,-440 750,-440 750,-476"/>
<text text-anchor="middle" x="660" y="-453.8" font-family="Helvetica, Arial, sans-serif" font-size="14.00">Surya</text>
</g>
<!-- siblings_0&#45;&gt;Surya -->
<g id="edge12" class="edge"><title>siblings_0&#45;&gt;Surya</title>
<path fill="none" stroke="#1abc9c" d="M541.067,-269C546.443,-269 556,-269 556,-269 556,-269 556,-458 556,-458 556,-458 559.596,-458 559.596,-458"/>
<polygon fill="#1abc9c" stroke="#1abc9c" points="567.596,-448 567.596,-468 563.596,-468 563.596,-448 567.596,-448"/>
<polyline fill="none" stroke="#1abc9c" points="569.596,-458 559.596,-458 "/>
</g>
<!-- Darmanesti -->
<g id="node14" class="node"><title>Darmanesti</title>
<polygon fill="white" stroke="#cccccc" points="750,-530 570,-530 570,-494 750,-494 750,-530"/>
<text text-anchor="middle" x="660" y="-507.8" font-family="Helvetica, Arial, sans-serif" font-size="14.00">Darmanesti</text>
</g>
<!-- siblings_0&#45;&gt;Darmanesti -->
<g id="edge13" class="edge"><title>siblings_0&#45;&gt;Darmanesti</title>
<path fill="none" stroke="#1abc9c" d="M536,-269.697C536,-283.95 536,-512 536,-512 536,-512 559.884,-512 559.884,-512"/>
<polygon fill="#1abc9c" stroke="#1abc9c" points="567.883,-502 567.884,-522 563.884,-522 563.883,-502 567.883,-502"/>
<polyline fill="none" stroke="#1abc9c" points="569.884,-512 559.884,-512 "/>
</g>
<!-- siblings_1 -->
<g id="node15" class="node"><title>siblings_1</title>
<polygon fill="#2ecc71" stroke="#cccccc" stroke-width="0" points="260,-296.5 253,-296.5 253,-295.5 260,-295.5 260,-296.5"/>
</g>
<!-- siblings_1&#45;&gt;Kanastren -->
<g id="edge14" class="edge"><title>siblings_1&#45;&gt;Kanastren</title>
<path fill="none" stroke="#2ecc71" d="M260.034,-296C260.034,-296 278.811,-296 278.811,-296"/>
<polygon fill="#2ecc71" stroke="#2ecc71" points="286.81,-286 286.811,-306 282.811,-306 282.81,-286 286.81,-286"/>
<polyline fill="none" stroke="#2ecc71" points="288.811,-296 278.811,-296 "/>
</g>
<!-- union_2 -->
<g id="node16" class="node"><title>union_2</title>
<ellipse fill="#3498db" stroke="white" cx="220.5" cy="-242" rx="3.5" ry="3.5"/>
</g>
<!-- siblings_2 -->
<g id="node19" class="node"><title>siblings_2</title>
<polygon fill="#3498db" stroke="#cccccc" stroke-width="0" points="260,-242.5 253,-242.5 253,-241.5 260,-241.5 260,-242.5"/>
</g>
<!-- union_2&#45;&gt;siblings_2 -->
<g id="edge17" class="edge"><title>union_2&#45;&gt;siblings_2</title>
<path fill="none" stroke="#3498db" d="M224.083,-242C230.913,-242 245.732,-242 252.715,-242"/>
</g>
<!-- Rekatawati -->
<g id="node17" class="node"><title>Rekatawati</title>
<polygon fill="white" stroke="#cccccc" points="188,-274 8,-274 8,-238 188,-238 188,-274"/>
<text text-anchor="middle" x="98" y="-251.8" font-family="Helvetica, Arial, sans-serif" font-size="14.00">Rekatawati</text>
</g>
<!-- Rekatawati&#45;&gt;union_2 -->
<g id="edge15" class="edge"><title>Rekatawati&#45;&gt;union_2</title>
<path fill="none" stroke="#3498db" d="M188.315,-242C200.938,-242 211.417,-242 216.733,-242"/>
</g>
<!-- Sang_Hyang_Tunggal -->
<g id="node18" class="node"><title>Sang_Hyang_Tunggal</title>
<polygon fill="white" stroke="#cccccc" points="188,-220 8,-220 8,-184 188,-184 188,-220"/>
<text text-anchor="middle" x="98" y="-197.8" font-family="Helvetica, Arial, sans-serif" font-size="14.00">Sang_Hyang_Tunggal</text>
</g>
<!-- Sang_Hyang_Tunggal&#45;&gt;union_2 -->
<g id="edge16" class="edge"><title>Sang_Hyang_Tunggal&#45;&gt;union_2</title>
<path fill="none" stroke="#3498db" d="M188.038,-213C206.794,-213 221,-213 221,-213 221,-213 221,-230.7 221,-238.444"/>
</g>
<!-- siblings_2&#45;&gt;Semar -->
<g id="edge18" class="edge"><title>siblings_2&#45;&gt;Semar</title>
<path fill="none" stroke="#3498db" d="M260.034,-242C260.034,-242 278.811,-242 278.811,-242"/>
<polygon fill="#3498db" stroke="#3498db" points="286.81,-232 286.811,-252 282.811,-252 282.81,-232 286.81,-232"/>
<polyline fill="none" stroke="#3498db" points="288.811,-242 278.811,-242 "/>
</g>
</g>
</svg>
