<?xml version="1.0" encoding="UTF-8" standalone="no"?>
<!DOCTYPE svg PUBLIC "-//W3C//DTD SVG 1.1//EN"
 "http://www.w3.org/Graphics/SVG/1.1/DTD/svg11.dtd">
<!-- Generated by graphviz version 2.38.0 (20140413.2041)
 -->
<!-- Title: G Pages: 1 -->
<svg width="521pt" height="546pt"
 viewBox="0.00 0.00 521.00 546.00" xmlns="http://www.w3.org/2000/svg" xmlns:xlink="http://www.w3.org/1999/xlink">
<g id="graph0" class="graph" transform="scale(1 1) rotate(0) translate(4 542)">
<title>G</title>
<polygon fill="white" stroke="none" points="-4,4 -4,-542 517,-542 517,4 -4,4"/>
<g id="clust1" class="cluster"><title>cluster_family_0</title>
</g>
<g id="clust4" class="cluster"><title>cluster_family_1</title>
</g>
<g id="clust6" class="cluster"><title>cluster_family_2</title>
</g>
<!-- union_0 -->
<g id="node1" class="node"><title>union_0</title>
<ellipse fill="#1abc9c" stroke="white" cx="256.5" cy="-269" rx="3.5" ry="3.5"/>
</g>
<!-- siblings_0 -->
<g id="node4" class="node"><title>siblings_0</title>
<polygon fill="#1abc9c" stroke="#cccccc" stroke-width="0" points="296,-269.5 289,-269.5 289,-268.5 296,-268.5 296,-269.5"/>
</g>
<!-- union_0&#45;&gt;siblings_0 -->
<g id="edge3" class="edge"><title>union_0&#45;&gt;siblings_0</title>
<path fill="none" stroke="#1abc9c" d="M260.083,-269C266.913,-269 281.732,-269 288.715,-269"/>
</g>
<!-- Kanastren -->
<g id="node2" class="node"><title>Kanastren</title>
<polygon fill="white" stroke="#cccccc" points="224,-314 44,-314 44,-278 224,-278 224,-314"/>
<text text-anchor="middle" x="134" y="-291.8" font-family="Helvetica, Arial, sans-serif" font-size="14.00">Kanastren</text>
</g>
<!-- Kanastren&#45;&gt;union_0 -->
<g id="edge1" class="edge"><title>Kanastren&#45;&gt;union_0</title>
<path fill="none" stroke="#1abc9c" d="M224.038,-290C242.794,-290 257,-290 257,-290 257,-290 257,-278.675 257,-272.658"/>
</g>
<!-- Semar -->
<g id="node3" class="node"><title>Semar</title>
<polygon fill="white" stroke="#cccccc" points="224,-260 44,-260 44,-224 224,-224 224,-260"/>
<text text-anchor="middle" x="134" y="-237.8" font-family="Helvetica, Arial, sans-serif" font-size="14.00">Semar</text>
</g>
<!-- Semar&#45;&gt;union_0 -->
<g id="edge2" class="edge"><title>Semar&#45;&gt;union_0</title>
<path fill="none" stroke="#1abc9c" d="M224.038,-248C242.794,-248 257,-248 257,-248 257,-248 257,-259.325 257,-265.342"/>
</g>
<!-- Kamajaya -->
<g id="node5" class="node"><title>Kamajaya</title>
<polygon fill="white" stroke="#cccccc" points="505,-44 325,-44 325,-8 505,-8 505,-44"/>
<text text-anchor="middle" x="415" y="-21.8" font-family="Helvetica, Arial, sans-serif" font-size="14.00">Kamajaya</text>
</g>
<!-- siblings_0&#45;&gt;Kamajaya -->
<g id="edge4" class="edge"><title>siblings_0&#45;&gt;Kamajaya</title>
<path fill="none" stroke="#1abc9c" d="M291,-268.303C291,-254.05 291,-26 291,-26 291,-26 314.884,-26 314.884,-26"/>
<polygon fill="#1abc9c" stroke="#1abc9c" points="322.883,-16 322.884,-36 318.884,-36.0001 318.883,-16.0001 322.883,-16"/>
<polyline fill="none" stroke="#1abc9c" points="324.884,-26 314.884,-26.0001 "/>
</g>
<!-- Wungkuam -->
<g id="node6" class="node"><title>Wungkuam</title>
<polygon fill="white" stroke="#cccccc" points="505,-98 325,-98 325,-62 505,-62 505,-98"/>
<text text-anchor="middle" x="415" y="-75.8" font-family="Helvetica, Arial, sans-serif" font-size="14.00">Wungkuam</text>
</g>
<!-- siblings_0&#45;&gt;Wungkuam -->
<g id="edge5" class="edge"><title>siblings_0&#45;&gt;Wungkuam</title>
<path fill="none" stroke="#1abc9c" d="M296.067,-269C301.443,-269 311,-269 311,-269 311,-269 311,-80 311,-80 311,-80 314.596,-80 314.596,-80"/>
<polygon fill="#1abc9c" stroke="#1abc9c" points="322.596,-70 322.596,-90 318.596,-90.0001 318.596,-70.0001 322.596,-70"/>
<polyline fill="none" stroke="#1abc9c" points="324.596,-80 314.596,-80.0001 "/>
</g>
<!-- Tambora -->
<g id="node7" class="node"><title>Tambora</title>
<polygon fill="white" stroke="#cccccc" points="505,-152 325,-152 325,-116 505,-116 505,-152"/>
<text text-anchor="middle" x="415" y="-129.8" font-family="Helvetica, Arial, sans-serif" font-size="14.00">Tambora</text>
</g>
<!-- siblings_0&#45;&gt;Tambora -->
<g id="edge6" class="edge"><title>siblings_0&#45;&gt;Tambora</title>
<path fill="none" stroke="#1abc9c" d="M292,-268.138C292,-256.64 292,-134 292,-134 292,-134 314.962,-134 314.962,-134"/>
<polygon fill="#1abc9c" stroke="#1abc9c" points="322.962,-124 322.962,-144 318.962,-144 318.962,-124 322.962,-124"/>
<polyline fill="none" stroke="#1abc9c" points="324.962,-134 314.962,-134 "/>
</g>
<!-- Wrahaspati -->
<g id="node8" class="node"><title>Wrahaspati</title>
<polygon fill="white" stroke="#cccccc" points="505,-206 325,-206 325,-170 505,-170 505,-206"/>
<text text-anchor="middle" x="415" y="-183.8" font-family="Helvetica, Arial, sans-serif" font-size="14.00">Wrahaspati</text>
</g>
<!-- siblings_0&#45;&gt;Wrahaspati -->
<g id="edge7" class="edge"><title>siblings_0&#45;&gt;Wrahaspati</title>
<path fill="none" stroke="#1abc9c" d="M294,-268.483C294,-261.584 294,-188 294,-188 294,-188 314.846,-188 314.846,-188"/>
<polygon fill="#1abc9c" stroke="#1abc9c" points="322.846,-178 322.847,-198 318.847,-198 318.846,-178 322.846,-178"/>
<polyline fill="none" stroke="#1abc9c" points="324.846,-188 314.846,-188 "/>
</g>
<!-- Siwah -->
<g id="node9" class="node"><title>Siwah</title>
<polygon fill="white" stroke="#cccccc" points="505,-260 325,-260 325,-224 505,-224 505,-260"/>
<text text-anchor="middle" x="415" y="-237.8" font-family="Helvetica, Arial, sans-serif" font-size="14.00">Siwah</text>
</g>
<!-- siblings_0&#45;&gt;Siwah -->
<g id="edge8" class="edge"><title>siblings_0&#45;&gt;Siwah</title>
<path fill="none" stroke="#1abc9c" d="M295,-268.184C295,-263.103 295,-236 295,-236 295,-236 314.972,-236 314.972,-236"/>
<polygon fill="#1abc9c" stroke="#1abc9c" points="322.971,-226 322.972,-246 318.972,-246 318.971,-226 322.971,-226"/>
<polyline fill="none" stroke="#1abc9c" points="324.972,-236 314.972,-236 "/>
</g>
<!-- Kuwera -->
<g id="node10" class="node"><title>Kuwera</title>
<polygon fill="white" stroke="#cccccc" points="505,-314 325,-314 325,-278 505,-278 505,-314"/>
<text text-anchor="middle" x="415" y="-291.8" font-family="Helvetica, Arial, sans-serif" font-size="14.00">Kuwera</text>
</g>
<!-- siblings_0&#45;&gt;Kuwera -->
<g id="edge9" class="edge"><title>siblings_0&#45;&gt;Kuwera</title>
<path fill="none" stroke="#1abc9c" d="M295,-269.816C295,-274.897 295,-302 295,-302 295,-302 314.972,-302 314.972,-302"/>
<polygon fill="#1abc9c" stroke="#1abc9c" points="322.971,-292 322.972,-312 318.972,-312 318.971,-292 322.971,-292"/>
<polyline fill="none" stroke="#1abc9c" points="324.972,-302 314.972,-302 "/>
</g>
<!-- Candra -->
<g id="node11" class="node"><title>Candra</title>
<polygon fill="white" stroke="#cccccc" points="505,-368 325,-368 325,-332 505,-332 505,-368"/>
<text text-anchor="middle" x="415" y="-345.8" font-family="Helvetica, Arial, sans-serif" font-size="14.00">Candra</text>
</g>
<!-- siblings_0&#45;&gt;Candra -->
<g id="edge10" class="edge"><title>siblings_0&#45;&gt;Candra</title>
<path fill="none" stroke="#1abc9c" d="M294,-269.517C294,-276.416 294,-350 294,-350 294,-350 314.846,-350 314.846,-350"/>
<polygon fill="#1abc9c" stroke="#1abc9c" points="322.846,-340 322.847,-360 318.847,-360 318.846,-340 322.846,-340"/>
<polyline fill="none" stroke="#1abc9c" points="324.846,-350 314.846,-350 "/>
</g>
<!-- Yamadipati -->
<g id="node12" class="node"><title>Yamadipati</title>
<polygon fill="white" stroke="#cccccc" points="505,-422 325,-422 325,-386 505,-386 505,-422"/>
<text text-anchor="middle" x="415" y="-399.8" font-family="Helvetica, Arial, sans-serif" font-size="14.00">Yamadipati</text>
</g>
<!-- siblings_0&#45;&gt;Yamadipati -->
<g id="edge11" class="edge"><title>siblings_0&#45;&gt;Yamadipati</title>
<path fill="none" stroke="#1abc9c" d="M293,-269.862C293,-281.36 293,-404 293,-404 293,-404 314.736,-404 314.736,-404"/>
<polygon fill="#1abc9c" stroke="#1abc9c" points="322.735,-394 322.736,-414 318.736,-414 318.735,-394 322.735,-394"/>
<polyline fill="none" stroke="#1abc9c" points="324.736,-404 314.736,-404 "/>
</g>
<!-- Surya -->
<g id="node13" class="node"><title>Surya</title>
<polygon fill="white" stroke="#cccccc" points="505,-476 325,-476 325,-440 505,-440 505,-476"/>
<text text-anchor="middle" x="415" y="-453.8" font-family="Helvetica, Arial, sans-serif" font-size="14.00">Surya</text>
</g>
<!-- siblings_0&#45;&gt;Surya -->
<g id="edge12" class="edge"><title>siblings_0&#45;&gt;Surya</title>
<path fill="none" stroke="#1abc9c" d="M292,-269.542C292,-280.628 292,-458 292,-458 292,-458 314.962,-458 314.962,-458"/>
<polygon fill="#1abc9c" stroke="#1abc9c" points="322.962,-448 322.962,-468 318.962,-468 318.962,-448 322.962,-448"/>
<polyline fill="none" stroke="#1abc9c" points="324.962,-458 314.962,-458 "/>
</g>
<!-- Darmanesti -->
<g id="node14" class="node"><title>Darmanesti</title>
<polygon fill="white" stroke="#cccccc" points="505,-530 325,-530 325,-494 505,-494 505,-530"/>
<text text-anchor="middle" x="415" y="-507.8" font-family="Helvetica, Arial, sans-serif" font-size="14.00">Darmanesti</text>
</g>
<!-- siblings_0&#45;&gt;Darmanesti -->
<g id="edge13" class="edge"><title>siblings_0&#45;&gt;Darmanesti</title>
<path fill="none" stroke="#1abc9c" d="M291,-269.697C291,-283.95 291,-512 291,-512 291,-512 314.884,-512 314.884,-512"/>
<polygon fill="#1abc9c" stroke="#1abc9c" points="322.883,-502 322.884,-522 318.884,-522 318.883,-502 322.883,-502"/>
<polyline fill="none" stroke="#1abc9c" points="324.884,-512 314.884,-512 "/>
</g>
<!-- siblings_1 -->
<g id="node15" class="node"><title>siblings_1</title>
<polygon fill="#2ecc71" stroke="#cccccc" stroke-width="0" points="15,-296.5 8,-296.5 8,-295.5 15,-295.5 15,-296.5"/>
</g>
<!-- siblings_1&#45;&gt;Kanastren -->
<g id="edge14" class="edge"><title>siblings_1&#45;&gt;Kanastren</title>
<path fill="none" stroke="#2ecc71" d="M15.0341,-296C15.0341,-296 33.8106,-296 33.8106,-296"/>
<polygon fill="#2ecc71" stroke="#2ecc71" points="41.8105,-286 41.8107,-306 37.8107,-306 37.8105,-286 41.8105,-286"/>
<polyline fill="none" stroke="#2ecc71" points="43.8106,-296 33.8106,-296 "/>
</g>
<!-- siblings_2 -->
<g id="node16" class="node"><title>siblings_2</title>
<polygon fill="#3498db" stroke="#cccccc" stroke-width="0" points="15,-242.5 8,-242.5 8,-241.5 15,-241.5 15,-242.5"/>
</g>
<!-- siblings_2&#45;&gt;Semar -->
<g id="edge15" class="edge"><title>siblings_2&#45;&gt;Semar</title>
<path fill="none" stroke="#3498db" d="M15.0341,-242C15.0341,-242 33.8106,-242 33.8106,-242"/>
<polygon fill="#3498db" stroke="#3498db" points="41.8105,-232 41.8107,-252 37.8107,-252 37.8105,-232 41.8105,-232"/>
<polyline fill="none" stroke="#3498db" points="43.8106,-242 33.8106,-242 "/>
</g>
</g>
</svg>
