<?xml version="1.0" encoding="UTF-8" standalone="no"?>
<!DOCTYPE svg PUBLIC "-//W3C//DTD SVG 1.1//EN"
 "http://www.w3.org/Graphics/SVG/1.1/DTD/svg11.dtd">
<!-- Generated by graphviz version 2.38.0 (20140413.2041)
 -->
<!-- Title: G Pages: 1 -->
<svg width="766pt" height="154pt"
 viewBox="0.00 0.00 766.00 154.00" xmlns="http://www.w3.org/2000/svg" xmlns:xlink="http://www.w3.org/1999/xlink">
<g id="graph0" class="graph" transform="scale(1 1) rotate(0) translate(4 150)">
<title>G</title>
<polygon fill="white" stroke="none" points="-4,4 -4,-150 762,-150 762,4 -4,4"/>
<g id="clust1" class="cluster"><title>cluster_family_0</title>
</g>
<g id="clust4" class="cluster"><title>cluster_family_1</title>
</g>
<g id="clust7" class="cluster"><title>cluster_family_2</title>
</g>
<!-- union_0 -->
<g id="node1" class="node"><title>union_0</title>
<ellipse fill="#1abc9c" stroke="white" cx="501.5" cy="-26" rx="3.5" ry="3.5"/>
</g>
<!-- siblings_0 -->
<g id="node4" class="node"><title>siblings_0</title>
<polygon fill="#1abc9c" stroke="#cccccc" stroke-width="0" points="541,-26.5 534,-26.5 534,-25.5 541,-25.5 541,-26.5"/>
</g>
<!-- union_0&#45;&gt;siblings_0 -->
<g id="edge3" class="edge"><title>union_0&#45;&gt;siblings_0</title>
<path fill="none" stroke="#1abc9c" d="M505.083,-26C511.913,-26 526.732,-26 533.715,-26"/>
</g>
<!-- Karna -->
<g id="node2" class="node"><title>Karna</title>
<polygon fill="white" stroke="#cccccc" points="469,-98 289,-98 289,-62 469,-62 469,-98"/>
<text text-anchor="middle" x="379" y="-75.8" font-family="Helvetica, Arial, sans-serif" font-size="14.00">Karna</text>
</g>
<!-- Karna&#45;&gt;union_0 -->
<g id="edge1" class="edge"><title>Karna&#45;&gt;union_0</title>
<path fill="none" stroke="#1abc9c" d="M469.038,-86C487.794,-86 502,-86 502,-86 502,-86 502,-42.4905 502,-29.5736"/>
</g>
<!-- Surtikanthi -->
<g id="node3" class="node"><title>Surtikanthi</title>
<polygon fill="white" stroke="#cccccc" points="469,-44 289,-44 289,-8 469,-8 469,-44"/>
<text text-anchor="middle" x="379" y="-21.8" font-family="Helvetica, Arial, sans-serif" font-size="14.00">Surtikanthi</text>
</g>
<!-- Surtikanthi&#45;&gt;union_0 -->
<g id="edge2" class="edge"><title>Surtikanthi&#45;&gt;union_0</title>
<path fill="none" stroke="#1abc9c" d="M469.315,-26C481.938,-26 492.417,-26 497.733,-26"/>
</g>
<!-- Warsasena -->
<g id="node5" class="node"><title>Warsasena</title>
<polygon fill="white" stroke="#cccccc" points="750,-44 570,-44 570,-8 750,-8 750,-44"/>
<text text-anchor="middle" x="660" y="-21.8" font-family="Helvetica, Arial, sans-serif" font-size="14.00">Warsasena</text>
</g>
<!-- siblings_0&#45;&gt;Warsasena -->
<g id="edge4" class="edge"><title>siblings_0&#45;&gt;Warsasena</title>
<path fill="none" stroke="#1abc9c" d="M541.034,-26C541.034,-26 559.811,-26 559.811,-26"/>
<polygon fill="#1abc9c" stroke="#1abc9c" points="567.81,-16 567.811,-36 563.811,-36.0001 563.81,-16.0001 567.81,-16"/>
<polyline fill="none" stroke="#1abc9c" points="569.811,-26 559.811,-26.0001 "/>
</g>
<!-- Warsakusuma -->
<g id="node6" class="node"><title>Warsakusuma</title>
<polygon fill="white" stroke="#cccccc" points="750,-98 570,-98 570,-62 750,-62 750,-98"/>
<text text-anchor="middle" x="660" y="-75.8" font-family="Helvetica, Arial, sans-serif" font-size="14.00">Warsakusuma</text>
</g>
<!-- siblings_0&#45;&gt;Warsakusuma -->
<g id="edge5" class="edge"><title>siblings_0&#45;&gt;Warsakusuma</title>
<path fill="none" stroke="#1abc9c" d="M538,-26.5391C538,-31.8125 538,-74 538,-74 538,-74 559.736,-74 559.736,-74"/>
<polygon fill="#1abc9c" stroke="#1abc9c" points="567.735,-64 567.736,-84 563.736,-84.0001 563.735,-64.0001 567.735,-64"/>
<polyline fill="none" stroke="#1abc9c" points="569.736,-74 559.736,-74.0001 "/>
</g>
<!-- union_1 -->
<g id="node7" class="node"><title>union_1</title>
<ellipse fill="#2ecc71" stroke="white" cx="220.5" cy="-80" rx="3.5" ry="3.5"/>
</g>
<!-- siblings_1 -->
<g id="node10" class="node"><title>siblings_1</title>
<polygon fill="#2ecc71" stroke="#cccccc" stroke-width="0" points="260,-80.5 253,-80.5 253,-79.5 260,-79.5 260,-80.5"/>
</g>
<!-- union_1&#45;&gt;siblings_1 -->
<g id="edge8" class="edge"><title>union_1&#45;&gt;siblings_1</title>
<path fill="none" stroke="#2ecc71" d="M224.083,-80C230.913,-80 245.732,-80 252.715,-80"/>
</g>
<!-- Surya -->
<g id="node8" class="node"><title>Surya</title>
<polygon fill="white" stroke="#cccccc" points="188,-138 8,-138 8,-102 188,-102 188,-138"/>
<text text-anchor="middle" x="98" y="-115.8" font-family="Helvetica, Arial, sans-serif" font-size="14.00">Surya</text>
</g>
<!-- Surya&#45;&gt;union_1 -->
<g id="edge6" class="edge"><title>Surya&#45;&gt;union_1</title>
<path fill="none" stroke="#2ecc71" d="M188.038,-120C206.794,-120 221,-120 221,-120 221,-120 221,-93.5938 221,-83.6914"/>
</g>
<!-- Kunti -->
<g id="node9" class="node"><title>Kunti</title>
<polygon fill="white" stroke="#cccccc" points="188,-84 8,-84 8,-48 188,-48 188,-84"/>
<text text-anchor="middle" x="98" y="-61.8" font-family="Helvetica, Arial, sans-serif" font-size="14.00">Kunti</text>
</g>
<!-- Kunti&#45;&gt;union_1 -->
<g id="edge7" class="edge"><title>Kunti&#45;&gt;union_1</title>
<path fill="none" stroke="#2ecc71" d="M188.315,-80C200.938,-80 211.417,-80 216.733,-80"/>
</g>
<!-- siblings_1&#45;&gt;Karna -->
<g id="edge9" class="edge"><title>siblings_1&#45;&gt;Karna</title>
<path fill="none" stroke="#2ecc71" d="M260.034,-80C260.034,-80 278.811,-80 278.811,-80"/>
<polygon fill="#2ecc71" stroke="#2ecc71" points="286.81,-70 286.811,-90 282.811,-90.0001 282.81,-70.0001 286.81,-70"/>
<polyline fill="none" stroke="#2ecc71" points="288.811,-80 278.811,-80.0001 "/>
</g>
<!-- siblings_2 -->
<g id="node11" class="node"><title>siblings_2</title>
<polygon fill="#3498db" stroke="#cccccc" stroke-width="0" points="260,-26.5 253,-26.5 253,-25.5 260,-25.5 260,-26.5"/>
</g>
<!-- siblings_2&#45;&gt;Surtikanthi -->
<g id="edge10" class="edge"><title>siblings_2&#45;&gt;Surtikanthi</title>
<path fill="none" stroke="#3498db" d="M260.034,-26C260.034,-26 278.811,-26 278.811,-26"/>
<polygon fill="#3498db" stroke="#3498db" points="286.81,-16 286.811,-36 282.811,-36.0001 282.81,-16.0001 286.81,-16"/>
<polyline fill="none" stroke="#3498db" points="288.811,-26 278.811,-26.0001 "/>
</g>
</g>
</svg>
