<?xml version="1.0" encoding="UTF-8" standalone="no"?>
<!DOCTYPE svg PUBLIC "-//W3C//DTD SVG 1.1//EN"
 "http://www.w3.org/Graphics/SVG/1.1/DTD/svg11.dtd">
<!-- Generated by graphviz version 2.38.0 (20140413.2041)
 -->
<!-- Title: G Pages: 1 -->
<svg width="521pt" height="141pt"
 viewBox="0.00 0.00 521.00 141.00" xmlns="http://www.w3.org/2000/svg" xmlns:xlink="http://www.w3.org/1999/xlink">
<g id="graph0" class="graph" transform="scale(1 1) rotate(0) translate(4 137)">
<title>G</title>
<polygon fill="white" stroke="none" points="-4,4 -4,-137 517,-137 517,4 -4,4"/>
<g id="clust1" class="cluster"><title>cluster_family_0</title>
</g>
<g id="clust3" class="cluster"><title>cluster_family_1</title>
</g>
<!-- union_0 -->
<g id="node1" class="node"><title>union_0</title>
<ellipse fill="#1abc9c" stroke="white" cx="501.5" cy="-53" rx="3.5" ry="3.5"/>
</g>
<!-- Kartamarma -->
<g id="node2" class="node"><title>Kartamarma</title>
<polygon fill="white" stroke="#cccccc" points="469,-98 289,-98 289,-62 469,-62 469,-98"/>
<text text-anchor="middle" x="379" y="-75.8" font-family="Helvetica, Arial, sans-serif" font-size="14.00">Kartamarma</text>
</g>
<!-- Kartamarma&#45;&gt;union_0 -->
<g id="edge1" class="edge"><title>Kartamarma&#45;&gt;union_0</title>
<path fill="none" stroke="#1abc9c" d="M469.038,-80C487.794,-80 502,-80 502,-80 502,-80 502,-64.1731 502,-56.7542"/>
</g>
<!-- Karastri -->
<g id="node3" class="node"><title>Karastri</title>
<polygon fill="white" stroke="#cccccc" points="469,-44 289,-44 289,-8 469,-8 469,-44"/>
<text text-anchor="middle" x="379" y="-21.8" font-family="Helvetica, Arial, sans-serif" font-size="14.00">Karastri</text>
</g>
<!-- Karastri&#45;&gt;union_0 -->
<g id="edge2" class="edge"><title>Karastri&#45;&gt;union_0</title>
<path fill="none" stroke="#1abc9c" d="M469.038,-26C487.794,-26 502,-26 502,-26 502,-26 502,-41.8269 502,-49.2458"/>
</g>
<!-- union_1 -->
<g id="node4" class="node"><title>union_1</title>
<ellipse fill="#2ecc71" stroke="white" cx="220.5" cy="-80" rx="3.5" ry="3.5"/>
</g>
<!-- siblings_1 -->
<g id="node7" class="node"><title>siblings_1</title>
<polygon fill="#2ecc71" stroke="#cccccc" stroke-width="0" points="260,-80.5 253,-80.5 253,-79.5 260,-79.5 260,-80.5"/>
</g>
<!-- union_1&#45;&gt;siblings_1 -->
<g id="edge5" class="edge"><title>union_1&#45;&gt;siblings_1</title>
<path fill="none" stroke="#2ecc71" d="M224.083,-80C230.913,-80 245.732,-80 252.715,-80"/>
</g>
<!-- Destarastra -->
<g id="node5" class="node"><title>Destarastra</title>
<polygon fill="white" stroke="#cccccc" points="188,-125 8,-125 8,-89 188,-89 188,-125"/>
<text text-anchor="middle" x="98" y="-102.8" font-family="Helvetica, Arial, sans-serif" font-size="14.00">Destarastra</text>
</g>
<!-- Destarastra&#45;&gt;union_1 -->
<g id="edge3" class="edge"><title>Destarastra&#45;&gt;union_1</title>
<path fill="none" stroke="#2ecc71" d="M188.038,-93.5C206.794,-93.5 221,-93.5 221,-93.5 221,-93.5 221,-87.686 221,-83.6889"/>
</g>
<!-- Gendari -->
<g id="node6" class="node"><title>Gendari</title>
<polygon fill="white" stroke="#cccccc" points="188,-71 8,-71 8,-35 188,-35 188,-71"/>
<text text-anchor="middle" x="98" y="-48.8" font-family="Helvetica, Arial, sans-serif" font-size="14.00">Gendari</text>
</g>
<!-- Gendari&#45;&gt;union_1 -->
<g id="edge4" class="edge"><title>Gendari&#45;&gt;union_1</title>
<path fill="none" stroke="#2ecc71" d="M188.038,-66.5C206.794,-66.5 221,-66.5 221,-66.5 221,-66.5 221,-72.314 221,-76.3111"/>
</g>
<!-- siblings_1&#45;&gt;Kartamarma -->
<g id="edge6" class="edge"><title>siblings_1&#45;&gt;Kartamarma</title>
<path fill="none" stroke="#2ecc71" d="M260.034,-80C260.034,-80 278.811,-80 278.811,-80"/>
<polygon fill="#2ecc71" stroke="#2ecc71" points="286.81,-70 286.811,-90 282.811,-90.0001 282.81,-70.0001 286.81,-70"/>
<polyline fill="none" stroke="#2ecc71" points="288.811,-80 278.811,-80.0001 "/>
</g>
</g>
</svg>
