<?xml version="1.0" encoding="UTF-8" standalone="no"?>
<!DOCTYPE svg PUBLIC "-//W3C//DTD SVG 1.1//EN"
 "http://www.w3.org/Graphics/SVG/1.1/DTD/svg11.dtd">
<!-- Generated by graphviz version 2.38.0 (20140413.2041)
 -->
<!-- Title: G Pages: 1 -->
<svg width="766pt" height="546pt"
 viewBox="0.00 0.00 766.00 546.00" xmlns="http://www.w3.org/2000/svg" xmlns:xlink="http://www.w3.org/1999/xlink">
<g id="graph0" class="graph" transform="scale(1 1) rotate(0) translate(4 542)">
<title>G</title>
<polygon fill="white" stroke="none" points="-4,4 -4,-542 762,-542 762,4 -4,4"/>
<g id="clust1" class="cluster"><title>cluster_family_0</title>
</g>
<g id="clust4" class="cluster"><title>cluster_family_1</title>
</g>
<g id="clust7" class="cluster"><title>cluster_family_2</title>
</g>
<g id="clust10" class="cluster"><title>cluster_family_3</title>
</g>
<g id="clust13" class="cluster"><title>cluster_family_4</title>
</g>
<g id="clust16" class="cluster"><title>cluster_family_5</title>
</g>
<g id="clust19" class="cluster"><title>cluster_family_6</title>
</g>
<g id="clust22" class="cluster"><title>cluster_family_7</title>
</g>
<g id="clust24" class="cluster"><title>cluster_family_8</title>
</g>
<!-- union_0 -->
<g id="node1" class="node"><title>union_0</title>
<ellipse fill="#1abc9c" stroke="white" cx="501.5" cy="-431" rx="3.5" ry="3.5"/>
</g>
<!-- siblings_0 -->
<g id="node4" class="node"><title>siblings_0</title>
<polygon fill="#1abc9c" stroke="#cccccc" stroke-width="0" points="541,-431.5 534,-431.5 534,-430.5 541,-430.5 541,-431.5"/>
</g>
<!-- union_0&#45;&gt;siblings_0 -->
<g id="edge3" class="edge"><title>union_0&#45;&gt;siblings_0</title>
<path fill="none" stroke="#1abc9c" d="M505.083,-431C511.913,-431 526.732,-431 533.715,-431"/>
</g>
<!-- Kresna -->
<g id="node2" class="node"><title>Kresna</title>
<polygon fill="white" stroke="#cccccc" points="469,-422 289,-422 289,-386 469,-386 469,-422"/>
<text text-anchor="middle" x="379" y="-399.8" font-family="Helvetica, Arial, sans-serif" font-size="14.00">Kresna</text>
</g>
<!-- Kresna&#45;&gt;union_0 -->
<g id="edge1" class="edge"><title>Kresna&#45;&gt;union_0</title>
<path fill="none" stroke="#1abc9c" d="M469.116,-411.714C488.348,-411.714 503,-411.714 503,-411.714 503,-411.714 503,-422.115 503,-427.641"/>
</g>
<!-- union_1 -->
<g id="node7" class="node"><title>union_1</title>
<ellipse fill="#2ecc71" stroke="white" cx="501.5" cy="-309" rx="3.5" ry="3.5"/>
</g>
<!-- Kresna&#45;&gt;union_1 -->
<g id="edge6" class="edge"><title>Kresna&#45;&gt;union_1</title>
<path fill="none" stroke="#2ecc71" d="M469.264,-406.571C487.391,-406.571 501,-406.571 501,-406.571 501,-406.571 501,-330.528 501,-312.706"/>
</g>
<!-- union_2 -->
<g id="node13" class="node"><title>union_2</title>
<ellipse fill="#3498db" stroke="white" cx="501.5" cy="-188" rx="3.5" ry="3.5"/>
</g>
<!-- Kresna&#45;&gt;union_2 -->
<g id="edge12" class="edge"><title>Kresna&#45;&gt;union_2</title>
<path fill="none" stroke="#3498db" d="M469.139,-401.429C482.017,-401.429 491,-401.429 491,-401.429 491,-401.429 491,-189.167 491,-189.167 491,-189.167 495.102,-189.167 498.178,-189.167"/>
</g>
<!-- union_3 -->
<g id="node17" class="node"><title>union_3</title>
<ellipse fill="#9b59b6" stroke="white" cx="501.5" cy="-134" rx="3.5" ry="3.5"/>
</g>
<!-- Kresna&#45;&gt;union_3 -->
<g id="edge16" class="edge"><title>Kresna&#45;&gt;union_3</title>
<path fill="none" stroke="#9b59b6" d="M469.4,-396.286C478.232,-396.286 484,-396.286 484,-396.286 484,-396.286 484,-135.167 484,-135.167 484,-135.167 493.041,-135.167 498.126,-135.167"/>
</g>
<!-- union_4 -->
<g id="node22" class="node"><title>union_4</title>
<ellipse fill="#34495e" stroke="white" cx="501.5" cy="-26" rx="3.5" ry="3.5"/>
</g>
<!-- Kresna&#45;&gt;union_4 -->
<g id="edge21" class="edge"><title>Kresna&#45;&gt;union_4</title>
<path fill="none" stroke="#34495e" d="M469.31,-391.143C474.105,-391.143 477,-391.143 477,-391.143 477,-391.143 477,-27.1667 477,-27.1667 477,-27.1667 491.361,-27.1667 498.093,-27.1667"/>
</g>
<!-- Jembawati -->
<g id="node3" class="node"><title>Jembawati</title>
<polygon fill="white" stroke="#cccccc" points="469,-476 289,-476 289,-440 469,-440 469,-476"/>
<text text-anchor="middle" x="379" y="-453.8" font-family="Helvetica, Arial, sans-serif" font-size="14.00">Jembawati</text>
</g>
<!-- Jembawati&#45;&gt;union_0 -->
<g id="edge2" class="edge"><title>Jembawati&#45;&gt;union_0</title>
<path fill="none" stroke="#1abc9c" d="M469.038,-464C487.794,-464 502,-464 502,-464 502,-464 502,-443.045 502,-434.532"/>
</g>
<!-- Samba -->
<g id="node5" class="node"><title>Samba</title>
<polygon fill="white" stroke="#cccccc" points="750,-422 570,-422 570,-386 750,-386 750,-422"/>
<text text-anchor="middle" x="660" y="-399.8" font-family="Helvetica, Arial, sans-serif" font-size="14.00">Samba</text>
</g>
<!-- siblings_0&#45;&gt;Samba -->
<g id="edge4" class="edge"><title>siblings_0&#45;&gt;Samba</title>
<path fill="none" stroke="#1abc9c" d="M539,-430.392C539,-427.685 539,-416.857 539,-416.857 539,-416.857 559.846,-416.857 559.846,-416.857"/>
<polygon fill="#1abc9c" stroke="#1abc9c" points="567.846,-406.857 567.847,-426.857 563.847,-426.857 563.846,-406.857 567.846,-406.857"/>
<polyline fill="none" stroke="#1abc9c" points="569.846,-416.857 559.846,-416.857 "/>
</g>
<!-- Gunadewa -->
<g id="node6" class="node"><title>Gunadewa</title>
<polygon fill="white" stroke="#cccccc" points="750,-476 570,-476 570,-440 750,-440 750,-476"/>
<text text-anchor="middle" x="660" y="-453.8" font-family="Helvetica, Arial, sans-serif" font-size="14.00">Gunadewa</text>
</g>
<!-- siblings_0&#45;&gt;Gunadewa -->
<g id="edge5" class="edge"><title>siblings_0&#45;&gt;Gunadewa</title>
<path fill="none" stroke="#1abc9c" d="M538,-431.519C538,-434.753 538,-452 538,-452 538,-452 559.736,-452 559.736,-452"/>
<polygon fill="#1abc9c" stroke="#1abc9c" points="567.735,-442 567.736,-462 563.736,-462 563.735,-442 567.735,-442"/>
<polyline fill="none" stroke="#1abc9c" points="569.736,-452 559.736,-452 "/>
</g>
<!-- siblings_1 -->
<g id="node9" class="node"><title>siblings_1</title>
<polygon fill="#2ecc71" stroke="#cccccc" stroke-width="0" points="541,-309.5 534,-309.5 534,-308.5 541,-308.5 541,-309.5"/>
</g>
<!-- union_1&#45;&gt;siblings_1 -->
<g id="edge8" class="edge"><title>union_1&#45;&gt;siblings_1</title>
<path fill="none" stroke="#2ecc71" d="M505.083,-309C511.913,-309 526.732,-309 533.715,-309"/>
</g>
<!-- Rukmini -->
<g id="node8" class="node"><title>Rukmini</title>
<polygon fill="white" stroke="#cccccc" points="469,-327 289,-327 289,-291 469,-291 469,-327"/>
<text text-anchor="middle" x="379" y="-304.8" font-family="Helvetica, Arial, sans-serif" font-size="14.00">Rukmini</text>
</g>
<!-- Rukmini&#45;&gt;union_1 -->
<g id="edge7" class="edge"><title>Rukmini&#45;&gt;union_1</title>
<path fill="none" stroke="#2ecc71" d="M469.315,-309C481.938,-309 492.417,-309 497.733,-309"/>
</g>
<!-- Partadewa -->
<g id="node10" class="node"><title>Partadewa</title>
<polygon fill="white" stroke="#cccccc" points="750,-260 570,-260 570,-224 750,-224 750,-260"/>
<text text-anchor="middle" x="660" y="-237.8" font-family="Helvetica, Arial, sans-serif" font-size="14.00">Partadewa</text>
</g>
<!-- siblings_1&#45;&gt;Partadewa -->
<g id="edge9" class="edge"><title>siblings_1&#45;&gt;Partadewa</title>
<path fill="none" stroke="#2ecc71" d="M538,-308.248C538,-300.887 538,-242 538,-242 538,-242 559.736,-242 559.736,-242"/>
<polygon fill="#2ecc71" stroke="#2ecc71" points="567.735,-232 567.736,-252 563.736,-252 563.735,-232 567.735,-232"/>
<polyline fill="none" stroke="#2ecc71" points="569.736,-242 559.736,-242 "/>
</g>
<!-- Titisari -->
<g id="node11" class="node"><title>Titisari</title>
<polygon fill="white" stroke="#cccccc" points="750,-314 570,-314 570,-278 750,-278 750,-314"/>
<text text-anchor="middle" x="660" y="-291.8" font-family="Helvetica, Arial, sans-serif" font-size="14.00">Titisari</text>
</g>
<!-- siblings_1&#45;&gt;Titisari -->
<g id="edge10" class="edge"><title>siblings_1&#45;&gt;Titisari</title>
<path fill="none" stroke="#2ecc71" d="M541.034,-309C541.034,-309 559.811,-309 559.811,-309"/>
<polygon fill="#2ecc71" stroke="#2ecc71" points="567.81,-299 567.811,-319 563.811,-319 563.81,-299 567.81,-299"/>
<polyline fill="none" stroke="#2ecc71" points="569.811,-309 559.811,-309 "/>
</g>
<!-- Saranadewa -->
<g id="node12" class="node"><title>Saranadewa</title>
<polygon fill="white" stroke="#cccccc" points="750,-368 570,-368 570,-332 750,-332 750,-368"/>
<text text-anchor="middle" x="660" y="-345.8" font-family="Helvetica, Arial, sans-serif" font-size="14.00">Saranadewa</text>
</g>
<!-- siblings_1&#45;&gt;Saranadewa -->
<g id="edge11" class="edge"><title>siblings_1&#45;&gt;Saranadewa</title>
<path fill="none" stroke="#2ecc71" d="M537,-309.528C537,-314.691 537,-356 537,-356 537,-356 559.962,-356 559.962,-356"/>
<polygon fill="#2ecc71" stroke="#2ecc71" points="567.962,-346 567.962,-366 563.962,-366 563.962,-346 567.962,-346"/>
<polyline fill="none" stroke="#2ecc71" points="569.962,-356 559.962,-356 "/>
</g>
<!-- siblings_2 -->
<g id="node15" class="node"><title>siblings_2</title>
<polygon fill="#3498db" stroke="#cccccc" stroke-width="0" points="541,-188.5 534,-188.5 534,-187.5 541,-187.5 541,-188.5"/>
</g>
<!-- union_2&#45;&gt;siblings_2 -->
<g id="edge14" class="edge"><title>union_2&#45;&gt;siblings_2</title>
<path fill="none" stroke="#3498db" d="M505.083,-188C511.913,-188 526.732,-188 533.715,-188"/>
</g>
<!-- Setyaboma -->
<g id="node14" class="node"><title>Setyaboma</title>
<polygon fill="white" stroke="#cccccc" points="469,-206 289,-206 289,-170 469,-170 469,-206"/>
<text text-anchor="middle" x="379" y="-183.8" font-family="Helvetica, Arial, sans-serif" font-size="14.00">Setyaboma</text>
</g>
<!-- Setyaboma&#45;&gt;union_2 -->
<g id="edge13" class="edge"><title>Setyaboma&#45;&gt;union_2</title>
<path fill="none" stroke="#3498db" d="M469.315,-186.833C482.225,-186.833 492.892,-186.833 498.088,-186.833"/>
</g>
<!-- Setyaka -->
<g id="node16" class="node"><title>Setyaka</title>
<polygon fill="white" stroke="#cccccc" points="750,-206 570,-206 570,-170 750,-170 750,-206"/>
<text text-anchor="middle" x="660" y="-183.8" font-family="Helvetica, Arial, sans-serif" font-size="14.00">Setyaka</text>
</g>
<!-- siblings_2&#45;&gt;Setyaka -->
<g id="edge15" class="edge"><title>siblings_2&#45;&gt;Setyaka</title>
<path fill="none" stroke="#3498db" d="M541.034,-188C541.034,-188 559.811,-188 559.811,-188"/>
<polygon fill="#3498db" stroke="#3498db" points="567.81,-178 567.811,-198 563.811,-198 563.81,-178 567.81,-178"/>
<polyline fill="none" stroke="#3498db" points="569.811,-188 559.811,-188 "/>
</g>
<!-- siblings_3 -->
<g id="node19" class="node"><title>siblings_3</title>
<polygon fill="#9b59b6" stroke="#cccccc" stroke-width="0" points="541,-134.5 534,-134.5 534,-133.5 541,-133.5 541,-134.5"/>
</g>
<!-- union_3&#45;&gt;siblings_3 -->
<g id="edge18" class="edge"><title>union_3&#45;&gt;siblings_3</title>
<path fill="none" stroke="#9b59b6" d="M505.083,-134C511.913,-134 526.732,-134 533.715,-134"/>
</g>
<!-- Pratiwi -->
<g id="node18" class="node"><title>Pratiwi</title>
<polygon fill="white" stroke="#cccccc" points="469,-152 289,-152 289,-116 469,-116 469,-152"/>
<text text-anchor="middle" x="379" y="-129.8" font-family="Helvetica, Arial, sans-serif" font-size="14.00">Pratiwi</text>
</g>
<!-- Pratiwi&#45;&gt;union_3 -->
<g id="edge17" class="edge"><title>Pratiwi&#45;&gt;union_3</title>
<path fill="none" stroke="#9b59b6" d="M469.315,-132.833C482.225,-132.833 492.892,-132.833 498.088,-132.833"/>
</g>
<!-- Bomanarakasura -->
<g id="node20" class="node"><title>Bomanarakasura</title>
<polygon fill="white" stroke="#cccccc" points="750,-98 570,-98 570,-62 750,-62 750,-98"/>
<text text-anchor="middle" x="660" y="-75.8" font-family="Helvetica, Arial, sans-serif" font-size="14.00">Bomanarakasura</text>
</g>
<!-- siblings_3&#45;&gt;Bomanarakasura -->
<g id="edge19" class="edge"><title>siblings_3&#45;&gt;Bomanarakasura</title>
<path fill="none" stroke="#9b59b6" d="M538,-133.394C538,-127.461 538,-80 538,-80 538,-80 559.736,-80 559.736,-80"/>
<polygon fill="#9b59b6" stroke="#9b59b6" points="567.735,-70 567.736,-90 563.736,-90.0001 563.735,-70.0001 567.735,-70"/>
<polyline fill="none" stroke="#9b59b6" points="569.736,-80 559.736,-80.0001 "/>
</g>
<!-- Siti_Sendari -->
<g id="node21" class="node"><title>Siti_Sendari</title>
<polygon fill="white" stroke="#cccccc" points="750,-152 570,-152 570,-116 750,-116 750,-152"/>
<text text-anchor="middle" x="660" y="-129.8" font-family="Helvetica, Arial, sans-serif" font-size="14.00">Siti_Sendari</text>
</g>
<!-- siblings_3&#45;&gt;Siti_Sendari -->
<g id="edge20" class="edge"><title>siblings_3&#45;&gt;Siti_Sendari</title>
<path fill="none" stroke="#9b59b6" d="M541.034,-134C541.034,-134 559.811,-134 559.811,-134"/>
<polygon fill="#9b59b6" stroke="#9b59b6" points="567.81,-124 567.811,-144 563.811,-144 563.81,-124 567.81,-124"/>
<polyline fill="none" stroke="#9b59b6" points="569.811,-134 559.811,-134 "/>
</g>
<!-- siblings_4 -->
<g id="node24" class="node"><title>siblings_4</title>
<polygon fill="#34495e" stroke="#cccccc" stroke-width="0" points="541,-26.5 534,-26.5 534,-25.5 541,-25.5 541,-26.5"/>
</g>
<!-- union_4&#45;&gt;siblings_4 -->
<g id="edge23" class="edge"><title>union_4&#45;&gt;siblings_4</title>
<path fill="none" stroke="#34495e" d="M505.083,-26C511.913,-26 526.732,-26 533.715,-26"/>
</g>
<!-- Kusumawati -->
<g id="node23" class="node"><title>Kusumawati</title>
<polygon fill="white" stroke="#cccccc" points="469,-44 289,-44 289,-8 469,-8 469,-44"/>
<text text-anchor="middle" x="379" y="-21.8" font-family="Helvetica, Arial, sans-serif" font-size="14.00">Kusumawati</text>
</g>
<!-- Kusumawati&#45;&gt;union_4 -->
<g id="edge22" class="edge"><title>Kusumawati&#45;&gt;union_4</title>
<path fill="none" stroke="#34495e" d="M469.315,-24.8333C482.225,-24.8333 492.892,-24.8333 498.088,-24.8333"/>
</g>
<!-- Saketi -->
<g id="node25" class="node"><title>Saketi</title>
<polygon fill="white" stroke="#cccccc" points="750,-44 570,-44 570,-8 750,-8 750,-44"/>
<text text-anchor="middle" x="660" y="-21.8" font-family="Helvetica, Arial, sans-serif" font-size="14.00">Saketi</text>
</g>
<!-- siblings_4&#45;&gt;Saketi -->
<g id="edge24" class="edge"><title>siblings_4&#45;&gt;Saketi</title>
<path fill="none" stroke="#34495e" d="M541.034,-26C541.034,-26 559.811,-26 559.811,-26"/>
<polygon fill="#34495e" stroke="#34495e" points="567.81,-16 567.811,-36 563.811,-36.0001 563.81,-16.0001 567.81,-16"/>
<polyline fill="none" stroke="#34495e" points="569.811,-26 559.811,-26.0001 "/>
</g>
<!-- union_5 -->
<g id="node26" class="node"><title>union_5</title>
<ellipse fill="#f1c40f" stroke="white" cx="220.5" cy="-404" rx="3.5" ry="3.5"/>
</g>
<!-- siblings_5 -->
<g id="node29" class="node"><title>siblings_5</title>
<polygon fill="#f1c40f" stroke="#cccccc" stroke-width="0" points="260,-404.5 253,-404.5 253,-403.5 260,-403.5 260,-404.5"/>
</g>
<!-- union_5&#45;&gt;siblings_5 -->
<g id="edge27" class="edge"><title>union_5&#45;&gt;siblings_5</title>
<path fill="none" stroke="#f1c40f" d="M224.083,-404C230.913,-404 245.732,-404 252.715,-404"/>
</g>
<!-- Basudewa -->
<g id="node27" class="node"><title>Basudewa</title>
<polygon fill="white" stroke="#cccccc" points="188,-422 8,-422 8,-386 188,-386 188,-422"/>
<text text-anchor="middle" x="98" y="-399.8" font-family="Helvetica, Arial, sans-serif" font-size="14.00">Basudewa</text>
</g>
<!-- Basudewa&#45;&gt;union_5 -->
<g id="edge25" class="edge"><title>Basudewa&#45;&gt;union_5</title>
<path fill="none" stroke="#f1c40f" d="M188.315,-404C200.938,-404 211.417,-404 216.733,-404"/>
</g>
<!-- Mahindra -->
<g id="node28" class="node"><title>Mahindra</title>
<polygon fill="white" stroke="#cccccc" points="188,-368 8,-368 8,-332 188,-332 188,-368"/>
<text text-anchor="middle" x="98" y="-345.8" font-family="Helvetica, Arial, sans-serif" font-size="14.00">Mahindra</text>
</g>
<!-- Mahindra&#45;&gt;union_5 -->
<g id="edge26" class="edge"><title>Mahindra&#45;&gt;union_5</title>
<path fill="none" stroke="#f1c40f" d="M188.038,-344C206.794,-344 221,-344 221,-344 221,-344 221,-387.51 221,-400.426"/>
</g>
<!-- siblings_5&#45;&gt;Kresna -->
<g id="edge28" class="edge"><title>siblings_5&#45;&gt;Kresna</title>
<path fill="none" stroke="#f1c40f" d="M260.034,-404C260.034,-404 278.811,-404 278.811,-404"/>
<polygon fill="#f1c40f" stroke="#f1c40f" points="286.81,-394 286.811,-414 282.811,-414 282.81,-394 286.81,-394"/>
<polyline fill="none" stroke="#f1c40f" points="288.811,-404 278.811,-404 "/>
</g>
<!-- union_6 -->
<g id="node30" class="node"><title>union_6</title>
<ellipse fill="#e67e22" stroke="white" cx="220.5" cy="-458" rx="3.5" ry="3.5"/>
</g>
<!-- siblings_6 -->
<g id="node33" class="node"><title>siblings_6</title>
<polygon fill="#e67e22" stroke="#cccccc" stroke-width="0" points="260,-458.5 253,-458.5 253,-457.5 260,-457.5 260,-458.5"/>
</g>
<!-- union_6&#45;&gt;siblings_6 -->
<g id="edge31" class="edge"><title>union_6&#45;&gt;siblings_6</title>
<path fill="none" stroke="#e67e22" d="M224.083,-458C230.913,-458 245.732,-458 252.715,-458"/>
</g>
<!-- Trijata -->
<g id="node31" class="node"><title>Trijata</title>
<polygon fill="white" stroke="#cccccc" points="188,-530 8,-530 8,-494 188,-494 188,-530"/>
<text text-anchor="middle" x="98" y="-507.8" font-family="Helvetica, Arial, sans-serif" font-size="14.00">Trijata</text>
</g>
<!-- Trijata&#45;&gt;union_6 -->
<g id="edge29" class="edge"><title>Trijata&#45;&gt;union_6</title>
<path fill="none" stroke="#e67e22" d="M188.038,-512C206.794,-512 221,-512 221,-512 221,-512 221,-473.557 221,-461.543"/>
</g>
<!-- Jembawan -->
<g id="node32" class="node"><title>Jembawan</title>
<polygon fill="white" stroke="#cccccc" points="188,-476 8,-476 8,-440 188,-440 188,-476"/>
<text text-anchor="middle" x="98" y="-453.8" font-family="Helvetica, Arial, sans-serif" font-size="14.00">Jembawan</text>
</g>
<!-- Jembawan&#45;&gt;union_6 -->
<g id="edge30" class="edge"><title>Jembawan&#45;&gt;union_6</title>
<path fill="none" stroke="#e67e22" d="M188.315,-458C200.938,-458 211.417,-458 216.733,-458"/>
</g>
<!-- siblings_6&#45;&gt;Jembawati -->
<g id="edge32" class="edge"><title>siblings_6&#45;&gt;Jembawati</title>
<path fill="none" stroke="#e67e22" d="M260.034,-458C260.034,-458 278.811,-458 278.811,-458"/>
<polygon fill="#e67e22" stroke="#e67e22" points="286.81,-448 286.811,-468 282.811,-468 282.81,-448 286.81,-448"/>
<polyline fill="none" stroke="#e67e22" points="288.811,-458 278.811,-458 "/>
</g>
<!-- siblings_7 -->
<g id="node34" class="node"><title>siblings_7</title>
<polygon fill="#e74c3c" stroke="#cccccc" stroke-width="0" points="260,-309.5 253,-309.5 253,-308.5 260,-308.5 260,-309.5"/>
</g>
<!-- siblings_7&#45;&gt;Rukmini -->
<g id="edge33" class="edge"><title>siblings_7&#45;&gt;Rukmini</title>
<path fill="none" stroke="#e74c3c" d="M260.034,-309C260.034,-309 278.811,-309 278.811,-309"/>
<polygon fill="#e74c3c" stroke="#e74c3c" points="286.81,-299 286.811,-319 282.811,-319 282.81,-299 286.81,-299"/>
<polyline fill="none" stroke="#e74c3c" points="288.811,-309 278.811,-309 "/>
</g>
<!-- siblings_8 -->
<g id="node35" class="node"><title>siblings_8</title>
<polygon fill="#1abc9c" stroke="#cccccc" stroke-width="0" points="260,-188.5 253,-188.5 253,-187.5 260,-187.5 260,-188.5"/>
</g>
<!-- siblings_8&#45;&gt;Setyaboma -->
<g id="edge34" class="edge"><title>siblings_8&#45;&gt;Setyaboma</title>
<path fill="none" stroke="#1abc9c" d="M260.034,-188C260.034,-188 278.811,-188 278.811,-188"/>
<polygon fill="#1abc9c" stroke="#1abc9c" points="286.81,-178 286.811,-198 282.811,-198 282.81,-178 286.81,-178"/>
<polyline fill="none" stroke="#1abc9c" points="288.811,-188 278.811,-188 "/>
</g>
</g>
</svg>
