<?xml version="1.0" encoding="UTF-8" standalone="no"?>
<!DOCTYPE svg PUBLIC "-//W3C//DTD SVG 1.1//EN"
 "http://www.w3.org/Graphics/SVG/1.1/DTD/svg11.dtd">
<!-- Generated by graphviz version 2.38.0 (20140413.2041)
 -->
<!-- Title: G Pages: 1 -->
<svg width="766pt" height="492pt"
 viewBox="0.00 0.00 766.00 492.00" xmlns="http://www.w3.org/2000/svg" xmlns:xlink="http://www.w3.org/1999/xlink">
<g id="graph0" class="graph" transform="scale(1 1) rotate(0) translate(4 488)">
<title>G</title>
<polygon fill="white" stroke="none" points="-4,4 -4,-488 762,-488 762,4 -4,4"/>
<g id="clust1" class="cluster"><title>cluster_family_0</title>
</g>
<g id="clust4" class="cluster"><title>cluster_family_1</title>
</g>
<g id="clust7" class="cluster"><title>cluster_family_2</title>
</g>
<g id="clust10" class="cluster"><title>cluster_family_3</title>
</g>
<g id="clust13" class="cluster"><title>cluster_family_4</title>
</g>
<g id="clust16" class="cluster"><title>cluster_family_5</title>
</g>
<g id="clust19" class="cluster"><title>cluster_family_6</title>
</g>
<g id="clust22" class="cluster"><title>cluster_family_7</title>
</g>
<g id="clust25" class="cluster"><title>cluster_family_8</title>
</g>
<!-- union_0 -->
<g id="node1" class="node"><title>union_0</title>
<ellipse fill="#1abc9c" stroke="white" cx="501.5" cy="-215" rx="3.5" ry="3.5"/>
</g>
<!-- siblings_0 -->
<g id="node4" class="node"><title>siblings_0</title>
<polygon fill="#1abc9c" stroke="#cccccc" stroke-width="0" points="541,-215.5 534,-215.5 534,-214.5 541,-214.5 541,-215.5"/>
</g>
<!-- union_0&#45;&gt;siblings_0 -->
<g id="edge3" class="edge"><title>union_0&#45;&gt;siblings_0</title>
<path fill="none" stroke="#1abc9c" d="M505.083,-215C511.913,-215 526.732,-215 533.715,-215"/>
</g>
<!-- Kresna -->
<g id="node2" class="node"><title>Kresna</title>
<polygon fill="white" stroke="#cccccc" points="469,-260 289,-260 289,-224 469,-224 469,-260"/>
<text text-anchor="middle" x="379" y="-237.8" font-family="Helvetica, Arial, sans-serif" font-size="14.00">Kresna</text>
</g>
<!-- Kresna&#45;&gt;union_0 -->
<g id="edge1" class="edge"><title>Kresna&#45;&gt;union_0</title>
<path fill="none" stroke="#1abc9c" d="M469.116,-244.571C488.348,-244.571 503,-244.571 503,-244.571 503,-244.571 503,-225.793 503,-218.165"/>
</g>
<!-- union_1 -->
<g id="node7" class="node"><title>union_1</title>
<ellipse fill="#2ecc71" stroke="white" cx="501.5" cy="-404" rx="3.5" ry="3.5"/>
</g>
<!-- Kresna&#45;&gt;union_1 -->
<g id="edge6" class="edge"><title>Kresna&#45;&gt;union_1</title>
<path fill="none" stroke="#2ecc71" d="M469.4,-239.429C478.232,-239.429 484,-239.429 484,-239.429 484,-239.429 484,-402.833 484,-402.833 484,-402.833 493.041,-402.833 498.126,-402.833"/>
</g>
<!-- union_2 -->
<g id="node13" class="node"><title>union_2</title>
<ellipse fill="#3498db" stroke="white" cx="501.5" cy="-296" rx="3.5" ry="3.5"/>
</g>
<!-- Kresna&#45;&gt;union_2 -->
<g id="edge12" class="edge"><title>Kresna&#45;&gt;union_2</title>
<path fill="none" stroke="#3498db" d="M469.264,-249.714C487.391,-249.714 501,-249.714 501,-249.714 501,-249.714 501,-281.457 501,-292.368"/>
</g>
<!-- union_3 -->
<g id="node17" class="node"><title>union_3</title>
<ellipse fill="#9b59b6" stroke="white" cx="501.5" cy="-134" rx="3.5" ry="3.5"/>
</g>
<!-- Kresna&#45;&gt;union_3 -->
<g id="edge16" class="edge"><title>Kresna&#45;&gt;union_3</title>
<path fill="none" stroke="#9b59b6" d="M469.139,-234.286C482.017,-234.286 491,-234.286 491,-234.286 491,-234.286 491,-135.167 491,-135.167 491,-135.167 495.102,-135.167 498.178,-135.167"/>
</g>
<!-- union_4 -->
<g id="node22" class="node"><title>union_4</title>
<ellipse fill="#34495e" stroke="white" cx="501.5" cy="-26" rx="3.5" ry="3.5"/>
</g>
<!-- Kresna&#45;&gt;union_4 -->
<g id="edge21" class="edge"><title>Kresna&#45;&gt;union_4</title>
<path fill="none" stroke="#34495e" d="M469.31,-229.143C474.105,-229.143 477,-229.143 477,-229.143 477,-229.143 477,-27.1667 477,-27.1667 477,-27.1667 491.361,-27.1667 498.093,-27.1667"/>
</g>
<!-- Jembawati -->
<g id="node3" class="node"><title>Jembawati</title>
<polygon fill="white" stroke="#cccccc" points="469,-206 289,-206 289,-170 469,-170 469,-206"/>
<text text-anchor="middle" x="379" y="-183.8" font-family="Helvetica, Arial, sans-serif" font-size="14.00">Jembawati</text>
</g>
<!-- Jembawati&#45;&gt;union_0 -->
<g id="edge2" class="edge"><title>Jembawati&#45;&gt;union_0</title>
<path fill="none" stroke="#1abc9c" d="M469.038,-194C487.794,-194 502,-194 502,-194 502,-194 502,-205.325 502,-211.342"/>
</g>
<!-- Samba -->
<g id="node5" class="node"><title>Samba</title>
<polygon fill="white" stroke="#cccccc" points="750,-206 570,-206 570,-170 750,-170 750,-206"/>
<text text-anchor="middle" x="660" y="-183.8" font-family="Helvetica, Arial, sans-serif" font-size="14.00">Samba</text>
</g>
<!-- siblings_0&#45;&gt;Samba -->
<g id="edge4" class="edge"><title>siblings_0&#45;&gt;Samba</title>
<path fill="none" stroke="#1abc9c" d="M538,-214.184C538,-209.103 538,-182 538,-182 538,-182 559.736,-182 559.736,-182"/>
<polygon fill="#1abc9c" stroke="#1abc9c" points="567.735,-172 567.736,-192 563.736,-192 563.735,-172 567.735,-172"/>
<polyline fill="none" stroke="#1abc9c" points="569.736,-182 559.736,-182 "/>
</g>
<!-- Gunadewa -->
<g id="node6" class="node"><title>Gunadewa</title>
<polygon fill="white" stroke="#cccccc" points="750,-260 570,-260 570,-224 750,-224 750,-260"/>
<text text-anchor="middle" x="660" y="-237.8" font-family="Helvetica, Arial, sans-serif" font-size="14.00">Gunadewa</text>
</g>
<!-- siblings_0&#45;&gt;Gunadewa -->
<g id="edge5" class="edge"><title>siblings_0&#45;&gt;Gunadewa</title>
<path fill="none" stroke="#1abc9c" d="M538,-215.692C538,-220.984 538,-254.857 538,-254.857 538,-254.857 559.736,-254.857 559.736,-254.857"/>
<polygon fill="#1abc9c" stroke="#1abc9c" points="567.735,-244.857 567.736,-264.857 563.736,-264.857 563.735,-244.857 567.735,-244.857"/>
<polyline fill="none" stroke="#1abc9c" points="569.736,-254.857 559.736,-254.857 "/>
</g>
<!-- siblings_1 -->
<g id="node9" class="node"><title>siblings_1</title>
<polygon fill="#2ecc71" stroke="#cccccc" stroke-width="0" points="541,-404.5 534,-404.5 534,-403.5 541,-403.5 541,-404.5"/>
</g>
<!-- union_1&#45;&gt;siblings_1 -->
<g id="edge8" class="edge"><title>union_1&#45;&gt;siblings_1</title>
<path fill="none" stroke="#2ecc71" d="M505.083,-404C511.913,-404 526.732,-404 533.715,-404"/>
</g>
<!-- Rukmini -->
<g id="node8" class="node"><title>Rukmini</title>
<polygon fill="white" stroke="#cccccc" points="469,-422 289,-422 289,-386 469,-386 469,-422"/>
<text text-anchor="middle" x="379" y="-399.8" font-family="Helvetica, Arial, sans-serif" font-size="14.00">Rukmini</text>
</g>
<!-- Rukmini&#45;&gt;union_1 -->
<g id="edge7" class="edge"><title>Rukmini&#45;&gt;union_1</title>
<path fill="none" stroke="#2ecc71" d="M469.315,-405.167C482.225,-405.167 492.892,-405.167 498.088,-405.167"/>
</g>
<!-- Partadewa -->
<g id="node10" class="node"><title>Partadewa</title>
<polygon fill="white" stroke="#cccccc" points="750,-368 570,-368 570,-332 750,-332 750,-368"/>
<text text-anchor="middle" x="660" y="-345.8" font-family="Helvetica, Arial, sans-serif" font-size="14.00">Partadewa</text>
</g>
<!-- siblings_1&#45;&gt;Partadewa -->
<g id="edge9" class="edge"><title>siblings_1&#45;&gt;Partadewa</title>
<path fill="none" stroke="#2ecc71" d="M538,-403.461C538,-398.188 538,-356 538,-356 538,-356 559.736,-356 559.736,-356"/>
<polygon fill="#2ecc71" stroke="#2ecc71" points="567.735,-346 567.736,-366 563.736,-366 563.735,-346 567.735,-346"/>
<polyline fill="none" stroke="#2ecc71" points="569.736,-356 559.736,-356 "/>
</g>
<!-- Titisari -->
<g id="node11" class="node"><title>Titisari</title>
<polygon fill="white" stroke="#cccccc" points="750,-422 570,-422 570,-386 750,-386 750,-422"/>
<text text-anchor="middle" x="660" y="-399.8" font-family="Helvetica, Arial, sans-serif" font-size="14.00">Titisari</text>
</g>
<!-- siblings_1&#45;&gt;Titisari -->
<g id="edge10" class="edge"><title>siblings_1&#45;&gt;Titisari</title>
<path fill="none" stroke="#2ecc71" d="M541.034,-404C541.034,-404 559.811,-404 559.811,-404"/>
<polygon fill="#2ecc71" stroke="#2ecc71" points="567.81,-394 567.811,-414 563.811,-414 563.81,-394 567.81,-394"/>
<polyline fill="none" stroke="#2ecc71" points="569.811,-404 559.811,-404 "/>
</g>
<!-- Saranadewa -->
<g id="node12" class="node"><title>Saranadewa</title>
<polygon fill="white" stroke="#cccccc" points="750,-476 570,-476 570,-440 750,-440 750,-476"/>
<text text-anchor="middle" x="660" y="-453.8" font-family="Helvetica, Arial, sans-serif" font-size="14.00">Saranadewa</text>
</g>
<!-- siblings_1&#45;&gt;Saranadewa -->
<g id="edge11" class="edge"><title>siblings_1&#45;&gt;Saranadewa</title>
<path fill="none" stroke="#2ecc71" d="M538,-404.674C538,-411.266 538,-464 538,-464 538,-464 559.736,-464 559.736,-464"/>
<polygon fill="#2ecc71" stroke="#2ecc71" points="567.735,-454 567.736,-474 563.736,-474 563.735,-454 567.735,-454"/>
<polyline fill="none" stroke="#2ecc71" points="569.736,-464 559.736,-464 "/>
</g>
<!-- siblings_2 -->
<g id="node15" class="node"><title>siblings_2</title>
<polygon fill="#3498db" stroke="#cccccc" stroke-width="0" points="541,-296.5 534,-296.5 534,-295.5 541,-295.5 541,-296.5"/>
</g>
<!-- union_2&#45;&gt;siblings_2 -->
<g id="edge14" class="edge"><title>union_2&#45;&gt;siblings_2</title>
<path fill="none" stroke="#3498db" d="M505.083,-296C511.913,-296 526.732,-296 533.715,-296"/>
</g>
<!-- Setyaboma -->
<g id="node14" class="node"><title>Setyaboma</title>
<polygon fill="white" stroke="#cccccc" points="469,-314 289,-314 289,-278 469,-278 469,-314"/>
<text text-anchor="middle" x="379" y="-291.8" font-family="Helvetica, Arial, sans-serif" font-size="14.00">Setyaboma</text>
</g>
<!-- Setyaboma&#45;&gt;union_2 -->
<g id="edge13" class="edge"><title>Setyaboma&#45;&gt;union_2</title>
<path fill="none" stroke="#3498db" d="M469.315,-296C481.938,-296 492.417,-296 497.733,-296"/>
</g>
<!-- Setyaka -->
<g id="node16" class="node"><title>Setyaka</title>
<polygon fill="white" stroke="#cccccc" points="750,-314 570,-314 570,-278 750,-278 750,-314"/>
<text text-anchor="middle" x="660" y="-291.8" font-family="Helvetica, Arial, sans-serif" font-size="14.00">Setyaka</text>
</g>
<!-- siblings_2&#45;&gt;Setyaka -->
<g id="edge15" class="edge"><title>siblings_2&#45;&gt;Setyaka</title>
<path fill="none" stroke="#3498db" d="M541.034,-296C541.034,-296 559.811,-296 559.811,-296"/>
<polygon fill="#3498db" stroke="#3498db" points="567.81,-286 567.811,-306 563.811,-306 563.81,-286 567.81,-286"/>
<polyline fill="none" stroke="#3498db" points="569.811,-296 559.811,-296 "/>
</g>
<!-- siblings_3 -->
<g id="node19" class="node"><title>siblings_3</title>
<polygon fill="#9b59b6" stroke="#cccccc" stroke-width="0" points="541,-134.5 534,-134.5 534,-133.5 541,-133.5 541,-134.5"/>
</g>
<!-- union_3&#45;&gt;siblings_3 -->
<g id="edge18" class="edge"><title>union_3&#45;&gt;siblings_3</title>
<path fill="none" stroke="#9b59b6" d="M505.083,-134C511.913,-134 526.732,-134 533.715,-134"/>
</g>
<!-- Pratiwi -->
<g id="node18" class="node"><title>Pratiwi</title>
<polygon fill="white" stroke="#cccccc" points="469,-152 289,-152 289,-116 469,-116 469,-152"/>
<text text-anchor="middle" x="379" y="-129.8" font-family="Helvetica, Arial, sans-serif" font-size="14.00">Pratiwi</text>
</g>
<!-- Pratiwi&#45;&gt;union_3 -->
<g id="edge17" class="edge"><title>Pratiwi&#45;&gt;union_3</title>
<path fill="none" stroke="#9b59b6" d="M469.315,-132.833C482.225,-132.833 492.892,-132.833 498.088,-132.833"/>
</g>
<!-- Bomanarakasura -->
<g id="node20" class="node"><title>Bomanarakasura</title>
<polygon fill="white" stroke="#cccccc" points="750,-98 570,-98 570,-62 750,-62 750,-98"/>
<text text-anchor="middle" x="660" y="-75.8" font-family="Helvetica, Arial, sans-serif" font-size="14.00">Bomanarakasura</text>
</g>
<!-- siblings_3&#45;&gt;Bomanarakasura -->
<g id="edge19" class="edge"><title>siblings_3&#45;&gt;Bomanarakasura</title>
<path fill="none" stroke="#9b59b6" d="M538,-133.461C538,-128.188 538,-86 538,-86 538,-86 559.736,-86 559.736,-86"/>
<polygon fill="#9b59b6" stroke="#9b59b6" points="567.735,-76 567.736,-96 563.736,-96.0001 563.735,-76.0001 567.735,-76"/>
<polyline fill="none" stroke="#9b59b6" points="569.736,-86 559.736,-86.0001 "/>
</g>
<!-- Siti_Sendari -->
<g id="node21" class="node"><title>Siti_Sendari</title>
<polygon fill="white" stroke="#cccccc" points="750,-152 570,-152 570,-116 750,-116 750,-152"/>
<text text-anchor="middle" x="660" y="-129.8" font-family="Helvetica, Arial, sans-serif" font-size="14.00">Siti_Sendari</text>
</g>
<!-- siblings_3&#45;&gt;Siti_Sendari -->
<g id="edge20" class="edge"><title>siblings_3&#45;&gt;Siti_Sendari</title>
<path fill="none" stroke="#9b59b6" d="M541.034,-134C541.034,-134 559.811,-134 559.811,-134"/>
<polygon fill="#9b59b6" stroke="#9b59b6" points="567.81,-124 567.811,-144 563.811,-144 563.81,-124 567.81,-124"/>
<polyline fill="none" stroke="#9b59b6" points="569.811,-134 559.811,-134 "/>
</g>
<!-- siblings_4 -->
<g id="node24" class="node"><title>siblings_4</title>
<polygon fill="#34495e" stroke="#cccccc" stroke-width="0" points="541,-26.5 534,-26.5 534,-25.5 541,-25.5 541,-26.5"/>
</g>
<!-- union_4&#45;&gt;siblings_4 -->
<g id="edge23" class="edge"><title>union_4&#45;&gt;siblings_4</title>
<path fill="none" stroke="#34495e" d="M505.083,-26C511.913,-26 526.732,-26 533.715,-26"/>
</g>
<!-- Kusumawati -->
<g id="node23" class="node"><title>Kusumawati</title>
<polygon fill="white" stroke="#cccccc" points="469,-44 289,-44 289,-8 469,-8 469,-44"/>
<text text-anchor="middle" x="379" y="-21.8" font-family="Helvetica, Arial, sans-serif" font-size="14.00">Kusumawati</text>
</g>
<!-- Kusumawati&#45;&gt;union_4 -->
<g id="edge22" class="edge"><title>Kusumawati&#45;&gt;union_4</title>
<path fill="none" stroke="#34495e" d="M469.315,-24.8333C482.225,-24.8333 492.892,-24.8333 498.088,-24.8333"/>
</g>
<!-- Saketi -->
<g id="node25" class="node"><title>Saketi</title>
<polygon fill="white" stroke="#cccccc" points="750,-44 570,-44 570,-8 750,-8 750,-44"/>
<text text-anchor="middle" x="660" y="-21.8" font-family="Helvetica, Arial, sans-serif" font-size="14.00">Saketi</text>
</g>
<!-- siblings_4&#45;&gt;Saketi -->
<g id="edge24" class="edge"><title>siblings_4&#45;&gt;Saketi</title>
<path fill="none" stroke="#34495e" d="M541.034,-26C541.034,-26 559.811,-26 559.811,-26"/>
<polygon fill="#34495e" stroke="#34495e" points="567.81,-16 567.811,-36 563.811,-36.0001 563.81,-16.0001 567.81,-16"/>
<polyline fill="none" stroke="#34495e" points="569.811,-26 559.811,-26.0001 "/>
</g>
<!-- union_5 -->
<g id="node26" class="node"><title>union_5</title>
<ellipse fill="#f1c40f" stroke="white" cx="220.5" cy="-242" rx="3.5" ry="3.5"/>
</g>
<!-- siblings_5 -->
<g id="node29" class="node"><title>siblings_5</title>
<polygon fill="#f1c40f" stroke="#cccccc" stroke-width="0" points="260,-242.5 253,-242.5 253,-241.5 260,-241.5 260,-242.5"/>
</g>
<!-- union_5&#45;&gt;siblings_5 -->
<g id="edge27" class="edge"><title>union_5&#45;&gt;siblings_5</title>
<path fill="none" stroke="#f1c40f" d="M224.083,-242C230.913,-242 245.732,-242 252.715,-242"/>
</g>
<!-- Basudewa -->
<g id="node27" class="node"><title>Basudewa</title>
<polygon fill="white" stroke="#cccccc" points="188,-260 8,-260 8,-224 188,-224 188,-260"/>
<text text-anchor="middle" x="98" y="-237.8" font-family="Helvetica, Arial, sans-serif" font-size="14.00">Basudewa</text>
</g>
<!-- Basudewa&#45;&gt;union_5 -->
<g id="edge25" class="edge"><title>Basudewa&#45;&gt;union_5</title>
<path fill="none" stroke="#f1c40f" d="M188.315,-242C200.938,-242 211.417,-242 216.733,-242"/>
</g>
<!-- Mahindra -->
<g id="node28" class="node"><title>Mahindra</title>
<polygon fill="white" stroke="#cccccc" points="188,-206 8,-206 8,-170 188,-170 188,-206"/>
<text text-anchor="middle" x="98" y="-183.8" font-family="Helvetica, Arial, sans-serif" font-size="14.00">Mahindra</text>
</g>
<!-- Mahindra&#45;&gt;union_5 -->
<g id="edge26" class="edge"><title>Mahindra&#45;&gt;union_5</title>
<path fill="none" stroke="#f1c40f" d="M188.038,-182C206.794,-182 221,-182 221,-182 221,-182 221,-225.51 221,-238.426"/>
</g>
<!-- siblings_5&#45;&gt;Kresna -->
<g id="edge28" class="edge"><title>siblings_5&#45;&gt;Kresna</title>
<path fill="none" stroke="#f1c40f" d="M260.034,-242C260.034,-242 278.811,-242 278.811,-242"/>
<polygon fill="#f1c40f" stroke="#f1c40f" points="286.81,-232 286.811,-252 282.811,-252 282.81,-232 286.81,-232"/>
<polyline fill="none" stroke="#f1c40f" points="288.811,-242 278.811,-242 "/>
</g>
<!-- union_6 -->
<g id="node30" class="node"><title>union_6</title>
<ellipse fill="#e67e22" stroke="white" cx="220.5" cy="-134" rx="3.5" ry="3.5"/>
</g>
<!-- siblings_6 -->
<g id="node33" class="node"><title>siblings_6</title>
<polygon fill="#e67e22" stroke="#cccccc" stroke-width="0" points="260,-134.5 253,-134.5 253,-133.5 260,-133.5 260,-134.5"/>
</g>
<!-- union_6&#45;&gt;siblings_6 -->
<g id="edge31" class="edge"><title>union_6&#45;&gt;siblings_6</title>
<path fill="none" stroke="#e67e22" d="M224.083,-134C230.913,-134 245.732,-134 252.715,-134"/>
</g>
<!-- Trijata -->
<g id="node31" class="node"><title>Trijata</title>
<polygon fill="white" stroke="#cccccc" points="188,-152 8,-152 8,-116 188,-116 188,-152"/>
<text text-anchor="middle" x="98" y="-129.8" font-family="Helvetica, Arial, sans-serif" font-size="14.00">Trijata</text>
</g>
<!-- Trijata&#45;&gt;union_6 -->
<g id="edge29" class="edge"><title>Trijata&#45;&gt;union_6</title>
<path fill="none" stroke="#e67e22" d="M188.315,-134C200.938,-134 211.417,-134 216.733,-134"/>
</g>
<!-- Jembawan -->
<g id="node32" class="node"><title>Jembawan</title>
<polygon fill="white" stroke="#cccccc" points="188,-98 8,-98 8,-62 188,-62 188,-98"/>
<text text-anchor="middle" x="98" y="-75.8" font-family="Helvetica, Arial, sans-serif" font-size="14.00">Jembawan</text>
</g>
<!-- Jembawan&#45;&gt;union_6 -->
<g id="edge30" class="edge"><title>Jembawan&#45;&gt;union_6</title>
<path fill="none" stroke="#e67e22" d="M188.038,-74C206.794,-74 221,-74 221,-74 221,-74 221,-117.51 221,-130.426"/>
</g>
<!-- siblings_6&#45;&gt;Jembawati -->
<g id="edge32" class="edge"><title>siblings_6&#45;&gt;Jembawati</title>
<path fill="none" stroke="#e67e22" d="M257,-134.674C257,-141.266 257,-194 257,-194 257,-194 278.736,-194 278.736,-194"/>
<polygon fill="#e67e22" stroke="#e67e22" points="286.735,-184 286.736,-204 282.736,-204 282.735,-184 286.735,-184"/>
<polyline fill="none" stroke="#e67e22" points="288.736,-194 278.736,-194 "/>
</g>
<!-- union_7 -->
<g id="node34" class="node"><title>union_7</title>
<ellipse fill="#e74c3c" stroke="white" cx="220.5" cy="-404" rx="3.5" ry="3.5"/>
</g>
<!-- siblings_7 -->
<g id="node37" class="node"><title>siblings_7</title>
<polygon fill="#e74c3c" stroke="#cccccc" stroke-width="0" points="260,-404.5 253,-404.5 253,-403.5 260,-403.5 260,-404.5"/>
</g>
<!-- union_7&#45;&gt;siblings_7 -->
<g id="edge35" class="edge"><title>union_7&#45;&gt;siblings_7</title>
<path fill="none" stroke="#e74c3c" d="M224.083,-404C230.913,-404 245.732,-404 252.715,-404"/>
</g>
<!-- Rumbini -->
<g id="node35" class="node"><title>Rumbini</title>
<polygon fill="white" stroke="#cccccc" points="188,-476 8,-476 8,-440 188,-440 188,-476"/>
<text text-anchor="middle" x="98" y="-453.8" font-family="Helvetica, Arial, sans-serif" font-size="14.00">Rumbini</text>
</g>
<!-- Rumbini&#45;&gt;union_7 -->
<g id="edge33" class="edge"><title>Rumbini&#45;&gt;union_7</title>
<path fill="none" stroke="#e74c3c" d="M188.038,-452C206.794,-452 221,-452 221,-452 221,-452 221,-419.082 221,-407.766"/>
</g>
<!-- Bismaka -->
<g id="node36" class="node"><title>Bismaka</title>
<polygon fill="white" stroke="#cccccc" points="188,-422 8,-422 8,-386 188,-386 188,-422"/>
<text text-anchor="middle" x="98" y="-399.8" font-family="Helvetica, Arial, sans-serif" font-size="14.00">Bismaka</text>
</g>
<!-- Bismaka&#45;&gt;union_7 -->
<g id="edge34" class="edge"><title>Bismaka&#45;&gt;union_7</title>
<path fill="none" stroke="#e74c3c" d="M188.315,-404C200.938,-404 211.417,-404 216.733,-404"/>
</g>
<!-- siblings_7&#45;&gt;Rukmini -->
<g id="edge36" class="edge"><title>siblings_7&#45;&gt;Rukmini</title>
<path fill="none" stroke="#e74c3c" d="M260.034,-404C260.034,-404 278.811,-404 278.811,-404"/>
<polygon fill="#e74c3c" stroke="#e74c3c" points="286.81,-394 286.811,-414 282.811,-414 282.81,-394 286.81,-394"/>
<polyline fill="none" stroke="#e74c3c" points="288.811,-404 278.811,-404 "/>
</g>
<!-- union_8 -->
<g id="node38" class="node"><title>union_8</title>
<ellipse fill="#1abc9c" stroke="white" cx="220.5" cy="-296" rx="3.5" ry="3.5"/>
</g>
<!-- siblings_8 -->
<g id="node41" class="node"><title>siblings_8</title>
<polygon fill="#1abc9c" stroke="#cccccc" stroke-width="0" points="260,-296.5 253,-296.5 253,-295.5 260,-295.5 260,-296.5"/>
</g>
<!-- union_8&#45;&gt;siblings_8 -->
<g id="edge39" class="edge"><title>union_8&#45;&gt;siblings_8</title>
<path fill="none" stroke="#1abc9c" d="M224.083,-296C230.913,-296 245.732,-296 252.715,-296"/>
</g>
<!-- Wersini -->
<g id="node39" class="node"><title>Wersini</title>
<polygon fill="white" stroke="#cccccc" points="188,-368 8,-368 8,-332 188,-332 188,-368"/>
<text text-anchor="middle" x="98" y="-345.8" font-family="Helvetica, Arial, sans-serif" font-size="14.00">Wersini</text>
</g>
<!-- Wersini&#45;&gt;union_8 -->
<g id="edge37" class="edge"><title>Wersini&#45;&gt;union_8</title>
<path fill="none" stroke="#1abc9c" d="M188.038,-344C206.794,-344 221,-344 221,-344 221,-344 221,-311.082 221,-299.766"/>
</g>
<!-- Ugrasena -->
<g id="node40" class="node"><title>Ugrasena</title>
<polygon fill="white" stroke="#cccccc" points="188,-314 8,-314 8,-278 188,-278 188,-314"/>
<text text-anchor="middle" x="98" y="-291.8" font-family="Helvetica, Arial, sans-serif" font-size="14.00">Ugrasena</text>
</g>
<!-- Ugrasena&#45;&gt;union_8 -->
<g id="edge38" class="edge"><title>Ugrasena&#45;&gt;union_8</title>
<path fill="none" stroke="#1abc9c" d="M188.315,-296C200.938,-296 211.417,-296 216.733,-296"/>
</g>
<!-- siblings_8&#45;&gt;Setyaboma -->
<g id="edge40" class="edge"><title>siblings_8&#45;&gt;Setyaboma</title>
<path fill="none" stroke="#1abc9c" d="M260.034,-296C260.034,-296 278.811,-296 278.811,-296"/>
<polygon fill="#1abc9c" stroke="#1abc9c" points="286.81,-286 286.811,-306 282.811,-306 282.81,-286 286.81,-286"/>
<polyline fill="none" stroke="#1abc9c" points="288.811,-296 278.811,-296 "/>
</g>
</g>
</svg>
