<?xml version="1.0" encoding="UTF-8" standalone="no"?>
<!DOCTYPE svg PUBLIC "-//W3C//DTD SVG 1.1//EN"
 "http://www.w3.org/Graphics/SVG/1.1/DTD/svg11.dtd">
<!-- Generated by graphviz version 2.38.0 (20140413.2041)
 -->
<!-- Title: G Pages: 1 -->
<svg width="766pt" height="318pt"
 viewBox="0.00 0.00 766.00 318.00" xmlns="http://www.w3.org/2000/svg" xmlns:xlink="http://www.w3.org/1999/xlink">
<g id="graph0" class="graph" transform="scale(1 1) rotate(0) translate(4 314)">
<title>G</title>
<polygon fill="white" stroke="none" points="-4,4 -4,-314 762,-314 762,4 -4,4"/>
<g id="clust1" class="cluster"><title>cluster_family_0</title>
</g>
<g id="clust4" class="cluster"><title>cluster_family_1</title>
</g>
<g id="clust7" class="cluster"><title>cluster_family_2</title>
</g>
<g id="clust10" class="cluster"><title>cluster_family_3</title>
</g>
<g id="clust13" class="cluster"><title>cluster_family_4</title>
</g>
<g id="clust16" class="cluster"><title>cluster_family_5</title>
</g>
<g id="clust19" class="cluster"><title>cluster_family_6</title>
</g>
<g id="clust22" class="cluster"><title>cluster_family_7</title>
</g>
<!-- union_0 -->
<g id="node1" class="node"><title>union_0</title>
<ellipse fill="#1abc9c" stroke="white" cx="501.5" cy="-215" rx="3.5" ry="3.5"/>
</g>
<!-- siblings_0 -->
<g id="node4" class="node"><title>siblings_0</title>
<polygon fill="#1abc9c" stroke="#cccccc" stroke-width="0" points="541,-215.5 534,-215.5 534,-214.5 541,-214.5 541,-215.5"/>
</g>
<!-- union_0&#45;&gt;siblings_0 -->
<g id="edge3" class="edge"><title>union_0&#45;&gt;siblings_0</title>
<path fill="none" stroke="#1abc9c" d="M505.083,-215C511.913,-215 526.732,-215 533.715,-215"/>
</g>
<!-- Kunti -->
<g id="node2" class="node"><title>Kunti</title>
<polygon fill="white" stroke="#cccccc" points="469,-206 289,-206 289,-170 469,-170 469,-206"/>
<text text-anchor="middle" x="379" y="-183.8" font-family="Helvetica, Arial, sans-serif" font-size="14.00">Kunti</text>
</g>
<!-- Kunti&#45;&gt;union_0 -->
<g id="edge1" class="edge"><title>Kunti&#45;&gt;union_0</title>
<path fill="none" stroke="#1abc9c" d="M469.116,-201.5C488.348,-201.5 503,-201.5 503,-201.5 503,-201.5 503,-207.594 503,-211.593"/>
</g>
<!-- union_1 -->
<g id="node6" class="node"><title>union_1</title>
<ellipse fill="#2ecc71" stroke="white" cx="501.5" cy="-134" rx="3.5" ry="3.5"/>
</g>
<!-- Kunti&#45;&gt;union_1 -->
<g id="edge5" class="edge"><title>Kunti&#45;&gt;union_1</title>
<path fill="none" stroke="#2ecc71" d="M469.264,-190.25C487.391,-190.25 501,-190.25 501,-190.25 501,-190.25 501,-150.205 501,-137.691"/>
</g>
<!-- union_2 -->
<g id="node10" class="node"><title>union_2</title>
<ellipse fill="#3498db" stroke="white" cx="501.5" cy="-80" rx="3.5" ry="3.5"/>
</g>
<!-- Kunti&#45;&gt;union_2 -->
<g id="edge9" class="edge"><title>Kunti&#45;&gt;union_2</title>
<path fill="none" stroke="#3498db" d="M469.08,-183.5C480.893,-183.5 489,-183.5 489,-183.5 489,-183.5 489,-81.1667 489,-81.1667 489,-81.1667 494.383,-81.1667 498.084,-81.1667"/>
</g>
<!-- union_3 -->
<g id="node14" class="node"><title>union_3</title>
<ellipse fill="#9b59b6" stroke="white" cx="501.5" cy="-26" rx="3.5" ry="3.5"/>
</g>
<!-- Kunti&#45;&gt;union_3 -->
<g id="edge13" class="edge"><title>Kunti&#45;&gt;union_3</title>
<path fill="none" stroke="#9b59b6" d="M469.046,-176.75C475.185,-176.75 479,-176.75 479,-176.75 479,-176.75 479,-27.1667 479,-27.1667 479,-27.1667 491.656,-27.1667 497.984,-27.1667"/>
</g>
<!-- Surya -->
<g id="node3" class="node"><title>Surya</title>
<polygon fill="white" stroke="#cccccc" points="469,-260 289,-260 289,-224 469,-224 469,-260"/>
<text text-anchor="middle" x="379" y="-237.8" font-family="Helvetica, Arial, sans-serif" font-size="14.00">Surya</text>
</g>
<!-- Surya&#45;&gt;union_0 -->
<g id="edge2" class="edge"><title>Surya&#45;&gt;union_0</title>
<path fill="none" stroke="#1abc9c" d="M469.038,-228.5C487.794,-228.5 502,-228.5 502,-228.5 502,-228.5 502,-222.686 502,-218.689"/>
</g>
<!-- Karna -->
<g id="node5" class="node"><title>Karna</title>
<polygon fill="white" stroke="#cccccc" points="750,-233 570,-233 570,-197 750,-197 750,-233"/>
<text text-anchor="middle" x="660" y="-210.8" font-family="Helvetica, Arial, sans-serif" font-size="14.00">Karna</text>
</g>
<!-- siblings_0&#45;&gt;Karna -->
<g id="edge4" class="edge"><title>siblings_0&#45;&gt;Karna</title>
<path fill="none" stroke="#1abc9c" d="M541.034,-215C541.034,-215 559.811,-215 559.811,-215"/>
<polygon fill="#1abc9c" stroke="#1abc9c" points="567.81,-205 567.811,-225 563.811,-225 563.81,-205 567.81,-205"/>
<polyline fill="none" stroke="#1abc9c" points="569.811,-215 559.811,-215 "/>
</g>
<!-- siblings_1 -->
<g id="node8" class="node"><title>siblings_1</title>
<polygon fill="#2ecc71" stroke="#cccccc" stroke-width="0" points="541,-134.5 534,-134.5 534,-133.5 541,-133.5 541,-134.5"/>
</g>
<!-- union_1&#45;&gt;siblings_1 -->
<g id="edge7" class="edge"><title>union_1&#45;&gt;siblings_1</title>
<path fill="none" stroke="#2ecc71" d="M505.083,-134C511.913,-134 526.732,-134 533.715,-134"/>
</g>
<!-- Darma -->
<g id="node7" class="node"><title>Darma</title>
<polygon fill="white" stroke="#cccccc" points="469,-152 289,-152 289,-116 469,-116 469,-152"/>
<text text-anchor="middle" x="379" y="-129.8" font-family="Helvetica, Arial, sans-serif" font-size="14.00">Darma</text>
</g>
<!-- Darma&#45;&gt;union_1 -->
<g id="edge6" class="edge"><title>Darma&#45;&gt;union_1</title>
<path fill="none" stroke="#2ecc71" d="M469.315,-134C481.938,-134 492.417,-134 497.733,-134"/>
</g>
<!-- Puntadewa -->
<g id="node9" class="node"><title>Puntadewa</title>
<polygon fill="white" stroke="#cccccc" points="750,-152 570,-152 570,-116 750,-116 750,-152"/>
<text text-anchor="middle" x="660" y="-129.8" font-family="Helvetica, Arial, sans-serif" font-size="14.00">Puntadewa</text>
</g>
<!-- siblings_1&#45;&gt;Puntadewa -->
<g id="edge8" class="edge"><title>siblings_1&#45;&gt;Puntadewa</title>
<path fill="none" stroke="#2ecc71" d="M541.034,-134C541.034,-134 559.811,-134 559.811,-134"/>
<polygon fill="#2ecc71" stroke="#2ecc71" points="567.81,-124 567.811,-144 563.811,-144 563.81,-124 567.81,-124"/>
<polyline fill="none" stroke="#2ecc71" points="569.811,-134 559.811,-134 "/>
</g>
<!-- siblings_2 -->
<g id="node12" class="node"><title>siblings_2</title>
<polygon fill="#3498db" stroke="#cccccc" stroke-width="0" points="541,-80.5 534,-80.5 534,-79.5 541,-79.5 541,-80.5"/>
</g>
<!-- union_2&#45;&gt;siblings_2 -->
<g id="edge11" class="edge"><title>union_2&#45;&gt;siblings_2</title>
<path fill="none" stroke="#3498db" d="M505.083,-80C511.913,-80 526.732,-80 533.715,-80"/>
</g>
<!-- Bayu -->
<g id="node11" class="node"><title>Bayu</title>
<polygon fill="white" stroke="#cccccc" points="469,-98 289,-98 289,-62 469,-62 469,-98"/>
<text text-anchor="middle" x="379" y="-75.8" font-family="Helvetica, Arial, sans-serif" font-size="14.00">Bayu</text>
</g>
<!-- Bayu&#45;&gt;union_2 -->
<g id="edge10" class="edge"><title>Bayu&#45;&gt;union_2</title>
<path fill="none" stroke="#3498db" d="M469.315,-78.8333C482.225,-78.8333 492.892,-78.8333 498.088,-78.8333"/>
</g>
<!-- Werkudara -->
<g id="node13" class="node"><title>Werkudara</title>
<polygon fill="white" stroke="#cccccc" points="750,-98 570,-98 570,-62 750,-62 750,-98"/>
<text text-anchor="middle" x="660" y="-75.8" font-family="Helvetica, Arial, sans-serif" font-size="14.00">Werkudara</text>
</g>
<!-- siblings_2&#45;&gt;Werkudara -->
<g id="edge12" class="edge"><title>siblings_2&#45;&gt;Werkudara</title>
<path fill="none" stroke="#3498db" d="M541.034,-80C541.034,-80 559.811,-80 559.811,-80"/>
<polygon fill="#3498db" stroke="#3498db" points="567.81,-70 567.811,-90 563.811,-90.0001 563.81,-70.0001 567.81,-70"/>
<polyline fill="none" stroke="#3498db" points="569.811,-80 559.811,-80.0001 "/>
</g>
<!-- siblings_3 -->
<g id="node16" class="node"><title>siblings_3</title>
<polygon fill="#9b59b6" stroke="#cccccc" stroke-width="0" points="541,-26.5 534,-26.5 534,-25.5 541,-25.5 541,-26.5"/>
</g>
<!-- union_3&#45;&gt;siblings_3 -->
<g id="edge15" class="edge"><title>union_3&#45;&gt;siblings_3</title>
<path fill="none" stroke="#9b59b6" d="M505.083,-26C511.913,-26 526.732,-26 533.715,-26"/>
</g>
<!-- Indra -->
<g id="node15" class="node"><title>Indra</title>
<polygon fill="white" stroke="#cccccc" points="469,-44 289,-44 289,-8 469,-8 469,-44"/>
<text text-anchor="middle" x="379" y="-21.8" font-family="Helvetica, Arial, sans-serif" font-size="14.00">Indra</text>
</g>
<!-- Indra&#45;&gt;union_3 -->
<g id="edge14" class="edge"><title>Indra&#45;&gt;union_3</title>
<path fill="none" stroke="#9b59b6" d="M469.315,-24.8333C482.225,-24.8333 492.892,-24.8333 498.088,-24.8333"/>
</g>
<!-- Arjuna -->
<g id="node17" class="node"><title>Arjuna</title>
<polygon fill="white" stroke="#cccccc" points="750,-44 570,-44 570,-8 750,-8 750,-44"/>
<text text-anchor="middle" x="660" y="-21.8" font-family="Helvetica, Arial, sans-serif" font-size="14.00">Arjuna</text>
</g>
<!-- siblings_3&#45;&gt;Arjuna -->
<g id="edge16" class="edge"><title>siblings_3&#45;&gt;Arjuna</title>
<path fill="none" stroke="#9b59b6" d="M541.034,-26C541.034,-26 559.811,-26 559.811,-26"/>
<polygon fill="#9b59b6" stroke="#9b59b6" points="567.81,-16 567.811,-36 563.811,-36.0001 563.81,-16.0001 567.81,-16"/>
<polyline fill="none" stroke="#9b59b6" points="569.811,-26 559.811,-26.0001 "/>
</g>
<!-- union_4 -->
<g id="node18" class="node"><title>union_4</title>
<ellipse fill="#34495e" stroke="white" cx="220.5" cy="-277" rx="3.5" ry="3.5"/>
</g>
<!-- siblings_4 -->
<g id="node20" class="node"><title>siblings_4</title>
<polygon fill="#34495e" stroke="#cccccc" stroke-width="0" points="260,-277.5 253,-277.5 253,-276.5 260,-276.5 260,-277.5"/>
</g>
<!-- union_4&#45;&gt;siblings_4 -->
<g id="edge18" class="edge"><title>union_4&#45;&gt;siblings_4</title>
<path fill="none" stroke="#34495e" d="M224.083,-277C230.913,-277 245.732,-277 252.715,-277"/>
</g>
<!-- Surasena -->
<g id="node19" class="node"><title>Surasena</title>
<polygon fill="white" stroke="#cccccc" points="188,-302 8,-302 8,-266 188,-266 188,-302"/>
<text text-anchor="middle" x="98" y="-279.8" font-family="Helvetica, Arial, sans-serif" font-size="14.00">Surasena</text>
</g>
<!-- Surasena&#45;&gt;union_4 -->
<g id="edge17" class="edge"><title>Surasena&#45;&gt;union_4</title>
<path fill="none" stroke="#34495e" d="M188.315,-277C200.938,-277 211.417,-277 216.733,-277"/>
</g>
<!-- siblings_4&#45;&gt;Kunti -->
<g id="edge19" class="edge"><title>siblings_4&#45;&gt;Kunti</title>
<path fill="none" stroke="#34495e" d="M260.067,-277C265.443,-277 275,-277 275,-277 275,-277 275,-200 275,-200 275,-200 278.596,-200 278.596,-200"/>
<polygon fill="#34495e" stroke="#34495e" points="286.596,-190 286.596,-210 282.596,-210 282.596,-190 286.596,-190"/>
<polyline fill="none" stroke="#34495e" points="288.596,-200 278.596,-200 "/>
</g>
<!-- union_5 -->
<g id="node21" class="node"><title>union_5</title>
<ellipse fill="#f1c40f" stroke="white" cx="220.5" cy="-230" rx="3.5" ry="3.5"/>
</g>
<!-- siblings_5 -->
<g id="node24" class="node"><title>siblings_5</title>
<polygon fill="#f1c40f" stroke="#cccccc" stroke-width="0" points="260,-230.5 253,-230.5 253,-229.5 260,-229.5 260,-230.5"/>
</g>
<!-- union_5&#45;&gt;siblings_5 -->
<g id="edge22" class="edge"><title>union_5&#45;&gt;siblings_5</title>
<path fill="none" stroke="#f1c40f" d="M224.083,-230C230.913,-230 245.732,-230 252.715,-230"/>
</g>
<!-- Senggani -->
<g id="node22" class="node"><title>Senggani</title>
<polygon fill="white" stroke="#cccccc" points="188,-248 8,-248 8,-212 188,-212 188,-248"/>
<text text-anchor="middle" x="98" y="-225.8" font-family="Helvetica, Arial, sans-serif" font-size="14.00">Senggani</text>
</g>
<!-- Senggani&#45;&gt;union_5 -->
<g id="edge20" class="edge"><title>Senggani&#45;&gt;union_5</title>
<path fill="none" stroke="#f1c40f" d="M188.315,-230C200.938,-230 211.417,-230 216.733,-230"/>
</g>
<!-- Ismaya(Semar) -->
<g id="node23" class="node"><title>Ismaya(Semar)</title>
<polygon fill="white" stroke="#cccccc" points="188,-194 8,-194 8,-158 188,-158 188,-194"/>
<text text-anchor="middle" x="98" y="-171.8" font-family="Helvetica, Arial, sans-serif" font-size="14.00">Ismaya(Semar)</text>
</g>
<!-- Ismaya(Semar)&#45;&gt;union_5 -->
<g id="edge21" class="edge"><title>Ismaya(Semar)&#45;&gt;union_5</title>
<path fill="none" stroke="#f1c40f" d="M188.264,-182C206.391,-182 220,-182 220,-182 220,-182 220,-214.918 220,-226.234"/>
</g>
<!-- siblings_5&#45;&gt;Surya -->
<g id="edge23" class="edge"><title>siblings_5&#45;&gt;Surya</title>
<path fill="none" stroke="#f1c40f" d="M260.034,-230C260.034,-230 278.811,-230 278.811,-230"/>
<polygon fill="#f1c40f" stroke="#f1c40f" points="286.81,-220 286.811,-240 282.811,-240 282.81,-220 286.81,-220"/>
<polyline fill="none" stroke="#f1c40f" points="288.811,-230 278.811,-230 "/>
</g>
<!-- union_6 -->
<g id="node25" class="node"><title>union_6</title>
<ellipse fill="#e67e22" stroke="white" cx="220.5" cy="-80" rx="3.5" ry="3.5"/>
</g>
<!-- siblings_6 -->
<g id="node28" class="node"><title>siblings_6</title>
<polygon fill="#e67e22" stroke="#cccccc" stroke-width="0" points="260,-80.5 253,-80.5 253,-79.5 260,-79.5 260,-80.5"/>
</g>
<!-- union_6&#45;&gt;siblings_6 -->
<g id="edge26" class="edge"><title>union_6&#45;&gt;siblings_6</title>
<path fill="none" stroke="#e67e22" d="M224.083,-80C230.913,-80 245.732,-80 252.715,-80"/>
</g>
<!-- Uma -->
<g id="node26" class="node"><title>Uma</title>
<polygon fill="white" stroke="#cccccc" points="188,-128 8,-128 8,-92 188,-92 188,-128"/>
<text text-anchor="middle" x="98" y="-105.8" font-family="Helvetica, Arial, sans-serif" font-size="14.00">Uma</text>
</g>
<!-- Uma&#45;&gt;union_6 -->
<g id="edge24" class="edge"><title>Uma&#45;&gt;union_6</title>
<path fill="none" stroke="#e67e22" d="M188.116,-110C207.348,-110 222,-110 222,-110 222,-110 222,-90.9497 222,-83.2105"/>
</g>
<!-- union_7 -->
<g id="node29" class="node"><title>union_7</title>
<ellipse fill="#e74c3c" stroke="white" cx="220.5" cy="-26" rx="3.5" ry="3.5"/>
</g>
<!-- Uma&#45;&gt;union_7 -->
<g id="edge28" class="edge"><title>Uma&#45;&gt;union_7</title>
<path fill="none" stroke="#e74c3c" d="M188.4,-104C197.232,-104 203,-104 203,-104 203,-104 203,-26 203,-26 203,-26 211.652,-26 216.789,-26"/>
</g>
<!-- Guru -->
<g id="node27" class="node"><title>Guru</title>
<polygon fill="white" stroke="#cccccc" points="188,-74 8,-74 8,-38 188,-38 188,-74"/>
<text text-anchor="middle" x="98" y="-51.8" font-family="Helvetica, Arial, sans-serif" font-size="14.00">Guru</text>
</g>
<!-- Guru&#45;&gt;union_6 -->
<g id="edge25" class="edge"><title>Guru&#45;&gt;union_6</title>
<path fill="none" stroke="#e67e22" d="M188.116,-68C207.348,-68 222,-68 222,-68 222,-68 222,-73.168 222,-76.7209"/>
</g>
<!-- Guru&#45;&gt;union_7 -->
<g id="edge29" class="edge"><title>Guru&#45;&gt;union_7</title>
<path fill="none" stroke="#e74c3c" d="M188.264,-53C206.391,-53 220,-53 220,-53 220,-53 220,-37.1731 220,-29.7542"/>
</g>
<!-- siblings_6&#45;&gt;Bayu -->
<g id="edge27" class="edge"><title>siblings_6&#45;&gt;Bayu</title>
<path fill="none" stroke="#e67e22" d="M260.034,-80C260.034,-80 278.811,-80 278.811,-80"/>
<polygon fill="#e67e22" stroke="#e67e22" points="286.81,-70 286.811,-90 282.811,-90.0001 282.81,-70.0001 286.81,-70"/>
<polyline fill="none" stroke="#e67e22" points="288.811,-80 278.811,-80.0001 "/>
</g>
<!-- siblings_7 -->
<g id="node30" class="node"><title>siblings_7</title>
<polygon fill="#e74c3c" stroke="#cccccc" stroke-width="0" points="260,-26.5 253,-26.5 253,-25.5 260,-25.5 260,-26.5"/>
</g>
<!-- union_7&#45;&gt;siblings_7 -->
<g id="edge30" class="edge"><title>union_7&#45;&gt;siblings_7</title>
<path fill="none" stroke="#e74c3c" d="M224.083,-26C230.913,-26 245.732,-26 252.715,-26"/>
</g>
<!-- siblings_7&#45;&gt;Indra -->
<g id="edge31" class="edge"><title>siblings_7&#45;&gt;Indra</title>
<path fill="none" stroke="#e74c3c" d="M260.034,-26C260.034,-26 278.811,-26 278.811,-26"/>
<polygon fill="#e74c3c" stroke="#e74c3c" points="286.81,-16 286.811,-36 282.811,-36.0001 282.81,-16.0001 286.81,-16"/>
<polyline fill="none" stroke="#e74c3c" points="288.811,-26 278.811,-26.0001 "/>
</g>
</g>
</svg>
