<?xml version="1.0" encoding="UTF-8" standalone="no"?>
<!DOCTYPE svg PUBLIC "-//W3C//DTD SVG 1.1//EN"
 "http://www.w3.org/Graphics/SVG/1.1/DTD/svg11.dtd">
<!-- Generated by graphviz version 2.38.0 (20140413.2041)
 -->
<!-- Title: G Pages: 1 -->
<svg width="521pt" height="222pt"
 viewBox="0.00 0.00 521.00 222.00" xmlns="http://www.w3.org/2000/svg" xmlns:xlink="http://www.w3.org/1999/xlink">
<g id="graph0" class="graph" transform="scale(1 1) rotate(0) translate(4 218)">
<title>G</title>
<polygon fill="white" stroke="none" points="-4,4 -4,-218 517,-218 517,4 -4,4"/>
<g id="clust1" class="cluster"><title>cluster_family_0</title>
</g>
<g id="clust4" class="cluster"><title>cluster_family_1</title>
</g>
<!-- union_0 -->
<g id="node1" class="node"><title>union_0</title>
<ellipse fill="#1abc9c" stroke="white" cx="256.5" cy="-107" rx="3.5" ry="3.5"/>
</g>
<!-- siblings_0 -->
<g id="node4" class="node"><title>siblings_0</title>
<polygon fill="#1abc9c" stroke="#cccccc" stroke-width="0" points="296,-107.5 289,-107.5 289,-106.5 296,-106.5 296,-107.5"/>
</g>
<!-- union_0&#45;&gt;siblings_0 -->
<g id="edge3" class="edge"><title>union_0&#45;&gt;siblings_0</title>
<path fill="none" stroke="#1abc9c" d="M260.083,-107C266.913,-107 281.732,-107 288.715,-107"/>
</g>
<!-- Kuntiboja -->
<g id="node2" class="node"><title>Kuntiboja</title>
<polygon fill="white" stroke="#cccccc" points="224,-152 44,-152 44,-116 224,-116 224,-152"/>
<text text-anchor="middle" x="134" y="-129.8" font-family="Helvetica, Arial, sans-serif" font-size="14.00">Kuntiboja</text>
</g>
<!-- Kuntiboja&#45;&gt;union_0 -->
<g id="edge1" class="edge"><title>Kuntiboja&#45;&gt;union_0</title>
<path fill="none" stroke="#1abc9c" d="M224.038,-140C242.794,-140 257,-140 257,-140 257,-140 257,-119.045 257,-110.532"/>
</g>
<!-- Bandondari -->
<g id="node3" class="node"><title>Bandondari</title>
<polygon fill="white" stroke="#cccccc" points="224,-98 44,-98 44,-62 224,-62 224,-98"/>
<text text-anchor="middle" x="134" y="-75.8" font-family="Helvetica, Arial, sans-serif" font-size="14.00">Bandondari</text>
</g>
<!-- Bandondari&#45;&gt;union_0 -->
<g id="edge2" class="edge"><title>Bandondari&#45;&gt;union_0</title>
<path fill="none" stroke="#1abc9c" d="M224.038,-74C242.794,-74 257,-74 257,-74 257,-74 257,-94.9553 257,-103.468"/>
</g>
<!-- Sruta -->
<g id="node5" class="node"><title>Sruta</title>
<polygon fill="white" stroke="#cccccc" points="505,-44 325,-44 325,-8 505,-8 505,-44"/>
<text text-anchor="middle" x="415" y="-21.8" font-family="Helvetica, Arial, sans-serif" font-size="14.00">Sruta</text>
</g>
<!-- siblings_0&#45;&gt;Sruta -->
<g id="edge4" class="edge"><title>siblings_0&#45;&gt;Sruta</title>
<path fill="none" stroke="#1abc9c" d="M292,-106.483C292,-99.5842 292,-26 292,-26 292,-26 314.962,-26 314.962,-26"/>
<polygon fill="#1abc9c" stroke="#1abc9c" points="322.962,-16 322.962,-36 318.962,-36.0001 318.962,-16.0001 322.962,-16"/>
<polyline fill="none" stroke="#1abc9c" points="324.962,-26 314.962,-26.0001 "/>
</g>
<!-- Basudewa -->
<g id="node6" class="node"><title>Basudewa</title>
<polygon fill="white" stroke="#cccccc" points="505,-98 325,-98 325,-62 505,-62 505,-98"/>
<text text-anchor="middle" x="415" y="-75.8" font-family="Helvetica, Arial, sans-serif" font-size="14.00">Basudewa</text>
</g>
<!-- siblings_0&#45;&gt;Basudewa -->
<g id="edge5" class="edge"><title>siblings_0&#45;&gt;Basudewa</title>
<path fill="none" stroke="#1abc9c" d="M294,-106.481C294,-103.247 294,-86 294,-86 294,-86 314.846,-86 314.846,-86"/>
<polygon fill="#1abc9c" stroke="#1abc9c" points="322.846,-76 322.847,-96 318.847,-96.0001 318.846,-76.0001 322.846,-76"/>
<polyline fill="none" stroke="#1abc9c" points="324.846,-86 314.846,-86.0001 "/>
</g>
<!-- Bismaka -->
<g id="node7" class="node"><title>Bismaka</title>
<polygon fill="white" stroke="#cccccc" points="505,-152 325,-152 325,-116 505,-116 505,-152"/>
<text text-anchor="middle" x="415" y="-129.8" font-family="Helvetica, Arial, sans-serif" font-size="14.00">Bismaka</text>
</g>
<!-- siblings_0&#45;&gt;Bismaka -->
<g id="edge6" class="edge"><title>siblings_0&#45;&gt;Bismaka</title>
<path fill="none" stroke="#1abc9c" d="M294,-107.519C294,-110.753 294,-128 294,-128 294,-128 314.846,-128 314.846,-128"/>
<polygon fill="#1abc9c" stroke="#1abc9c" points="322.846,-118 322.847,-138 318.847,-138 318.846,-118 322.846,-118"/>
<polyline fill="none" stroke="#1abc9c" points="324.846,-128 314.846,-128 "/>
</g>
<!-- Ugrasena -->
<g id="node8" class="node"><title>Ugrasena</title>
<polygon fill="white" stroke="#cccccc" points="505,-206 325,-206 325,-170 505,-170 505,-206"/>
<text text-anchor="middle" x="415" y="-183.8" font-family="Helvetica, Arial, sans-serif" font-size="14.00">Ugrasena</text>
</g>
<!-- siblings_0&#45;&gt;Ugrasena -->
<g id="edge7" class="edge"><title>siblings_0&#45;&gt;Ugrasena</title>
<path fill="none" stroke="#1abc9c" d="M292,-107.517C292,-114.416 292,-188 292,-188 292,-188 314.962,-188 314.962,-188"/>
<polygon fill="#1abc9c" stroke="#1abc9c" points="322.962,-178 322.962,-198 318.962,-198 318.962,-178 322.962,-178"/>
<polyline fill="none" stroke="#1abc9c" points="324.962,-188 314.962,-188 "/>
</g>
<!-- siblings_1 -->
<g id="node9" class="node"><title>siblings_1</title>
<polygon fill="#2ecc71" stroke="#cccccc" stroke-width="0" points="15,-134.5 8,-134.5 8,-133.5 15,-133.5 15,-134.5"/>
</g>
<!-- siblings_1&#45;&gt;Kuntiboja -->
<g id="edge8" class="edge"><title>siblings_1&#45;&gt;Kuntiboja</title>
<path fill="none" stroke="#2ecc71" d="M15.0341,-134C15.0341,-134 33.8106,-134 33.8106,-134"/>
<polygon fill="#2ecc71" stroke="#2ecc71" points="41.8105,-124 41.8107,-144 37.8107,-144 37.8105,-124 41.8105,-124"/>
<polyline fill="none" stroke="#2ecc71" points="43.8106,-134 33.8106,-134 "/>
</g>
</g>
</svg>
