<?xml version="1.0" encoding="UTF-8" standalone="no"?>
<!DOCTYPE svg PUBLIC "-//W3C//DTD SVG 1.1//EN"
 "http://www.w3.org/Graphics/SVG/1.1/DTD/svg11.dtd">
<!-- Generated by graphviz version 2.38.0 (20140413.2041)
 -->
<!-- Title: G Pages: 1 -->
<svg width="521pt" height="60pt"
 viewBox="0.00 0.00 521.00 60.00" xmlns="http://www.w3.org/2000/svg" xmlns:xlink="http://www.w3.org/1999/xlink">
<g id="graph0" class="graph" transform="scale(1 1) rotate(0) translate(4 56)">
<title>G</title>
<polygon fill="white" stroke="none" points="-4,4 -4,-56 517,-56 517,4 -4,4"/>
<g id="clust1" class="cluster"><title>cluster_family_0</title>
</g>
<g id="clust4" class="cluster"><title>cluster_family_1</title>
</g>
<!-- union_0 -->
<g id="node1" class="node"><title>union_0</title>
<ellipse fill="#1abc9c" stroke="white" cx="256.5" cy="-26" rx="3.5" ry="3.5"/>
</g>
<!-- siblings_0 -->
<g id="node3" class="node"><title>siblings_0</title>
<polygon fill="#1abc9c" stroke="#cccccc" stroke-width="0" points="296,-26.5 289,-26.5 289,-25.5 296,-25.5 296,-26.5"/>
</g>
<!-- union_0&#45;&gt;siblings_0 -->
<g id="edge2" class="edge"><title>union_0&#45;&gt;siblings_0</title>
<path fill="none" stroke="#1abc9c" d="M260.083,-26C266.913,-26 281.732,-26 288.715,-26"/>
</g>
<!-- Kurandhayaksa -->
<g id="node2" class="node"><title>Kurandhayaksa</title>
<polygon fill="white" stroke="#cccccc" points="224,-44 44,-44 44,-8 224,-8 224,-44"/>
<text text-anchor="middle" x="134" y="-21.8" font-family="Helvetica, Arial, sans-serif" font-size="14.00">Kurandhayaksa</text>
</g>
<!-- Kurandhayaksa&#45;&gt;union_0 -->
<g id="edge1" class="edge"><title>Kurandhayaksa&#45;&gt;union_0</title>
<path fill="none" stroke="#1abc9c" d="M224.315,-26C236.938,-26 247.417,-26 252.733,-26"/>
</g>
<!-- Kartapiyoga -->
<g id="node4" class="node"><title>Kartapiyoga</title>
<polygon fill="white" stroke="#cccccc" points="505,-44 325,-44 325,-8 505,-8 505,-44"/>
<text text-anchor="middle" x="415" y="-21.8" font-family="Helvetica, Arial, sans-serif" font-size="14.00">Kartapiyoga</text>
</g>
<!-- siblings_0&#45;&gt;Kartapiyoga -->
<g id="edge3" class="edge"><title>siblings_0&#45;&gt;Kartapiyoga</title>
<path fill="none" stroke="#1abc9c" d="M296.034,-26C296.034,-26 314.811,-26 314.811,-26"/>
<polygon fill="#1abc9c" stroke="#1abc9c" points="322.81,-16 322.811,-36 318.811,-36.0001 318.81,-16.0001 322.81,-16"/>
<polyline fill="none" stroke="#1abc9c" points="324.811,-26 314.811,-26.0001 "/>
</g>
<!-- siblings_1 -->
<g id="node5" class="node"><title>siblings_1</title>
<polygon fill="#2ecc71" stroke="#cccccc" stroke-width="0" points="15,-26.5 8,-26.5 8,-25.5 15,-25.5 15,-26.5"/>
</g>
<!-- siblings_1&#45;&gt;Kurandhayaksa -->
<g id="edge4" class="edge"><title>siblings_1&#45;&gt;Kurandhayaksa</title>
<path fill="none" stroke="#2ecc71" d="M15.0341,-26C15.0341,-26 33.8106,-26 33.8106,-26"/>
<polygon fill="#2ecc71" stroke="#2ecc71" points="41.8105,-16 41.8107,-36 37.8107,-36.0001 37.8105,-16.0001 41.8105,-16"/>
<polyline fill="none" stroke="#2ecc71" points="43.8106,-26 33.8106,-26.0001 "/>
</g>
</g>
</svg>
