<?xml version="1.0" encoding="UTF-8" standalone="no"?>
<!DOCTYPE svg PUBLIC "-//W3C//DTD SVG 1.1//EN"
 "http://www.w3.org/Graphics/SVG/1.1/DTD/svg11.dtd">
<!-- Generated by graphviz version 2.38.0 (20140413.2041)
 -->
<!-- Title: G Pages: 1 -->
<svg width="766pt" height="262pt"
 viewBox="0.00 0.00 766.00 262.00" xmlns="http://www.w3.org/2000/svg" xmlns:xlink="http://www.w3.org/1999/xlink">
<g id="graph0" class="graph" transform="scale(1 1) rotate(0) translate(4 258)">
<title>G</title>
<polygon fill="white" stroke="none" points="-4,4 -4,-258 762,-258 762,4 -4,4"/>
<g id="clust1" class="cluster"><title>cluster_family_0</title>
</g>
<g id="clust3" class="cluster"><title>cluster_family_1</title>
</g>
<g id="clust6" class="cluster"><title>cluster_family_2</title>
</g>
<g id="clust9" class="cluster"><title>cluster_family_3</title>
</g>
<g id="clust12" class="cluster"><title>cluster_family_4</title>
</g>
<!-- union_0 -->
<g id="node1" class="node"><title>union_0</title>
<ellipse fill="#1abc9c" stroke="white" cx="501.5" cy="-161" rx="3.5" ry="3.5"/>
</g>
<!-- Madrim -->
<g id="node2" class="node"><title>Madrim</title>
<polygon fill="white" stroke="#cccccc" points="469,-152 289,-152 289,-116 469,-116 469,-152"/>
<text text-anchor="middle" x="379" y="-129.8" font-family="Helvetica, Arial, sans-serif" font-size="14.00">Madrim</text>
</g>
<!-- Madrim&#45;&gt;union_0 -->
<g id="edge1" class="edge"><title>Madrim&#45;&gt;union_0</title>
<path fill="none" stroke="#1abc9c" d="M469.116,-143C488.348,-143 503,-143 503,-143 503,-143 503,-152.299 503,-157.529"/>
</g>
<!-- union_1 -->
<g id="node4" class="node"><title>union_1</title>
<ellipse fill="#2ecc71" stroke="white" cx="501.5" cy="-80" rx="3.5" ry="3.5"/>
</g>
<!-- Madrim&#45;&gt;union_1 -->
<g id="edge3" class="edge"><title>Madrim&#45;&gt;union_1</title>
<path fill="none" stroke="#2ecc71" d="M469.264,-134C487.391,-134 501,-134 501,-134 501,-134 501,-95.5566 501,-83.5431"/>
</g>
<!-- union_2 -->
<g id="node8" class="node"><title>union_2</title>
<ellipse fill="#3498db" stroke="white" cx="501.5" cy="-26" rx="3.5" ry="3.5"/>
</g>
<!-- Madrim&#45;&gt;union_2 -->
<g id="edge7" class="edge"><title>Madrim&#45;&gt;union_2</title>
<path fill="none" stroke="#3498db" d="M469.4,-125C478.232,-125 484,-125 484,-125 484,-125 484,-27.1667 484,-27.1667 484,-27.1667 493.041,-27.1667 498.126,-27.1667"/>
</g>
<!-- Pandu -->
<g id="node3" class="node"><title>Pandu</title>
<polygon fill="white" stroke="#cccccc" points="469,-206 289,-206 289,-170 469,-170 469,-206"/>
<text text-anchor="middle" x="379" y="-183.8" font-family="Helvetica, Arial, sans-serif" font-size="14.00">Pandu</text>
</g>
<!-- Pandu&#45;&gt;union_0 -->
<g id="edge2" class="edge"><title>Pandu&#45;&gt;union_0</title>
<path fill="none" stroke="#1abc9c" d="M469.038,-188C487.794,-188 502,-188 502,-188 502,-188 502,-172.173 502,-164.754"/>
</g>
<!-- siblings_1 -->
<g id="node6" class="node"><title>siblings_1</title>
<polygon fill="#2ecc71" stroke="#cccccc" stroke-width="0" points="541,-80.5 534,-80.5 534,-79.5 541,-79.5 541,-80.5"/>
</g>
<!-- union_1&#45;&gt;siblings_1 -->
<g id="edge5" class="edge"><title>union_1&#45;&gt;siblings_1</title>
<path fill="none" stroke="#2ecc71" d="M505.083,-80C511.913,-80 526.732,-80 533.715,-80"/>
</g>
<!-- Aswan -->
<g id="node5" class="node"><title>Aswan</title>
<polygon fill="white" stroke="#cccccc" points="469,-98 289,-98 289,-62 469,-62 469,-98"/>
<text text-anchor="middle" x="379" y="-75.8" font-family="Helvetica, Arial, sans-serif" font-size="14.00">Aswan</text>
</g>
<!-- Aswan&#45;&gt;union_1 -->
<g id="edge4" class="edge"><title>Aswan&#45;&gt;union_1</title>
<path fill="none" stroke="#2ecc71" d="M469.315,-80C481.938,-80 492.417,-80 497.733,-80"/>
</g>
<!-- Nakula -->
<g id="node7" class="node"><title>Nakula</title>
<polygon fill="white" stroke="#cccccc" points="750,-98 570,-98 570,-62 750,-62 750,-98"/>
<text text-anchor="middle" x="660" y="-75.8" font-family="Helvetica, Arial, sans-serif" font-size="14.00">Nakula</text>
</g>
<!-- siblings_1&#45;&gt;Nakula -->
<g id="edge6" class="edge"><title>siblings_1&#45;&gt;Nakula</title>
<path fill="none" stroke="#2ecc71" d="M541.034,-80C541.034,-80 559.811,-80 559.811,-80"/>
<polygon fill="#2ecc71" stroke="#2ecc71" points="567.81,-70 567.811,-90 563.811,-90.0001 563.81,-70.0001 567.81,-70"/>
<polyline fill="none" stroke="#2ecc71" points="569.811,-80 559.811,-80.0001 "/>
</g>
<!-- siblings_2 -->
<g id="node10" class="node"><title>siblings_2</title>
<polygon fill="#3498db" stroke="#cccccc" stroke-width="0" points="541,-26.5 534,-26.5 534,-25.5 541,-25.5 541,-26.5"/>
</g>
<!-- union_2&#45;&gt;siblings_2 -->
<g id="edge9" class="edge"><title>union_2&#45;&gt;siblings_2</title>
<path fill="none" stroke="#3498db" d="M505.083,-26C511.913,-26 526.732,-26 533.715,-26"/>
</g>
<!-- Aswin -->
<g id="node9" class="node"><title>Aswin</title>
<polygon fill="white" stroke="#cccccc" points="469,-44 289,-44 289,-8 469,-8 469,-44"/>
<text text-anchor="middle" x="379" y="-21.8" font-family="Helvetica, Arial, sans-serif" font-size="14.00">Aswin</text>
</g>
<!-- Aswin&#45;&gt;union_2 -->
<g id="edge8" class="edge"><title>Aswin&#45;&gt;union_2</title>
<path fill="none" stroke="#3498db" d="M469.315,-24.8333C482.225,-24.8333 492.892,-24.8333 498.088,-24.8333"/>
</g>
<!-- Sadewa -->
<g id="node11" class="node"><title>Sadewa</title>
<polygon fill="white" stroke="#cccccc" points="750,-44 570,-44 570,-8 750,-8 750,-44"/>
<text text-anchor="middle" x="660" y="-21.8" font-family="Helvetica, Arial, sans-serif" font-size="14.00">Sadewa</text>
</g>
<!-- siblings_2&#45;&gt;Sadewa -->
<g id="edge10" class="edge"><title>siblings_2&#45;&gt;Sadewa</title>
<path fill="none" stroke="#3498db" d="M541.034,-26C541.034,-26 559.811,-26 559.811,-26"/>
<polygon fill="#3498db" stroke="#3498db" points="567.81,-16 567.811,-36 563.811,-36.0001 563.81,-16.0001 567.81,-16"/>
<polyline fill="none" stroke="#3498db" points="569.811,-26 559.811,-26.0001 "/>
</g>
<!-- union_3 -->
<g id="node12" class="node"><title>union_3</title>
<ellipse fill="#9b59b6" stroke="white" cx="220.5" cy="-174" rx="3.5" ry="3.5"/>
</g>
<!-- siblings_3 -->
<g id="node15" class="node"><title>siblings_3</title>
<polygon fill="#9b59b6" stroke="#cccccc" stroke-width="0" points="260,-174.5 253,-174.5 253,-173.5 260,-173.5 260,-174.5"/>
</g>
<!-- union_3&#45;&gt;siblings_3 -->
<g id="edge13" class="edge"><title>union_3&#45;&gt;siblings_3</title>
<path fill="none" stroke="#9b59b6" d="M224.083,-174C230.913,-174 245.732,-174 252.715,-174"/>
</g>
<!-- Mandrapati -->
<g id="node13" class="node"><title>Mandrapati</title>
<polygon fill="white" stroke="#cccccc" points="188,-246 8,-246 8,-210 188,-210 188,-246"/>
<text text-anchor="middle" x="98" y="-223.8" font-family="Helvetica, Arial, sans-serif" font-size="14.00">Mandrapati</text>
</g>
<!-- Mandrapati&#45;&gt;union_3 -->
<g id="edge11" class="edge"><title>Mandrapati&#45;&gt;union_3</title>
<path fill="none" stroke="#9b59b6" d="M188.038,-228C206.794,-228 221,-228 221,-228 221,-228 221,-189.557 221,-177.543"/>
</g>
<!-- Tejawati -->
<g id="node14" class="node"><title>Tejawati</title>
<polygon fill="white" stroke="#cccccc" points="188,-192 8,-192 8,-156 188,-156 188,-192"/>
<text text-anchor="middle" x="98" y="-169.8" font-family="Helvetica, Arial, sans-serif" font-size="14.00">Tejawati</text>
</g>
<!-- Tejawati&#45;&gt;union_3 -->
<g id="edge12" class="edge"><title>Tejawati&#45;&gt;union_3</title>
<path fill="none" stroke="#9b59b6" d="M188.315,-174C200.938,-174 211.417,-174 216.733,-174"/>
</g>
<!-- siblings_3&#45;&gt;Madrim -->
<g id="edge14" class="edge"><title>siblings_3&#45;&gt;Madrim</title>
<path fill="none" stroke="#9b59b6" d="M260.067,-174C265.443,-174 275,-174 275,-174 275,-174 275,-147 275,-147 275,-147 278.596,-147 278.596,-147"/>
<polygon fill="#9b59b6" stroke="#9b59b6" points="286.596,-137 286.596,-157 282.596,-157 282.596,-137 286.596,-137"/>
<polyline fill="none" stroke="#9b59b6" points="288.596,-147 278.596,-147 "/>
</g>
<!-- siblings_4 -->
<g id="node16" class="node"><title>siblings_4</title>
<polygon fill="#34495e" stroke="#cccccc" stroke-width="0" points="260,-147.5 253,-147.5 253,-146.5 260,-146.5 260,-147.5"/>
</g>
<!-- siblings_4&#45;&gt;Pandu -->
<g id="edge15" class="edge"><title>siblings_4&#45;&gt;Pandu</title>
<path fill="none" stroke="#34495e" d="M252.789,-147C247.652,-147 239,-147 239,-147 239,-147 239,-184.75 239,-184.75 239,-184.75 278.753,-184.75 278.753,-184.75"/>
<polygon fill="#34495e" stroke="#34495e" points="286.753,-174.75 286.753,-194.75 282.753,-194.75 282.753,-174.75 286.753,-174.75"/>
<polyline fill="none" stroke="#34495e" points="288.753,-184.75 278.753,-184.75 "/>
</g>
</g>
</svg>
