<?xml version="1.0" encoding="UTF-8" standalone="no"?>
<!DOCTYPE svg PUBLIC "-//W3C//DTD SVG 1.1//EN"
 "http://www.w3.org/Graphics/SVG/1.1/DTD/svg11.dtd">
<!-- Generated by graphviz version 2.38.0 (20140413.2041)
 -->
<!-- Title: G Pages: 1 -->
<svg width="766pt" height="168pt"
 viewBox="0.00 0.00 766.00 168.00" xmlns="http://www.w3.org/2000/svg" xmlns:xlink="http://www.w3.org/1999/xlink">
<g id="graph0" class="graph" transform="scale(1 1) rotate(0) translate(4 164)">
<title>G</title>
<polygon fill="white" stroke="none" points="-4,4 -4,-164 762,-164 762,4 -4,4"/>
<g id="clust1" class="cluster"><title>cluster_family_0</title>
</g>
<g id="clust3" class="cluster"><title>cluster_family_1</title>
</g>
<g id="clust6" class="cluster"><title>cluster_family_2</title>
</g>
<g id="clust9" class="cluster"><title>cluster_family_3</title>
</g>
<g id="clust12" class="cluster"><title>cluster_family_4</title>
</g>
<!-- union_0 -->
<g id="node1" class="node"><title>union_0</title>
<ellipse fill="#1abc9c" stroke="white" cx="501.5" cy="-53" rx="3.5" ry="3.5"/>
</g>
<!-- Maerah -->
<g id="node2" class="node"><title>Maerah</title>
<polygon fill="white" stroke="#cccccc" points="469,-98 289,-98 289,-62 469,-62 469,-98"/>
<text text-anchor="middle" x="379" y="-75.8" font-family="Helvetica, Arial, sans-serif" font-size="14.00">Maerah</text>
</g>
<!-- Maerah&#45;&gt;union_0 -->
<g id="edge1" class="edge"><title>Maerah&#45;&gt;union_0</title>
<path fill="none" stroke="#1abc9c" d="M469.116,-74C488.348,-74 503,-74 503,-74 503,-74 503,-62.1875 503,-56.2812"/>
</g>
<!-- union_1 -->
<g id="node4" class="node"><title>union_1</title>
<ellipse fill="#2ecc71" stroke="white" cx="501.5" cy="-134" rx="3.5" ry="3.5"/>
</g>
<!-- Maerah&#45;&gt;union_1 -->
<g id="edge3" class="edge"><title>Maerah&#45;&gt;union_1</title>
<path fill="none" stroke="#2ecc71" d="M469.264,-86C487.391,-86 501,-86 501,-86 501,-86 501,-118.918 501,-130.234"/>
</g>
<!-- Basudewa -->
<g id="node3" class="node"><title>Basudewa</title>
<polygon fill="white" stroke="#cccccc" points="469,-44 289,-44 289,-8 469,-8 469,-44"/>
<text text-anchor="middle" x="379" y="-21.8" font-family="Helvetica, Arial, sans-serif" font-size="14.00">Basudewa</text>
</g>
<!-- Basudewa&#45;&gt;union_0 -->
<g id="edge2" class="edge"><title>Basudewa&#45;&gt;union_0</title>
<path fill="none" stroke="#1abc9c" d="M469.038,-26C487.794,-26 502,-26 502,-26 502,-26 502,-41.8269 502,-49.2458"/>
</g>
<!-- siblings_1 -->
<g id="node6" class="node"><title>siblings_1</title>
<polygon fill="#2ecc71" stroke="#cccccc" stroke-width="0" points="541,-134.5 534,-134.5 534,-133.5 541,-133.5 541,-134.5"/>
</g>
<!-- union_1&#45;&gt;siblings_1 -->
<g id="edge5" class="edge"><title>union_1&#45;&gt;siblings_1</title>
<path fill="none" stroke="#2ecc71" d="M505.083,-134C511.913,-134 526.732,-134 533.715,-134"/>
</g>
<!-- Gorawangsa -->
<g id="node5" class="node"><title>Gorawangsa</title>
<polygon fill="white" stroke="#cccccc" points="469,-152 289,-152 289,-116 469,-116 469,-152"/>
<text text-anchor="middle" x="379" y="-129.8" font-family="Helvetica, Arial, sans-serif" font-size="14.00">Gorawangsa</text>
</g>
<!-- Gorawangsa&#45;&gt;union_1 -->
<g id="edge4" class="edge"><title>Gorawangsa&#45;&gt;union_1</title>
<path fill="none" stroke="#2ecc71" d="M469.315,-134C481.938,-134 492.417,-134 497.733,-134"/>
</g>
<!-- Kangsa -->
<g id="node7" class="node"><title>Kangsa</title>
<polygon fill="white" stroke="#cccccc" points="750,-152 570,-152 570,-116 750,-116 750,-152"/>
<text text-anchor="middle" x="660" y="-129.8" font-family="Helvetica, Arial, sans-serif" font-size="14.00">Kangsa</text>
</g>
<!-- siblings_1&#45;&gt;Kangsa -->
<g id="edge6" class="edge"><title>siblings_1&#45;&gt;Kangsa</title>
<path fill="none" stroke="#2ecc71" d="M541.034,-134C541.034,-134 559.811,-134 559.811,-134"/>
<polygon fill="#2ecc71" stroke="#2ecc71" points="567.81,-124 567.811,-144 563.811,-144 563.81,-124 567.81,-124"/>
<polyline fill="none" stroke="#2ecc71" points="569.811,-134 559.811,-134 "/>
</g>
<!-- union_2 -->
<g id="node8" class="node"><title>union_2</title>
<ellipse fill="#3498db" stroke="white" cx="220.5" cy="-80" rx="3.5" ry="3.5"/>
</g>
<!-- siblings_2 -->
<g id="node10" class="node"><title>siblings_2</title>
<polygon fill="#3498db" stroke="#cccccc" stroke-width="0" points="260,-80.5 253,-80.5 253,-79.5 260,-79.5 260,-80.5"/>
</g>
<!-- union_2&#45;&gt;siblings_2 -->
<g id="edge8" class="edge"><title>union_2&#45;&gt;siblings_2</title>
<path fill="none" stroke="#3498db" d="M224.083,-80C230.913,-80 245.732,-80 252.715,-80"/>
</g>
<!-- Kurandapati -->
<g id="node9" class="node"><title>Kurandapati</title>
<polygon fill="white" stroke="#cccccc" points="188,-98 8,-98 8,-62 188,-62 188,-98"/>
<text text-anchor="middle" x="98" y="-75.8" font-family="Helvetica, Arial, sans-serif" font-size="14.00">Kurandapati</text>
</g>
<!-- Kurandapati&#45;&gt;union_2 -->
<g id="edge7" class="edge"><title>Kurandapati&#45;&gt;union_2</title>
<path fill="none" stroke="#3498db" d="M188.315,-80C200.938,-80 211.417,-80 216.733,-80"/>
</g>
<!-- siblings_2&#45;&gt;Maerah -->
<g id="edge9" class="edge"><title>siblings_2&#45;&gt;Maerah</title>
<path fill="none" stroke="#3498db" d="M260.034,-80C260.034,-80 278.811,-80 278.811,-80"/>
<polygon fill="#3498db" stroke="#3498db" points="286.81,-70 286.811,-90 282.811,-90.0001 282.81,-70.0001 286.81,-70"/>
<polyline fill="none" stroke="#3498db" points="288.811,-80 278.811,-80.0001 "/>
</g>
<!-- union_3 -->
<g id="node11" class="node"><title>union_3</title>
<ellipse fill="#9b59b6" stroke="white" cx="220.5" cy="-26" rx="3.5" ry="3.5"/>
</g>
<!-- siblings_3 -->
<g id="node13" class="node"><title>siblings_3</title>
<polygon fill="#9b59b6" stroke="#cccccc" stroke-width="0" points="260,-26.5 253,-26.5 253,-25.5 260,-25.5 260,-26.5"/>
</g>
<!-- union_3&#45;&gt;siblings_3 -->
<g id="edge11" class="edge"><title>union_3&#45;&gt;siblings_3</title>
<path fill="none" stroke="#9b59b6" d="M224.083,-26C230.913,-26 245.732,-26 252.715,-26"/>
</g>
<!-- Kuntiboja -->
<g id="node12" class="node"><title>Kuntiboja</title>
<polygon fill="white" stroke="#cccccc" points="188,-44 8,-44 8,-8 188,-8 188,-44"/>
<text text-anchor="middle" x="98" y="-21.8" font-family="Helvetica, Arial, sans-serif" font-size="14.00">Kuntiboja</text>
</g>
<!-- Kuntiboja&#45;&gt;union_3 -->
<g id="edge10" class="edge"><title>Kuntiboja&#45;&gt;union_3</title>
<path fill="none" stroke="#9b59b6" d="M188.315,-26C200.938,-26 211.417,-26 216.733,-26"/>
</g>
<!-- siblings_3&#45;&gt;Basudewa -->
<g id="edge12" class="edge"><title>siblings_3&#45;&gt;Basudewa</title>
<path fill="none" stroke="#9b59b6" d="M260.034,-26C260.034,-26 278.811,-26 278.811,-26"/>
<polygon fill="#9b59b6" stroke="#9b59b6" points="286.81,-16 286.811,-36 282.811,-36.0001 282.81,-16.0001 286.81,-16"/>
<polyline fill="none" stroke="#9b59b6" points="288.811,-26 278.811,-26.0001 "/>
</g>
<!-- siblings_4 -->
<g id="node14" class="node"><title>siblings_4</title>
<polygon fill="#34495e" stroke="#cccccc" stroke-width="0" points="260,-134.5 253,-134.5 253,-133.5 260,-133.5 260,-134.5"/>
</g>
<!-- siblings_4&#45;&gt;Gorawangsa -->
<g id="edge13" class="edge"><title>siblings_4&#45;&gt;Gorawangsa</title>
<path fill="none" stroke="#34495e" d="M260.034,-134C260.034,-134 278.811,-134 278.811,-134"/>
<polygon fill="#34495e" stroke="#34495e" points="286.81,-124 286.811,-144 282.811,-144 282.81,-124 286.81,-124"/>
<polyline fill="none" stroke="#34495e" points="288.811,-134 278.811,-134 "/>
</g>
</g>
</svg>
