<?xml version="1.0" encoding="UTF-8" standalone="no"?>
<!DOCTYPE svg PUBLIC "-//W3C//DTD SVG 1.1//EN"
 "http://www.w3.org/Graphics/SVG/1.1/DTD/svg11.dtd">
<!-- Generated by graphviz version 2.38.0 (20140413.2041)
 -->
<!-- Title: G Pages: 1 -->
<svg width="766pt" height="321pt"
 viewBox="0.00 0.00 766.00 321.00" xmlns="http://www.w3.org/2000/svg" xmlns:xlink="http://www.w3.org/1999/xlink">
<g id="graph0" class="graph" transform="scale(1 1) rotate(0) translate(4 317)">
<title>G</title>
<polygon fill="white" stroke="none" points="-4,4 -4,-317 762,-317 762,4 -4,4"/>
<g id="clust1" class="cluster"><title>cluster_family_0</title>
</g>
<g id="clust4" class="cluster"><title>cluster_family_1</title>
</g>
<g id="clust7" class="cluster"><title>cluster_family_2</title>
</g>
<g id="clust10" class="cluster"><title>cluster_family_3</title>
</g>
<g id="clust13" class="cluster"><title>cluster_family_4</title>
</g>
<!-- union_0 -->
<g id="node1" class="node"><title>union_0</title>
<ellipse fill="#1abc9c" stroke="white" cx="501.5" cy="-80" rx="3.5" ry="3.5"/>
</g>
<!-- siblings_0 -->
<g id="node4" class="node"><title>siblings_0</title>
<polygon fill="#1abc9c" stroke="#cccccc" stroke-width="0" points="541,-80.5 534,-80.5 534,-79.5 541,-79.5 541,-80.5"/>
</g>
<!-- union_0&#45;&gt;siblings_0 -->
<g id="edge3" class="edge"><title>union_0&#45;&gt;siblings_0</title>
<path fill="none" stroke="#1abc9c" d="M505.083,-80C511.913,-80 526.732,-80 533.715,-80"/>
</g>
<!-- Pandu -->
<g id="node2" class="node"><title>Pandu</title>
<polygon fill="white" stroke="#cccccc" points="469,-145 289,-145 289,-109 469,-109 469,-145"/>
<text text-anchor="middle" x="379" y="-122.8" font-family="Helvetica, Arial, sans-serif" font-size="14.00">Pandu</text>
</g>
<!-- Pandu&#45;&gt;union_0 -->
<g id="edge1" class="edge"><title>Pandu&#45;&gt;union_0</title>
<path fill="none" stroke="#1abc9c" d="M469.116,-112.5C488.348,-112.5 503,-112.5 503,-112.5 503,-112.5 503,-91.4555 503,-83.235"/>
</g>
<!-- union_1 -->
<g id="node8" class="node"><title>union_1</title>
<ellipse fill="#2ecc71" stroke="white" cx="501.5" cy="-203" rx="3.5" ry="3.5"/>
</g>
<!-- Pandu&#45;&gt;union_1 -->
<g id="edge7" class="edge"><title>Pandu&#45;&gt;union_1</title>
<path fill="none" stroke="#2ecc71" d="M469.264,-125.667C487.391,-125.667 501,-125.667 501,-125.667 501,-125.667 501,-183.822 501,-199.27"/>
</g>
<!-- Kunti -->
<g id="node3" class="node"><title>Kunti</title>
<polygon fill="white" stroke="#cccccc" points="469,-91 289,-91 289,-55 469,-55 469,-91"/>
<text text-anchor="middle" x="379" y="-68.8" font-family="Helvetica, Arial, sans-serif" font-size="14.00">Kunti</text>
</g>
<!-- Kunti&#45;&gt;union_0 -->
<g id="edge2" class="edge"><title>Kunti&#45;&gt;union_0</title>
<path fill="none" stroke="#1abc9c" d="M469.315,-80C481.938,-80 492.417,-80 497.733,-80"/>
</g>
<!-- Puntadewa -->
<g id="node5" class="node"><title>Puntadewa</title>
<polygon fill="white" stroke="#cccccc" points="750,-44 570,-44 570,-8 750,-8 750,-44"/>
<text text-anchor="middle" x="660" y="-21.8" font-family="Helvetica, Arial, sans-serif" font-size="14.00">Puntadewa</text>
</g>
<!-- siblings_0&#45;&gt;Puntadewa -->
<g id="edge4" class="edge"><title>siblings_0&#45;&gt;Puntadewa</title>
<path fill="none" stroke="#1abc9c" d="M538,-79.3936C538,-73.4609 538,-26 538,-26 538,-26 559.736,-26 559.736,-26"/>
<polygon fill="#1abc9c" stroke="#1abc9c" points="567.735,-16 567.736,-36 563.736,-36.0001 563.735,-16.0001 567.735,-16"/>
<polyline fill="none" stroke="#1abc9c" points="569.736,-26 559.736,-26.0001 "/>
</g>
<!-- Arjuna -->
<g id="node6" class="node"><title>Arjuna</title>
<polygon fill="white" stroke="#cccccc" points="750,-98 570,-98 570,-62 750,-62 750,-98"/>
<text text-anchor="middle" x="660" y="-75.8" font-family="Helvetica, Arial, sans-serif" font-size="14.00">Arjuna</text>
</g>
<!-- siblings_0&#45;&gt;Arjuna -->
<g id="edge5" class="edge"><title>siblings_0&#45;&gt;Arjuna</title>
<path fill="none" stroke="#1abc9c" d="M541.034,-80C541.034,-80 559.811,-80 559.811,-80"/>
<polygon fill="#1abc9c" stroke="#1abc9c" points="567.81,-70 567.811,-90 563.811,-90.0001 563.81,-70.0001 567.81,-70"/>
<polyline fill="none" stroke="#1abc9c" points="569.811,-80 559.811,-80.0001 "/>
</g>
<!-- Werkudara -->
<g id="node7" class="node"><title>Werkudara</title>
<polygon fill="white" stroke="#cccccc" points="750,-152 570,-152 570,-116 750,-116 750,-152"/>
<text text-anchor="middle" x="660" y="-129.8" font-family="Helvetica, Arial, sans-serif" font-size="14.00">Werkudara</text>
</g>
<!-- siblings_0&#45;&gt;Werkudara -->
<g id="edge6" class="edge"><title>siblings_0&#45;&gt;Werkudara</title>
<path fill="none" stroke="#1abc9c" d="M538,-80.6214C538,-86.7005 538,-135.333 538,-135.333 538,-135.333 559.736,-135.333 559.736,-135.333"/>
<polygon fill="#1abc9c" stroke="#1abc9c" points="567.735,-125.333 567.736,-145.333 563.736,-145.333 563.735,-125.333 567.735,-125.333"/>
<polyline fill="none" stroke="#1abc9c" points="569.736,-135.333 559.736,-135.333 "/>
</g>
<!-- siblings_1 -->
<g id="node10" class="node"><title>siblings_1</title>
<polygon fill="#2ecc71" stroke="#cccccc" stroke-width="0" points="541,-203.5 534,-203.5 534,-202.5 541,-202.5 541,-203.5"/>
</g>
<!-- union_1&#45;&gt;siblings_1 -->
<g id="edge9" class="edge"><title>union_1&#45;&gt;siblings_1</title>
<path fill="none" stroke="#2ecc71" d="M505.083,-203C511.913,-203 526.732,-203 533.715,-203"/>
</g>
<!-- Madrim -->
<g id="node9" class="node"><title>Madrim</title>
<polygon fill="white" stroke="#cccccc" points="469,-248 289,-248 289,-212 469,-212 469,-248"/>
<text text-anchor="middle" x="379" y="-225.8" font-family="Helvetica, Arial, sans-serif" font-size="14.00">Madrim</text>
</g>
<!-- Madrim&#45;&gt;union_1 -->
<g id="edge8" class="edge"><title>Madrim&#45;&gt;union_1</title>
<path fill="none" stroke="#2ecc71" d="M469.038,-219C487.794,-219 502,-219 502,-219 502,-219 502,-211.438 502,-206.711"/>
</g>
<!-- Nakula -->
<g id="node11" class="node"><title>Nakula</title>
<polygon fill="white" stroke="#cccccc" points="750,-208 570,-208 570,-172 750,-172 750,-208"/>
<text text-anchor="middle" x="660" y="-185.8" font-family="Helvetica, Arial, sans-serif" font-size="14.00">Nakula</text>
</g>
<!-- siblings_1&#45;&gt;Nakula -->
<g id="edge10" class="edge"><title>siblings_1&#45;&gt;Nakula</title>
<path fill="none" stroke="#2ecc71" d="M541.034,-203C541.034,-203 559.811,-203 559.811,-203"/>
<polygon fill="#2ecc71" stroke="#2ecc71" points="567.81,-193 567.811,-213 563.811,-213 563.81,-193 567.81,-193"/>
<polyline fill="none" stroke="#2ecc71" points="569.811,-203 559.811,-203 "/>
</g>
<!-- Sadewa -->
<g id="node12" class="node"><title>Sadewa</title>
<polygon fill="white" stroke="#cccccc" points="750,-262 570,-262 570,-226 750,-226 750,-262"/>
<text text-anchor="middle" x="660" y="-239.8" font-family="Helvetica, Arial, sans-serif" font-size="14.00">Sadewa</text>
</g>
<!-- siblings_1&#45;&gt;Sadewa -->
<g id="edge11" class="edge"><title>siblings_1&#45;&gt;Sadewa</title>
<path fill="none" stroke="#2ecc71" d="M538,-203.84C538,-209.076 538,-237 538,-237 538,-237 559.736,-237 559.736,-237"/>
<polygon fill="#2ecc71" stroke="#2ecc71" points="567.735,-227 567.736,-247 563.736,-247 563.735,-227 567.735,-227"/>
<polyline fill="none" stroke="#2ecc71" points="569.736,-237 559.736,-237 "/>
</g>
<!-- union_2 -->
<g id="node13" class="node"><title>union_2</title>
<ellipse fill="#3498db" stroke="white" cx="220.5" cy="-127" rx="3.5" ry="3.5"/>
</g>
<!-- siblings_2 -->
<g id="node16" class="node"><title>siblings_2</title>
<polygon fill="#3498db" stroke="#cccccc" stroke-width="0" points="260,-127.5 253,-127.5 253,-126.5 260,-126.5 260,-127.5"/>
</g>
<!-- union_2&#45;&gt;siblings_2 -->
<g id="edge14" class="edge"><title>union_2&#45;&gt;siblings_2</title>
<path fill="none" stroke="#3498db" d="M224.083,-127C230.913,-127 245.732,-127 252.715,-127"/>
</g>
<!-- Abyasa -->
<g id="node14" class="node"><title>Abyasa</title>
<polygon fill="white" stroke="#cccccc" points="188,-197 8,-197 8,-161 188,-161 188,-197"/>
<text text-anchor="middle" x="98" y="-174.8" font-family="Helvetica, Arial, sans-serif" font-size="14.00">Abyasa</text>
</g>
<!-- Abyasa&#45;&gt;union_2 -->
<g id="edge12" class="edge"><title>Abyasa&#45;&gt;union_2</title>
<path fill="none" stroke="#3498db" d="M188.038,-166.5C206.794,-166.5 221,-166.5 221,-166.5 221,-166.5 221,-140.424 221,-130.645"/>
</g>
<!-- Ambalika -->
<g id="node15" class="node"><title>Ambalika</title>
<polygon fill="white" stroke="#cccccc" points="188,-143 8,-143 8,-107 188,-107 188,-143"/>
<text text-anchor="middle" x="98" y="-120.8" font-family="Helvetica, Arial, sans-serif" font-size="14.00">Ambalika</text>
</g>
<!-- Ambalika&#45;&gt;union_2 -->
<g id="edge13" class="edge"><title>Ambalika&#45;&gt;union_2</title>
<path fill="none" stroke="#3498db" d="M188.315,-127C200.938,-127 211.417,-127 216.733,-127"/>
</g>
<!-- siblings_2&#45;&gt;Pandu -->
<g id="edge15" class="edge"><title>siblings_2&#45;&gt;Pandu</title>
<path fill="none" stroke="#3498db" d="M260.034,-127C260.034,-127 278.811,-127 278.811,-127"/>
<polygon fill="#3498db" stroke="#3498db" points="286.81,-117 286.811,-137 282.811,-137 282.81,-117 286.81,-117"/>
<polyline fill="none" stroke="#3498db" points="288.811,-127 278.811,-127 "/>
</g>
<!-- union_3 -->
<g id="node17" class="node"><title>union_3</title>
<ellipse fill="#9b59b6" stroke="white" cx="220.5" cy="-72" rx="3.5" ry="3.5"/>
</g>
<!-- siblings_3 -->
<g id="node19" class="node"><title>siblings_3</title>
<polygon fill="#9b59b6" stroke="#cccccc" stroke-width="0" points="260,-72.5 253,-72.5 253,-71.5 260,-71.5 260,-72.5"/>
</g>
<!-- union_3&#45;&gt;siblings_3 -->
<g id="edge17" class="edge"><title>union_3&#45;&gt;siblings_3</title>
<path fill="none" stroke="#9b59b6" d="M224.083,-72C230.913,-72 245.732,-72 252.715,-72"/>
</g>
<!-- Surasena -->
<g id="node18" class="node"><title>Surasena</title>
<polygon fill="white" stroke="#cccccc" points="188,-89 8,-89 8,-53 188,-53 188,-89"/>
<text text-anchor="middle" x="98" y="-66.8" font-family="Helvetica, Arial, sans-serif" font-size="14.00">Surasena</text>
</g>
<!-- Surasena&#45;&gt;union_3 -->
<g id="edge16" class="edge"><title>Surasena&#45;&gt;union_3</title>
<path fill="none" stroke="#9b59b6" d="M188.315,-72C200.938,-72 211.417,-72 216.733,-72"/>
</g>
<!-- siblings_3&#45;&gt;Kunti -->
<g id="edge18" class="edge"><title>siblings_3&#45;&gt;Kunti</title>
<path fill="none" stroke="#9b59b6" d="M260.034,-72C260.034,-72 278.811,-72 278.811,-72"/>
<polygon fill="#9b59b6" stroke="#9b59b6" points="286.81,-62 286.811,-82 282.811,-82.0001 282.81,-62.0001 286.81,-62"/>
<polyline fill="none" stroke="#9b59b6" points="288.811,-72 278.811,-72.0001 "/>
</g>
<!-- union_4 -->
<g id="node20" class="node"><title>union_4</title>
<ellipse fill="#34495e" stroke="white" cx="220.5" cy="-233" rx="3.5" ry="3.5"/>
</g>
<!-- siblings_4 -->
<g id="node23" class="node"><title>siblings_4</title>
<polygon fill="#34495e" stroke="#cccccc" stroke-width="0" points="260,-233.5 253,-233.5 253,-232.5 260,-232.5 260,-233.5"/>
</g>
<!-- union_4&#45;&gt;siblings_4 -->
<g id="edge21" class="edge"><title>union_4&#45;&gt;siblings_4</title>
<path fill="none" stroke="#34495e" d="M224.083,-233C230.913,-233 245.732,-233 252.715,-233"/>
</g>
<!-- Tejawati -->
<g id="node21" class="node"><title>Tejawati</title>
<polygon fill="white" stroke="#cccccc" points="188,-305 8,-305 8,-269 188,-269 188,-305"/>
<text text-anchor="middle" x="98" y="-282.8" font-family="Helvetica, Arial, sans-serif" font-size="14.00">Tejawati</text>
</g>
<!-- Tejawati&#45;&gt;union_4 -->
<g id="edge19" class="edge"><title>Tejawati&#45;&gt;union_4</title>
<path fill="none" stroke="#34495e" d="M188.038,-287C206.794,-287 221,-287 221,-287 221,-287 221,-248.557 221,-236.543"/>
</g>
<!-- Mandrapati -->
<g id="node22" class="node"><title>Mandrapati</title>
<polygon fill="white" stroke="#cccccc" points="188,-251 8,-251 8,-215 188,-215 188,-251"/>
<text text-anchor="middle" x="98" y="-228.8" font-family="Helvetica, Arial, sans-serif" font-size="14.00">Mandrapati</text>
</g>
<!-- Mandrapati&#45;&gt;union_4 -->
<g id="edge20" class="edge"><title>Mandrapati&#45;&gt;union_4</title>
<path fill="none" stroke="#34495e" d="M188.315,-233C200.938,-233 211.417,-233 216.733,-233"/>
</g>
<!-- siblings_4&#45;&gt;Madrim -->
<g id="edge22" class="edge"><title>siblings_4&#45;&gt;Madrim</title>
<path fill="none" stroke="#34495e" d="M260.034,-233C260.034,-233 278.811,-233 278.811,-233"/>
<polygon fill="#34495e" stroke="#34495e" points="286.81,-223 286.811,-243 282.811,-243 282.81,-223 286.81,-223"/>
<polyline fill="none" stroke="#34495e" points="288.811,-233 278.811,-233 "/>
</g>
</g>
</svg>
