<?xml version="1.0" encoding="UTF-8" standalone="no"?>
<!DOCTYPE svg PUBLIC "-//W3C//DTD SVG 1.1//EN"
 "http://www.w3.org/Graphics/SVG/1.1/DTD/svg11.dtd">
<!-- Generated by graphviz version 2.38.0 (20140413.2041)
 -->
<!-- Title: G Pages: 1 -->
<svg width="766pt" height="222pt"
 viewBox="0.00 0.00 766.00 222.00" xmlns="http://www.w3.org/2000/svg" xmlns:xlink="http://www.w3.org/1999/xlink">
<g id="graph0" class="graph" transform="scale(1 1) rotate(0) translate(4 218)">
<title>G</title>
<polygon fill="white" stroke="none" points="-4,4 -4,-218 762,-218 762,4 -4,4"/>
<g id="clust1" class="cluster"><title>cluster_family_0</title>
</g>
<g id="clust4" class="cluster"><title>cluster_family_1</title>
</g>
<!-- union_0 -->
<g id="node1" class="node"><title>union_0</title>
<ellipse fill="#1abc9c" stroke="white" cx="501.5" cy="-93" rx="3.5" ry="3.5"/>
</g>
<!-- siblings_0 -->
<g id="node4" class="node"><title>siblings_0</title>
<polygon fill="#1abc9c" stroke="#cccccc" stroke-width="0" points="541,-93.5 534,-93.5 534,-92.5 541,-92.5 541,-93.5"/>
</g>
<!-- union_0&#45;&gt;siblings_0 -->
<g id="edge3" class="edge"><title>union_0&#45;&gt;siblings_0</title>
<path fill="none" stroke="#1abc9c" d="M505.083,-93C511.913,-93 526.732,-93 533.715,-93"/>
</g>
<!-- Parasara -->
<g id="node2" class="node"><title>Parasara</title>
<polygon fill="white" stroke="#cccccc" points="469,-138 289,-138 289,-102 469,-102 469,-138"/>
<text text-anchor="middle" x="379" y="-115.8" font-family="Helvetica, Arial, sans-serif" font-size="14.00">Parasara</text>
</g>
<!-- Parasara&#45;&gt;union_0 -->
<g id="edge1" class="edge"><title>Parasara&#45;&gt;union_0</title>
<path fill="none" stroke="#1abc9c" d="M469.038,-109C487.794,-109 502,-109 502,-109 502,-109 502,-101.438 502,-96.7109"/>
</g>
<!-- Durgandini -->
<g id="node3" class="node"><title>Durgandini</title>
<polygon fill="white" stroke="#cccccc" points="469,-84 289,-84 289,-48 469,-48 469,-84"/>
<text text-anchor="middle" x="379" y="-61.8" font-family="Helvetica, Arial, sans-serif" font-size="14.00">Durgandini</text>
</g>
<!-- Durgandini&#45;&gt;union_0 -->
<g id="edge2" class="edge"><title>Durgandini&#45;&gt;union_0</title>
<path fill="none" stroke="#1abc9c" d="M469.038,-73C487.794,-73 502,-73 502,-73 502,-73 502,-83.7861 502,-89.5163"/>
</g>
<!-- Rajamala -->
<g id="node5" class="node"><title>Rajamala</title>
<polygon fill="white" stroke="#cccccc" points="750,-44 570,-44 570,-8 750,-8 750,-44"/>
<text text-anchor="middle" x="660" y="-21.8" font-family="Helvetica, Arial, sans-serif" font-size="14.00">Rajamala</text>
</g>
<!-- siblings_0&#45;&gt;Rajamala -->
<g id="edge4" class="edge"><title>siblings_0&#45;&gt;Rajamala</title>
<path fill="none" stroke="#1abc9c" d="M538,-92.2476C538,-84.8867 538,-26 538,-26 538,-26 559.736,-26 559.736,-26"/>
<polygon fill="#1abc9c" stroke="#1abc9c" points="567.735,-16 567.736,-36 563.736,-36.0001 563.735,-16.0001 567.735,-16"/>
<polyline fill="none" stroke="#1abc9c" points="569.736,-26 559.736,-26.0001 "/>
</g>
<!-- Kencakarupa -->
<g id="node6" class="node"><title>Kencakarupa</title>
<polygon fill="white" stroke="#cccccc" points="750,-98 570,-98 570,-62 750,-62 750,-98"/>
<text text-anchor="middle" x="660" y="-75.8" font-family="Helvetica, Arial, sans-serif" font-size="14.00">Kencakarupa</text>
</g>
<!-- siblings_0&#45;&gt;Kencakarupa -->
<g id="edge5" class="edge"><title>siblings_0&#45;&gt;Kencakarupa</title>
<path fill="none" stroke="#1abc9c" d="M541.034,-93C541.034,-93 559.811,-93 559.811,-93"/>
<polygon fill="#1abc9c" stroke="#1abc9c" points="567.81,-83 567.811,-103 563.811,-103 563.81,-83.0001 567.81,-83"/>
<polyline fill="none" stroke="#1abc9c" points="569.811,-93 559.811,-93.0001 "/>
</g>
<!-- Rupakenca -->
<g id="node7" class="node"><title>Rupakenca</title>
<polygon fill="white" stroke="#cccccc" points="750,-152 570,-152 570,-116 750,-116 750,-152"/>
<text text-anchor="middle" x="660" y="-129.8" font-family="Helvetica, Arial, sans-serif" font-size="14.00">Rupakenca</text>
</g>
<!-- siblings_0&#45;&gt;Rupakenca -->
<g id="edge6" class="edge"><title>siblings_0&#45;&gt;Rupakenca</title>
<path fill="none" stroke="#1abc9c" d="M539,-93.8405C539,-99.0762 539,-127 539,-127 539,-127 559.846,-127 559.846,-127"/>
<polygon fill="#1abc9c" stroke="#1abc9c" points="567.846,-117 567.847,-137 563.847,-137 563.846,-117 567.846,-117"/>
<polyline fill="none" stroke="#1abc9c" points="569.846,-127 559.846,-127 "/>
</g>
<!-- Abiyasa -->
<g id="node8" class="node"><title>Abiyasa</title>
<polygon fill="white" stroke="#cccccc" points="750,-206 570,-206 570,-170 750,-170 750,-206"/>
<text text-anchor="middle" x="660" y="-183.8" font-family="Helvetica, Arial, sans-serif" font-size="14.00">Abiyasa</text>
</g>
<!-- siblings_0&#45;&gt;Abiyasa -->
<g id="edge7" class="edge"><title>siblings_0&#45;&gt;Abiyasa</title>
<path fill="none" stroke="#1abc9c" d="M537,-93.6067C537,-101.698 537,-188 537,-188 537,-188 559.962,-188 559.962,-188"/>
<polygon fill="#1abc9c" stroke="#1abc9c" points="567.962,-178 567.962,-198 563.962,-198 563.962,-178 567.962,-178"/>
<polyline fill="none" stroke="#1abc9c" points="569.962,-188 559.962,-188 "/>
</g>
<!-- union_1 -->
<g id="node9" class="node"><title>union_1</title>
<ellipse fill="#2ecc71" stroke="white" cx="220.5" cy="-120" rx="3.5" ry="3.5"/>
</g>
<!-- siblings_1 -->
<g id="node12" class="node"><title>siblings_1</title>
<polygon fill="#2ecc71" stroke="#cccccc" stroke-width="0" points="260,-120.5 253,-120.5 253,-119.5 260,-119.5 260,-120.5"/>
</g>
<!-- union_1&#45;&gt;siblings_1 -->
<g id="edge10" class="edge"><title>union_1&#45;&gt;siblings_1</title>
<path fill="none" stroke="#2ecc71" d="M224.083,-120C230.913,-120 245.732,-120 252.715,-120"/>
</g>
<!-- Sakri -->
<g id="node10" class="node"><title>Sakri</title>
<polygon fill="white" stroke="#cccccc" points="188,-165 8,-165 8,-129 188,-129 188,-165"/>
<text text-anchor="middle" x="98" y="-142.8" font-family="Helvetica, Arial, sans-serif" font-size="14.00">Sakri</text>
</g>
<!-- Sakri&#45;&gt;union_1 -->
<g id="edge8" class="edge"><title>Sakri&#45;&gt;union_1</title>
<path fill="none" stroke="#2ecc71" d="M188.038,-133.5C206.794,-133.5 221,-133.5 221,-133.5 221,-133.5 221,-127.686 221,-123.689"/>
</g>
<!-- Sati -->
<g id="node11" class="node"><title>Sati</title>
<polygon fill="white" stroke="#cccccc" points="188,-111 8,-111 8,-75 188,-75 188,-111"/>
<text text-anchor="middle" x="98" y="-88.8" font-family="Helvetica, Arial, sans-serif" font-size="14.00">Sati</text>
</g>
<!-- Sati&#45;&gt;union_1 -->
<g id="edge9" class="edge"><title>Sati&#45;&gt;union_1</title>
<path fill="none" stroke="#2ecc71" d="M188.038,-106.5C206.794,-106.5 221,-106.5 221,-106.5 221,-106.5 221,-112.314 221,-116.311"/>
</g>
<!-- siblings_1&#45;&gt;Parasara -->
<g id="edge11" class="edge"><title>siblings_1&#45;&gt;Parasara</title>
<path fill="none" stroke="#2ecc71" d="M260.034,-120C260.034,-120 278.811,-120 278.811,-120"/>
<polygon fill="#2ecc71" stroke="#2ecc71" points="286.81,-110 286.811,-130 282.811,-130 282.81,-110 286.81,-110"/>
<polyline fill="none" stroke="#2ecc71" points="288.811,-120 278.811,-120 "/>
</g>
</g>
</svg>
