<?xml version="1.0" encoding="UTF-8" standalone="no"?>
<!DOCTYPE svg PUBLIC "-//W3C//DTD SVG 1.1//EN"
 "http://www.w3.org/Graphics/SVG/1.1/DTD/svg11.dtd">
<!-- Generated by graphviz version 2.38.0 (20140413.2041)
 -->
<!-- Title: G Pages: 1 -->
<svg width="521pt" height="114pt"
 viewBox="0.00 0.00 521.00 114.00" xmlns="http://www.w3.org/2000/svg" xmlns:xlink="http://www.w3.org/1999/xlink">
<g id="graph0" class="graph" transform="scale(1 1) rotate(0) translate(4 110)">
<title>G</title>
<polygon fill="white" stroke="none" points="-4,4 -4,-110 517,-110 517,4 -4,4"/>
<g id="clust1" class="cluster"><title>cluster_family_0</title>
</g>
<g id="clust3" class="cluster"><title>cluster_family_1</title>
</g>
<g id="clust6" class="cluster"><title>cluster_family_2</title>
</g>
<!-- union_0 -->
<g id="node1" class="node"><title>union_0</title>
<ellipse fill="#1abc9c" stroke="white" cx="501.5" cy="-53" rx="3.5" ry="3.5"/>
</g>
<!-- Pradapa -->
<g id="node2" class="node"><title>Pradapa</title>
<polygon fill="white" stroke="#cccccc" points="469,-98 289,-98 289,-62 469,-62 469,-98"/>
<text text-anchor="middle" x="379" y="-75.8" font-family="Helvetica, Arial, sans-serif" font-size="14.00">Pradapa</text>
</g>
<!-- Pradapa&#45;&gt;union_0 -->
<g id="edge1" class="edge"><title>Pradapa&#45;&gt;union_0</title>
<path fill="none" stroke="#1abc9c" d="M469.038,-80C487.794,-80 502,-80 502,-80 502,-80 502,-64.1731 502,-56.7542"/>
</g>
<!-- Sadewa -->
<g id="node3" class="node"><title>Sadewa</title>
<polygon fill="white" stroke="#cccccc" points="469,-44 289,-44 289,-8 469,-8 469,-44"/>
<text text-anchor="middle" x="379" y="-21.8" font-family="Helvetica, Arial, sans-serif" font-size="14.00">Sadewa</text>
</g>
<!-- Sadewa&#45;&gt;union_0 -->
<g id="edge2" class="edge"><title>Sadewa&#45;&gt;union_0</title>
<path fill="none" stroke="#1abc9c" d="M469.038,-26C487.794,-26 502,-26 502,-26 502,-26 502,-41.8269 502,-49.2458"/>
</g>
<!-- union_1 -->
<g id="node4" class="node"><title>union_1</title>
<ellipse fill="#2ecc71" stroke="white" cx="220.5" cy="-80" rx="3.5" ry="3.5"/>
</g>
<!-- siblings_1 -->
<g id="node6" class="node"><title>siblings_1</title>
<polygon fill="#2ecc71" stroke="#cccccc" stroke-width="0" points="260,-80.5 253,-80.5 253,-79.5 260,-79.5 260,-80.5"/>
</g>
<!-- union_1&#45;&gt;siblings_1 -->
<g id="edge4" class="edge"><title>union_1&#45;&gt;siblings_1</title>
<path fill="none" stroke="#2ecc71" d="M224.083,-80C230.913,-80 245.732,-80 252.715,-80"/>
</g>
<!-- Tambapetra -->
<g id="node5" class="node"><title>Tambapetra</title>
<polygon fill="white" stroke="#cccccc" points="188,-98 8,-98 8,-62 188,-62 188,-98"/>
<text text-anchor="middle" x="98" y="-75.8" font-family="Helvetica, Arial, sans-serif" font-size="14.00">Tambapetra</text>
</g>
<!-- Tambapetra&#45;&gt;union_1 -->
<g id="edge3" class="edge"><title>Tambapetra&#45;&gt;union_1</title>
<path fill="none" stroke="#2ecc71" d="M188.315,-80C200.938,-80 211.417,-80 216.733,-80"/>
</g>
<!-- siblings_1&#45;&gt;Pradapa -->
<g id="edge5" class="edge"><title>siblings_1&#45;&gt;Pradapa</title>
<path fill="none" stroke="#2ecc71" d="M260.034,-80C260.034,-80 278.811,-80 278.811,-80"/>
<polygon fill="#2ecc71" stroke="#2ecc71" points="286.81,-70 286.811,-90 282.811,-90.0001 282.81,-70.0001 286.81,-70"/>
<polyline fill="none" stroke="#2ecc71" points="288.811,-80 278.811,-80.0001 "/>
</g>
<!-- siblings_2 -->
<g id="node7" class="node"><title>siblings_2</title>
<polygon fill="#3498db" stroke="#cccccc" stroke-width="0" points="260,-26.5 253,-26.5 253,-25.5 260,-25.5 260,-26.5"/>
</g>
<!-- siblings_2&#45;&gt;Sadewa -->
<g id="edge6" class="edge"><title>siblings_2&#45;&gt;Sadewa</title>
<path fill="none" stroke="#3498db" d="M260.034,-26C260.034,-26 278.811,-26 278.811,-26"/>
<polygon fill="#3498db" stroke="#3498db" points="286.81,-16 286.811,-36 282.811,-36.0001 282.81,-16.0001 286.81,-16"/>
<polyline fill="none" stroke="#3498db" points="288.811,-26 278.811,-26.0001 "/>
</g>
</g>
</svg>
