<?xml version="1.0" encoding="UTF-8" standalone="no"?>
<!DOCTYPE svg PUBLIC "-//W3C//DTD SVG 1.1//EN"
 "http://www.w3.org/Graphics/SVG/1.1/DTD/svg11.dtd">
<!-- Generated by graphviz version 2.38.0 (20140413.2041)
 -->
<!-- Title: G Pages: 1 -->
<svg width="766pt" height="276pt"
 viewBox="0.00 0.00 766.00 276.00" xmlns="http://www.w3.org/2000/svg" xmlns:xlink="http://www.w3.org/1999/xlink">
<g id="graph0" class="graph" transform="scale(1 1) rotate(0) translate(4 272)">
<title>G</title>
<polygon fill="white" stroke="none" points="-4,4 -4,-272 762,-272 762,4 -4,4"/>
<g id="clust1" class="cluster"><title>cluster_family_0</title>
</g>
<g id="clust4" class="cluster"><title>cluster_family_1</title>
</g>
<g id="clust7" class="cluster"><title>cluster_family_2</title>
</g>
<!-- union_0 -->
<g id="node1" class="node"><title>union_0</title>
<ellipse fill="#1abc9c" stroke="white" cx="501.5" cy="-134" rx="3.5" ry="3.5"/>
</g>
<!-- siblings_0 -->
<g id="node4" class="node"><title>siblings_0</title>
<polygon fill="#1abc9c" stroke="#cccccc" stroke-width="0" points="541,-134.5 534,-134.5 534,-133.5 541,-133.5 541,-134.5"/>
</g>
<!-- union_0&#45;&gt;siblings_0 -->
<g id="edge3" class="edge"><title>union_0&#45;&gt;siblings_0</title>
<path fill="none" stroke="#1abc9c" d="M505.083,-134C511.913,-134 526.732,-134 533.715,-134"/>
</g>
<!-- Pujawati -->
<g id="node2" class="node"><title>Pujawati</title>
<polygon fill="white" stroke="#cccccc" points="469,-179 289,-179 289,-143 469,-143 469,-179"/>
<text text-anchor="middle" x="379" y="-156.8" font-family="Helvetica, Arial, sans-serif" font-size="14.00">Pujawati</text>
</g>
<!-- Pujawati&#45;&gt;union_0 -->
<g id="edge1" class="edge"><title>Pujawati&#45;&gt;union_0</title>
<path fill="none" stroke="#1abc9c" d="M469.038,-147.5C487.794,-147.5 502,-147.5 502,-147.5 502,-147.5 502,-141.686 502,-137.689"/>
</g>
<!-- Salya -->
<g id="node3" class="node"><title>Salya</title>
<polygon fill="white" stroke="#cccccc" points="469,-125 289,-125 289,-89 469,-89 469,-125"/>
<text text-anchor="middle" x="379" y="-102.8" font-family="Helvetica, Arial, sans-serif" font-size="14.00">Salya</text>
</g>
<!-- Salya&#45;&gt;union_0 -->
<g id="edge2" class="edge"><title>Salya&#45;&gt;union_0</title>
<path fill="none" stroke="#1abc9c" d="M469.038,-120.5C487.794,-120.5 502,-120.5 502,-120.5 502,-120.5 502,-126.314 502,-130.311"/>
</g>
<!-- Erawati -->
<g id="node5" class="node"><title>Erawati</title>
<polygon fill="white" stroke="#cccccc" points="750,-44 570,-44 570,-8 750,-8 750,-44"/>
<text text-anchor="middle" x="660" y="-21.8" font-family="Helvetica, Arial, sans-serif" font-size="14.00">Erawati</text>
</g>
<!-- siblings_0&#45;&gt;Erawati -->
<g id="edge4" class="edge"><title>siblings_0&#45;&gt;Erawati</title>
<path fill="none" stroke="#1abc9c" d="M537,-133.397C537,-125.348 537,-39.5 537,-39.5 537,-39.5 559.962,-39.5 559.962,-39.5"/>
<polygon fill="#1abc9c" stroke="#1abc9c" points="567.962,-29.5 567.962,-49.5 563.962,-49.5001 563.962,-29.5001 567.962,-29.5"/>
<polyline fill="none" stroke="#1abc9c" points="569.962,-39.5 559.962,-39.5001 "/>
</g>
<!-- Surikanti -->
<g id="node6" class="node"><title>Surikanti</title>
<polygon fill="white" stroke="#cccccc" points="750,-98 570,-98 570,-62 750,-62 750,-98"/>
<text text-anchor="middle" x="660" y="-75.8" font-family="Helvetica, Arial, sans-serif" font-size="14.00">Surikanti</text>
</g>
<!-- siblings_0&#45;&gt;Surikanti -->
<g id="edge5" class="edge"><title>siblings_0&#45;&gt;Surikanti</title>
<path fill="none" stroke="#1abc9c" d="M539,-133.297C539,-127.919 539,-93.5 539,-93.5 539,-93.5 559.846,-93.5 559.846,-93.5"/>
<polygon fill="#1abc9c" stroke="#1abc9c" points="567.846,-83.5 567.847,-103.5 563.847,-103.5 563.846,-83.5001 567.846,-83.5"/>
<polyline fill="none" stroke="#1abc9c" points="569.846,-93.5 559.846,-93.5001 "/>
</g>
<!-- Banowati -->
<g id="node7" class="node"><title>Banowati</title>
<polygon fill="white" stroke="#cccccc" points="750,-152 570,-152 570,-116 750,-116 750,-152"/>
<text text-anchor="middle" x="660" y="-129.8" font-family="Helvetica, Arial, sans-serif" font-size="14.00">Banowati</text>
</g>
<!-- siblings_0&#45;&gt;Banowati -->
<g id="edge6" class="edge"><title>siblings_0&#45;&gt;Banowati</title>
<path fill="none" stroke="#1abc9c" d="M541.034,-134C541.034,-134 559.811,-134 559.811,-134"/>
<polygon fill="#1abc9c" stroke="#1abc9c" points="567.81,-124 567.811,-144 563.811,-144 563.81,-124 567.81,-124"/>
<polyline fill="none" stroke="#1abc9c" points="569.811,-134 559.811,-134 "/>
</g>
<!-- Burisrawa -->
<g id="node8" class="node"><title>Burisrawa</title>
<polygon fill="white" stroke="#cccccc" points="750,-206 570,-206 570,-170 750,-170 750,-206"/>
<text text-anchor="middle" x="660" y="-183.8" font-family="Helvetica, Arial, sans-serif" font-size="14.00">Burisrawa</text>
</g>
<!-- siblings_0&#45;&gt;Burisrawa -->
<g id="edge7" class="edge"><title>siblings_0&#45;&gt;Burisrawa</title>
<path fill="none" stroke="#1abc9c" d="M539,-134.703C539,-140.081 539,-174.5 539,-174.5 539,-174.5 559.846,-174.5 559.846,-174.5"/>
<polygon fill="#1abc9c" stroke="#1abc9c" points="567.846,-164.5 567.847,-184.5 563.847,-184.5 563.846,-164.5 567.846,-164.5"/>
<polyline fill="none" stroke="#1abc9c" points="569.846,-174.5 559.846,-174.5 "/>
</g>
<!-- Rukmarata -->
<g id="node9" class="node"><title>Rukmarata</title>
<polygon fill="white" stroke="#cccccc" points="750,-260 570,-260 570,-224 750,-224 750,-260"/>
<text text-anchor="middle" x="660" y="-237.8" font-family="Helvetica, Arial, sans-serif" font-size="14.00">Rukmarata</text>
</g>
<!-- siblings_0&#45;&gt;Rukmarata -->
<g id="edge8" class="edge"><title>siblings_0&#45;&gt;Rukmarata</title>
<path fill="none" stroke="#1abc9c" d="M537,-134.69C537,-143.888 537,-242 537,-242 537,-242 559.962,-242 559.962,-242"/>
<polygon fill="#1abc9c" stroke="#1abc9c" points="567.962,-232 567.962,-252 563.962,-252 563.962,-232 567.962,-232"/>
<polyline fill="none" stroke="#1abc9c" points="569.962,-242 559.962,-242 "/>
</g>
<!-- union_1 -->
<g id="node10" class="node"><title>union_1</title>
<ellipse fill="#2ecc71" stroke="white" cx="220.5" cy="-161" rx="3.5" ry="3.5"/>
</g>
<!-- siblings_1 -->
<g id="node12" class="node"><title>siblings_1</title>
<polygon fill="#2ecc71" stroke="#cccccc" stroke-width="0" points="260,-161.5 253,-161.5 253,-160.5 260,-160.5 260,-161.5"/>
</g>
<!-- union_1&#45;&gt;siblings_1 -->
<g id="edge10" class="edge"><title>union_1&#45;&gt;siblings_1</title>
<path fill="none" stroke="#2ecc71" d="M224.083,-161C230.913,-161 245.732,-161 252.715,-161"/>
</g>
<!-- Bagaspati -->
<g id="node11" class="node"><title>Bagaspati</title>
<polygon fill="white" stroke="#cccccc" points="188,-179 8,-179 8,-143 188,-143 188,-179"/>
<text text-anchor="middle" x="98" y="-156.8" font-family="Helvetica, Arial, sans-serif" font-size="14.00">Bagaspati</text>
</g>
<!-- Bagaspati&#45;&gt;union_1 -->
<g id="edge9" class="edge"><title>Bagaspati&#45;&gt;union_1</title>
<path fill="none" stroke="#2ecc71" d="M188.315,-161C200.938,-161 211.417,-161 216.733,-161"/>
</g>
<!-- siblings_1&#45;&gt;Pujawati -->
<g id="edge11" class="edge"><title>siblings_1&#45;&gt;Pujawati</title>
<path fill="none" stroke="#2ecc71" d="M260.034,-161C260.034,-161 278.811,-161 278.811,-161"/>
<polygon fill="#2ecc71" stroke="#2ecc71" points="286.81,-151 286.811,-171 282.811,-171 282.81,-151 286.81,-151"/>
<polyline fill="none" stroke="#2ecc71" points="288.811,-161 278.811,-161 "/>
</g>
<!-- union_2 -->
<g id="node13" class="node"><title>union_2</title>
<ellipse fill="#3498db" stroke="white" cx="220.5" cy="-107" rx="3.5" ry="3.5"/>
</g>
<!-- siblings_2 -->
<g id="node16" class="node"><title>siblings_2</title>
<polygon fill="#3498db" stroke="#cccccc" stroke-width="0" points="260,-107.5 253,-107.5 253,-106.5 260,-106.5 260,-107.5"/>
</g>
<!-- union_2&#45;&gt;siblings_2 -->
<g id="edge14" class="edge"><title>union_2&#45;&gt;siblings_2</title>
<path fill="none" stroke="#3498db" d="M224.083,-107C230.913,-107 245.732,-107 252.715,-107"/>
</g>
<!-- Tejawati -->
<g id="node14" class="node"><title>Tejawati</title>
<polygon fill="white" stroke="#cccccc" points="188,-125 8,-125 8,-89 188,-89 188,-125"/>
<text text-anchor="middle" x="98" y="-102.8" font-family="Helvetica, Arial, sans-serif" font-size="14.00">Tejawati</text>
</g>
<!-- Tejawati&#45;&gt;union_2 -->
<g id="edge12" class="edge"><title>Tejawati&#45;&gt;union_2</title>
<path fill="none" stroke="#3498db" d="M188.315,-107C200.938,-107 211.417,-107 216.733,-107"/>
</g>
<!-- Mandrekaswara -->
<g id="node15" class="node"><title>Mandrekaswara</title>
<polygon fill="white" stroke="#cccccc" points="188,-71 8,-71 8,-35 188,-35 188,-71"/>
<text text-anchor="middle" x="98" y="-48.8" font-family="Helvetica, Arial, sans-serif" font-size="14.00">Mandrekaswara</text>
</g>
<!-- Mandrekaswara&#45;&gt;union_2 -->
<g id="edge13" class="edge"><title>Mandrekaswara&#45;&gt;union_2</title>
<path fill="none" stroke="#3498db" d="M188.038,-66.5C206.794,-66.5 221,-66.5 221,-66.5 221,-66.5 221,-93.2363 221,-103.262"/>
</g>
<!-- siblings_2&#45;&gt;Salya -->
<g id="edge15" class="edge"><title>siblings_2&#45;&gt;Salya</title>
<path fill="none" stroke="#3498db" d="M260.034,-107C260.034,-107 278.811,-107 278.811,-107"/>
<polygon fill="#3498db" stroke="#3498db" points="286.81,-97 286.811,-117 282.811,-117 282.81,-97.0001 286.81,-97"/>
<polyline fill="none" stroke="#3498db" points="288.811,-107 278.811,-107 "/>
</g>
</g>
</svg>
