<?xml version="1.0" encoding="UTF-8" standalone="no"?>
<!DOCTYPE svg PUBLIC "-//W3C//DTD SVG 1.1//EN"
 "http://www.w3.org/Graphics/SVG/1.1/DTD/svg11.dtd">
<!-- Generated by graphviz version 2.38.0 (20140413.2041)
 -->
<!-- Title: G Pages: 1 -->
<svg width="766pt" height="330pt"
 viewBox="0.00 0.00 766.00 330.00" xmlns="http://www.w3.org/2000/svg" xmlns:xlink="http://www.w3.org/1999/xlink">
<g id="graph0" class="graph" transform="scale(1 1) rotate(0) translate(4 326)">
<title>G</title>
<polygon fill="white" stroke="none" points="-4,4 -4,-326 762,-326 762,4 -4,4"/>
<g id="clust1" class="cluster"><title>cluster_family_0</title>
</g>
<g id="clust4" class="cluster"><title>cluster_family_1</title>
</g>
<g id="clust7" class="cluster"><title>cluster_family_2</title>
</g>
<g id="clust9" class="cluster"><title>cluster_family_3</title>
</g>
<g id="clust12" class="cluster"><title>cluster_family_4</title>
</g>
<g id="clust15" class="cluster"><title>cluster_family_5</title>
</g>
<!-- union_0 -->
<g id="node1" class="node"><title>union_0</title>
<ellipse fill="#1abc9c" stroke="white" cx="501.5" cy="-215" rx="3.5" ry="3.5"/>
</g>
<!-- siblings_0 -->
<g id="node4" class="node"><title>siblings_0</title>
<polygon fill="#1abc9c" stroke="#cccccc" stroke-width="0" points="541,-215.5 534,-215.5 534,-214.5 541,-214.5 541,-215.5"/>
</g>
<!-- union_0&#45;&gt;siblings_0 -->
<g id="edge3" class="edge"><title>union_0&#45;&gt;siblings_0</title>
<path fill="none" stroke="#1abc9c" d="M505.083,-215C511.913,-215 526.732,-215 533.715,-215"/>
</g>
<!-- Sadewa -->
<g id="node2" class="node"><title>Sadewa</title>
<polygon fill="white" stroke="#cccccc" points="469,-206 289,-206 289,-170 469,-170 469,-206"/>
<text text-anchor="middle" x="379" y="-183.8" font-family="Helvetica, Arial, sans-serif" font-size="14.00">Sadewa</text>
</g>
<!-- Sadewa&#45;&gt;union_0 -->
<g id="edge1" class="edge"><title>Sadewa&#45;&gt;union_0</title>
<path fill="none" stroke="#1abc9c" d="M469.116,-201.5C488.348,-201.5 503,-201.5 503,-201.5 503,-201.5 503,-207.594 503,-211.593"/>
</g>
<!-- union_1 -->
<g id="node6" class="node"><title>union_1</title>
<ellipse fill="#2ecc71" stroke="white" cx="501.5" cy="-134" rx="3.5" ry="3.5"/>
</g>
<!-- Sadewa&#45;&gt;union_1 -->
<g id="edge5" class="edge"><title>Sadewa&#45;&gt;union_1</title>
<path fill="none" stroke="#2ecc71" d="M469.264,-190.25C487.391,-190.25 501,-190.25 501,-190.25 501,-190.25 501,-150.205 501,-137.691"/>
</g>
<!-- union_2 -->
<g id="node10" class="node"><title>union_2</title>
<ellipse fill="#3498db" stroke="white" cx="501.5" cy="-87" rx="3.5" ry="3.5"/>
</g>
<!-- Sadewa&#45;&gt;union_2 -->
<g id="edge9" class="edge"><title>Sadewa&#45;&gt;union_2</title>
<path fill="none" stroke="#3498db" d="M469.08,-183.5C480.893,-183.5 489,-183.5 489,-183.5 489,-183.5 489,-88.1667 489,-88.1667 489,-88.1667 494.383,-88.1667 498.084,-88.1667"/>
</g>
<!-- union_3 -->
<g id="node12" class="node"><title>union_3</title>
<ellipse fill="#9b59b6" stroke="white" cx="501.5" cy="-26" rx="3.5" ry="3.5"/>
</g>
<!-- Sadewa&#45;&gt;union_3 -->
<g id="edge11" class="edge"><title>Sadewa&#45;&gt;union_3</title>
<path fill="none" stroke="#9b59b6" d="M469.046,-176.75C475.185,-176.75 479,-176.75 479,-176.75 479,-176.75 479,-27.1667 479,-27.1667 479,-27.1667 491.656,-27.1667 497.984,-27.1667"/>
</g>
<!-- Pradapa -->
<g id="node3" class="node"><title>Pradapa</title>
<polygon fill="white" stroke="#cccccc" points="469,-260 289,-260 289,-224 469,-224 469,-260"/>
<text text-anchor="middle" x="379" y="-237.8" font-family="Helvetica, Arial, sans-serif" font-size="14.00">Pradapa</text>
</g>
<!-- Pradapa&#45;&gt;union_0 -->
<g id="edge2" class="edge"><title>Pradapa&#45;&gt;union_0</title>
<path fill="none" stroke="#1abc9c" d="M469.038,-228.5C487.794,-228.5 502,-228.5 502,-228.5 502,-228.5 502,-222.686 502,-218.689"/>
</g>
<!-- Sritanjung -->
<g id="node5" class="node"><title>Sritanjung</title>
<polygon fill="white" stroke="#cccccc" points="750,-233 570,-233 570,-197 750,-197 750,-233"/>
<text text-anchor="middle" x="660" y="-210.8" font-family="Helvetica, Arial, sans-serif" font-size="14.00">Sritanjung</text>
</g>
<!-- siblings_0&#45;&gt;Sritanjung -->
<g id="edge4" class="edge"><title>siblings_0&#45;&gt;Sritanjung</title>
<path fill="none" stroke="#1abc9c" d="M541.034,-215C541.034,-215 559.811,-215 559.811,-215"/>
<polygon fill="#1abc9c" stroke="#1abc9c" points="567.81,-205 567.811,-225 563.811,-225 563.81,-205 567.81,-205"/>
<polyline fill="none" stroke="#1abc9c" points="569.811,-215 559.811,-215 "/>
</g>
<!-- siblings_1 -->
<g id="node8" class="node"><title>siblings_1</title>
<polygon fill="#2ecc71" stroke="#cccccc" stroke-width="0" points="541,-134.5 534,-134.5 534,-133.5 541,-133.5 541,-134.5"/>
</g>
<!-- union_1&#45;&gt;siblings_1 -->
<g id="edge7" class="edge"><title>union_1&#45;&gt;siblings_1</title>
<path fill="none" stroke="#2ecc71" d="M505.083,-134C511.913,-134 526.732,-134 533.715,-134"/>
</g>
<!-- Srengganawati -->
<g id="node7" class="node"><title>Srengganawati</title>
<polygon fill="white" stroke="#cccccc" points="469,-152 289,-152 289,-116 469,-116 469,-152"/>
<text text-anchor="middle" x="379" y="-129.8" font-family="Helvetica, Arial, sans-serif" font-size="14.00">Srengganawati</text>
</g>
<!-- Srengganawati&#45;&gt;union_1 -->
<g id="edge6" class="edge"><title>Srengganawati&#45;&gt;union_1</title>
<path fill="none" stroke="#2ecc71" d="M469.315,-134C481.938,-134 492.417,-134 497.733,-134"/>
</g>
<!-- Widapaksa -->
<g id="node9" class="node"><title>Widapaksa</title>
<polygon fill="white" stroke="#cccccc" points="750,-152 570,-152 570,-116 750,-116 750,-152"/>
<text text-anchor="middle" x="660" y="-129.8" font-family="Helvetica, Arial, sans-serif" font-size="14.00">Widapaksa</text>
</g>
<!-- siblings_1&#45;&gt;Widapaksa -->
<g id="edge8" class="edge"><title>siblings_1&#45;&gt;Widapaksa</title>
<path fill="none" stroke="#2ecc71" d="M541.034,-134C541.034,-134 559.811,-134 559.811,-134"/>
<polygon fill="#2ecc71" stroke="#2ecc71" points="567.81,-124 567.811,-144 563.811,-144 563.81,-124 567.81,-124"/>
<polyline fill="none" stroke="#2ecc71" points="569.811,-134 559.811,-134 "/>
</g>
<!-- Rasawulan -->
<g id="node11" class="node"><title>Rasawulan</title>
<polygon fill="white" stroke="#cccccc" points="469,-98 289,-98 289,-62 469,-62 469,-98"/>
<text text-anchor="middle" x="379" y="-75.8" font-family="Helvetica, Arial, sans-serif" font-size="14.00">Rasawulan</text>
</g>
<!-- Rasawulan&#45;&gt;union_2 -->
<g id="edge10" class="edge"><title>Rasawulan&#45;&gt;union_2</title>
<path fill="none" stroke="#3498db" d="M469.315,-85.8333C482.225,-85.8333 492.892,-85.8333 498.088,-85.8333"/>
</g>
<!-- siblings_3 -->
<g id="node14" class="node"><title>siblings_3</title>
<polygon fill="#9b59b6" stroke="#cccccc" stroke-width="0" points="541,-26.5 534,-26.5 534,-25.5 541,-25.5 541,-26.5"/>
</g>
<!-- union_3&#45;&gt;siblings_3 -->
<g id="edge13" class="edge"><title>union_3&#45;&gt;siblings_3</title>
<path fill="none" stroke="#9b59b6" d="M505.083,-26C511.913,-26 526.732,-26 533.715,-26"/>
</g>
<!-- Sadarmi -->
<g id="node13" class="node"><title>Sadarmi</title>
<polygon fill="white" stroke="#cccccc" points="469,-44 289,-44 289,-8 469,-8 469,-44"/>
<text text-anchor="middle" x="379" y="-21.8" font-family="Helvetica, Arial, sans-serif" font-size="14.00">Sadarmi</text>
</g>
<!-- Sadarmi&#45;&gt;union_3 -->
<g id="edge12" class="edge"><title>Sadarmi&#45;&gt;union_3</title>
<path fill="none" stroke="#9b59b6" d="M469.315,-24.8333C482.225,-24.8333 492.892,-24.8333 498.088,-24.8333"/>
</g>
<!-- Sabekti -->
<g id="node15" class="node"><title>Sabekti</title>
<polygon fill="white" stroke="#cccccc" points="750,-44 570,-44 570,-8 750,-8 750,-44"/>
<text text-anchor="middle" x="660" y="-21.8" font-family="Helvetica, Arial, sans-serif" font-size="14.00">Sabekti</text>
</g>
<!-- siblings_3&#45;&gt;Sabekti -->
<g id="edge14" class="edge"><title>siblings_3&#45;&gt;Sabekti</title>
<path fill="none" stroke="#9b59b6" d="M541.034,-26C541.034,-26 559.811,-26 559.811,-26"/>
<polygon fill="#9b59b6" stroke="#9b59b6" points="567.81,-16 567.811,-36 563.811,-36.0001 563.81,-16.0001 567.81,-16"/>
<polyline fill="none" stroke="#9b59b6" points="569.811,-26 559.811,-26.0001 "/>
</g>
<!-- union_4 -->
<g id="node16" class="node"><title>union_4</title>
<ellipse fill="#34495e" stroke="white" cx="220.5" cy="-242" rx="3.5" ry="3.5"/>
</g>
<!-- siblings_4 -->
<g id="node19" class="node"><title>siblings_4</title>
<polygon fill="#34495e" stroke="#cccccc" stroke-width="0" points="260,-242.5 253,-242.5 253,-241.5 260,-241.5 260,-242.5"/>
</g>
<!-- union_4&#45;&gt;siblings_4 -->
<g id="edge17" class="edge"><title>union_4&#45;&gt;siblings_4</title>
<path fill="none" stroke="#34495e" d="M224.083,-242C230.913,-242 245.732,-242 252.715,-242"/>
</g>
<!-- Pandu (Aswin) -->
<g id="node17" class="node"><title>Pandu (Aswin)</title>
<polygon fill="white" stroke="#cccccc" points="188,-314 8,-314 8,-278 188,-278 188,-314"/>
<text text-anchor="middle" x="98" y="-291.8" font-family="Helvetica, Arial, sans-serif" font-size="14.00">Pandu (Aswin)</text>
</g>
<!-- Pandu (Aswin)&#45;&gt;union_4 -->
<g id="edge15" class="edge"><title>Pandu (Aswin)&#45;&gt;union_4</title>
<path fill="none" stroke="#34495e" d="M188.038,-296C206.794,-296 221,-296 221,-296 221,-296 221,-257.557 221,-245.543"/>
</g>
<!-- Madrim -->
<g id="node18" class="node"><title>Madrim</title>
<polygon fill="white" stroke="#cccccc" points="188,-260 8,-260 8,-224 188,-224 188,-260"/>
<text text-anchor="middle" x="98" y="-237.8" font-family="Helvetica, Arial, sans-serif" font-size="14.00">Madrim</text>
</g>
<!-- Madrim&#45;&gt;union_4 -->
<g id="edge16" class="edge"><title>Madrim&#45;&gt;union_4</title>
<path fill="none" stroke="#34495e" d="M188.315,-242C200.938,-242 211.417,-242 216.733,-242"/>
</g>
<!-- siblings_4&#45;&gt;Sadewa -->
<g id="edge18" class="edge"><title>siblings_4&#45;&gt;Sadewa</title>
<path fill="none" stroke="#34495e" d="M256,-241.31C256,-236.032 256,-202.25 256,-202.25 256,-202.25 278.962,-202.25 278.962,-202.25"/>
<polygon fill="#34495e" stroke="#34495e" points="286.962,-192.25 286.962,-212.25 282.962,-212.25 282.962,-192.25 286.962,-192.25"/>
<polyline fill="none" stroke="#34495e" points="288.962,-202.25 278.962,-202.25 "/>
</g>
<!-- union_5 -->
<g id="node20" class="node"><title>union_5</title>
<ellipse fill="#f1c40f" stroke="white" cx="220.5" cy="-195" rx="3.5" ry="3.5"/>
</g>
<!-- siblings_5 -->
<g id="node22" class="node"><title>siblings_5</title>
<polygon fill="#f1c40f" stroke="#cccccc" stroke-width="0" points="260,-195.5 253,-195.5 253,-194.5 260,-194.5 260,-195.5"/>
</g>
<!-- union_5&#45;&gt;siblings_5 -->
<g id="edge20" class="edge"><title>union_5&#45;&gt;siblings_5</title>
<path fill="none" stroke="#f1c40f" d="M224.083,-195C230.913,-195 245.732,-195 252.715,-195"/>
</g>
<!-- Tambapetra -->
<g id="node21" class="node"><title>Tambapetra</title>
<polygon fill="white" stroke="#cccccc" points="188,-206 8,-206 8,-170 188,-170 188,-206"/>
<text text-anchor="middle" x="98" y="-183.8" font-family="Helvetica, Arial, sans-serif" font-size="14.00">Tambapetra</text>
</g>
<!-- Tambapetra&#45;&gt;union_5 -->
<g id="edge19" class="edge"><title>Tambapetra&#45;&gt;union_5</title>
<path fill="none" stroke="#f1c40f" d="M188.315,-195C200.938,-195 211.417,-195 216.733,-195"/>
</g>
<!-- siblings_5&#45;&gt;Pradapa -->
<g id="edge21" class="edge"><title>siblings_5&#45;&gt;Pradapa</title>
<path fill="none" stroke="#f1c40f" d="M258,-195.896C258,-201.478 258,-231.25 258,-231.25 258,-231.25 278.846,-231.25 278.846,-231.25"/>
<polygon fill="#f1c40f" stroke="#f1c40f" points="286.846,-221.25 286.847,-241.25 282.847,-241.25 282.846,-221.25 286.846,-221.25"/>
<polyline fill="none" stroke="#f1c40f" points="288.846,-231.25 278.846,-231.25 "/>
</g>
</g>
</svg>
