<?xml version="1.0" encoding="UTF-8" standalone="no"?>
<!DOCTYPE svg PUBLIC "-//W3C//DTD SVG 1.1//EN"
 "http://www.w3.org/Graphics/SVG/1.1/DTD/svg11.dtd">
<!-- Generated by graphviz version 2.38.0 (20140413.2041)
 -->
<!-- Title: G Pages: 1 -->
<svg width="766pt" height="168pt"
 viewBox="0.00 0.00 766.00 168.00" xmlns="http://www.w3.org/2000/svg" xmlns:xlink="http://www.w3.org/1999/xlink">
<g id="graph0" class="graph" transform="scale(1 1) rotate(0) translate(4 164)">
<title>G</title>
<polygon fill="white" stroke="none" points="-4,4 -4,-164 762,-164 762,4 -4,4"/>
<g id="clust1" class="cluster"><title>cluster_family_0</title>
</g>
<g id="clust4" class="cluster"><title>cluster_family_1</title>
</g>
<g id="clust7" class="cluster"><title>cluster_family_2</title>
</g>
<!-- union_0 -->
<g id="node1" class="node"><title>union_0</title>
<ellipse fill="#1abc9c" stroke="white" cx="501.5" cy="-53" rx="3.5" ry="3.5"/>
</g>
<!-- siblings_0 -->
<g id="node4" class="node"><title>siblings_0</title>
<polygon fill="#1abc9c" stroke="#cccccc" stroke-width="0" points="541,-53.5 534,-53.5 534,-52.5 541,-52.5 541,-53.5"/>
</g>
<!-- union_0&#45;&gt;siblings_0 -->
<g id="edge3" class="edge"><title>union_0&#45;&gt;siblings_0</title>
<path fill="none" stroke="#1abc9c" d="M505.083,-53C511.913,-53 526.732,-53 533.715,-53"/>
</g>
<!-- Samba -->
<g id="node2" class="node"><title>Samba</title>
<polygon fill="white" stroke="#cccccc" points="469,-98 289,-98 289,-62 469,-62 469,-98"/>
<text text-anchor="middle" x="379" y="-75.8" font-family="Helvetica, Arial, sans-serif" font-size="14.00">Samba</text>
</g>
<!-- Samba&#45;&gt;union_0 -->
<g id="edge1" class="edge"><title>Samba&#45;&gt;union_0</title>
<path fill="none" stroke="#1abc9c" d="M469.116,-66.5C488.348,-66.5 503,-66.5 503,-66.5 503,-66.5 503,-60.4059 503,-56.4066"/>
</g>
<!-- union_1 -->
<g id="node6" class="node"><title>union_1</title>
<ellipse fill="#2ecc71" stroke="white" cx="501.5" cy="-134" rx="3.5" ry="3.5"/>
</g>
<!-- Samba&#45;&gt;union_1 -->
<g id="edge5" class="edge"><title>Samba&#45;&gt;union_1</title>
<path fill="none" stroke="#2ecc71" d="M469.264,-84.5C487.391,-84.5 501,-84.5 501,-84.5 501,-84.5 501,-119.09 501,-130.44"/>
</g>
<!-- Hagnyanawati -->
<g id="node3" class="node"><title>Hagnyanawati</title>
<polygon fill="white" stroke="#cccccc" points="469,-44 289,-44 289,-8 469,-8 469,-44"/>
<text text-anchor="middle" x="379" y="-21.8" font-family="Helvetica, Arial, sans-serif" font-size="14.00">Hagnyanawati</text>
</g>
<!-- Hagnyanawati&#45;&gt;union_0 -->
<g id="edge2" class="edge"><title>Hagnyanawati&#45;&gt;union_0</title>
<path fill="none" stroke="#1abc9c" d="M469.038,-39.5C487.794,-39.5 502,-39.5 502,-39.5 502,-39.5 502,-45.314 502,-49.3111"/>
</g>
<!-- Dwara -->
<g id="node5" class="node"><title>Dwara</title>
<polygon fill="white" stroke="#cccccc" points="750,-71 570,-71 570,-35 750,-35 750,-71"/>
<text text-anchor="middle" x="660" y="-48.8" font-family="Helvetica, Arial, sans-serif" font-size="14.00">Dwara</text>
</g>
<!-- siblings_0&#45;&gt;Dwara -->
<g id="edge4" class="edge"><title>siblings_0&#45;&gt;Dwara</title>
<path fill="none" stroke="#1abc9c" d="M541.034,-53C541.034,-53 559.811,-53 559.811,-53"/>
<polygon fill="#1abc9c" stroke="#1abc9c" points="567.81,-43 567.811,-63 563.811,-63.0001 563.81,-43.0001 567.81,-43"/>
<polyline fill="none" stroke="#1abc9c" points="569.811,-53 559.811,-53.0001 "/>
</g>
<!-- siblings_1 -->
<g id="node8" class="node"><title>siblings_1</title>
<polygon fill="#2ecc71" stroke="#cccccc" stroke-width="0" points="541,-134.5 534,-134.5 534,-133.5 541,-133.5 541,-134.5"/>
</g>
<!-- union_1&#45;&gt;siblings_1 -->
<g id="edge7" class="edge"><title>union_1&#45;&gt;siblings_1</title>
<path fill="none" stroke="#2ecc71" d="M505.083,-134C511.913,-134 526.732,-134 533.715,-134"/>
</g>
<!-- Senggatawati -->
<g id="node7" class="node"><title>Senggatawati</title>
<polygon fill="white" stroke="#cccccc" points="469,-152 289,-152 289,-116 469,-116 469,-152"/>
<text text-anchor="middle" x="379" y="-129.8" font-family="Helvetica, Arial, sans-serif" font-size="14.00">Senggatawati</text>
</g>
<!-- Senggatawati&#45;&gt;union_1 -->
<g id="edge6" class="edge"><title>Senggatawati&#45;&gt;union_1</title>
<path fill="none" stroke="#2ecc71" d="M469.315,-134C481.938,-134 492.417,-134 497.733,-134"/>
</g>
<!-- Sunjoro -->
<g id="node9" class="node"><title>Sunjoro</title>
<polygon fill="white" stroke="#cccccc" points="750,-152 570,-152 570,-116 750,-116 750,-152"/>
<text text-anchor="middle" x="660" y="-129.8" font-family="Helvetica, Arial, sans-serif" font-size="14.00">Sunjoro</text>
</g>
<!-- siblings_1&#45;&gt;Sunjoro -->
<g id="edge8" class="edge"><title>siblings_1&#45;&gt;Sunjoro</title>
<path fill="none" stroke="#2ecc71" d="M541.034,-134C541.034,-134 559.811,-134 559.811,-134"/>
<polygon fill="#2ecc71" stroke="#2ecc71" points="567.81,-124 567.811,-144 563.811,-144 563.81,-124 567.81,-124"/>
<polyline fill="none" stroke="#2ecc71" points="569.811,-134 559.811,-134 "/>
</g>
<!-- union_2 -->
<g id="node10" class="node"><title>union_2</title>
<ellipse fill="#3498db" stroke="white" cx="220.5" cy="-80" rx="3.5" ry="3.5"/>
</g>
<!-- siblings_2 -->
<g id="node13" class="node"><title>siblings_2</title>
<polygon fill="#3498db" stroke="#cccccc" stroke-width="0" points="260,-80.5 253,-80.5 253,-79.5 260,-79.5 260,-80.5"/>
</g>
<!-- union_2&#45;&gt;siblings_2 -->
<g id="edge11" class="edge"><title>union_2&#45;&gt;siblings_2</title>
<path fill="none" stroke="#3498db" d="M224.083,-80C230.913,-80 245.732,-80 252.715,-80"/>
</g>
<!-- Kresna -->
<g id="node11" class="node"><title>Kresna</title>
<polygon fill="white" stroke="#cccccc" points="188,-152 8,-152 8,-116 188,-116 188,-152"/>
<text text-anchor="middle" x="98" y="-129.8" font-family="Helvetica, Arial, sans-serif" font-size="14.00">Kresna</text>
</g>
<!-- Kresna&#45;&gt;union_2 -->
<g id="edge9" class="edge"><title>Kresna&#45;&gt;union_2</title>
<path fill="none" stroke="#3498db" d="M188.038,-134C206.794,-134 221,-134 221,-134 221,-134 221,-95.5566 221,-83.5431"/>
</g>
<!-- Jembawati -->
<g id="node12" class="node"><title>Jembawati</title>
<polygon fill="white" stroke="#cccccc" points="188,-98 8,-98 8,-62 188,-62 188,-98"/>
<text text-anchor="middle" x="98" y="-75.8" font-family="Helvetica, Arial, sans-serif" font-size="14.00">Jembawati</text>
</g>
<!-- Jembawati&#45;&gt;union_2 -->
<g id="edge10" class="edge"><title>Jembawati&#45;&gt;union_2</title>
<path fill="none" stroke="#3498db" d="M188.315,-80C200.938,-80 211.417,-80 216.733,-80"/>
</g>
<!-- siblings_2&#45;&gt;Samba -->
<g id="edge12" class="edge"><title>siblings_2&#45;&gt;Samba</title>
<path fill="none" stroke="#3498db" d="M260.034,-80C260.034,-80 278.811,-80 278.811,-80"/>
<polygon fill="#3498db" stroke="#3498db" points="286.81,-70 286.811,-90 282.811,-90.0001 282.81,-70.0001 286.81,-70"/>
<polyline fill="none" stroke="#3498db" points="288.811,-80 278.811,-80.0001 "/>
</g>
</g>
</svg>
