<?xml version="1.0" encoding="UTF-8" standalone="no"?>
<!DOCTYPE svg PUBLIC "-//W3C//DTD SVG 1.1//EN"
 "http://www.w3.org/Graphics/SVG/1.1/DTD/svg11.dtd">
<!-- Generated by graphviz version 2.38.0 (20140413.2041)
 -->
<!-- Title: G Pages: 1 -->
<svg width="766pt" height="222pt"
 viewBox="0.00 0.00 766.00 222.00" xmlns="http://www.w3.org/2000/svg" xmlns:xlink="http://www.w3.org/1999/xlink">
<g id="graph0" class="graph" transform="scale(1 1) rotate(0) translate(4 218)">
<title>G</title>
<polygon fill="white" stroke="none" points="-4,4 -4,-218 762,-218 762,4 -4,4"/>
<g id="clust1" class="cluster"><title>cluster_family_0</title>
</g>
<g id="clust4" class="cluster"><title>cluster_family_1</title>
</g>
<g id="clust7" class="cluster"><title>cluster_family_2</title>
</g>
<!-- union_0 -->
<g id="node1" class="node"><title>union_0</title>
<ellipse fill="#1abc9c" stroke="white" cx="501.5" cy="-107" rx="3.5" ry="3.5"/>
</g>
<!-- siblings_0 -->
<g id="node4" class="node"><title>siblings_0</title>
<polygon fill="#1abc9c" stroke="#cccccc" stroke-width="0" points="541,-107.5 534,-107.5 534,-106.5 541,-106.5 541,-107.5"/>
</g>
<!-- union_0&#45;&gt;siblings_0 -->
<g id="edge3" class="edge"><title>union_0&#45;&gt;siblings_0</title>
<path fill="none" stroke="#1abc9c" d="M505.083,-107C511.913,-107 526.732,-107 533.715,-107"/>
</g>
<!-- Setyaboma -->
<g id="node2" class="node"><title>Setyaboma</title>
<polygon fill="white" stroke="#cccccc" points="469,-152 289,-152 289,-116 469,-116 469,-152"/>
<text text-anchor="middle" x="379" y="-129.8" font-family="Helvetica, Arial, sans-serif" font-size="14.00">Setyaboma</text>
</g>
<!-- Setyaboma&#45;&gt;union_0 -->
<g id="edge1" class="edge"><title>Setyaboma&#45;&gt;union_0</title>
<path fill="none" stroke="#1abc9c" d="M469.038,-120.5C487.794,-120.5 502,-120.5 502,-120.5 502,-120.5 502,-114.686 502,-110.689"/>
</g>
<!-- Kresna -->
<g id="node3" class="node"><title>Kresna</title>
<polygon fill="white" stroke="#cccccc" points="469,-98 289,-98 289,-62 469,-62 469,-98"/>
<text text-anchor="middle" x="379" y="-75.8" font-family="Helvetica, Arial, sans-serif" font-size="14.00">Kresna</text>
</g>
<!-- Kresna&#45;&gt;union_0 -->
<g id="edge2" class="edge"><title>Kresna&#45;&gt;union_0</title>
<path fill="none" stroke="#1abc9c" d="M469.038,-93.5C487.794,-93.5 502,-93.5 502,-93.5 502,-93.5 502,-99.314 502,-103.311"/>
</g>
<!-- Setyaka -->
<g id="node5" class="node"><title>Setyaka</title>
<polygon fill="white" stroke="#cccccc" points="750,-125 570,-125 570,-89 750,-89 750,-125"/>
<text text-anchor="middle" x="660" y="-102.8" font-family="Helvetica, Arial, sans-serif" font-size="14.00">Setyaka</text>
</g>
<!-- siblings_0&#45;&gt;Setyaka -->
<g id="edge4" class="edge"><title>siblings_0&#45;&gt;Setyaka</title>
<path fill="none" stroke="#1abc9c" d="M541.034,-107C541.034,-107 559.811,-107 559.811,-107"/>
<polygon fill="#1abc9c" stroke="#1abc9c" points="567.81,-97 567.811,-117 563.811,-117 563.81,-97.0001 567.81,-97"/>
<polyline fill="none" stroke="#1abc9c" points="569.811,-107 559.811,-107 "/>
</g>
<!-- union_1 -->
<g id="node6" class="node"><title>union_1</title>
<ellipse fill="#2ecc71" stroke="white" cx="220.5" cy="-134" rx="3.5" ry="3.5"/>
</g>
<!-- siblings_1 -->
<g id="node9" class="node"><title>siblings_1</title>
<polygon fill="#2ecc71" stroke="#cccccc" stroke-width="0" points="260,-134.5 253,-134.5 253,-133.5 260,-133.5 260,-134.5"/>
</g>
<!-- union_1&#45;&gt;siblings_1 -->
<g id="edge7" class="edge"><title>union_1&#45;&gt;siblings_1</title>
<path fill="none" stroke="#2ecc71" d="M224.083,-134C230.913,-134 245.732,-134 252.715,-134"/>
</g>
<!-- Ugrasena -->
<g id="node7" class="node"><title>Ugrasena</title>
<polygon fill="white" stroke="#cccccc" points="188,-206 8,-206 8,-170 188,-170 188,-206"/>
<text text-anchor="middle" x="98" y="-183.8" font-family="Helvetica, Arial, sans-serif" font-size="14.00">Ugrasena</text>
</g>
<!-- Ugrasena&#45;&gt;union_1 -->
<g id="edge5" class="edge"><title>Ugrasena&#45;&gt;union_1</title>
<path fill="none" stroke="#2ecc71" d="M188.038,-188C206.794,-188 221,-188 221,-188 221,-188 221,-149.557 221,-137.543"/>
</g>
<!-- Wersini -->
<g id="node8" class="node"><title>Wersini</title>
<polygon fill="white" stroke="#cccccc" points="188,-152 8,-152 8,-116 188,-116 188,-152"/>
<text text-anchor="middle" x="98" y="-129.8" font-family="Helvetica, Arial, sans-serif" font-size="14.00">Wersini</text>
</g>
<!-- Wersini&#45;&gt;union_1 -->
<g id="edge6" class="edge"><title>Wersini&#45;&gt;union_1</title>
<path fill="none" stroke="#2ecc71" d="M188.315,-134C200.938,-134 211.417,-134 216.733,-134"/>
</g>
<!-- siblings_1&#45;&gt;Setyaboma -->
<g id="edge8" class="edge"><title>siblings_1&#45;&gt;Setyaboma</title>
<path fill="none" stroke="#2ecc71" d="M260.034,-134C260.034,-134 278.811,-134 278.811,-134"/>
<polygon fill="#2ecc71" stroke="#2ecc71" points="286.81,-124 286.811,-144 282.811,-144 282.81,-124 286.81,-124"/>
<polyline fill="none" stroke="#2ecc71" points="288.811,-134 278.811,-134 "/>
</g>
<!-- union_2 -->
<g id="node10" class="node"><title>union_2</title>
<ellipse fill="#3498db" stroke="white" cx="220.5" cy="-80" rx="3.5" ry="3.5"/>
</g>
<!-- siblings_2 -->
<g id="node13" class="node"><title>siblings_2</title>
<polygon fill="#3498db" stroke="#cccccc" stroke-width="0" points="260,-80.5 253,-80.5 253,-79.5 260,-79.5 260,-80.5"/>
</g>
<!-- union_2&#45;&gt;siblings_2 -->
<g id="edge11" class="edge"><title>union_2&#45;&gt;siblings_2</title>
<path fill="none" stroke="#3498db" d="M224.083,-80C230.913,-80 245.732,-80 252.715,-80"/>
</g>
<!-- Mahindra -->
<g id="node11" class="node"><title>Mahindra</title>
<polygon fill="white" stroke="#cccccc" points="188,-98 8,-98 8,-62 188,-62 188,-98"/>
<text text-anchor="middle" x="98" y="-75.8" font-family="Helvetica, Arial, sans-serif" font-size="14.00">Mahindra</text>
</g>
<!-- Mahindra&#45;&gt;union_2 -->
<g id="edge9" class="edge"><title>Mahindra&#45;&gt;union_2</title>
<path fill="none" stroke="#3498db" d="M188.315,-80C200.938,-80 211.417,-80 216.733,-80"/>
</g>
<!-- Basudewa -->
<g id="node12" class="node"><title>Basudewa</title>
<polygon fill="white" stroke="#cccccc" points="188,-44 8,-44 8,-8 188,-8 188,-44"/>
<text text-anchor="middle" x="98" y="-21.8" font-family="Helvetica, Arial, sans-serif" font-size="14.00">Basudewa</text>
</g>
<!-- Basudewa&#45;&gt;union_2 -->
<g id="edge10" class="edge"><title>Basudewa&#45;&gt;union_2</title>
<path fill="none" stroke="#3498db" d="M188.038,-26C206.794,-26 221,-26 221,-26 221,-26 221,-64.4434 221,-76.4569"/>
</g>
<!-- siblings_2&#45;&gt;Kresna -->
<g id="edge12" class="edge"><title>siblings_2&#45;&gt;Kresna</title>
<path fill="none" stroke="#3498db" d="M260.034,-80C260.034,-80 278.811,-80 278.811,-80"/>
<polygon fill="#3498db" stroke="#3498db" points="286.81,-70 286.811,-90 282.811,-90.0001 282.81,-70.0001 286.81,-70"/>
<polyline fill="none" stroke="#3498db" points="288.811,-80 278.811,-80.0001 "/>
</g>
</g>
</svg>
