<?xml version="1.0" encoding="UTF-8" standalone="no"?>
<!DOCTYPE svg PUBLIC "-//W3C//DTD SVG 1.1//EN"
 "http://www.w3.org/Graphics/SVG/1.1/DTD/svg11.dtd">
<!-- Generated by graphviz version 2.38.0 (20140413.2041)
 -->
<!-- Title: G Pages: 1 -->
<svg width="521pt" height="114pt"
 viewBox="0.00 0.00 521.00 114.00" xmlns="http://www.w3.org/2000/svg" xmlns:xlink="http://www.w3.org/1999/xlink">
<g id="graph0" class="graph" transform="scale(1 1) rotate(0) translate(4 110)">
<title>G</title>
<polygon fill="white" stroke="none" points="-4,4 -4,-110 517,-110 517,4 -4,4"/>
<g id="clust1" class="cluster"><title>cluster_family_0</title>
</g>
<g id="clust4" class="cluster"><title>cluster_family_1</title>
</g>
<!-- union_0 -->
<g id="node1" class="node"><title>union_0</title>
<ellipse fill="#1abc9c" stroke="white" cx="256.5" cy="-53" rx="3.5" ry="3.5"/>
</g>
<!-- siblings_0 -->
<g id="node4" class="node"><title>siblings_0</title>
<polygon fill="#1abc9c" stroke="#cccccc" stroke-width="0" points="296,-53.5 289,-53.5 289,-52.5 296,-52.5 296,-53.5"/>
</g>
<!-- union_0&#45;&gt;siblings_0 -->
<g id="edge3" class="edge"><title>union_0&#45;&gt;siblings_0</title>
<path fill="none" stroke="#1abc9c" d="M260.083,-53C266.913,-53 281.732,-53 288.715,-53"/>
</g>
<!-- Setyaki -->
<g id="node2" class="node"><title>Setyaki</title>
<polygon fill="white" stroke="#cccccc" points="224,-98 44,-98 44,-62 224,-62 224,-98"/>
<text text-anchor="middle" x="134" y="-75.8" font-family="Helvetica, Arial, sans-serif" font-size="14.00">Setyaki</text>
</g>
<!-- Setyaki&#45;&gt;union_0 -->
<g id="edge1" class="edge"><title>Setyaki&#45;&gt;union_0</title>
<path fill="none" stroke="#1abc9c" d="M224.038,-66.5C242.794,-66.5 257,-66.5 257,-66.5 257,-66.5 257,-60.686 257,-56.6889"/>
</g>
<!-- Trirasa -->
<g id="node3" class="node"><title>Trirasa</title>
<polygon fill="white" stroke="#cccccc" points="224,-44 44,-44 44,-8 224,-8 224,-44"/>
<text text-anchor="middle" x="134" y="-21.8" font-family="Helvetica, Arial, sans-serif" font-size="14.00">Trirasa</text>
</g>
<!-- Trirasa&#45;&gt;union_0 -->
<g id="edge2" class="edge"><title>Trirasa&#45;&gt;union_0</title>
<path fill="none" stroke="#1abc9c" d="M224.038,-39.5C242.794,-39.5 257,-39.5 257,-39.5 257,-39.5 257,-45.314 257,-49.3111"/>
</g>
<!-- Arya_sanga&#45;sanga -->
<g id="node5" class="node"><title>Arya_sanga&#45;sanga</title>
<polygon fill="white" stroke="#cccccc" points="505,-71 325,-71 325,-35 505,-35 505,-71"/>
<text text-anchor="middle" x="415" y="-48.8" font-family="Helvetica, Arial, sans-serif" font-size="14.00">Arya_sanga&#45;sanga</text>
</g>
<!-- siblings_0&#45;&gt;Arya_sanga&#45;sanga -->
<g id="edge4" class="edge"><title>siblings_0&#45;&gt;Arya_sanga&#45;sanga</title>
<path fill="none" stroke="#1abc9c" d="M296.034,-53C296.034,-53 314.811,-53 314.811,-53"/>
<polygon fill="#1abc9c" stroke="#1abc9c" points="322.81,-43 322.811,-63 318.811,-63.0001 318.81,-43.0001 322.81,-43"/>
<polyline fill="none" stroke="#1abc9c" points="324.811,-53 314.811,-53.0001 "/>
</g>
<!-- siblings_1 -->
<g id="node6" class="node"><title>siblings_1</title>
<polygon fill="#2ecc71" stroke="#cccccc" stroke-width="0" points="15,-80.5 8,-80.5 8,-79.5 15,-79.5 15,-80.5"/>
</g>
<!-- siblings_1&#45;&gt;Setyaki -->
<g id="edge5" class="edge"><title>siblings_1&#45;&gt;Setyaki</title>
<path fill="none" stroke="#2ecc71" d="M15.0341,-80C15.0341,-80 33.8106,-80 33.8106,-80"/>
<polygon fill="#2ecc71" stroke="#2ecc71" points="41.8105,-70 41.8107,-90 37.8107,-90.0001 37.8105,-70.0001 41.8105,-70"/>
<polyline fill="none" stroke="#2ecc71" points="43.8106,-80 33.8106,-80.0001 "/>
</g>
</g>
</svg>
