<?xml version="1.0" encoding="UTF-8" standalone="no"?>
<!DOCTYPE svg PUBLIC "-//W3C//DTD SVG 1.1//EN"
 "http://www.w3.org/Graphics/SVG/1.1/DTD/svg11.dtd">
<!-- Generated by graphviz version 2.38.0 (20140413.2041)
 -->
<!-- Title: G Pages: 1 -->
<svg width="485pt" height="60pt"
 viewBox="0.00 0.00 485.00 60.00" xmlns="http://www.w3.org/2000/svg" xmlns:xlink="http://www.w3.org/1999/xlink">
<g id="graph0" class="graph" transform="scale(1 1) rotate(0) translate(4 56)">
<title>G</title>
<polygon fill="white" stroke="none" points="-4,4 -4,-56 481,-56 481,4 -4,4"/>
<g id="clust1" class="cluster"><title>cluster_family_0</title>
</g>
<!-- union_0 -->
<g id="node1" class="node"><title>union_0</title>
<ellipse fill="#1abc9c" stroke="white" cx="220.5" cy="-26" rx="3.5" ry="3.5"/>
</g>
<!-- siblings_0 -->
<g id="node3" class="node"><title>siblings_0</title>
<polygon fill="#1abc9c" stroke="#cccccc" stroke-width="0" points="260,-26.5 253,-26.5 253,-25.5 260,-25.5 260,-26.5"/>
</g>
<!-- union_0&#45;&gt;siblings_0 -->
<g id="edge2" class="edge"><title>union_0&#45;&gt;siblings_0</title>
<path fill="none" stroke="#1abc9c" d="M224.083,-26C230.913,-26 245.732,-26 252.715,-26"/>
</g>
<!-- Tambapetra -->
<g id="node2" class="node"><title>Tambapetra</title>
<polygon fill="white" stroke="#cccccc" points="188,-44 8,-44 8,-8 188,-8 188,-44"/>
<text text-anchor="middle" x="98" y="-21.8" font-family="Helvetica, Arial, sans-serif" font-size="14.00">Tambapetra</text>
</g>
<!-- Tambapetra&#45;&gt;union_0 -->
<g id="edge1" class="edge"><title>Tambapetra&#45;&gt;union_0</title>
<path fill="none" stroke="#1abc9c" d="M188.315,-26C200.938,-26 211.417,-26 216.733,-26"/>
</g>
<!-- Soka -->
<g id="node4" class="node"><title>Soka</title>
<polygon fill="white" stroke="#cccccc" points="469,-44 289,-44 289,-8 469,-8 469,-44"/>
<text text-anchor="middle" x="379" y="-21.8" font-family="Helvetica, Arial, sans-serif" font-size="14.00">Soka</text>
</g>
<!-- siblings_0&#45;&gt;Soka -->
<g id="edge3" class="edge"><title>siblings_0&#45;&gt;Soka</title>
<path fill="none" stroke="#1abc9c" d="M260.034,-26C260.034,-26 278.811,-26 278.811,-26"/>
<polygon fill="#1abc9c" stroke="#1abc9c" points="286.81,-16 286.811,-36 282.811,-36.0001 282.81,-16.0001 286.81,-16"/>
<polyline fill="none" stroke="#1abc9c" points="288.811,-26 278.811,-26.0001 "/>
</g>
</g>
</svg>
