<?xml version="1.0" encoding="UTF-8" standalone="no"?>
<!DOCTYPE svg PUBLIC "-//W3C//DTD SVG 1.1//EN"
 "http://www.w3.org/Graphics/SVG/1.1/DTD/svg11.dtd">
<!-- Generated by graphviz version 2.38.0 (20140413.2041)
 -->
<!-- Title: G Pages: 1 -->
<svg width="240pt" height="60pt"
 viewBox="0.00 0.00 240.00 60.00" xmlns="http://www.w3.org/2000/svg" xmlns:xlink="http://www.w3.org/1999/xlink">
<g id="graph0" class="graph" transform="scale(1 1) rotate(0) translate(4 56)">
<title>G</title>
<polygon fill="white" stroke="none" points="-4,4 -4,-56 236,-56 236,4 -4,4"/>
<g id="clust1" class="cluster"><title>cluster_family_0</title>
</g>
<!-- siblings_0 -->
<g id="node1" class="node"><title>siblings_0</title>
<polygon fill="#1abc9c" stroke="#cccccc" stroke-width="0" points="15,-26.5 8,-26.5 8,-25.5 15,-25.5 15,-26.5"/>
</g>
<!-- Surati_Mantra -->
<g id="node2" class="node"><title>Surati_Mantra</title>
<polygon fill="white" stroke="#cccccc" points="224,-44 44,-44 44,-8 224,-8 224,-44"/>
<text text-anchor="middle" x="134" y="-21.8" font-family="Helvetica, Arial, sans-serif" font-size="14.00">Surati_Mantra</text>
</g>
<!-- siblings_0&#45;&gt;Surati_Mantra -->
<g id="edge1" class="edge"><title>siblings_0&#45;&gt;Surati_Mantra</title>
<path fill="none" stroke="#1abc9c" d="M15.0341,-26C15.0341,-26 33.8106,-26 33.8106,-26"/>
<polygon fill="#1abc9c" stroke="#1abc9c" points="41.8105,-16 41.8107,-36 37.8107,-36.0001 37.8105,-16.0001 41.8105,-16"/>
<polyline fill="none" stroke="#1abc9c" points="43.8106,-26 33.8106,-26.0001 "/>
</g>
</g>
</svg>
