<?xml version="1.0" encoding="UTF-8" standalone="no"?>
<!DOCTYPE svg PUBLIC "-//W3C//DTD SVG 1.1//EN"
 "http://www.w3.org/Graphics/SVG/1.1/DTD/svg11.dtd">
<!-- Generated by graphviz version 2.38.0 (20140413.2041)
 -->
<!-- Title: G Pages: 1 -->
<svg width="766pt" height="229pt"
 viewBox="0.00 0.00 766.00 229.00" xmlns="http://www.w3.org/2000/svg" xmlns:xlink="http://www.w3.org/1999/xlink">
<g id="graph0" class="graph" transform="scale(1 1) rotate(0) translate(4 225)">
<title>G</title>
<polygon fill="white" stroke="none" points="-4,4 -4,-225 762,-225 762,4 -4,4"/>
<g id="clust1" class="cluster"><title>cluster_family_0</title>
</g>
<g id="clust4" class="cluster"><title>cluster_family_1</title>
</g>
<g id="clust7" class="cluster"><title>cluster_family_2</title>
</g>
<!-- union_0 -->
<g id="node1" class="node"><title>union_0</title>
<ellipse fill="#1abc9c" stroke="white" cx="501.5" cy="-114" rx="3.5" ry="3.5"/>
</g>
<!-- siblings_0 -->
<g id="node4" class="node"><title>siblings_0</title>
<polygon fill="#1abc9c" stroke="#cccccc" stroke-width="0" points="541,-114.5 534,-114.5 534,-113.5 541,-113.5 541,-114.5"/>
</g>
<!-- union_0&#45;&gt;siblings_0 -->
<g id="edge3" class="edge"><title>union_0&#45;&gt;siblings_0</title>
<path fill="none" stroke="#1abc9c" d="M505.083,-114C511.913,-114 526.732,-114 533.715,-114"/>
</g>
<!-- Surtikanthi -->
<g id="node2" class="node"><title>Surtikanthi</title>
<polygon fill="white" stroke="#cccccc" points="469,-152 289,-152 289,-116 469,-116 469,-152"/>
<text text-anchor="middle" x="379" y="-129.8" font-family="Helvetica, Arial, sans-serif" font-size="14.00">Surtikanthi</text>
</g>
<!-- Surtikanthi&#45;&gt;union_0 -->
<g id="edge1" class="edge"><title>Surtikanthi&#45;&gt;union_0</title>
<path fill="none" stroke="#1abc9c" d="M469.038,-142.333C487.794,-142.333 502,-142.333 502,-142.333 502,-142.333 502,-125.04 502,-117.474"/>
</g>
<!-- Karna -->
<g id="node3" class="node"><title>Karna</title>
<polygon fill="white" stroke="#cccccc" points="469,-98 289,-98 289,-62 469,-62 469,-98"/>
<text text-anchor="middle" x="379" y="-75.8" font-family="Helvetica, Arial, sans-serif" font-size="14.00">Karna</text>
</g>
<!-- Karna&#45;&gt;union_0 -->
<g id="edge2" class="edge"><title>Karna&#45;&gt;union_0</title>
<path fill="none" stroke="#1abc9c" d="M469.038,-83.5C487.794,-83.5 502,-83.5 502,-83.5 502,-83.5 502,-102.116 502,-110.26"/>
</g>
<!-- Kardana -->
<g id="node5" class="node"><title>Kardana</title>
<polygon fill="white" stroke="#cccccc" points="750,-51 570,-51 570,-15 750,-15 750,-51"/>
<text text-anchor="middle" x="660" y="-28.8" font-family="Helvetica, Arial, sans-serif" font-size="14.00">Kardana</text>
</g>
<!-- siblings_0&#45;&gt;Kardana -->
<g id="edge4" class="edge"><title>siblings_0&#45;&gt;Kardana</title>
<path fill="none" stroke="#1abc9c" d="M537,-113.253C537,-105.947 537,-47.5 537,-47.5 537,-47.5 559.962,-47.5 559.962,-47.5"/>
<polygon fill="#1abc9c" stroke="#1abc9c" points="567.962,-37.5 567.962,-57.5 563.962,-57.5001 563.962,-37.5001 567.962,-37.5"/>
<polyline fill="none" stroke="#1abc9c" points="569.962,-47.5 559.962,-47.5001 "/>
</g>
<!-- Warsasena -->
<g id="node6" class="node"><title>Warsasena</title>
<polygon fill="white" stroke="#cccccc" points="750,-105 570,-105 570,-69 750,-69 750,-105"/>
<text text-anchor="middle" x="660" y="-82.8" font-family="Helvetica, Arial, sans-serif" font-size="14.00">Warsasena</text>
</g>
<!-- siblings_0&#45;&gt;Warsasena -->
<g id="edge5" class="edge"><title>siblings_0&#45;&gt;Warsasena</title>
<path fill="none" stroke="#1abc9c" d="M539,-113.463C539,-111.07 539,-101.5 539,-101.5 539,-101.5 559.846,-101.5 559.846,-101.5"/>
<polygon fill="#1abc9c" stroke="#1abc9c" points="567.846,-91.5 567.847,-111.5 563.847,-111.5 563.846,-91.5001 567.846,-91.5"/>
<polyline fill="none" stroke="#1abc9c" points="569.846,-101.5 559.846,-101.5 "/>
</g>
<!-- Warsakusuma -->
<g id="node7" class="node"><title>Warsakusuma</title>
<polygon fill="white" stroke="#cccccc" points="750,-159 570,-159 570,-123 750,-123 750,-159"/>
<text text-anchor="middle" x="660" y="-136.8" font-family="Helvetica, Arial, sans-serif" font-size="14.00">Warsakusuma</text>
</g>
<!-- siblings_0&#45;&gt;Warsakusuma -->
<g id="edge6" class="edge"><title>siblings_0&#45;&gt;Warsakusuma</title>
<path fill="none" stroke="#1abc9c" d="M539,-114.802C539,-118.375 539,-132.667 539,-132.667 539,-132.667 559.846,-132.667 559.846,-132.667"/>
<polygon fill="#1abc9c" stroke="#1abc9c" points="567.846,-122.667 567.847,-142.667 563.847,-142.667 563.846,-122.667 567.846,-122.667"/>
<polyline fill="none" stroke="#1abc9c" points="569.846,-132.667 559.846,-132.667 "/>
</g>
<!-- Karnawati -->
<g id="node8" class="node"><title>Karnawati</title>
<polygon fill="white" stroke="#cccccc" points="750,-213 570,-213 570,-177 750,-177 750,-213"/>
<text text-anchor="middle" x="660" y="-190.8" font-family="Helvetica, Arial, sans-serif" font-size="14.00">Karnawati</text>
</g>
<!-- siblings_0&#45;&gt;Karnawati -->
<g id="edge7" class="edge"><title>siblings_0&#45;&gt;Karnawati</title>
<path fill="none" stroke="#1abc9c" d="M537,-114.87C537,-123.385 537,-191.5 537,-191.5 537,-191.5 559.962,-191.5 559.962,-191.5"/>
<polygon fill="#1abc9c" stroke="#1abc9c" points="567.962,-181.5 567.962,-201.5 563.962,-201.5 563.962,-181.5 567.962,-181.5"/>
<polyline fill="none" stroke="#1abc9c" points="569.962,-191.5 559.962,-191.5 "/>
</g>
<!-- union_1 -->
<g id="node9" class="node"><title>union_1</title>
<ellipse fill="#2ecc71" stroke="white" cx="220.5" cy="-134" rx="3.5" ry="3.5"/>
</g>
<!-- siblings_1 -->
<g id="node12" class="node"><title>siblings_1</title>
<polygon fill="#2ecc71" stroke="#cccccc" stroke-width="0" points="260,-134.5 253,-134.5 253,-133.5 260,-133.5 260,-134.5"/>
</g>
<!-- union_1&#45;&gt;siblings_1 -->
<g id="edge10" class="edge"><title>union_1&#45;&gt;siblings_1</title>
<path fill="none" stroke="#2ecc71" d="M224.083,-134C230.913,-134 245.732,-134 252.715,-134"/>
</g>
<!-- Salya -->
<g id="node10" class="node"><title>Salya</title>
<polygon fill="white" stroke="#cccccc" points="188,-206 8,-206 8,-170 188,-170 188,-206"/>
<text text-anchor="middle" x="98" y="-183.8" font-family="Helvetica, Arial, sans-serif" font-size="14.00">Salya</text>
</g>
<!-- Salya&#45;&gt;union_1 -->
<g id="edge8" class="edge"><title>Salya&#45;&gt;union_1</title>
<path fill="none" stroke="#2ecc71" d="M188.038,-173.5C206.794,-173.5 221,-173.5 221,-173.5 221,-173.5 221,-147.424 221,-137.645"/>
</g>
<!-- Pujawati -->
<g id="node11" class="node"><title>Pujawati</title>
<polygon fill="white" stroke="#cccccc" points="188,-152 8,-152 8,-116 188,-116 188,-152"/>
<text text-anchor="middle" x="98" y="-129.8" font-family="Helvetica, Arial, sans-serif" font-size="14.00">Pujawati</text>
</g>
<!-- Pujawati&#45;&gt;union_1 -->
<g id="edge9" class="edge"><title>Pujawati&#45;&gt;union_1</title>
<path fill="none" stroke="#2ecc71" d="M188.315,-134C200.938,-134 211.417,-134 216.733,-134"/>
</g>
<!-- siblings_1&#45;&gt;Surtikanthi -->
<g id="edge11" class="edge"><title>siblings_1&#45;&gt;Surtikanthi</title>
<path fill="none" stroke="#2ecc71" d="M260.034,-134C260.034,-134 278.811,-134 278.811,-134"/>
<polygon fill="#2ecc71" stroke="#2ecc71" points="286.81,-124 286.811,-144 282.811,-144 282.81,-124 286.81,-124"/>
<polyline fill="none" stroke="#2ecc71" points="288.811,-134 278.811,-134 "/>
</g>
<!-- union_2 -->
<g id="node13" class="node"><title>union_2</title>
<ellipse fill="#3498db" stroke="white" cx="220.5" cy="-80" rx="3.5" ry="3.5"/>
</g>
<!-- siblings_2 -->
<g id="node16" class="node"><title>siblings_2</title>
<polygon fill="#3498db" stroke="#cccccc" stroke-width="0" points="260,-80.5 253,-80.5 253,-79.5 260,-79.5 260,-80.5"/>
</g>
<!-- union_2&#45;&gt;siblings_2 -->
<g id="edge14" class="edge"><title>union_2&#45;&gt;siblings_2</title>
<path fill="none" stroke="#3498db" d="M224.083,-80C230.913,-80 245.732,-80 252.715,-80"/>
</g>
<!-- Kunti -->
<g id="node14" class="node"><title>Kunti</title>
<polygon fill="white" stroke="#cccccc" points="188,-98 8,-98 8,-62 188,-62 188,-98"/>
<text text-anchor="middle" x="98" y="-75.8" font-family="Helvetica, Arial, sans-serif" font-size="14.00">Kunti</text>
</g>
<!-- Kunti&#45;&gt;union_2 -->
<g id="edge12" class="edge"><title>Kunti&#45;&gt;union_2</title>
<path fill="none" stroke="#3498db" d="M188.315,-80C200.938,-80 211.417,-80 216.733,-80"/>
</g>
<!-- Surya -->
<g id="node15" class="node"><title>Surya</title>
<polygon fill="white" stroke="#cccccc" points="188,-44 8,-44 8,-8 188,-8 188,-44"/>
<text text-anchor="middle" x="98" y="-21.8" font-family="Helvetica, Arial, sans-serif" font-size="14.00">Surya</text>
</g>
<!-- Surya&#45;&gt;union_2 -->
<g id="edge13" class="edge"><title>Surya&#45;&gt;union_2</title>
<path fill="none" stroke="#3498db" d="M188.038,-29.5C206.794,-29.5 221,-29.5 221,-29.5 221,-29.5 221,-64.789 221,-76.3682"/>
</g>
<!-- siblings_2&#45;&gt;Karna -->
<g id="edge15" class="edge"><title>siblings_2&#45;&gt;Karna</title>
<path fill="none" stroke="#3498db" d="M260.034,-80C260.034,-80 278.811,-80 278.811,-80"/>
<polygon fill="#3498db" stroke="#3498db" points="286.81,-70 286.811,-90 282.811,-90.0001 282.81,-70.0001 286.81,-70"/>
<polyline fill="none" stroke="#3498db" points="288.811,-80 278.811,-80.0001 "/>
</g>
</g>
</svg>
