<?xml version="1.0" encoding="UTF-8" standalone="no"?>
<!DOCTYPE svg PUBLIC "-//W3C//DTD SVG 1.1//EN"
 "http://www.w3.org/Graphics/SVG/1.1/DTD/svg11.dtd">
<!-- Generated by graphviz version 2.38.0 (20140413.2041)
 -->
<!-- Title: G Pages: 1 -->
<svg width="766pt" height="438pt"
 viewBox="0.00 0.00 766.00 438.00" xmlns="http://www.w3.org/2000/svg" xmlns:xlink="http://www.w3.org/1999/xlink">
<g id="graph0" class="graph" transform="scale(1 1) rotate(0) translate(4 434)">
<title>G</title>
<polygon fill="white" stroke="none" points="-4,4 -4,-434 762,-434 762,4 -4,4"/>
<g id="clust1" class="cluster"><title>cluster_family_0</title>
</g>
<g id="clust4" class="cluster"><title>cluster_family_1</title>
</g>
<g id="clust7" class="cluster"><title>cluster_family_2</title>
</g>
<g id="clust10" class="cluster"><title>cluster_family_3</title>
</g>
<g id="clust13" class="cluster"><title>cluster_family_4</title>
</g>
<!-- union_0 -->
<g id="node1" class="node"><title>union_0</title>
<ellipse fill="#1abc9c" stroke="white" cx="501.5" cy="-377" rx="3.5" ry="3.5"/>
</g>
<!-- siblings_0 -->
<g id="node4" class="node"><title>siblings_0</title>
<polygon fill="#1abc9c" stroke="#cccccc" stroke-width="0" points="541,-377.5 534,-377.5 534,-376.5 541,-376.5 541,-377.5"/>
</g>
<!-- union_0&#45;&gt;siblings_0 -->
<g id="edge3" class="edge"><title>union_0&#45;&gt;siblings_0</title>
<path fill="none" stroke="#1abc9c" d="M505.083,-377C511.913,-377 526.732,-377 533.715,-377"/>
</g>
<!-- Surya -->
<g id="node2" class="node"><title>Surya</title>
<polygon fill="white" stroke="#cccccc" points="469,-368 289,-368 289,-332 469,-332 469,-368"/>
<text text-anchor="middle" x="379" y="-345.8" font-family="Helvetica, Arial, sans-serif" font-size="14.00">Surya</text>
</g>
<!-- Surya&#45;&gt;union_0 -->
<g id="edge1" class="edge"><title>Surya&#45;&gt;union_0</title>
<path fill="none" stroke="#1abc9c" d="M469.116,-363.5C488.348,-363.5 503,-363.5 503,-363.5 503,-363.5 503,-369.594 503,-373.593"/>
</g>
<!-- union_1 -->
<g id="node6" class="node"><title>union_1</title>
<ellipse fill="#2ecc71" stroke="white" cx="501.5" cy="-296" rx="3.5" ry="3.5"/>
</g>
<!-- Surya&#45;&gt;union_1 -->
<g id="edge5" class="edge"><title>Surya&#45;&gt;union_1</title>
<path fill="none" stroke="#2ecc71" d="M469.264,-352.25C487.391,-352.25 501,-352.25 501,-352.25 501,-352.25 501,-312.205 501,-299.691"/>
</g>
<!-- union_2 -->
<g id="node10" class="node"><title>union_2</title>
<ellipse fill="#3498db" stroke="white" cx="501.5" cy="-188" rx="3.5" ry="3.5"/>
</g>
<!-- Surya&#45;&gt;union_2 -->
<g id="edge9" class="edge"><title>Surya&#45;&gt;union_2</title>
<path fill="none" stroke="#3498db" d="M469.08,-345.5C480.893,-345.5 489,-345.5 489,-345.5 489,-345.5 489,-189.167 489,-189.167 489,-189.167 494.383,-189.167 498.084,-189.167"/>
</g>
<!-- union_3 -->
<g id="node17" class="node"><title>union_3</title>
<ellipse fill="#9b59b6" stroke="white" cx="501.5" cy="-26" rx="3.5" ry="3.5"/>
</g>
<!-- Surya&#45;&gt;union_3 -->
<g id="edge16" class="edge"><title>Surya&#45;&gt;union_3</title>
<path fill="none" stroke="#9b59b6" d="M469.046,-338.75C475.185,-338.75 479,-338.75 479,-338.75 479,-338.75 479,-27.1667 479,-27.1667 479,-27.1667 491.656,-27.1667 497.984,-27.1667"/>
</g>
<!-- (Kunti) -->
<g id="node3" class="node"><title>(Kunti)</title>
<polygon fill="white" stroke="#cccccc" points="469,-422 289,-422 289,-386 469,-386 469,-422"/>
<text text-anchor="middle" x="379" y="-399.8" font-family="Helvetica, Arial, sans-serif" font-size="14.00">(Kunti)</text>
</g>
<!-- (Kunti)&#45;&gt;union_0 -->
<g id="edge2" class="edge"><title>(Kunti)&#45;&gt;union_0</title>
<path fill="none" stroke="#1abc9c" d="M469.038,-390.5C487.794,-390.5 502,-390.5 502,-390.5 502,-390.5 502,-384.686 502,-380.689"/>
</g>
<!-- (Karna) -->
<g id="node5" class="node"><title>(Karna)</title>
<polygon fill="white" stroke="#cccccc" points="750,-395 570,-395 570,-359 750,-359 750,-395"/>
<text text-anchor="middle" x="660" y="-372.8" font-family="Helvetica, Arial, sans-serif" font-size="14.00">(Karna)</text>
</g>
<!-- siblings_0&#45;&gt;(Karna) -->
<g id="edge4" class="edge"><title>siblings_0&#45;&gt;(Karna)</title>
<path fill="none" stroke="#1abc9c" d="M541.034,-377C541.034,-377 559.811,-377 559.811,-377"/>
<polygon fill="#1abc9c" stroke="#1abc9c" points="567.81,-367 567.811,-387 563.811,-387 563.81,-367 567.81,-367"/>
<polyline fill="none" stroke="#1abc9c" points="569.811,-377 559.811,-377 "/>
</g>
<!-- siblings_1 -->
<g id="node8" class="node"><title>siblings_1</title>
<polygon fill="#2ecc71" stroke="#cccccc" stroke-width="0" points="541,-296.5 534,-296.5 534,-295.5 541,-295.5 541,-296.5"/>
</g>
<!-- union_1&#45;&gt;siblings_1 -->
<g id="edge7" class="edge"><title>union_1&#45;&gt;siblings_1</title>
<path fill="none" stroke="#2ecc71" d="M505.083,-296C511.913,-296 526.732,-296 533.715,-296"/>
</g>
<!-- Ngruna -->
<g id="node7" class="node"><title>Ngruna</title>
<polygon fill="white" stroke="#cccccc" points="469,-314 289,-314 289,-278 469,-278 469,-314"/>
<text text-anchor="middle" x="379" y="-291.8" font-family="Helvetica, Arial, sans-serif" font-size="14.00">Ngruna</text>
</g>
<!-- Ngruna&#45;&gt;union_1 -->
<g id="edge6" class="edge"><title>Ngruna&#45;&gt;union_1</title>
<path fill="none" stroke="#2ecc71" d="M469.315,-296C481.938,-296 492.417,-296 497.733,-296"/>
</g>
<!-- Suwarno -->
<g id="node9" class="node"><title>Suwarno</title>
<polygon fill="white" stroke="#cccccc" points="750,-314 570,-314 570,-278 750,-278 750,-314"/>
<text text-anchor="middle" x="660" y="-291.8" font-family="Helvetica, Arial, sans-serif" font-size="14.00">Suwarno</text>
</g>
<!-- siblings_1&#45;&gt;Suwarno -->
<g id="edge8" class="edge"><title>siblings_1&#45;&gt;Suwarno</title>
<path fill="none" stroke="#2ecc71" d="M541.034,-296C541.034,-296 559.811,-296 559.811,-296"/>
<polygon fill="#2ecc71" stroke="#2ecc71" points="567.81,-286 567.811,-306 563.811,-306 563.81,-286 567.81,-286"/>
<polyline fill="none" stroke="#2ecc71" points="569.811,-296 559.811,-296 "/>
</g>
<!-- siblings_2 -->
<g id="node12" class="node"><title>siblings_2</title>
<polygon fill="#3498db" stroke="#cccccc" stroke-width="0" points="541,-188.5 534,-188.5 534,-187.5 541,-187.5 541,-188.5"/>
</g>
<!-- union_2&#45;&gt;siblings_2 -->
<g id="edge11" class="edge"><title>union_2&#45;&gt;siblings_2</title>
<path fill="none" stroke="#3498db" d="M505.083,-188C511.913,-188 526.732,-188 533.715,-188"/>
</g>
<!-- Ngruni -->
<g id="node11" class="node"><title>Ngruni</title>
<polygon fill="white" stroke="#cccccc" points="469,-206 289,-206 289,-170 469,-170 469,-206"/>
<text text-anchor="middle" x="379" y="-183.8" font-family="Helvetica, Arial, sans-serif" font-size="14.00">Ngruni</text>
</g>
<!-- Ngruni&#45;&gt;union_2 -->
<g id="edge10" class="edge"><title>Ngruni&#45;&gt;union_2</title>
<path fill="none" stroke="#3498db" d="M469.315,-186.833C482.225,-186.833 492.892,-186.833 498.088,-186.833"/>
</g>
<!-- Suryawati -->
<g id="node13" class="node"><title>Suryawati</title>
<polygon fill="white" stroke="#cccccc" points="750,-206 570,-206 570,-170 750,-170 750,-206"/>
<text text-anchor="middle" x="660" y="-183.8" font-family="Helvetica, Arial, sans-serif" font-size="14.00">Suryawati</text>
</g>
<!-- siblings_2&#45;&gt;Suryawati -->
<g id="edge12" class="edge"><title>siblings_2&#45;&gt;Suryawati</title>
<path fill="none" stroke="#3498db" d="M541.034,-188C541.034,-188 559.811,-188 559.811,-188"/>
<polygon fill="#3498db" stroke="#3498db" points="567.81,-178 567.811,-198 563.811,-198 563.81,-178 567.81,-178"/>
<polyline fill="none" stroke="#3498db" points="569.811,-188 559.811,-188 "/>
</g>
<!-- Suryanirada -->
<g id="node14" class="node"><title>Suryanirada</title>
<polygon fill="white" stroke="#cccccc" points="750,-260 570,-260 570,-224 750,-224 750,-260"/>
<text text-anchor="middle" x="660" y="-237.8" font-family="Helvetica, Arial, sans-serif" font-size="14.00">Suryanirada</text>
</g>
<!-- siblings_2&#45;&gt;Suryanirada -->
<g id="edge13" class="edge"><title>siblings_2&#45;&gt;Suryanirada</title>
<path fill="none" stroke="#3498db" d="M538,-188.606C538,-194.539 538,-242 538,-242 538,-242 559.736,-242 559.736,-242"/>
<polygon fill="#3498db" stroke="#3498db" points="567.735,-232 567.736,-252 563.736,-252 563.735,-232 567.735,-232"/>
<polyline fill="none" stroke="#3498db" points="569.736,-242 559.736,-242 "/>
</g>
<!-- (Sampati) -->
<g id="node15" class="node"><title>(Sampati)</title>
<polygon fill="white" stroke="#cccccc" points="750,-98 570,-98 570,-62 750,-62 750,-98"/>
<text text-anchor="middle" x="660" y="-75.8" font-family="Helvetica, Arial, sans-serif" font-size="14.00">(Sampati)</text>
</g>
<!-- siblings_2&#45;&gt;(Sampati) -->
<g id="edge14" class="edge"><title>siblings_2&#45;&gt;(Sampati)</title>
<path fill="none" stroke="#3498db" d="M537,-187.31C537,-178.112 537,-80 537,-80 537,-80 559.962,-80 559.962,-80"/>
<polygon fill="#3498db" stroke="#3498db" points="567.962,-70 567.962,-90 563.962,-90.0001 563.962,-70.0001 567.962,-70"/>
<polyline fill="none" stroke="#3498db" points="569.962,-80 559.962,-80.0001 "/>
</g>
<!-- (Jatayu) -->
<g id="node16" class="node"><title>(Jatayu)</title>
<polygon fill="white" stroke="#cccccc" points="750,-152 570,-152 570,-116 750,-116 750,-152"/>
<text text-anchor="middle" x="660" y="-129.8" font-family="Helvetica, Arial, sans-serif" font-size="14.00">(Jatayu)</text>
</g>
<!-- siblings_2&#45;&gt;(Jatayu) -->
<g id="edge15" class="edge"><title>siblings_2&#45;&gt;(Jatayu)</title>
<path fill="none" stroke="#3498db" d="M539,-187.394C539,-181.461 539,-134 539,-134 539,-134 559.846,-134 559.846,-134"/>
<polygon fill="#3498db" stroke="#3498db" points="567.846,-124 567.847,-144 563.847,-144 563.846,-124 567.846,-124"/>
<polyline fill="none" stroke="#3498db" points="569.846,-134 559.846,-134 "/>
</g>
<!-- siblings_3 -->
<g id="node19" class="node"><title>siblings_3</title>
<polygon fill="#9b59b6" stroke="#cccccc" stroke-width="0" points="541,-26.5 534,-26.5 534,-25.5 541,-25.5 541,-26.5"/>
</g>
<!-- union_3&#45;&gt;siblings_3 -->
<g id="edge18" class="edge"><title>union_3&#45;&gt;siblings_3</title>
<path fill="none" stroke="#9b59b6" d="M505.083,-26C511.913,-26 526.732,-26 533.715,-26"/>
</g>
<!-- Haruni -->
<g id="node18" class="node"><title>Haruni</title>
<polygon fill="white" stroke="#cccccc" points="469,-44 289,-44 289,-8 469,-8 469,-44"/>
<text text-anchor="middle" x="379" y="-21.8" font-family="Helvetica, Arial, sans-serif" font-size="14.00">Haruni</text>
</g>
<!-- Haruni&#45;&gt;union_3 -->
<g id="edge17" class="edge"><title>Haruni&#45;&gt;union_3</title>
<path fill="none" stroke="#9b59b6" d="M469.315,-24.8333C482.225,-24.8333 492.892,-24.8333 498.088,-24.8333"/>
</g>
<!-- Rawiatmaja -->
<g id="node20" class="node"><title>Rawiatmaja</title>
<polygon fill="white" stroke="#cccccc" points="750,-44 570,-44 570,-8 750,-8 750,-44"/>
<text text-anchor="middle" x="660" y="-21.8" font-family="Helvetica, Arial, sans-serif" font-size="14.00">Rawiatmaja</text>
</g>
<!-- siblings_3&#45;&gt;Rawiatmaja -->
<g id="edge19" class="edge"><title>siblings_3&#45;&gt;Rawiatmaja</title>
<path fill="none" stroke="#9b59b6" d="M541.034,-26C541.034,-26 559.811,-26 559.811,-26"/>
<polygon fill="#9b59b6" stroke="#9b59b6" points="567.81,-16 567.811,-36 563.811,-36.0001 563.81,-16.0001 567.81,-16"/>
<polyline fill="none" stroke="#9b59b6" points="569.811,-26 559.811,-26.0001 "/>
</g>
<!-- union_4 -->
<g id="node21" class="node"><title>union_4</title>
<ellipse fill="#34495e" stroke="white" cx="220.5" cy="-350" rx="3.5" ry="3.5"/>
</g>
<!-- siblings_4 -->
<g id="node24" class="node"><title>siblings_4</title>
<polygon fill="#34495e" stroke="#cccccc" stroke-width="0" points="260,-350.5 253,-350.5 253,-349.5 260,-349.5 260,-350.5"/>
</g>
<!-- union_4&#45;&gt;siblings_4 -->
<g id="edge22" class="edge"><title>union_4&#45;&gt;siblings_4</title>
<path fill="none" stroke="#34495e" d="M224.083,-350C230.913,-350 245.732,-350 252.715,-350"/>
</g>
<!-- Ismaya(Semar) -->
<g id="node22" class="node"><title>Ismaya(Semar)</title>
<polygon fill="white" stroke="#cccccc" points="188,-422 8,-422 8,-386 188,-386 188,-422"/>
<text text-anchor="middle" x="98" y="-399.8" font-family="Helvetica, Arial, sans-serif" font-size="14.00">Ismaya(Semar)</text>
</g>
<!-- Ismaya(Semar)&#45;&gt;union_4 -->
<g id="edge20" class="edge"><title>Ismaya(Semar)&#45;&gt;union_4</title>
<path fill="none" stroke="#34495e" d="M188.038,-404C206.794,-404 221,-404 221,-404 221,-404 221,-365.557 221,-353.543"/>
</g>
<!-- Senggani -->
<g id="node23" class="node"><title>Senggani</title>
<polygon fill="white" stroke="#cccccc" points="188,-368 8,-368 8,-332 188,-332 188,-368"/>
<text text-anchor="middle" x="98" y="-345.8" font-family="Helvetica, Arial, sans-serif" font-size="14.00">Senggani</text>
</g>
<!-- Senggani&#45;&gt;union_4 -->
<g id="edge21" class="edge"><title>Senggani&#45;&gt;union_4</title>
<path fill="none" stroke="#34495e" d="M188.315,-350C200.938,-350 211.417,-350 216.733,-350"/>
</g>
<!-- siblings_4&#45;&gt;Surya -->
<g id="edge23" class="edge"><title>siblings_4&#45;&gt;Surya</title>
<path fill="none" stroke="#34495e" d="M260.034,-350C260.034,-350 278.811,-350 278.811,-350"/>
<polygon fill="#34495e" stroke="#34495e" points="286.81,-340 286.811,-360 282.811,-360 282.81,-340 286.81,-340"/>
<polyline fill="none" stroke="#34495e" points="288.811,-350 278.811,-350 "/>
</g>
</g>
</svg>
