<?xml version="1.0" encoding="UTF-8" standalone="no"?>
<!DOCTYPE svg PUBLIC "-//W3C//DTD SVG 1.1//EN"
 "http://www.w3.org/Graphics/SVG/1.1/DTD/svg11.dtd">
<!-- Generated by graphviz version 2.38.0 (20140413.2041)
 -->
<!-- Title: G Pages: 1 -->
<svg width="766pt" height="182pt"
 viewBox="0.00 0.00 766.00 182.00" xmlns="http://www.w3.org/2000/svg" xmlns:xlink="http://www.w3.org/1999/xlink">
<g id="graph0" class="graph" transform="scale(1 1) rotate(0) translate(4 178)">
<title>G</title>
<polygon fill="white" stroke="none" points="-4,4 -4,-178 762,-178 762,4 -4,4"/>
<g id="clust1" class="cluster"><title>cluster_family_0</title>
</g>
<g id="clust4" class="cluster"><title>cluster_family_1</title>
</g>
<!-- union_0 -->
<g id="node1" class="node"><title>union_0</title>
<ellipse fill="#1abc9c" stroke="white" cx="501.5" cy="-80" rx="3.5" ry="3.5"/>
</g>
<!-- siblings_0 -->
<g id="node4" class="node"><title>siblings_0</title>
<polygon fill="#1abc9c" stroke="#cccccc" stroke-width="0" points="541,-80.5 534,-80.5 534,-79.5 541,-79.5 541,-80.5"/>
</g>
<!-- union_0&#45;&gt;siblings_0 -->
<g id="edge3" class="edge"><title>union_0&#45;&gt;siblings_0</title>
<path fill="none" stroke="#1abc9c" d="M505.083,-80C511.913,-80 526.732,-80 533.715,-80"/>
</g>
<!-- Wenang -->
<g id="node2" class="node"><title>Wenang</title>
<polygon fill="white" stroke="#cccccc" points="469,-125 289,-125 289,-89 469,-89 469,-125"/>
<text text-anchor="middle" x="379" y="-102.8" font-family="Helvetica, Arial, sans-serif" font-size="14.00">Wenang</text>
</g>
<!-- Wenang&#45;&gt;union_0 -->
<g id="edge1" class="edge"><title>Wenang&#45;&gt;union_0</title>
<path fill="none" stroke="#1abc9c" d="M469.038,-93.5C487.794,-93.5 502,-93.5 502,-93.5 502,-93.5 502,-87.686 502,-83.6889"/>
</g>
<!-- Saoti -->
<g id="node3" class="node"><title>Saoti</title>
<polygon fill="white" stroke="#cccccc" points="469,-71 289,-71 289,-35 469,-35 469,-71"/>
<text text-anchor="middle" x="379" y="-48.8" font-family="Helvetica, Arial, sans-serif" font-size="14.00">Saoti</text>
</g>
<!-- Saoti&#45;&gt;union_0 -->
<g id="edge2" class="edge"><title>Saoti&#45;&gt;union_0</title>
<path fill="none" stroke="#1abc9c" d="M469.038,-66.5C487.794,-66.5 502,-66.5 502,-66.5 502,-66.5 502,-72.314 502,-76.3111"/>
</g>
<!-- Tunggal -->
<g id="node5" class="node"><title>Tunggal</title>
<polygon fill="white" stroke="#cccccc" points="750,-44 570,-44 570,-8 750,-8 750,-44"/>
<text text-anchor="middle" x="660" y="-21.8" font-family="Helvetica, Arial, sans-serif" font-size="14.00">Tunggal</text>
</g>
<!-- siblings_0&#45;&gt;Tunggal -->
<g id="edge4" class="edge"><title>siblings_0&#45;&gt;Tunggal</title>
<path fill="none" stroke="#1abc9c" d="M538,-79.297C538,-73.9191 538,-39.5 538,-39.5 538,-39.5 559.736,-39.5 559.736,-39.5"/>
<polygon fill="#1abc9c" stroke="#1abc9c" points="567.735,-29.5 567.736,-49.5 563.736,-49.5001 563.735,-29.5001 567.735,-29.5"/>
<polyline fill="none" stroke="#1abc9c" points="569.736,-39.5 559.736,-39.5001 "/>
</g>
<!-- Wening -->
<g id="node6" class="node"><title>Wening</title>
<polygon fill="white" stroke="#cccccc" points="750,-98 570,-98 570,-62 750,-62 750,-98"/>
<text text-anchor="middle" x="660" y="-75.8" font-family="Helvetica, Arial, sans-serif" font-size="14.00">Wening</text>
</g>
<!-- siblings_0&#45;&gt;Wening -->
<g id="edge5" class="edge"><title>siblings_0&#45;&gt;Wening</title>
<path fill="none" stroke="#1abc9c" d="M541.034,-80C541.034,-80 559.811,-80 559.811,-80"/>
<polygon fill="#1abc9c" stroke="#1abc9c" points="567.81,-70 567.811,-90 563.811,-90.0001 563.81,-70.0001 567.81,-70"/>
<polyline fill="none" stroke="#1abc9c" points="569.811,-80 559.811,-80.0001 "/>
</g>
<!-- Suyati -->
<g id="node7" class="node"><title>Suyati</title>
<polygon fill="white" stroke="#cccccc" points="750,-152 570,-152 570,-116 750,-116 750,-152"/>
<text text-anchor="middle" x="660" y="-129.8" font-family="Helvetica, Arial, sans-serif" font-size="14.00">Suyati</text>
</g>
<!-- siblings_0&#45;&gt;Suyati -->
<g id="edge6" class="edge"><title>siblings_0&#45;&gt;Suyati</title>
<path fill="none" stroke="#1abc9c" d="M538,-80.703C538,-86.0809 538,-120.5 538,-120.5 538,-120.5 559.736,-120.5 559.736,-120.5"/>
<polygon fill="#1abc9c" stroke="#1abc9c" points="567.735,-110.5 567.736,-130.5 563.736,-130.5 563.735,-110.5 567.735,-110.5"/>
<polyline fill="none" stroke="#1abc9c" points="569.736,-120.5 559.736,-120.5 "/>
</g>
<!-- union_1 -->
<g id="node8" class="node"><title>union_1</title>
<ellipse fill="#2ecc71" stroke="white" cx="220.5" cy="-107" rx="3.5" ry="3.5"/>
</g>
<!-- siblings_1 -->
<g id="node11" class="node"><title>siblings_1</title>
<polygon fill="#2ecc71" stroke="#cccccc" stroke-width="0" points="260,-107.5 253,-107.5 253,-106.5 260,-106.5 260,-107.5"/>
</g>
<!-- union_1&#45;&gt;siblings_1 -->
<g id="edge9" class="edge"><title>union_1&#45;&gt;siblings_1</title>
<path fill="none" stroke="#2ecc71" d="M224.083,-107C230.913,-107 245.732,-107 252.715,-107"/>
</g>
<!-- Nurrasa -->
<g id="node9" class="node"><title>Nurrasa</title>
<polygon fill="white" stroke="#cccccc" points="188,-166 8,-166 8,-130 188,-130 188,-166"/>
<text text-anchor="middle" x="98" y="-143.8" font-family="Helvetica, Arial, sans-serif" font-size="14.00">Nurrasa</text>
</g>
<!-- Nurrasa&#45;&gt;union_1 -->
<g id="edge7" class="edge"><title>Nurrasa&#45;&gt;union_1</title>
<path fill="none" stroke="#2ecc71" d="M188.038,-141C206.794,-141 221,-141 221,-141 221,-141 221,-119.41 221,-110.639"/>
</g>
<!-- Sarwati -->
<g id="node10" class="node"><title>Sarwati</title>
<polygon fill="white" stroke="#cccccc" points="188,-112 8,-112 8,-76 188,-76 188,-112"/>
<text text-anchor="middle" x="98" y="-89.8" font-family="Helvetica, Arial, sans-serif" font-size="14.00">Sarwati</text>
</g>
<!-- Sarwati&#45;&gt;union_1 -->
<g id="edge8" class="edge"><title>Sarwati&#45;&gt;union_1</title>
<path fill="none" stroke="#2ecc71" d="M188.315,-107C200.938,-107 211.417,-107 216.733,-107"/>
</g>
<!-- siblings_1&#45;&gt;Wenang -->
<g id="edge10" class="edge"><title>siblings_1&#45;&gt;Wenang</title>
<path fill="none" stroke="#2ecc71" d="M260.034,-107C260.034,-107 278.811,-107 278.811,-107"/>
<polygon fill="#2ecc71" stroke="#2ecc71" points="286.81,-97 286.811,-117 282.811,-117 282.81,-97.0001 286.81,-97"/>
<polyline fill="none" stroke="#2ecc71" points="288.811,-107 278.811,-107 "/>
</g>
</g>
</svg>
