<?xml version="1.0" encoding="UTF-8" standalone="no"?>
<!DOCTYPE svg PUBLIC "-//W3C//DTD SVG 1.1//EN"
 "http://www.w3.org/Graphics/SVG/1.1/DTD/svg11.dtd">
<!-- Generated by graphviz version 2.38.0 (20140413.2041)
 -->
<!-- Title: G Pages: 1 -->
<svg width="766pt" height="311pt"
 viewBox="0.00 0.00 766.00 311.00" xmlns="http://www.w3.org/2000/svg" xmlns:xlink="http://www.w3.org/1999/xlink">
<g id="graph0" class="graph" transform="scale(1 1) rotate(0) translate(4 307)">
<title>G</title>
<polygon fill="white" stroke="none" points="-4,4 -4,-307 762,-307 762,4 -4,4"/>
<g id="clust1" class="cluster"><title>cluster_family_0</title>
</g>
<g id="clust4" class="cluster"><title>cluster_family_1</title>
</g>
<g id="clust7" class="cluster"><title>cluster_family_2</title>
</g>
<g id="clust10" class="cluster"><title>cluster_family_3</title>
</g>
<g id="clust13" class="cluster"><title>cluster_family_4</title>
</g>
<g id="clust16" class="cluster"><title>cluster_family_5</title>
</g>
<!-- union_0 -->
<g id="node1" class="node"><title>union_0</title>
<ellipse fill="#1abc9c" stroke="white" cx="501.5" cy="-196" rx="3.5" ry="3.5"/>
</g>
<!-- siblings_0 -->
<g id="node4" class="node"><title>siblings_0</title>
<polygon fill="#1abc9c" stroke="#cccccc" stroke-width="0" points="541,-196.5 534,-196.5 534,-195.5 541,-195.5 541,-196.5"/>
</g>
<!-- union_0&#45;&gt;siblings_0 -->
<g id="edge3" class="edge"><title>union_0&#45;&gt;siblings_0</title>
<path fill="none" stroke="#1abc9c" d="M505.083,-196C511.913,-196 526.732,-196 533.715,-196"/>
</g>
<!-- Werkudara -->
<g id="node2" class="node"><title>Werkudara</title>
<polygon fill="white" stroke="#cccccc" points="469,-187 289,-187 289,-151 469,-151 469,-187"/>
<text text-anchor="middle" x="379" y="-164.8" font-family="Helvetica, Arial, sans-serif" font-size="14.00">Werkudara</text>
</g>
<!-- Werkudara&#45;&gt;union_0 -->
<g id="edge1" class="edge"><title>Werkudara&#45;&gt;union_0</title>
<path fill="none" stroke="#1abc9c" d="M469.116,-184C488.348,-184 503,-184 503,-184 503,-184 503,-189.168 503,-192.721"/>
</g>
<!-- union_1 -->
<g id="node6" class="node"><title>union_1</title>
<ellipse fill="#2ecc71" stroke="white" cx="501.5" cy="-277" rx="3.5" ry="3.5"/>
</g>
<!-- Werkudara&#45;&gt;union_1 -->
<g id="edge5" class="edge"><title>Werkudara&#45;&gt;union_1</title>
<path fill="none" stroke="#2ecc71" d="M469.4,-181C478.232,-181 484,-181 484,-181 484,-181 484,-275.833 484,-275.833 484,-275.833 493.041,-275.833 498.126,-275.833"/>
</g>
<!-- union_2 -->
<g id="node10" class="node"><title>union_2</title>
<ellipse fill="#3498db" stroke="white" cx="501.5" cy="-103" rx="3.5" ry="3.5"/>
</g>
<!-- Werkudara&#45;&gt;union_2 -->
<g id="edge9" class="edge"><title>Werkudara&#45;&gt;union_2</title>
<path fill="none" stroke="#3498db" d="M469.264,-164.5C487.391,-164.5 501,-164.5 501,-164.5 501,-164.5 501,-119.903 501,-106.663"/>
</g>
<!-- Arimbi -->
<g id="node3" class="node"><title>Arimbi</title>
<polygon fill="white" stroke="#cccccc" points="469,-241 289,-241 289,-205 469,-205 469,-241"/>
<text text-anchor="middle" x="379" y="-218.8" font-family="Helvetica, Arial, sans-serif" font-size="14.00">Arimbi</text>
</g>
<!-- Arimbi&#45;&gt;union_0 -->
<g id="edge2" class="edge"><title>Arimbi&#45;&gt;union_0</title>
<path fill="none" stroke="#1abc9c" d="M469.038,-209.5C487.794,-209.5 502,-209.5 502,-209.5 502,-209.5 502,-203.686 502,-199.689"/>
</g>
<!-- Gatotkaca -->
<g id="node5" class="node"><title>Gatotkaca</title>
<polygon fill="white" stroke="#cccccc" points="750,-214 570,-214 570,-178 750,-178 750,-214"/>
<text text-anchor="middle" x="660" y="-191.8" font-family="Helvetica, Arial, sans-serif" font-size="14.00">Gatotkaca</text>
</g>
<!-- siblings_0&#45;&gt;Gatotkaca -->
<g id="edge4" class="edge"><title>siblings_0&#45;&gt;Gatotkaca</title>
<path fill="none" stroke="#1abc9c" d="M541.034,-196C541.034,-196 559.811,-196 559.811,-196"/>
<polygon fill="#1abc9c" stroke="#1abc9c" points="567.81,-186 567.811,-206 563.811,-206 563.81,-186 567.81,-186"/>
<polyline fill="none" stroke="#1abc9c" points="569.811,-196 559.811,-196 "/>
</g>
<!-- siblings_1 -->
<g id="node8" class="node"><title>siblings_1</title>
<polygon fill="#2ecc71" stroke="#cccccc" stroke-width="0" points="541,-277.5 534,-277.5 534,-276.5 541,-276.5 541,-277.5"/>
</g>
<!-- union_1&#45;&gt;siblings_1 -->
<g id="edge7" class="edge"><title>union_1&#45;&gt;siblings_1</title>
<path fill="none" stroke="#2ecc71" d="M505.083,-277C511.913,-277 526.732,-277 533.715,-277"/>
</g>
<!-- Urangayu -->
<g id="node7" class="node"><title>Urangayu</title>
<polygon fill="white" stroke="#cccccc" points="469,-295 289,-295 289,-259 469,-259 469,-295"/>
<text text-anchor="middle" x="379" y="-272.8" font-family="Helvetica, Arial, sans-serif" font-size="14.00">Urangayu</text>
</g>
<!-- Urangayu&#45;&gt;union_1 -->
<g id="edge6" class="edge"><title>Urangayu&#45;&gt;union_1</title>
<path fill="none" stroke="#2ecc71" d="M469.315,-278.167C482.225,-278.167 492.892,-278.167 498.088,-278.167"/>
</g>
<!-- Antasena -->
<g id="node9" class="node"><title>Antasena</title>
<polygon fill="white" stroke="#cccccc" points="750,-295 570,-295 570,-259 750,-259 750,-295"/>
<text text-anchor="middle" x="660" y="-272.8" font-family="Helvetica, Arial, sans-serif" font-size="14.00">Antasena</text>
</g>
<!-- siblings_1&#45;&gt;Antasena -->
<g id="edge8" class="edge"><title>siblings_1&#45;&gt;Antasena</title>
<path fill="none" stroke="#2ecc71" d="M541.034,-277C541.034,-277 559.811,-277 559.811,-277"/>
<polygon fill="#2ecc71" stroke="#2ecc71" points="567.81,-267 567.811,-287 563.811,-287 563.81,-267 567.81,-267"/>
<polyline fill="none" stroke="#2ecc71" points="569.811,-277 559.811,-277 "/>
</g>
<!-- siblings_2 -->
<g id="node12" class="node"><title>siblings_2</title>
<polygon fill="#3498db" stroke="#cccccc" stroke-width="0" points="541,-103.5 534,-103.5 534,-102.5 541,-102.5 541,-103.5"/>
</g>
<!-- union_2&#45;&gt;siblings_2 -->
<g id="edge11" class="edge"><title>union_2&#45;&gt;siblings_2</title>
<path fill="none" stroke="#3498db" d="M505.083,-103C511.913,-103 526.732,-103 533.715,-103"/>
</g>
<!-- Nagagini -->
<g id="node11" class="node"><title>Nagagini</title>
<polygon fill="white" stroke="#cccccc" points="469,-121 289,-121 289,-85 469,-85 469,-121"/>
<text text-anchor="middle" x="379" y="-98.8" font-family="Helvetica, Arial, sans-serif" font-size="14.00">Nagagini</text>
</g>
<!-- Nagagini&#45;&gt;union_2 -->
<g id="edge10" class="edge"><title>Nagagini&#45;&gt;union_2</title>
<path fill="none" stroke="#3498db" d="M469.315,-103C481.938,-103 492.417,-103 497.733,-103"/>
</g>
<!-- Antareja -->
<g id="node13" class="node"><title>Antareja</title>
<polygon fill="white" stroke="#cccccc" points="750,-121 570,-121 570,-85 750,-85 750,-121"/>
<text text-anchor="middle" x="660" y="-98.8" font-family="Helvetica, Arial, sans-serif" font-size="14.00">Antareja</text>
</g>
<!-- siblings_2&#45;&gt;Antareja -->
<g id="edge12" class="edge"><title>siblings_2&#45;&gt;Antareja</title>
<path fill="none" stroke="#3498db" d="M541.034,-103C541.034,-103 559.811,-103 559.811,-103"/>
<polygon fill="#3498db" stroke="#3498db" points="567.81,-93 567.811,-113 563.811,-113 563.81,-93.0001 567.81,-93"/>
<polyline fill="none" stroke="#3498db" points="569.811,-103 559.811,-103 "/>
</g>
<!-- union_3 -->
<g id="node14" class="node"><title>union_3</title>
<ellipse fill="#9b59b6" stroke="white" cx="220.5" cy="-169" rx="3.5" ry="3.5"/>
</g>
<!-- siblings_3 -->
<g id="node17" class="node"><title>siblings_3</title>
<polygon fill="#9b59b6" stroke="#cccccc" stroke-width="0" points="260,-169.5 253,-169.5 253,-168.5 260,-168.5 260,-169.5"/>
</g>
<!-- union_3&#45;&gt;siblings_3 -->
<g id="edge15" class="edge"><title>union_3&#45;&gt;siblings_3</title>
<path fill="none" stroke="#9b59b6" d="M224.083,-169C230.913,-169 245.732,-169 252.715,-169"/>
</g>
<!-- Bayu (Pandu) -->
<g id="node15" class="node"><title>Bayu (Pandu)</title>
<polygon fill="white" stroke="#cccccc" points="188,-206 8,-206 8,-170 188,-170 188,-206"/>
<text text-anchor="middle" x="98" y="-183.8" font-family="Helvetica, Arial, sans-serif" font-size="14.00">Bayu (Pandu)</text>
</g>
<!-- Bayu (Pandu)&#45;&gt;union_3 -->
<g id="edge13" class="edge"><title>Bayu (Pandu)&#45;&gt;union_3</title>
<path fill="none" stroke="#9b59b6" d="M188.038,-179.75C206.794,-179.75 221,-179.75 221,-179.75 221,-179.75 221,-175.96 221,-172.881"/>
</g>
<!-- Kuni -->
<g id="node16" class="node"><title>Kuni</title>
<polygon fill="white" stroke="#cccccc" points="188,-152 8,-152 8,-116 188,-116 188,-152"/>
<text text-anchor="middle" x="98" y="-129.8" font-family="Helvetica, Arial, sans-serif" font-size="14.00">Kuni</text>
</g>
<!-- Kuni&#45;&gt;union_3 -->
<g id="edge14" class="edge"><title>Kuni&#45;&gt;union_3</title>
<path fill="none" stroke="#9b59b6" d="M188.038,-136C206.794,-136 221,-136 221,-136 221,-136 221,-156.955 221,-165.468"/>
</g>
<!-- siblings_3&#45;&gt;Werkudara -->
<g id="edge16" class="edge"><title>siblings_3&#45;&gt;Werkudara</title>
<path fill="none" stroke="#9b59b6" d="M260.034,-169C260.034,-169 278.811,-169 278.811,-169"/>
<polygon fill="#9b59b6" stroke="#9b59b6" points="286.81,-159 286.811,-179 282.811,-179 282.81,-159 286.81,-159"/>
<polyline fill="none" stroke="#9b59b6" points="288.811,-169 278.811,-169 "/>
</g>
<!-- union_4 -->
<g id="node18" class="node"><title>union_4</title>
<ellipse fill="#34495e" stroke="white" cx="220.5" cy="-235" rx="3.5" ry="3.5"/>
</g>
<!-- siblings_4 -->
<g id="node20" class="node"><title>siblings_4</title>
<polygon fill="#34495e" stroke="#cccccc" stroke-width="0" points="260,-235.5 253,-235.5 253,-234.5 260,-234.5 260,-235.5"/>
</g>
<!-- union_4&#45;&gt;siblings_4 -->
<g id="edge18" class="edge"><title>union_4&#45;&gt;siblings_4</title>
<path fill="none" stroke="#34495e" d="M224.083,-235C230.913,-235 245.732,-235 252.715,-235"/>
</g>
<!-- Arimbaka -->
<g id="node19" class="node"><title>Arimbaka</title>
<polygon fill="white" stroke="#cccccc" points="188,-260 8,-260 8,-224 188,-224 188,-260"/>
<text text-anchor="middle" x="98" y="-237.8" font-family="Helvetica, Arial, sans-serif" font-size="14.00">Arimbaka</text>
</g>
<!-- Arimbaka&#45;&gt;union_4 -->
<g id="edge17" class="edge"><title>Arimbaka&#45;&gt;union_4</title>
<path fill="none" stroke="#34495e" d="M188.315,-235C200.938,-235 211.417,-235 216.733,-235"/>
</g>
<!-- siblings_4&#45;&gt;Arimbi -->
<g id="edge19" class="edge"><title>siblings_4&#45;&gt;Arimbi</title>
<path fill="none" stroke="#34495e" d="M260.034,-235C260.034,-235 278.811,-235 278.811,-235"/>
<polygon fill="#34495e" stroke="#34495e" points="286.81,-225 286.811,-245 282.811,-245 282.81,-225 286.81,-225"/>
<polyline fill="none" stroke="#34495e" points="288.811,-235 278.811,-235 "/>
</g>
<!-- union_5 -->
<g id="node21" class="node"><title>union_5</title>
<ellipse fill="#f1c40f" stroke="white" cx="220.5" cy="-80" rx="3.5" ry="3.5"/>
</g>
<!-- siblings_5 -->
<g id="node24" class="node"><title>siblings_5</title>
<polygon fill="#f1c40f" stroke="#cccccc" stroke-width="0" points="260,-80.5 253,-80.5 253,-79.5 260,-79.5 260,-80.5"/>
</g>
<!-- union_5&#45;&gt;siblings_5 -->
<g id="edge22" class="edge"><title>union_5&#45;&gt;siblings_5</title>
<path fill="none" stroke="#f1c40f" d="M224.083,-80C230.913,-80 245.732,-80 252.715,-80"/>
</g>
<!-- Supreti -->
<g id="node22" class="node"><title>Supreti</title>
<polygon fill="white" stroke="#cccccc" points="188,-98 8,-98 8,-62 188,-62 188,-98"/>
<text text-anchor="middle" x="98" y="-75.8" font-family="Helvetica, Arial, sans-serif" font-size="14.00">Supreti</text>
</g>
<!-- Supreti&#45;&gt;union_5 -->
<g id="edge20" class="edge"><title>Supreti&#45;&gt;union_5</title>
<path fill="none" stroke="#f1c40f" d="M188.315,-80C200.938,-80 211.417,-80 216.733,-80"/>
</g>
<!-- Antaboga -->
<g id="node23" class="node"><title>Antaboga</title>
<polygon fill="white" stroke="#cccccc" points="188,-44 8,-44 8,-8 188,-8 188,-44"/>
<text text-anchor="middle" x="98" y="-21.8" font-family="Helvetica, Arial, sans-serif" font-size="14.00">Antaboga</text>
</g>
<!-- Antaboga&#45;&gt;union_5 -->
<g id="edge21" class="edge"><title>Antaboga&#45;&gt;union_5</title>
<path fill="none" stroke="#f1c40f" d="M188.038,-26C206.794,-26 221,-26 221,-26 221,-26 221,-64.4434 221,-76.4569"/>
</g>
<!-- siblings_5&#45;&gt;Nagagini -->
<g id="edge23" class="edge"><title>siblings_5&#45;&gt;Nagagini</title>
<path fill="none" stroke="#f1c40f" d="M257,-80.7545C257,-83.313 257,-91.5 257,-91.5 257,-91.5 278.736,-91.5 278.736,-91.5"/>
<polygon fill="#f1c40f" stroke="#f1c40f" points="286.735,-81.5 286.736,-101.5 282.736,-101.5 282.735,-81.5001 286.735,-81.5"/>
<polyline fill="none" stroke="#f1c40f" points="288.736,-91.5 278.736,-91.5001 "/>
</g>
</g>
</svg>
